<svg width="53" height="53" viewBox="0 0 53 53" fill="none" xmlns="http://www.w3.org/2000/svg">
<path d="M0.860941 26.5597C0.860941 12.3798 12.356 0.884745 26.5359 0.884745C40.7158 0.884745 52.2109 12.3798 52.2109 26.5597C52.2109 40.7397 40.7158 52.2347 26.5359 52.2347C12.356 52.2347 0.860941 40.7397 0.860941 26.5597Z" fill="#1D202D"/>
<path d="M24.6214 26.5567L30.9984 20.1887C31.11 20.0771 31.1986 19.9446 31.259 19.7988C31.3194 19.6529 31.3505 19.4966 31.3505 19.3387C31.3505 19.1809 31.3194 19.0246 31.259 18.8787C31.1986 18.7329 31.11 18.6004 30.9984 18.4887C30.8868 18.3771 30.7543 18.2886 30.6084 18.2282C30.4626 18.1678 30.3063 18.1367 30.1484 18.1367C29.9905 18.1367 29.8342 18.1678 29.6884 18.2282C29.5425 18.2886 29.41 18.3771 29.2984 18.4887L22.0724 25.7047C21.8537 25.9236 21.728 26.2184 21.7215 26.5277C21.7149 26.837 21.8281 27.1369 22.0374 27.3647L29.2884 34.6307C29.5138 34.8562 29.8196 34.9828 30.1384 34.9828C30.4572 34.9828 30.763 34.8562 30.9884 34.6307C31.2138 34.4053 31.3405 34.0996 31.3405 33.7807C31.3405 33.4619 31.2138 33.1562 30.9884 32.9307L24.6214 26.5567Z" fill="white"/>
</svg>
