<svg width="52" height="52" viewBox="0 0 52 52" fill="none" xmlns="http://www.w3.org/2000/svg">
<g opacity="0.5">
<path opacity="0.5" d="M25.675 51.31C39.5788 51.31 50.85 40.0387 50.85 26.135C50.85 12.2312 39.5788 0.959961 25.675 0.959961C11.7712 0.959961 0.5 12.2312 0.5 26.135C0.5 40.0387 11.7712 51.31 25.675 51.31Z" stroke="#1D202D"/>
</g>
<path d="M23.5859 25.9969L29.9599 19.6279C30.1853 19.4025 30.312 19.0968 30.312 18.7779C30.312 18.4591 30.1853 18.1534 29.9599 17.9279C29.7344 17.7025 29.4287 17.5759 29.1099 17.5759C28.7911 17.5759 28.4853 17.7025 28.2599 17.9279L21.0319 25.1439C20.8132 25.3628 20.6875 25.6576 20.6809 25.9669C20.6744 26.2762 20.7876 26.5761 20.9969 26.8039L28.2479 34.0699C28.3595 34.1816 28.492 34.2701 28.6379 34.3305C28.7837 34.3909 28.94 34.422 29.0979 34.422C29.2557 34.422 29.412 34.3909 29.5579 34.3305C29.7037 34.2701 29.8363 34.1816 29.9479 34.0699C30.0595 33.9583 30.148 33.8258 30.2085 33.68C30.2689 33.5341 30.3 33.3778 30.3 33.2199C30.3 33.0621 30.2689 32.9058 30.2085 32.7599C30.148 32.6141 30.0595 32.4816 29.9479 32.3699L23.5859 25.9969Z" fill="#1D202D"/>
</svg>
