<svg width="88" height="88" viewBox="0 0 88 88" fill="none" xmlns="http://www.w3.org/2000/svg">
<path d="M4 0H84C85.0609 0 86.0783 0.421427 86.8284 1.17157C87.5786 1.92172 88 2.93913 88 4V84C88 85.0609 87.5786 86.0783 86.8284 86.8284C86.0783 87.5786 85.0609 88 84 88H4C2.93913 88 1.92172 87.5786 1.17157 86.8284C0.421427 86.0783 0 85.0609 0 84V4C0 2.93913 0.421427 1.92172 1.17157 1.17157C1.92172 0.421427 2.93913 0 4 0V0Z" fill="#FDFAF6"/>
<path d="M15.1781 28.3642C15.9492 19.9465 31.3098 10.268 33.2347 22.6703C35.6904 38.4916 48.6113 49.0564 54.365 34.928C59.4388 22.4694 70.1627 28.8349 72.1668 38.6911C75.8819 56.9622 64.2096 77.4083 44.3749 65.7417C36.9635 61.3823 31.893 73.2742 25.3552 70.8375C13.6855 66.488 26.4192 58.7602 21.8935 42.9058C21.2396 40.6155 14.6446 34.1901 15.1781 28.3642V28.3642Z" fill="url(#paint0_linear)"/>
<path opacity="0.1" d="M69.2705 65.8298H67.261V59.4579C67.261 58.8354 66.7564 58.3308 66.134 58.3308H61.4389C60.8164 58.3308 60.3118 58.8354 60.3118 59.4579V65.8298H57.3962V50.9358C57.3962 50.3133 56.8916 49.8087 56.2692 49.8087H51.5741C50.9516 49.8087 50.447 50.3133 50.447 50.9358V52.1462C50.1725 52.1073 49.8777 52.2036 49.6839 52.4633L47.5315 55.3477V42.4136C47.5315 41.7912 47.027 41.2866 46.4045 41.2866H41.7094C41.0869 41.2866 40.5823 41.7912 40.5823 42.4136V50.496L37.6667 47.5804V33.8914C37.6667 33.2689 37.1622 32.7643 36.5397 32.7643H31.8446C31.2221 32.7643 30.7175 33.2689 30.7175 33.8914V40.6311L27.8019 37.7155V25.3692C27.8019 24.7468 27.2974 24.2422 26.6749 24.2422H21.9797C21.3572 24.2422 20.8526 24.7468 20.8526 25.3692V65.8298H18.73C18.4189 65.8298 18.1665 66.0822 18.1665 66.3934C18.1665 66.7045 18.4189 66.9569 18.73 66.9569H36.8006C36.8308 66.9679 36.8615 66.9786 36.894 66.9865L54.3736 71.2164C54.963 71.3595 55.4961 70.8264 55.353 70.237L54.5592 66.9569H69.2705C69.5816 66.9569 69.834 66.7045 69.834 66.3934C69.834 66.0822 69.5818 65.8298 69.2705 65.8298V65.8298ZM30.7174 65.8298H27.8018V49.6154L30.7174 52.5311V65.8298ZM40.5822 62.5748L37.6666 64.751V59.4808L40.5822 62.3965V62.5748Z" fill="#313131"/>
<path d="M60.312 63.6885H67.2612V56.753C67.2612 56.1306 66.7566 55.626 66.1342 55.626H61.4391C60.8166 55.626 60.312 56.1306 60.312 56.753V63.6885Z" fill="#F9F1E5"/>
<path d="M50.4473 63.6887H57.3965V48.2311C57.3965 47.6086 56.8919 47.104 56.2694 47.104H51.5743C50.9518 47.104 50.4473 47.6086 50.4473 48.2311V63.6887Z" fill="#F9F1E5"/>
<path d="M40.5825 63.6878H47.5317V39.7081C47.5317 39.0856 47.0271 38.5811 46.4047 38.5811H41.7096C41.0871 38.5811 40.5825 39.0856 40.5825 39.7081V63.6878Z" fill="#F9F1E5"/>
<path d="M37.6666 31.1866V63.6887H30.7183V31.1866C30.7183 30.5634 31.2221 30.0596 31.8453 30.0596H36.5395C37.1628 30.0596 37.6666 30.5634 37.6666 31.1866Z" fill="#F9F1E5"/>
<path d="M27.8025 22.6637V63.6886H20.853V22.6637C20.853 22.0415 21.3579 21.5366 21.9801 21.5366H26.6754C27.2975 21.5366 27.8025 22.0415 27.8025 22.6637V22.6637Z" fill="#F9F1E5"/>
<path d="M54.374 68.5111L36.8944 64.2813C36.2261 64.1201 36.0491 63.2534 36.6003 62.842L40.6847 59.7933L20.853 39.9605V28.061L46.6356 53.8436L49.6843 49.758C50.0957 49.2069 50.9624 49.3838 51.1236 50.0522L55.3534 67.5317C55.4965 68.1212 54.9634 68.6543 54.374 68.5111V68.5111Z" fill="#585972"/>
<path d="M69.2696 63.1248H67.8242V56.7524C67.8242 55.8202 67.0658 55.0618 66.1336 55.0618H61.4385C60.5064 55.0618 59.748 55.8202 59.748 56.7524V63.1248H57.9595V48.2307C57.9595 47.2985 57.2011 46.5401 56.269 46.5401H51.5736C50.6414 46.5401 49.883 47.2985 49.883 48.2307V48.9421C49.629 49.0301 49.4018 49.193 49.2318 49.4208L48.0946 50.9448V39.7081C48.0946 38.7759 47.3362 38.0175 46.404 38.0175H41.7089C40.7768 38.0175 40.0184 38.7759 40.0184 39.7081V44.5124C40.0184 44.8236 40.2707 45.076 40.5819 45.076C40.8931 45.076 41.1454 44.8236 41.1454 44.5124V39.7081C41.1454 39.3974 41.3982 39.1446 41.7089 39.1446H46.404C46.7148 39.1446 46.9676 39.3974 46.9676 39.7081V52.4551L46.5728 52.9843L38.2293 44.6408V31.1862C38.2293 30.254 37.4709 29.4956 36.5387 29.4956H31.8445C30.9123 29.4956 30.1539 30.254 30.1539 31.1862V36.5655L28.3649 34.7766V22.6637C28.3649 21.7315 27.6065 20.9731 26.6743 20.9731H21.9792C21.047 20.9731 20.2886 21.7315 20.2886 22.6637V28.0605V28.0609V63.1248H18.73C18.4189 63.1248 18.1665 63.3771 18.1665 63.6883C18.1665 63.9995 18.4189 64.2518 18.73 64.2518H35.9365C36.1236 64.5366 36.4131 64.7449 36.761 64.8288L54.24 69.0585C54.3492 69.085 54.4593 69.0981 54.5682 69.0981C54.9272 69.0981 55.2734 68.9568 55.5358 68.6945C55.8779 68.3524 56.014 67.868 55.9001 67.3989L55.1385 64.2518H69.2696C69.5807 64.2518 69.8331 63.9995 69.8331 63.6883C69.8331 63.3771 69.5807 63.1248 69.2696 63.1248V63.1248ZM60.875 56.7524C60.875 56.4417 61.1278 56.1889 61.4385 56.1889H66.1336C66.4444 56.1889 66.6972 56.4417 66.6972 56.7524V63.1243H60.875V56.7524ZM31.281 31.1862C31.281 30.8755 31.5337 30.6227 31.8445 30.6227H36.5387C36.8494 30.6227 37.1022 30.8755 37.1022 31.1862V43.5139L31.281 37.6926V31.1862ZM21.9792 22.1002H26.6743C26.9851 22.1002 27.2379 22.353 27.2379 22.6637V33.6495L21.4157 27.8272V22.6637C21.4157 22.353 21.6685 22.1002 21.9792 22.1002V22.1002ZM30.1539 50.0595V63.1248H28.3649V48.2705L30.1539 50.0595ZM37.1022 57.0081V61.7633L36.2623 62.3902C36.01 62.5785 35.8372 62.8372 35.758 63.1248H31.281V51.1866L37.1022 57.0081ZM39.825 59.731L38.2293 60.9221V58.1353L39.825 59.731ZM54.7391 67.8974C54.7023 67.9342 54.623 67.9916 54.5057 67.9631L37.0258 63.7332C36.8928 63.7012 36.8532 63.5999 36.8414 63.5426C36.8296 63.4849 36.8262 63.3758 36.9365 63.2934L41.021 60.2447C41.1521 60.1469 41.2342 59.9969 41.2459 59.8338C41.2578 59.6706 41.198 59.5103 41.0824 59.3947L23.4559 41.7671C23.2359 41.5471 22.8792 41.5471 22.659 41.7671C22.4388 41.9873 22.4388 42.3441 22.659 42.5641L27.2379 47.1433V63.1243H21.4157V29.4212L46.2362 54.2419C46.3519 54.3575 46.5124 54.417 46.6753 54.4054C46.8385 54.3937 46.9885 54.3115 47.0864 54.1803L50.1351 50.0947C50.2174 49.9844 50.3267 49.9878 50.3842 49.9996C50.4417 50.0113 50.5428 50.051 50.5749 50.1843L54.8049 67.6643C54.8334 67.7814 54.7758 67.8607 54.7391 67.8974V67.8974ZM54.866 63.1248L51.6706 49.9198C51.5786 49.5385 51.3377 49.2274 51.0101 49.0443V48.2307C51.0101 47.92 51.2629 47.6672 51.5736 47.6672H56.269C56.5797 47.6672 56.8325 47.92 56.8325 48.2307V63.1248H54.866Z" fill="#313131"/>
<path d="M38.2875 25.8195C38.1433 25.8195 37.9991 25.7645 37.889 25.6545L37.2732 25.0387L36.6573 25.6545C36.4372 25.8745 36.0805 25.8745 35.8604 25.6545C35.6403 25.4344 35.6403 25.0776 35.8604 24.8576L36.8748 23.8432C37.0949 23.6232 37.4516 23.6232 37.6717 23.8432L38.686 24.8576C38.9062 25.0777 38.9062 25.4345 38.686 25.6545C38.5759 25.7644 38.4317 25.8195 38.2875 25.8195Z" fill="#585972"/>
<path d="M48.7763 34.8078C48.632 34.8078 48.4879 34.7528 48.3778 34.6428L47.7619 34.027L47.1461 34.6428C46.926 34.8628 46.5693 34.8628 46.3492 34.6428C46.1291 34.4227 46.1291 34.0659 46.3492 33.8459L47.3635 32.8315C47.5836 32.6115 47.9403 32.6115 48.1605 32.8315L49.1748 33.8459C49.3949 34.066 49.3949 34.4228 49.1748 34.6428C49.0647 34.7527 48.9206 34.8078 48.7763 34.8078Z" fill="#585972"/>
<path d="M35.3041 68.5305C35.1599 68.5305 35.0157 68.4755 34.9056 68.3655L34.2898 67.7496L33.6739 68.3655C33.4538 68.5855 33.0971 68.5855 32.877 68.3655C32.6569 68.1453 32.6569 67.7885 32.877 67.5685L33.8914 66.5542C34.1115 66.3342 34.4682 66.3342 34.6883 66.5542L35.7026 67.5685C35.9228 67.7886 35.9228 68.1455 35.7026 68.3655C35.5925 68.4755 35.4484 68.5305 35.3041 68.5305Z" fill="#585972"/>
<path d="M62.3366 50.7418C62.1923 50.7418 62.0481 50.6868 61.938 50.5768C61.7179 50.3567 61.7179 49.9999 61.938 49.7799L63.0651 48.6528C63.2852 48.4328 63.6419 48.4328 63.862 48.6528C64.0822 48.8729 64.0822 49.2297 63.862 49.4497L62.735 50.5768C62.625 50.6868 62.4808 50.7418 62.3366 50.7418Z" fill="#585972"/>
<path d="M42.2018 35.4273C42.0575 35.4273 41.9134 35.3723 41.8033 35.2623C41.5832 35.0422 41.5832 34.6854 41.8033 34.4654L42.9303 33.3383C43.1504 33.1183 43.5072 33.1183 43.7273 33.3383C43.9474 33.5585 43.9474 33.9153 43.7273 34.1353L42.6002 35.2623C42.4902 35.3722 42.3459 35.4273 42.2018 35.4273Z" fill="#585972"/>
<defs>
<linearGradient id="paint0_linear" x1="19.1838" y1="66.2107" x2="61.3129" y2="24.0816" gradientUnits="userSpaceOnUse">
<stop stop-color="#313131" stop-opacity="0"/>
<stop offset="1" stop-color="#313131"/>
</linearGradient>
</defs>
</svg>
