<svg width="88" height="88" viewBox="0 0 88 88" fill="none" xmlns="http://www.w3.org/2000/svg">
<path d="M4 0H84C85.0609 0 86.0783 0.421427 86.8284 1.17157C87.5786 1.92172 88 2.93913 88 4V84C88 85.0609 87.5786 86.0783 86.8284 86.8284C86.0783 87.5786 85.0609 88 84 88H4C2.93913 88 1.92172 87.5786 1.17157 86.8284C0.421427 86.0783 0 85.0609 0 84V4C0 2.93913 0.421427 1.92172 1.17157 1.17157C1.92172 0.421427 2.93913 0 4 0V0Z" fill="#FDFAF6"/>
<path d="M59.2205 52.4559C46.019 47.2099 59.1379 41.9125 54.6167 36.1013C53.6678 34.8817 50.7365 34.2416 51.4747 32.3724C52.645 29.4094 58.0442 30.0288 58.8595 26.4291C60.326 19.9541 48.4283 19.1104 38.4341 20.6813C27.5523 22.3917 21.5897 27.1826 24.4267 31.2942C27.4165 35.6272 36.8892 34.2504 37.9513 38.3234C39.6041 44.6609 20.9766 47.0418 22.3639 57.0092C24.0188 68.8997 44.6814 70.7753 53.9753 67.46C57.9675 66.0359 63.528 61.523 64.0664 58.2156C64.4981 55.5638 61.7172 53.4481 59.2205 52.4559Z" fill="url(#paint0_linear)"/>
<path opacity="0.1" d="M58.6603 68.3047H27.7405C26.6851 68.3047 25.8296 67.4492 25.8296 66.3938V27.8757C25.8296 26.8203 26.6851 25.9648 27.7405 25.9648H58.6603C59.7156 25.9648 60.5711 26.8203 60.5711 27.8757V66.3938C60.5711 67.4492 59.7156 68.3047 58.6603 68.3047Z" fill="#313131"/>
<path d="M58.6608 66.0117H27.7409C26.6856 66.0117 25.8301 65.1562 25.8301 64.1008V25.5827C25.8301 24.5274 26.6856 23.6719 27.7409 23.6719H58.6608C59.7161 23.6719 60.5716 24.5274 60.5716 25.5827V64.1008C60.5716 65.1562 59.716 66.0117 58.6608 66.0117Z" fill="#5E5F6A"/>
<path d="M58.6602 25.583V64.1011H27.7403V25.583H58.6602Z" fill="#F9F1E5"/>
<path d="M27.7407 54.1938H58.6605V64.1007H27.7407V54.1938Z" fill="#5E5F6A"/>
<path d="M33.8465 45.736H31.9479C31.6841 45.736 31.4702 45.522 31.4702 45.2582V37.8683C31.4702 37.6045 31.6841 37.3906 31.9479 37.3906H33.8465C34.1103 37.3906 34.3242 37.6045 34.3242 37.8683V45.2582C34.3242 45.522 34.1103 45.736 33.8465 45.736Z" fill="white"/>
<path d="M33.8465 45.7358H31.9479C31.6841 45.7358 31.4702 45.5219 31.4702 45.2581V43.6606H34.3242V45.2581C34.3242 45.5219 34.1103 45.7358 33.8465 45.7358Z" fill="#5E5F6A"/>
<path d="M38.5164 45.736H36.6179C36.3541 45.736 36.1401 45.5221 36.1401 45.2583V41.6901C36.1401 41.4263 36.3541 41.2124 36.6179 41.2124H38.5164C38.7802 41.2124 38.9941 41.4263 38.9941 41.6901V45.2583C38.9941 45.5221 38.7803 45.736 38.5164 45.736Z" fill="#5E5F6A"/>
<path d="M38.5159 45.7358H36.6174C36.3536 45.7358 36.1396 45.5219 36.1396 45.2581V43.6606H38.9936V45.2581C38.9936 45.5219 38.7798 45.7358 38.5159 45.7358Z" fill="white"/>
<path d="M47.8548 45.736H45.9562C45.6924 45.736 45.4785 45.522 45.4785 45.2582V37.8683C45.4785 37.6045 45.6924 37.3906 45.9562 37.3906H47.8548C48.1186 37.3906 48.3325 37.6045 48.3325 37.8683V45.2582C48.3325 45.522 48.1186 45.736 47.8548 45.736Z" fill="#5E5F6A"/>
<path d="M47.8548 45.7358H45.9562C45.6924 45.7358 45.4785 45.5219 45.4785 45.2581V43.6606H48.3325V45.2581C48.3325 45.5219 48.1186 45.7358 47.8548 45.7358Z" fill="white"/>
<path d="M43.1853 41.9141H41.2868C41.023 41.9141 40.8091 41.7002 40.8091 41.4364V30.2248C40.8091 29.961 41.023 29.7471 41.2868 29.7471H43.1853C43.4491 29.7471 43.6631 29.961 43.6631 30.2248V41.4364C43.6631 41.7002 43.4492 41.9141 43.1853 41.9141Z" fill="white"/>
<path d="M43.1853 41.9141H41.2868C41.023 41.9141 40.8091 41.7001 40.8091 41.4364V39.8389H43.6631V41.4364C43.6631 41.7001 43.4491 41.9141 43.1853 41.9141Z" fill="#5E5F6A"/>
<path d="M56.1876 31.6459H52.9186C52.6548 31.6459 52.4409 31.432 52.4409 31.1682V29.4875C52.4409 29.2237 52.6548 29.0098 52.9186 29.0098H56.1876C56.4514 29.0098 56.6654 29.2237 56.6654 29.4875V31.1682C56.6654 31.4321 56.4514 31.6459 56.1876 31.6459Z" fill="#5E5F6A"/>
<path d="M56.1876 36.1928H52.9186C52.6548 36.1928 52.4409 35.9789 52.4409 35.7151V34.0344C52.4409 33.7706 52.6548 33.5566 52.9186 33.5566H56.1876C56.4514 33.5566 56.6654 33.7706 56.6654 34.0344V35.7151C56.6654 35.9789 56.4514 36.1928 56.1876 36.1928Z" fill="#5E5F6A"/>
<path d="M56.1876 40.7402H52.9186C52.6548 40.7402 52.4409 40.5263 52.4409 40.2625V38.5817C52.4409 38.3179 52.6548 38.104 52.9186 38.104H56.1876C56.4514 38.104 56.6654 38.3179 56.6654 38.5817V40.2624C56.6654 40.5263 56.4514 40.7402 56.1876 40.7402Z" fill="#5E5F6A"/>
<path d="M56.1876 44.5227H52.9186C52.6548 44.5227 52.4409 44.3087 52.4409 44.045V43.1286C52.4409 42.8648 52.6548 42.6509 52.9186 42.6509H56.1876C56.4514 42.6509 56.6654 42.8648 56.6654 43.1286V44.045C56.6654 44.3087 56.4514 44.5227 56.1876 44.5227Z" fill="#5E5F6A"/>
<path d="M56.1876 48.2707H52.9186C52.6548 48.2707 52.4409 48.0568 52.4409 47.793V46.8766C52.4409 46.6128 52.6548 46.3989 52.9186 46.3989H56.1876C56.4514 46.3989 56.6654 46.6128 56.6654 46.8766V47.793C56.6654 48.0568 56.4514 48.2707 56.1876 48.2707Z" fill="#5E5F6A"/>
<path d="M34.9379 28.1685H30.9471C30.7361 28.1685 30.5649 28.3396 30.5649 28.5506V30.4115C30.5649 30.6226 30.7361 30.7937 30.9471 30.7937H34.9379C35.0763 30.7937 35.2061 30.7266 35.2862 30.6138L35.9151 29.7285C36.0204 29.5803 36.0204 29.3818 35.9151 29.2336L35.2862 28.3483C35.2061 28.2355 35.0762 28.1685 34.9379 28.1685Z" fill="#5E5F6A"/>
<path d="M58.6605 23.1938H52.677C52.4131 23.1938 52.1992 23.4078 52.1992 23.6716C52.1992 23.9354 52.4131 24.1493 52.677 24.1493H58.6605C59.4507 24.1493 60.0936 24.7922 60.0936 25.5824V64.1005C60.0936 64.8908 59.4507 65.5337 58.6605 65.5337H27.7406C26.9504 65.5337 26.3075 64.8908 26.3075 64.1005V50.3668C26.3075 50.1031 26.0936 49.8891 25.8298 49.8891C25.566 49.8891 25.3521 50.1031 25.3521 50.3668V64.1006C25.3521 65.4177 26.4236 66.4892 27.7406 66.4892H58.6605C59.9775 66.4892 61.049 65.4177 61.049 64.1006V25.5824C61.049 24.2654 59.9775 23.1938 58.6605 23.1938Z" fill="#313131"/>
<path d="M25.8298 48.0642C26.0936 48.0642 26.3075 47.8502 26.3075 47.5864V25.5824C26.3075 24.7922 26.9504 24.1493 27.7406 24.1493H49.8967C50.1605 24.1493 50.3744 23.9354 50.3744 23.6716C50.3744 23.4078 50.1605 23.1938 49.8967 23.1938H27.7406C26.4236 23.1938 25.3521 24.2654 25.3521 25.5824V47.5864C25.3521 47.8502 25.5659 48.0642 25.8298 48.0642Z" fill="#313131"/>
<path d="M32.8973 35.0293C32.6335 35.0293 32.4196 35.2432 32.4196 35.507V36.9127H31.9481C31.4213 36.9127 30.9927 37.3413 30.9927 37.8682V45.2581C30.9927 45.7849 31.4213 46.2135 31.9481 46.2135H32.4196V47.6192C32.4196 47.883 32.6335 48.0969 32.8973 48.0969C33.1611 48.0969 33.375 47.883 33.375 47.6192V46.2135H33.8467C34.3735 46.2135 34.8021 45.7849 34.8021 45.2581V37.8682C34.8021 37.3413 34.3735 36.9127 33.8467 36.9127H33.375V35.507C33.375 35.2432 33.1611 35.0293 32.8973 35.0293ZM33.8472 45.258H31.9481V37.8681H33.8467L33.8472 45.258Z" fill="#313131"/>
<path d="M37.5669 48.0968C37.8307 48.0968 38.0446 47.8828 38.0446 47.619V46.2133H38.5161C39.0429 46.2133 39.4715 45.7847 39.4715 45.2579V41.6897C39.4715 41.1629 39.0429 40.7343 38.5161 40.7343H38.0446V36.2712C38.0446 36.0074 37.8307 35.7935 37.5669 35.7935C37.3031 35.7935 37.0891 36.0074 37.0891 36.2712V40.7343H36.6175C36.0907 40.7343 35.6621 41.1629 35.6621 41.6897V45.2579C35.6621 45.7847 36.0907 46.2133 36.6175 46.2133H37.0891V47.619C37.0891 47.8828 37.303 48.0968 37.5669 48.0968ZM36.6175 41.6897H38.5161L38.5167 45.2578H36.6175V41.6897Z" fill="#313131"/>
<path d="M47.3833 47.6192V46.2135H47.855C48.3818 46.2135 48.8104 45.7849 48.8104 45.2581V37.8682C48.8104 37.3413 48.3818 36.9127 47.855 36.9127H47.3833V30.5388C47.3833 30.275 47.1695 30.061 46.9056 30.061C46.6417 30.061 46.4279 30.275 46.4279 30.5388V36.9127H45.9564C45.4296 36.9127 45.001 37.3413 45.001 37.8682V45.2581C45.001 45.7849 45.4296 46.2135 45.9564 46.2135H46.4279V47.6192C46.4279 47.883 46.6417 48.0969 46.9056 48.0969C47.1695 48.0969 47.3833 47.883 47.3833 47.6192ZM45.9564 37.8682H47.855L47.8556 45.258H45.9564V37.8682Z" fill="#313131"/>
<path d="M42.2362 27.3857C41.9724 27.3857 41.7585 27.5997 41.7585 27.8635V29.2692H41.287C40.7602 29.2692 40.3315 29.6978 40.3315 30.2246V41.4362C40.3315 41.9631 40.7602 42.3917 41.287 42.3917H41.7585V43.7974C41.7585 44.0612 41.9724 44.2751 42.2362 44.2751C42.5 44.2751 42.7139 44.0612 42.7139 43.7974V42.3917H43.1855C43.7123 42.3917 44.141 41.9631 44.141 41.4362V30.2246C44.141 29.6978 43.7124 29.2692 43.1855 29.2692H42.7139V27.8635C42.7139 27.5997 42.5 27.3857 42.2362 27.3857ZM43.1861 41.4362H41.287V30.2246H43.1855L43.1861 41.4362Z" fill="#313131"/>
<path d="M29.9333 51.6401C29.6695 51.6401 29.4556 51.8541 29.4556 52.1179C29.4556 52.3816 29.6695 52.5956 29.9333 52.5956H30.9926C31.2564 52.5956 31.4703 52.3816 31.4703 52.1179C31.4703 51.8541 31.2564 51.6401 30.9926 51.6401H29.9333Z" fill="#313131"/>
<path d="M36.2099 51.6401H35.1506C34.8868 51.6401 34.6729 51.8541 34.6729 52.1179C34.6729 52.3816 34.8868 52.5956 35.1506 52.5956H36.2099C36.4737 52.5956 36.6876 52.3816 36.6876 52.1179C36.6876 51.8541 36.4737 51.6401 36.2099 51.6401Z" fill="#313131"/>
<path d="M39.8896 52.1179C39.8896 52.3816 40.1036 52.5956 40.3674 52.5956H41.4267C41.6904 52.5956 41.9044 52.3816 41.9044 52.1179C41.9044 51.8541 41.6904 51.6401 41.4267 51.6401H40.3674C40.1035 51.6401 39.8896 51.8541 39.8896 52.1179Z" fill="#313131"/>
<path d="M47.1217 52.1179C47.1217 51.8541 46.9077 51.6401 46.6439 51.6401H45.5847C45.3209 51.6401 45.1069 51.8541 45.1069 52.1179C45.1069 52.3816 45.3209 52.5956 45.5847 52.5956H46.6439C46.9078 52.5956 47.1217 52.3817 47.1217 52.1179Z" fill="#313131"/>
<path d="M50.8014 52.5956H51.8607C52.1245 52.5956 52.3385 52.3816 52.3385 52.1179C52.3385 51.8541 52.1245 51.6401 51.8607 51.6401H50.8014C50.5377 51.6401 50.3237 51.8541 50.3237 52.1179C50.3237 52.3816 50.5376 52.5956 50.8014 52.5956Z" fill="#313131"/>
<path d="M33.0118 56.7168H30.7033C30.4395 56.7168 30.2256 56.9307 30.2256 57.1945C30.2256 57.4583 30.4395 57.6722 30.7033 57.6722H33.0118C33.2756 57.6722 33.4895 57.4583 33.4895 57.1945C33.4895 56.9307 33.2757 56.7168 33.0118 56.7168Z" fill="#313131"/>
<path d="M36.1576 58.6641H30.7033C30.4395 58.6641 30.2256 58.878 30.2256 59.1418C30.2256 59.4056 30.4395 59.6195 30.7033 59.6195H36.1576C36.4214 59.6195 36.6353 59.4056 36.6353 59.1418C36.6353 58.878 36.4214 58.6641 36.1576 58.6641Z" fill="#313131"/>
<path d="M36.1576 60.6113H30.7033C30.4395 60.6113 30.2256 60.8252 30.2256 61.089C30.2256 61.3528 30.4395 61.5668 30.7033 61.5668H36.1576C36.4214 61.5668 36.6353 61.3528 36.6353 61.089C36.6353 60.8252 36.4214 60.6113 36.1576 60.6113Z" fill="#313131"/>
<path d="M34.5348 56.9032C34.7987 56.9032 35.0126 56.6893 35.0126 56.4255C35.0126 56.1616 34.7987 55.9478 34.5348 55.9478C34.271 55.9478 34.0571 56.1616 34.0571 56.4255C34.0571 56.6893 34.271 56.9032 34.5348 56.9032Z" fill="#313131"/>
<path d="M42.7818 56.7168H40.4733C40.2095 56.7168 39.9956 56.9307 39.9956 57.1945C39.9956 57.4583 40.2095 57.6722 40.4733 57.6722H42.7818C43.0456 57.6722 43.2596 57.4583 43.2596 57.1945C43.2596 56.9307 43.0456 56.7168 42.7818 56.7168Z" fill="#313131"/>
<path d="M45.9276 58.6641H40.4733C40.2095 58.6641 39.9956 58.878 39.9956 59.1418C39.9956 59.4056 40.2095 59.6195 40.4733 59.6195H45.9276C46.1914 59.6195 46.4053 59.4056 46.4053 59.1418C46.4053 58.878 46.1914 58.6641 45.9276 58.6641Z" fill="#313131"/>
<path d="M45.9276 60.6113H40.4733C40.2095 60.6113 39.9956 60.8252 39.9956 61.089C39.9956 61.3528 40.2095 61.5668 40.4733 61.5668H45.9276C46.1914 61.5668 46.4053 61.3528 46.4053 61.089C46.4053 60.8252 46.1914 60.6113 45.9276 60.6113Z" fill="#313131"/>
<path d="M44.3044 56.9032C44.5682 56.9032 44.7821 56.6893 44.7821 56.4255C44.7821 56.1616 44.5682 55.9478 44.3044 55.9478C44.0405 55.9478 43.8267 56.1616 43.8267 56.4255C43.8267 56.6893 44.0405 56.9032 44.3044 56.9032Z" fill="#313131"/>
<path d="M52.5514 56.7168H50.2429C49.9791 56.7168 49.7651 56.9307 49.7651 57.1945C49.7651 57.4583 49.9791 57.6722 50.2429 57.6722H52.5514C52.8152 57.6722 53.0291 57.4583 53.0291 57.1945C53.0291 56.9307 52.8152 56.7168 52.5514 56.7168Z" fill="#313131"/>
<path d="M49.7651 59.1418C49.7651 59.4056 49.9791 59.6195 50.2429 59.6195H55.6971C55.9609 59.6195 56.1748 59.4056 56.1748 59.1418C56.1748 58.878 55.9609 58.6641 55.6971 58.6641H50.2429C49.9791 58.6641 49.7651 58.878 49.7651 59.1418Z" fill="#313131"/>
<path d="M55.6971 60.6113H50.2429C49.9791 60.6113 49.7651 60.8252 49.7651 61.089C49.7651 61.3528 49.9791 61.5668 50.2429 61.5668H55.6971C55.9609 61.5668 56.1748 61.3528 56.1748 61.089C56.1748 60.8252 55.9609 60.6113 55.6971 60.6113Z" fill="#313131"/>
<path d="M54.0744 56.9032C54.3382 56.9032 54.5521 56.6893 54.5521 56.4255C54.5521 56.1616 54.3382 55.9478 54.0744 55.9478C53.8106 55.9478 53.5967 56.1616 53.5967 56.4255C53.5967 56.6893 53.8106 56.9032 54.0744 56.9032Z" fill="#313131"/>
<path d="M24.9696 22.8685C24.8473 22.8685 24.7251 22.8219 24.6318 22.7287L24.1575 22.2544L23.6832 22.7287C23.4966 22.9152 23.1942 22.9152 23.0076 22.7287C22.821 22.5421 22.821 22.2396 23.0076 22.0531L23.8197 21.2409C24.0063 21.0544 24.3087 21.0544 24.4953 21.2409L25.3074 22.0531C25.494 22.2397 25.494 22.5422 25.3074 22.7287C25.2141 22.8219 25.0918 22.8685 24.9696 22.8685Z" fill="#F9F1E5"/>
<path d="M21.8379 26.0748C21.7572 26.0748 21.6754 26.0544 21.6004 26.0113L21.591 26.0059C21.3622 25.8745 21.2832 25.5825 21.4146 25.3537C21.546 25.1248 21.838 25.0459 22.0668 25.1773L22.0762 25.1827C22.3051 25.3141 22.384 25.6061 22.2526 25.8349C22.1642 25.9887 22.0033 26.0748 21.8379 26.0748Z" fill="#F9F1E5"/>
<path d="M24.2168 27.4484C24.1355 27.4484 24.0532 27.4277 23.9778 27.384L23.9684 27.3785C23.74 27.2463 23.6622 26.9541 23.7944 26.7257C23.9266 26.4974 24.2189 26.4195 24.4472 26.5517L24.4567 26.5572C24.685 26.6894 24.7629 26.9817 24.6307 27.21C24.5421 27.3629 24.3817 27.4484 24.2168 27.4484Z" fill="#F9F1E5"/>
<path d="M21.8379 26.0748C21.7572 26.0748 21.6754 26.0544 21.6004 26.0113L21.591 26.0059C21.3622 25.8745 21.2832 25.5825 21.4146 25.3537C21.546 25.1248 21.838 25.0459 22.0668 25.1773L22.0762 25.1827C22.3051 25.3141 22.384 25.6061 22.2526 25.8349C22.1642 25.9887 22.0033 26.0748 21.8379 26.0748Z" fill="#F9F1E5"/>
<path d="M24.2168 27.4484C24.1355 27.4484 24.0532 27.4277 23.9778 27.384L23.9684 27.3785C23.74 27.2463 23.6622 26.9541 23.7944 26.7257C23.9266 26.4974 24.2189 26.4195 24.4472 26.5517L24.4567 26.5572C24.685 26.6894 24.7629 26.9817 24.6307 27.21C24.5421 27.3629 24.3817 27.4484 24.2168 27.4484Z" fill="#F9F1E5"/>
<path d="M24.2083 26.0748C24.0428 26.0748 23.8818 25.9887 23.7935 25.8349C23.6621 25.6061 23.7411 25.3141 23.9699 25.1827L23.9793 25.1773C24.2081 25.0459 24.5001 25.1248 24.6315 25.3537C24.7629 25.5825 24.684 25.8745 24.4551 26.0059L24.4457 26.0113C24.3708 26.0544 24.289 26.0748 24.2083 26.0748Z" fill="#F9F1E5"/>
<path d="M21.8294 27.4483C21.6645 27.4483 21.5042 27.3628 21.4155 27.2099C21.2833 26.9817 21.3611 26.6894 21.5895 26.5571L21.5989 26.5517C21.8273 26.4195 22.1195 26.4974 22.2518 26.7256C22.384 26.9539 22.3061 27.2462 22.0778 27.3785L22.0683 27.3839C21.993 27.4276 21.9106 27.4483 21.8294 27.4483Z" fill="#F9F1E5"/>
<path d="M24.2083 26.0748C24.0428 26.0748 23.8818 25.9887 23.7935 25.8349C23.6621 25.6061 23.7411 25.3141 23.9699 25.1827L23.9793 25.1773C24.2081 25.0459 24.5001 25.1248 24.6315 25.3537C24.7629 25.5825 24.684 25.8745 24.4551 26.0059L24.4457 26.0113C24.3708 26.0544 24.289 26.0748 24.2083 26.0748Z" fill="#F9F1E5"/>
<path d="M21.8294 27.4483C21.6645 27.4483 21.5042 27.3628 21.4155 27.2099C21.2833 26.9817 21.3611 26.6894 21.5895 26.5571L21.5989 26.5517C21.8273 26.4195 22.1195 26.4974 22.2518 26.7256C22.384 26.9539 22.3061 27.2462 22.0778 27.3785L22.0683 27.3839C21.993 27.4276 21.9106 27.4483 21.8294 27.4483Z" fill="#F9F1E5"/>
<path d="M23.0231 25.3906C22.7593 25.3906 22.5454 25.1767 22.5454 24.9129V24.902C22.5454 24.6382 22.7593 24.4243 23.0231 24.4243C23.2869 24.4243 23.5008 24.6382 23.5008 24.902V24.9129C23.5008 25.1768 23.2869 25.3906 23.0231 25.3906Z" fill="#F9F1E5"/>
<path d="M23.0231 28.1377C22.7593 28.1377 22.5454 27.9238 22.5454 27.66V27.6491C22.5454 27.3853 22.7593 27.1714 23.0231 27.1714C23.2869 27.1714 23.5008 27.3853 23.5008 27.6491V27.66C23.5008 27.9238 23.2869 28.1377 23.0231 28.1377Z" fill="#F9F1E5"/>
<path d="M64.1366 56.3881C64.0144 56.3881 63.892 56.3414 63.7989 56.2482L63.3245 55.7739L62.8501 56.2482C62.6637 56.4347 62.361 56.4347 62.1746 56.2482C61.988 56.0616 61.988 55.7591 62.1746 55.5726L62.9867 54.7605C63.1731 54.574 63.4758 54.574 63.6622 54.7605L64.4743 55.5726C64.6609 55.7592 64.6609 56.0617 64.4743 56.2482C64.3812 56.3414 64.2588 56.3881 64.1366 56.3881Z" fill="#F9F1E5"/>
<path d="M21.4868 60.5959C21.4055 60.5959 21.3232 60.5752 21.2479 60.5315L21.2384 60.526C21.01 60.3938 20.9322 60.1015 21.0644 59.8731C21.1966 59.6449 21.4889 59.5669 21.7173 59.6992L21.7267 59.7046C21.9551 59.8368 22.0329 60.1291 21.9007 60.3574C21.812 60.5104 21.6516 60.5959 21.4868 60.5959Z" fill="#F9F1E5"/>
<path d="M23.8657 61.9693C23.7851 61.9693 23.7033 61.9489 23.6283 61.9058L23.6188 61.9003C23.39 61.7689 23.3111 61.477 23.4424 61.2481C23.5738 61.0194 23.8659 60.9405 24.0946 61.0718L24.1041 61.0772C24.3329 61.2086 24.4118 61.5006 24.2804 61.7294C24.1921 61.8832 24.0312 61.9693 23.8657 61.9693Z" fill="#F9F1E5"/>
<path d="M21.4868 60.5959C21.4055 60.5959 21.3232 60.5752 21.2479 60.5315L21.2384 60.526C21.01 60.3938 20.9322 60.1015 21.0644 59.8731C21.1966 59.6449 21.4889 59.5669 21.7173 59.6992L21.7267 59.7046C21.9551 59.8368 22.0329 60.1291 21.9007 60.3574C21.812 60.5104 21.6516 60.5959 21.4868 60.5959Z" fill="#F9F1E5"/>
<path d="M23.8657 61.9693C23.7851 61.9693 23.7033 61.9489 23.6283 61.9058L23.6188 61.9003C23.39 61.7689 23.3111 61.477 23.4424 61.2481C23.5738 61.0194 23.8659 60.9405 24.0946 61.0718L24.1041 61.0772C24.3329 61.2086 24.4118 61.5006 24.2804 61.7294C24.1921 61.8832 24.0312 61.9693 23.8657 61.9693Z" fill="#F9F1E5"/>
<path d="M23.8572 60.5959C23.6923 60.5959 23.532 60.5104 23.4433 60.3575C23.3111 60.1292 23.389 59.837 23.6173 59.7046L23.6268 59.6992C23.8551 59.5669 24.1474 59.6449 24.2796 59.8732C24.4118 60.1014 24.334 60.3937 24.1056 60.526L24.0962 60.5315C24.0209 60.575 23.9384 60.5959 23.8572 60.5959Z" fill="#F9F1E5"/>
<path d="M21.4783 61.9694C21.3128 61.9694 21.1518 61.8833 21.0635 61.7295C20.9322 61.5006 21.0111 61.2086 21.2399 61.0773L21.2494 61.0718C21.4781 60.9405 21.7702 61.0194 21.9015 61.2482C22.0329 61.477 21.954 61.769 21.7252 61.9004L21.7157 61.9058C21.6407 61.9489 21.5589 61.9694 21.4783 61.9694Z" fill="#F9F1E5"/>
<path d="M23.8572 60.5959C23.6923 60.5959 23.532 60.5104 23.4433 60.3575C23.3111 60.1292 23.389 59.837 23.6173 59.7046L23.6268 59.6992C23.8551 59.5669 24.1474 59.6449 24.2796 59.8732C24.4118 60.1014 24.334 60.3937 24.1056 60.526L24.0962 60.5315C24.0209 60.575 23.9384 60.5959 23.8572 60.5959Z" fill="#F9F1E5"/>
<path d="M21.4783 61.9694C21.3128 61.9694 21.1518 61.8833 21.0635 61.7295C20.9322 61.5006 21.0111 61.2086 21.2399 61.0773L21.2494 61.0718C21.4781 60.9405 21.7702 61.0194 21.9015 61.2482C22.0329 61.477 21.954 61.769 21.7252 61.9004L21.7157 61.9058C21.6407 61.9489 21.5589 61.9694 21.4783 61.9694Z" fill="#F9F1E5"/>
<path d="M22.6725 59.9116C22.4087 59.9116 22.1948 59.6977 22.1948 59.4339V59.423C22.1948 59.1592 22.4087 58.9453 22.6725 58.9453C22.9363 58.9453 23.1503 59.1592 23.1503 59.423V59.4339C23.1503 59.6978 22.9363 59.9116 22.6725 59.9116Z" fill="#F9F1E5"/>
<path d="M22.6721 62.6592C22.4083 62.6592 22.1943 62.4453 22.1943 62.1815V62.1706C22.1943 61.9068 22.4083 61.6929 22.6721 61.6929C22.9358 61.6929 23.1498 61.9068 23.1498 62.1706V62.1815C23.1498 62.4453 22.9358 62.6592 22.6721 62.6592Z" fill="#F9F1E5"/>
<path d="M63.1425 50.3434C63.0618 50.3434 62.9801 50.323 62.9051 50.2799L62.8957 50.2744C62.6668 50.1431 62.5879 49.8511 62.7193 49.6223C62.8508 49.3934 63.1425 49.3144 63.3715 49.4459L63.3809 49.4513C63.6098 49.5827 63.6887 49.8747 63.5573 50.1035C63.4689 50.2573 63.308 50.3434 63.1425 50.3434Z" fill="#F9F1E5"/>
<path d="M65.5219 51.717C65.4412 51.717 65.3595 51.6965 65.2845 51.6534L65.2751 51.648C65.0462 51.5166 64.9673 51.2246 65.0987 50.9958C65.2302 50.767 65.522 50.688 65.7509 50.8194L65.7603 50.8249C65.9892 50.9562 66.0681 51.2482 65.9367 51.4771C65.8483 51.6309 65.6875 51.717 65.5219 51.717Z" fill="#F9F1E5"/>
<path d="M63.1425 50.3434C63.0618 50.3434 62.9801 50.323 62.9051 50.2799L62.8957 50.2744C62.6668 50.1431 62.5879 49.8511 62.7193 49.6223C62.8508 49.3934 63.1425 49.3144 63.3715 49.4459L63.3809 49.4513C63.6098 49.5827 63.6887 49.8747 63.5573 50.1035C63.4689 50.2573 63.308 50.3434 63.1425 50.3434Z" fill="#F9F1E5"/>
<path d="M65.5219 51.717C65.4412 51.717 65.3595 51.6965 65.2845 51.6534L65.2751 51.648C65.0462 51.5166 64.9673 51.2246 65.0987 50.9958C65.2302 50.767 65.522 50.688 65.7509 50.8194L65.7603 50.8249C65.9892 50.9562 66.0681 51.2482 65.9367 51.4771C65.8483 51.6309 65.6875 51.717 65.5219 51.717Z" fill="#F9F1E5"/>
<path d="M65.513 50.3434C65.3475 50.3434 65.1866 50.2573 65.0982 50.1035C64.9668 49.8747 65.0457 49.5827 65.2746 49.4513L65.284 49.4459C65.513 49.3144 65.8048 49.3934 65.9362 49.6223C66.0676 49.8511 65.9887 50.1431 65.7598 50.2744L65.7504 50.2799C65.6755 50.323 65.5936 50.3434 65.513 50.3434Z" fill="#F9F1E5"/>
<path d="M63.134 51.7169C62.9686 51.7169 62.8077 51.6308 62.7193 51.477C62.5879 51.2482 62.6668 50.9562 62.8957 50.8248L62.9051 50.8194C63.1341 50.688 63.4258 50.767 63.5573 50.9957C63.6887 51.2246 63.6098 51.5165 63.3809 51.6479L63.3715 51.6534C63.2965 51.6965 63.2147 51.7169 63.134 51.7169Z" fill="#F9F1E5"/>
<path d="M65.513 50.3434C65.3475 50.3434 65.1866 50.2573 65.0982 50.1035C64.9668 49.8747 65.0457 49.5827 65.2746 49.4513L65.284 49.4459C65.513 49.3144 65.8048 49.3934 65.9362 49.6223C66.0676 49.8511 65.9887 50.1431 65.7598 50.2744L65.7504 50.2799C65.6755 50.323 65.5936 50.3434 65.513 50.3434Z" fill="#F9F1E5"/>
<path d="M63.134 51.7169C62.9686 51.7169 62.8077 51.6308 62.7193 51.477C62.5879 51.2482 62.6668 50.9562 62.8957 50.8248L62.9051 50.8194C63.1341 50.688 63.4258 50.767 63.5573 50.9957C63.6887 51.2246 63.6098 51.5165 63.3809 51.6479L63.3715 51.6534C63.2965 51.6965 63.2147 51.7169 63.134 51.7169Z" fill="#F9F1E5"/>
<path d="M64.3278 49.6592C64.0639 49.6592 63.8501 49.4453 63.8501 49.1815V49.1706C63.8501 48.9068 64.0639 48.6929 64.3278 48.6929C64.5917 48.6929 64.8055 48.9068 64.8055 49.1706V49.1815C64.8055 49.4453 64.5917 49.6592 64.3278 49.6592Z" fill="#F9F1E5"/>
<path d="M64.3278 52.4063C64.0639 52.4063 63.8501 52.1923 63.8501 51.9286V51.9177C63.8501 51.6539 64.0639 51.4399 64.3278 51.4399C64.5917 51.4399 64.8055 51.6539 64.8055 51.9177V51.9286C64.8055 52.1923 64.5917 52.4063 64.3278 52.4063Z" fill="#F9F1E5"/>
<defs>
<linearGradient id="paint0_linear" x1="22.2901" y1="44.4591" x2="64.111" y2="44.4591" gradientUnits="userSpaceOnUse">
<stop stop-color="#D2DEFF" stop-opacity="0"/>
<stop offset="1" stop-color="#313131"/>
</linearGradient>
</defs>
</svg>
