<?xml version="1.0" encoding="UTF-8"?><svg id="Calque_2" xmlns="http://www.w3.org/2000/svg" viewBox="0 0 352.03 264.18"><defs><style>.cls-1{fill:#fff;}</style></defs><g id="Calque_1-2"><g><path class="cls-1" d="M102.38,210.29c.77,4.43,1.52,8.71,2.26,12.99,.74,4.26,.1,5.37-4.01,6.51-5.64,1.57-11.33,2.97-16.95,4.6-3.12,.9-4.81-.34-5.6-3.21-1.58-5.78-3.32-11.53-4.51-17.39-.39-1.94,.24-4.47,1.25-6.24,15.53-27.21,31.2-54.34,46.83-81.49,.74-1.28,1.45-2.58,2.24-4-2.46-1.42-4.62-2.95-7-3.89-1.09-.43-2.84-.02-3.94,.61-12.35,7.04-24.56,14.32-36.99,21.21-2.28,1.26-5.39,1.56-8.07,1.41-3.93-.22-7.81-1.24-11.87-1.94-1.7,4.58-3.4,8.85-4.88,13.2-1,2.95-2.9,3.79-5.78,3.24-4.39-.83-8.81-1.58-13.58-2.43-1.62,4.35-3.27,8.48-4.69,12.69-1.13,3.33-2.96,4.57-6.51,3.49-5.48-1.67-11.06-2.99-16.58-4.52-3.89-1.08-4.58-2.33-3.56-6.29,1.38-5.31,2.56-10.7,4.34-15.88,.73-2.12,2.43-4.42,4.33-5.53,28.2-16.5,56.48-32.85,84.82-49.1,2.73-1.56,3.67-3.22,3.65-6.4-.12-19.27,12.75-36.15,31.33-41.4,2.03-.57,3.37-1.25,4.14-3.55C140.75,14.14,161.31-.37,185.12,0c23.16,.37,43.31,15.74,50.34,38.41,.26,.82,.53,1.64,.96,2.96,7.24-3.24,12.2,1.86,17.64,4.99,31.23,17.97,62.4,36.05,93.59,54.1,5.2,3.01,5.43,3.85,2.42,9.06-9.79,16.98-19.57,33.96-29.37,50.93-3.32,5.76-3.91,5.92-9.53,2.68-27.41-15.86-54.82-31.72-82.24-47.58-1.17-.68-2.37-1.3-2.97-1.63-3.52,5.68-6.43,11.51-10.43,16.44-2.99,3.68-7.19,6.51-11.24,9.12-2.23,1.44-2.93,2.8-2.92,5.28,.1,14.13-.02,28.26,.1,42.38,.03,2.95-.74,5.26-2.73,7.43-2.7,2.93-5.13,6.1-7.89,9.42,2.89,3.49,5.62,7.04,8.61,10.34,2.41,2.65,2.33,4.88-.04,7.5-2.93,3.23-5.61,6.68-8.59,10.27,2.91,3.5,5.68,7,8.64,10.34,2.34,2.64,2.45,4.89-.2,7.42-4.16,3.96-8.11,8.14-12.21,12.16-2.95,2.89-4.22,2.86-7.21-.1-3.91-3.86-7.97-7.6-11.56-11.75-1.47-1.69-2.64-4.3-2.66-6.5-.17-31.63-.36-63.26,.08-94.89,.09-6.71-2.19-10.14-8.63-11.96-.56,.86-1.34,1.92-1.99,3.06-6.93,12-13.93,23.96-20.71,36.04-1.7,3.03-3.7,5.23-7.15,5.96-.96,.2-1.86,.7-2.8,1.05q-8.26,3.03-6.58,11.85,1.75,9.15-7.21,12.37c-2.68,.96-5.32,2-8.3,3.13ZM215.61,72.04c.04-.16,.15-.65,.3-1.12,2.5-8,9.43-12.38,16.85-10.65,7.17,1.67,11.95,8.53,10.9,15.68-1.17,7.96-7.47,12.77-16.07,12.05-2.57-.21-2.95,.61-2.5,2.99,.71,3.79,1.33,7.65,1.33,11.49,0,2.5,.67,3.75,2.8,4.97,20.44,11.71,40.8,23.54,61.19,35.34,7.95,4.6,15.91,9.2,24.16,13.98,9.71-16.85,19.26-33.43,28.9-50.15-.91-.63-1.48-1.09-2.1-1.45-32.36-18.73-64.7-37.48-97.12-56.1-1.53-.88-3.83-1.03-5.63-.72-7.49,1.26-14.93,2.81-22.38,4.29-5.8,1.15-11.6,2.34-18.1,3.66,1.48,2.65,2.14,5.24,3.8,6.54,4.28,3.35,9,6.12,13.68,9.22ZM7.95,158.73c4.43,1.2,8.48,2.3,12.83,3.48,1.58-4.25,3.22-8.28,4.57-12.4,1.04-3.14,2.72-4.44,6.14-3.7,4.36,.95,8.8,1.51,13.49,2.29,1.55-4.21,3.21-8.23,4.49-12.37,1.11-3.6,3.26-4.68,6.78-3.93,3.66,.77,7.33,1.63,11.04,1.92,2.19,.17,4.77-.13,6.64-1.18,12.84-7.19,25.56-14.58,38.25-22.05,2.74-1.61,4.81-1.54,7.48,.31,11.5,7.96,23.87,9.26,36.46,3.12,12.58-6.13,19.29-16.63,20.12-30.65,1.19-19.98-15.04-37.27-35.09-37.41-1.11,0-3.16,1.13-3.19,1.8-.23,5.28-.07,10.59-.04,15.78,2.49,.27,3.97,.38,5.44,.61,7.45,1.17,13.35,6.84,14.7,14.09,1.42,7.67-1.84,15.09-8.35,18.97-7.92,4.72-18.38,2.56-23.71-4.9-5.5-7.7-4.15-18.1,3.08-24.35,.94-.81,2.25-2.02,2.2-2.99-.29-5.69-.93-11.35-1.47-17.22-.69,.18-1.53,.33-2.31,.62-14.39,5.41-23.54,19.51-22.57,35.73,.27,4.5-1.24,6.68-4.94,8.8-28.25,16.16-56.4,32.52-84.55,48.85-1.37,.79-3.26,1.66-3.69,2.92-1.53,4.44-2.53,9.06-3.8,13.85Zm185.22,59.34c-2.96-3.55-5.67-6.99-8.59-10.23-2.33-2.59-2.54-4.87-.09-7.52,2.45-2.65,4.52-5.68,7.03-8.26,2.19-2.25,2.77-4.72,2.75-7.77-.12-14.12,.05-28.24-.12-42.36-.05-3.88,1.19-5.97,4.8-7.75,12.96-6.4,20.04-17.15,20.31-31.62,.27-14.48-6.56-25.29-19.12-32.43-1.1-.62-2.33-1.01-4.34-1.86,8.55,13.3,10.54,26.62,5.44,40.55-5.11,13.93-15.44,22.56-29.05,26.71,.24,2.37,.62,4.31,.62,6.25,.04,33.11,.02,66.23,.05,99.34,0,1.34-.21,3.13,.52,3.95,3.2,3.57,6.71,6.86,9.65,9.8,3.47-3.23,6.55-6.1,9.78-9.11-2.7-3.26-5.33-6.41-7.93-9.58-3.12-3.81-3.11-4.42,.12-8.31,2.7-3.25,5.42-6.5,8.17-9.8Zm-81.83-18.84c-.84-4.89-1.48-9.34-2.39-13.73-.63-3.03,.42-4.76,3.26-5.74,3.88-1.35,7.82-2.6,11.54-4.32,1.87-.87,3.84-2.36,4.87-4.1,7.56-12.78,14.93-25.67,22.28-38.58,1.38-2.43,2.94-3.61,5.96-3.31,24.19,2.42,43.2-17.73,39.32-41.76-1.66-10.31-7.1-18.31-16.13-23.78,.08,1.17,.49,2.16,.86,3.17,2.45,6.83,3.38,13.85,2.16,21.02-4.12,24.36-24.22,39.4-48.7,36.47-2.18-.26-3.57-.12-4.83,2.09-15.86,27.74-31.84,55.4-47.74,83.11-.58,1.01-1.13,2.41-.9,3.45,.98,4.46,2.26,8.85,3.51,13.54,4.52-1.24,8.66-2.37,12.85-3.52-.8-4.84-1.46-9.28-2.29-13.68-.54-2.85,.48-4.52,3.16-5.46,4.33-1.52,8.62-3.16,13.23-4.86ZM228.99,42.77c-4.16-20.24-23.27-35.3-44.69-35.52-20.01-.2-40.16,14.17-43.99,31.49,.48,.07,.94,.17,1.4,.19,10.89,.43,20.34,4.34,28.4,11.71,.88,.81,2.06,1.32,3.16,1.85,3.81,1.82,7.58,3.72,11.48,5.32,2.12,.87,4.46,1.2,7.31,1.93-.46-1.62-.61-2.22-.8-2.8-1.77-5.5-1.21-6.45,4.47-7.57,3.79-.75,7.58-1.48,11.36-2.23,7.3-1.45,14.6-2.92,21.9-4.38Zm-84.32,48.72c-3.73-5.78-7.46-11.57-11.2-17.36-3.96,2.61-4.99,9.69-1.55,14.22,3.23,4.25,8.53,5.48,12.75,3.14Zm5.36-4.93c2.79-8.23-1.69-14.79-9.7-14.98,3.23,4.99,6.21,9.59,9.7,14.98Zm78.88-19.34c-5.81,2.3-7.13,5.4-4.74,10.46,1.58-3.48,2.96-6.54,4.74-10.46Zm1.96,13.42c5.35-1.54,6.98-5.22,4.44-10-1.5,3.38-2.93,6.6-4.44,10Z"/><path class="cls-1" d="M300.58,101.97c-5.57,1.5-10.81,2.96-16.08,4.33-2.49,.65-5.22,1.21-6.05-2.24-.75-3.11,1.56-4.07,4.02-4.72,6.13-1.62,12.27-3.16,18.36-4.93,3.34-.97,5.25,0,6.13,3.34,1.67,6.38,3.45,12.74,5.1,19.12,.6,2.33,.62,4.68-2.31,5.41-2.83,.71-4.04-1.14-4.68-3.57-1.46-5.5-2.94-11-4.49-16.75Z"/><path class="cls-1" d="M284.82,120.89c2.63,1.5,4.86,2.77,7.37,4.19,1.09-1.84,1.98-3.45,2.97-4.99,1.22-1.9,3.11-3.12,4.93-1.46,1.05,.96,1.74,3.45,1.25,4.73-1.14,2.99-2.83,5.88-4.85,8.36-.88,1.07-3.54,1.88-4.69,1.33-4.69-2.26-9.15-5.03-13.62-7.73-2-1.21-2.49-3.04-1.31-5.15,1.52-2.72,3.04-5.43,4.66-8.1,1.23-2.03,3.35-2.79,5.02-1.28,1.01,.91,1.31,3.26,1.03,4.8-.32,1.73-1.65,3.27-2.77,5.3Z"/></g></g></svg>