<?xml version="1.0" encoding="UTF-8"?><svg id="Calque_2" xmlns="http://www.w3.org/2000/svg" viewBox="0 0 302.62 299.56"><defs><style>.cls-1{fill:#fff;}</style></defs><g id="Calque_1-2"><g><path class="cls-1" d="M88.08,287.95h30.39c.09-1.67,.24-3.23,.24-4.8,.01-46.51,0-93.02,.01-139.53,0-7.85,1.35-9.22,9.07-9.22,15.97,0,31.94,0,47.91,0,6.5,0,8.2,1.68,8.21,8.21,.01,46.76,0,93.52,0,140.28v5.01h30.64v-5.33c0-75.39,0-150.78,0-226.17,0-1.38-.05-2.75,.04-4.12,.27-4.12,2.27-6.22,6.41-6.23,17.47-.07,34.93-.07,52.4,0,4.1,.02,6.06,2.16,6.31,6.33,.08,1.37,.03,2.75,.03,4.12,0,75.26,0,150.53,0,225.79v5.83c1.61,0,2.92,0,4.22,0,4.49,.01,8.99-.1,13.47,.09,3.18,.14,5.31,2.65,5.18,5.73-.14,3.2-1.91,5.06-5.05,5.51-1.1,.16-2.24,.07-3.36,.07-95.31,0-190.62,0-285.94,0-1,0-2,.05-2.99-.04C2.09,299.19-.02,296.88,0,293.8c.02-3.07,2.14-5.46,5.35-5.59,4.36-.17,8.73-.06,13.1-.07,1.34,0,2.68,0,4.44,0,0-1.93,0-3.39,0-4.86,0-18.63,0-37.26,0-55.89,0-6.88,1.5-8.37,8.35-8.37,16.34,0,32.69-.01,49.03,0,6.09,0,7.79,1.68,7.8,7.79,.03,18.75,.01,37.51,.01,56.26,0,1.49,0,2.97,0,4.89Zm179.9-.02V57.86h-41.65v230.07h41.65Zm-137.51-.08h41.69V146.09h-41.69v141.76Zm-54.14-57.15H34.65v57.23h41.67v-57.23Z"/><path class="cls-1" d="M164.15,11.42c-8.39,0-15.75,.02-23.11,0-4.33-.02-6.88-2.12-6.93-5.61-.05-3.5,2.51-5.75,6.77-5.77,11.98-.04,23.96-.04,35.93,0,4.98,.02,7.04,2.04,7.07,7.07,.06,11.88,.06,23.76,0,35.64-.02,4.7-2.15,7.12-5.88,7.04-3.63-.08-5.62-2.62-5.64-7.32-.03-7.22,0-14.44,0-22.51-1.59,1.49-2.65,2.42-3.65,3.42C117.88,74.29,67.05,125.22,16.23,176.15c-.97,.97-1.89,2.01-2.96,2.86-2.48,1.98-5.75,1.84-7.81-.24-2.14-2.16-2.27-5.27-.23-7.8,.78-.97,1.72-1.81,2.6-2.7C58.82,117.17,109.81,66.06,160.81,14.95c.93-.94,1.82-1.92,3.34-3.53Z"/></g></g></svg>