<?xml version="1.0" encoding="UTF-8"?><svg id="Calque_2" xmlns="http://www.w3.org/2000/svg" viewBox="0 0 408.78 408.98"><defs><style>.cls-1{fill:#fff;}</style></defs><g id="Calque_1-2"><g><path class="cls-1" d="M408.78,324.32c-2.17,3.68-5.35,4.9-9.63,4.9-103.24-.09-206.49-.07-309.73-.07-7.5,0-9.65-2.19-9.65-9.8,0-103.13,0-206.26,0-309.4,0-7.76,2.15-9.88,10-9.88,102.98,0,205.95,.02,308.93-.06,4.35,0,7.81,.97,10.08,4.85V31.21c-1.66,1.42-3.11,3.36-5.04,4.16-4.1,1.7-8.2-1.26-8.68-6.01-.25-2.51-.14-5.05-.17-7.58-.02-2.38,0-4.76,0-7.48H196.16V171.57c1.71,0,3.26,0,4.81,0,38.33,0,76.65,0,114.98,0,1.59,0,3.21-.03,4.78,.18,3.51,.47,5.78,3.01,5.91,6.44,.14,3.53-2.16,6.44-5.73,7.03-1.43,.24-2.92,.17-4.38,.17-38.46,0-76.92,0-115.38,0-1.58,0-3.15,0-5.28,0,0,1.72,0,3.15,0,4.57,0,12.65,0,25.29,0,37.94,0,1.46,.01,2.94-.2,4.38-.53,3.67-2.76,5.66-6.43,5.89-3.52,.22-6.45-2.13-7.05-5.7-.26-1.56-.18-3.18-.18-4.78,0-69.48,0-138.97,0-208.45,0-1.58,0-3.16,0-5.01H93.84V314.95h87.92c.07-1.17,.2-2.44,.21-3.71,.02-9.05,0-18.1,.01-27.15,0-6.11,2.34-9.29,6.81-9.36,4.66-.08,7.04,3.1,7.05,9.5,.02,8.79,0,17.57,0,26.36,0,1.42,0,2.84,0,4.5h198.7V185.4c-5.87,0-11.67,0-17.47,0-2.93,0-5.86,.05-8.78-.01-4.91-.11-8.11-2.93-8.04-7,.07-3.94,3.11-6.71,7.83-6.77,7.32-.11,14.64-.03,21.96-.04,1.43,0,2.86,0,4.84,0,0-1.98,0-3.54,0-5.09,0-36.47,0-72.94,0-109.42,0-.93,.02-1.86,0-2.8-.09-3.85,.71-7.26,4.89-8.6,3.63-1.16,6.12,.22,8.99,4.71V324.32Z"/><path class="cls-1" d="M121.32,408.98c-12.02-7.54-24.05-15.08-36.07-22.63-7.43-4.66-7.49-9.95-.13-14.55,11.05-6.9,22.1-13.81,33.18-20.65,6.9-4.26,12.12-1.42,12.27,6.65,.09,4.62,.02,9.24,.02,14.09h227.29c0-3.42,0-6.81,0-10.2,0-1.86-.11-3.74,.08-5.58,.61-6.05,5.73-8.86,10.93-5.71,12.16,7.38,24.2,14.95,36.21,22.58,1.48,.94,2.47,2.68,3.68,4.05v3.99c-1.88,1.79-3.53,3.95-5.67,5.32-11.88,7.65-23.89,15.11-35.85,22.63h-4.79c-3.7-2.43-4.87-5.91-4.63-10.21,.23-4.18,.05-8.38,.05-12.58H130.6c0,4.34-.17,8.45,.05,12.53,.22,4.27-.86,7.79-4.53,10.26h-4.79Zm-21.46-29.95c5.73,3.56,10.94,6.8,16.53,10.27v-20.52c-5.63,3.5-10.85,6.73-16.53,10.26Zm288.78,0c-5.67-3.51-10.88-6.73-16.35-10.13v20.29c5.59-3.48,10.73-6.67,16.35-10.17Z"/><path class="cls-1" d="M22.99,278.31c0-2.19,0-3.88,0-5.57,0-56.95,0-113.91,0-170.86,0-6.89,2.15-10.05,6.84-10.08,4.72-.04,6.96,3.15,6.96,9.96,0,57.09,0,114.17,0,171.26,0,1.57,0,3.14,0,5.29,4.84,0,9.31,.02,13.78,0,3.31-.02,6.45,.35,8.3,3.61,1.86,3.27,.55,6.09-1.23,8.92-7,11.15-13.9,22.35-20.9,33.5-4.1,6.53-9.6,6.57-13.67,.1-7.07-11.26-14.1-22.55-21.08-33.86-4.25-6.89-1.4-12.11,6.68-12.25,4.62-.08,9.24-.02,14.3-.02Zm17.11,14.29H19.67c3.5,5.62,6.72,10.8,10.23,16.44,3.58-5.77,6.77-10.9,10.21-16.44Z"/><path class="cls-1" d="M36.76,50.97c0,10.11,.09,19.53-.04,28.95-.05,3.95-2.75,6.67-6.32,6.99-3.12,.28-6.4-2.04-7.12-5.21-.29-1.28-.27-2.64-.27-3.97-.02-7.45-.01-14.89-.01-22.34,0-1.3,0-2.6,0-4.43-4.86,0-9.33-.03-13.8,0-3.32,.03-6.43-.42-8.28-3.64-1.88-3.26-.56-6.08,1.22-8.91C9.05,27.4,15.89,16.32,22.8,5.29c4.37-6.98,9.76-7.06,14.07-.17,6.98,11.14,13.89,22.33,20.88,33.48,1.7,2.71,2.92,5.41,1.22,8.56-1.77,3.28-4.83,3.85-8.17,3.83-4.5-.03-8.99,0-14.04,0Zm-6.87-30.77c-3.61,5.84-6.82,11.02-10.16,16.41h20.34c-3.46-5.57-6.64-10.7-10.18-16.41Z"/></g></g></svg>