<?xml version="1.0" encoding="UTF-8"?><svg id="Calque_2" xmlns="http://www.w3.org/2000/svg" viewBox="0 0 348.09 348.09"><defs><style>.cls-1{fill:#fff;}</style></defs><g id="Calque_1-2"><g><path class="cls-1" d="M23.17,235.12c-2.51-1.73-5.36-3.11-7.45-5.25-4.46-4.55-8.52-9.48-12.74-14.25-4.12-4.65-3.99-7.31,.59-11.36,21.83-19.27,43.64-38.58,65.55-57.77,2.17-1.91,3.01-3.81,3-6.69-.09-39.88-.07-79.76-.06-119.64C72.06,7.18,79.25,0,92.26,0c78.5,0,157,0,235.5,0,13.21,0,20.32,7.14,20.32,20.42,0,102.39,0,204.78,0,307.17,0,13.45-7.1,20.49-20.64,20.49-94.25,0-188.5,0-282.75,0-13.54,0-20.64-7.05-20.65-20.48,0-29.75,0-59.51,0-89.26v-4.09c-.29,.29-.59,.57-.88,.86Zm168.64,100.8c.58,.04,1.55,.16,2.52,.16,44.75,0,89.5,.01,134.25,0,5.48,0,7.51-2.15,7.51-7.87,0-102.77,0-205.53,0-308.3,0-5.88-2-7.89-7.86-7.89-78.75,0-157.51,0-236.26,0-5.9,0-7.9,1.99-7.9,7.84-.01,36.63,0,73.26,0,109.89,0,.91,.17,1.82,.32,3.2,6.49-5.73,12.56-11.12,18.66-16.47,3.73-3.27,6.25-3.35,9.89-.14,33.38,29.42,66.74,58.87,100.09,88.33,3.91,3.46,4.09,6.41,.7,10.3-4.1,4.72-8.34,9.31-12.39,14.07-2.45,2.88-4.88,5.61-9.53,5.08v101.79ZM108.23,160.14c-.75,.54-1.18,.79-1.54,1.11-22.95,20.26-45.91,40.51-68.79,60.86-1.03,.91-1.77,2.73-1.77,4.12-.1,34.25-.09,68.49-.06,102.74,0,4.88,2.23,7.05,7.14,7.1,6,.05,12,.01,18,.01,3.57,0,7.13,0,10.86,0,0-1.92,0-3.29,0-4.65,0-19.75,0-39.5,0-59.24,0-6.16,1.92-8.11,8.01-8.12,18.5-.01,36.99,0,55.49,0,6.68,0,8.51,1.8,8.51,8.37,0,19.87,0,39.75,0,59.62v4.02c9.74,0,18.86,.01,27.98,0,6.08-.01,8.02-1.97,8.02-8.12,0-33.62-.02-67.24,.05-100.87,0-2.45-.67-4.14-2.55-5.77-11.5-10.01-22.89-20.14-34.31-30.24-11.61-10.25-23.21-20.51-35.03-30.95Zm-24.01,175.68h47.54v-59.54h-47.54v59.54ZM22.46,219.57c1.75-1.52,3.16-2.72,4.55-3.95,24.82-21.92,49.63-43.85,74.45-65.76,5.92-5.23,7.34-5.22,13.29,.04,18.36,16.21,36.7,32.43,55.06,48.65,7.85,6.93,15.7,13.85,23.83,21.01,2.74-3.09,5.27-5.94,7.97-8.99-31.36-27.66-62.42-55.06-93.54-82.5-31.31,27.62-62.3,54.96-93.5,82.49,2.66,3.04,5.11,5.84,7.9,9.01Z"/><path class="cls-1" d="M281.87,60.02c.69-9.46,1.92-12.14,5.96-11.9,7.78,.46,5.89,6.83,6.4,11.91,2.31,0,4.4-.07,6.49,.02,3.87,.16,6.28,2.51,6.27,6-.01,3.48-2.43,5.9-6.31,5.95-8,.1-16-.05-24,.06-7.25,.1-11.71,6.78-8.65,12.88,1.73,3.44,4.67,5.08,8.51,5.09,4.87,0,9.75-.06,14.62,.03,10.6,.18,19.12,7.65,20.74,18.09,1.53,9.91-4.72,19.87-14.75,22.8-2.67,.78-3.38,1.93-3.09,4.38,.13,1.11,.13,2.27-.06,3.37-.57,3.23-2.52,5.13-5.83,5.31-3.1,.17-5.71-2.21-6.01-5.5-.18-1.97-.03-3.97-.03-6.45-5.69,0-11.14,0-16.59,0-1.37,0-2.75,.05-4.12-.02-3.8-.2-6.33-2.64-6.3-6.04,.03-3.39,2.56-5.88,6.4-5.91,9.75-.09,19.5-.03,29.25-.05,3.69,0,6.52-1.63,8.26-4.88,1.6-3,1.44-6.04-.4-8.9-1.83-2.85-4.53-4.19-7.9-4.2-4.87,0-9.75,.05-14.62-.03-11.79-.19-21-9.43-21-20.98,0-11.56,9.22-20.79,20.99-21,1.85-.03,3.7,0,5.79,0Z"/><path class="cls-1" d="M168.07,60.02c17.12,0,34.25,0,51.37,0,1.12,0,2.28-.11,3.37,.09,3.22,.61,5.19,2.59,5.19,5.91,0,3.31-1.97,5.31-5.19,5.9-1.21,.22-2.49,.1-3.74,.1-34,0-68,0-101.99,0-1.25,0-2.53,.13-3.74-.1-3.22-.6-5.18-2.59-5.18-5.91,0-3.32,1.97-5.3,5.19-5.9,1.09-.2,2.24-.09,3.37-.09,17.12,0,34.25,0,51.37,0Z"/><path class="cls-1" d="M178.47,102.03c-13.37,0-26.75,0-40.12,0-1,0-2,.04-3-.02-3.52-.24-6.05-2.7-6.11-5.89-.06-3.31,2.57-5.9,6.3-6.07,2.25-.1,4.5-.03,6.75-.03,25.37,0,50.75,0,76.12,0,.87,0,1.75-.02,2.62,0,4.35,.1,7.08,2.47,7.01,6.09-.06,3.61-2.77,5.84-7.2,5.9-2.37,.03-4.75,0-7.12,0-11.75,0-23.5,0-35.25,0Z"/><path class="cls-1" d="M263.7,282.07c-13.5,0-27,.02-40.5-.01-4.1,0-6.63-1.96-7.07-5.24-.5-3.73,2.34-6.69,6.69-6.72,8.87-.07,17.75-.02,26.62-.02,18.37,0,36.75-.01,55.12,0,4.57,0,7.24,2.05,7.47,5.62,.25,3.73-2.59,6.35-7.1,6.36-13.75,.04-27.5,.01-41.25,.01Z"/><path class="cls-1" d="M264.46,300.08c13.5,0,27-.02,40.5,.01,4.25,.01,6.87,2.15,7.09,5.62,.23,3.61-2.53,6.32-6.73,6.35-8.62,.07-17.25,.02-25.87,.02-18.5,0-37,.04-55.49-.06-1.89-.01-4.45-.31-5.49-1.51-1.33-1.53-2.17-4.25-1.87-6.24,.47-3.04,3.17-4.2,6.25-4.19,11.62,.02,23.25,0,34.87,0,2.25,0,4.5,0,6.75,0Z"/><path class="cls-1" d="M266.31,240.06c12.48,0,24.96,0,37.44,0,5.43,0,8.24,2.01,8.3,5.91,.06,3.92-2.81,6.09-8.12,6.09-25.08,0-50.17,0-75.25,0-5.51,0-8.18-1.93-8.23-5.91-.05-4.04,2.63-6.08,8.05-6.08,12.6,0,25.21,0,37.81,0Z"/><path class="cls-1" d="M271.97,180.05c10.87,0,21.73-.02,32.6,0,4.71,.01,7.48,2.26,7.48,5.98,0,3.73-2.76,6-7.46,6-21.98,.02-43.96,.02-65.94,0-4.57,0-7.45-2.49-7.32-6.17,.12-3.55,2.88-5.8,7.3-5.81,11.11-.03,22.23,0,33.35,0Z"/><path class="cls-1" d="M230.64,162.04c-8.6,0-17.21,.02-25.81,0-4.74-.01-7.46-2.2-7.5-5.94-.04-3.77,2.68-6.04,7.39-6.04,17.33-.02,34.67-.02,52,0,4.62,0,7.41,2.4,7.32,6.12-.09,3.59-2.79,5.84-7.21,5.86-8.73,.04-17.46,.01-26.19,.01Z"/><path class="cls-1" d="M279.85,210.05c8.23,0,16.46-.02,24.69,0,4.72,.01,7.48,2.23,7.51,5.94,.04,3.74-2.72,6.04-7.4,6.05-16.83,.02-33.67,.02-50.5,0-4.64,0-7.39-2.37-7.31-6.13,.08-3.62,2.74-5.84,7.2-5.85,8.6-.04,17.21-.01,25.81-.01Z"/><path class="cls-1" d="M195.79,132.03c-8.36,0-16.72,.02-25.08,0-4.71-.02-7.36-2.26-7.32-6.07,.04-3.79,2.68-5.91,7.47-5.91,16.6-.02,33.2-.02,49.79,0,4.66,0,7.44,2.34,7.39,6.07-.05,3.71-2.81,5.91-7.54,5.92-8.24,.02-16.47,0-24.71,0Z"/><path class="cls-1" d="M132.05,216.01c.02,13.27-10.77,24.06-24.04,24.04-13.24-.02-24-10.87-23.94-24.14,.06-13.09,10.76-23.79,23.85-23.85,13.29-.06,24.11,10.68,24.13,23.95Zm-12,.09c.02-6.48-5.37-11.96-11.85-12.03-6.48-.07-12.01,5.29-12.12,11.76-.12,6.64,5.41,12.25,12.04,12.22,6.49-.03,11.91-5.46,11.94-11.95Z"/></g></g></svg>