<?xml version="1.0" encoding="UTF-8"?><svg id="Calque_2" xmlns="http://www.w3.org/2000/svg" viewBox="0 0 375.55 383.26"><defs><style>.cls-1{fill:#fff;}</style></defs><g id="Calque_1-2"><g><g><path class="cls-1" d="M117.3,0c30.02,4.1,56.72,46.19,53.09,79.52-.53,4.9-1.9,9.77-3.37,14.5-2.99,9.6-5.31,19.25-4.08,29.39,1.05,8.66,4.49,15.98,13.09,19.42,8.83,3.53,16.97,1.39,24.09-4.5,7.3-6.03,10.04-14.33,10.69-23.47,.09-1.24,.04-2.49,.06-3.74,.03-3.31,1.48-5.74,4.51-7.13,2.94-1.35,5.8-.85,7.97,1.34,5.17,5.22,10.59,10.28,15.06,16.07,13.66,17.69,20.65,38.2,24.08,60.06,2.6,16.61,2.81,33.27,.98,49.97-.08,.74-.01,1.49-.01,2.84,1.28,0,2.58,0,3.88,0,23.33,0,46.66-.01,69.99,0,22.74,.02,38.19,15.52,38.21,38.34,.02,24.08,.02,48.15,0,72.23-.02,22.97-15.52,38.39-38.57,38.4-16.47,.01-32.93,.01-49.4,0-5.66,0-9.24-2.98-9.2-7.55,.05-4.55,3.6-7.38,9.33-7.42,.75,0,1.5,0,2.25,0,15.72,0,31.44,0,47.16,0,14.71,0,23.47-8.77,23.47-23.51,.01-24.08,.01-48.15,0-72.23,0-14.53-8.77-23.3-23.26-23.3-58.76,0-117.52,0-176.27,0-14.13,0-22.96,8.68-23,22.76-.06,24.45-.05,48.9,0,73.35,.03,14.21,8.93,22.93,23.25,22.93,16.59,0,33.18,0,49.78,0,.87,0,1.75-.02,2.62,0,5.01,.13,8.45,3.29,8.34,7.65-.11,4.23-3.45,7.29-8.3,7.3-18.46,.04-36.93,.02-55.39-.02-1.61,0-3.23-.26-4.82-.51-9.3-1.46-16.91-5.97-22.59-13.38-1.92-2.51-3.94-3.15-6.87-3.28-28.1-1.28-53.96-9.34-76.47-26.53-25.86-19.75-40.64-46.43-45.39-78.22-8.18-54.68,6.44-103.08,42.16-145.27,10.39-12.27,20.75-24.63,30.14-37.65,15.15-21,24.13-44.88,30.07-69.94,.88-3.71,2.27-6.83,5.98-8.42h6.74Zm5.77,351.12c0-9.38-.04-18.22,.03-27.06,.02-2.05-.7-2.74-2.75-3-22.91-2.86-39.88-14.74-51.25-34.59-10.84-18.93-14.18-39.5-11.75-61,4.23-37.4,22.15-66.61,53.28-87.75,2.79-1.89,5.64-2.68,8.74-.98,3.09,1.69,3.92,4.5,3.97,7.88,.08,5.1,.24,10.23,.78,15.3,1.73,16.14,9.41,28.12,24.77,34.55,4.36,1.83,8.77,3.57,13.07,5.52,14.89,6.77,26.72,16.86,33.77,31.9,.91,1.94,1.97,2.43,3.95,2.42,15.22-.07,30.43-.04,45.65-.05,.94,0,1.88-.18,2.96-.29,3.83-38.31,.21-74.58-23.36-105.81-3.8,6.11-6.69,12.64-11.23,17.7-10.24,11.39-23.36,16.04-38.53,12.36-14.39-3.49-22.63-13.46-26.15-27.44-2.85-11.3-1.41-22.54,1.51-33.63,1.58-6.01,4.34-11.91,4.77-17.98,1.71-24.1-8.07-43.34-26.69-58.24-2.89-2.32-6.58-3.64-10.15-5.57-.58,1.99-.94,3.18-1.26,4.37-7.26,26.84-18.3,51.94-35.26,74.11-9.09,11.88-18.95,23.15-28.45,34.71-31.51,38.35-44.3,82.15-36.35,131.17,6.03,37.16,26.14,64.66,60.85,80.58,14.18,6.5,29.17,9.9,45.07,10.85Zm0-44.81c0-2.01,0-3.36,0-4.72,.03-10.85-.27-21.71,.16-32.55,.58-14.49,7.78-25.17,20.86-31.16,4.93-2.26,10.74-2.98,16.24-3.47,6.35-.58,12.78-.13,19.81-.13-5.52-9.03-12.76-14.95-21.39-19.19-5.58-2.74-11.41-4.98-17.09-7.52-16.34-7.32-26.62-19.71-30.75-37.13-.93-3.93-1.54-7.94-2.32-12.02-.5,.22-.88,.3-1.14,.52-.96,.8-1.91,1.6-2.8,2.48-24.9,24.44-35.98,54.04-32.09,88.74,1.97,17.59,8.84,33.2,22.85,44.86,7.85,6.53,16.92,10.26,27.65,11.31Z"/><path class="cls-1" d="M256.64,375.61c.07,4.27-3.21,7.64-7.41,7.62-3.96-.02-7.36-3.35-7.46-7.31-.11-4.07,3.4-7.63,7.52-7.61,4.07,.02,7.28,3.21,7.35,7.3Z"/></g><g><path class="cls-1" d="M165.06,278.28h15.95v62.61h-15.95v-62.61Z"/><path class="cls-1" d="M204.84,340.89h-15.02l8.73-62.61h18.63l11.75,38.44h.08l11.41-38.44h18.13l8.81,62.61h-15.19l-4.36-40.96h-.34l-12.25,40.96h-13.43l-12-40.88h-.34l-4.62,40.88Z"/><path class="cls-1" d="M305.22,276.77c18.55,0,32.73,13.6,32.73,32.82s-14.18,32.82-32.73,32.82-32.82-13.68-32.82-32.82,14.35-32.82,32.82-32.82Zm16.7,32.82c0-11.67-8.23-18.38-16.7-18.38s-16.79,6.71-16.79,18.38,8.14,18.3,16.79,18.3,16.7-6.63,16.7-18.3Z"/></g></g></g></svg>