<svg width="53" height="52" viewBox="0 0 53 52" fill="none" xmlns="http://www.w3.org/2000/svg">
<path d="M52.0253 26.1671C52.0253 40.347 40.5302 51.8421 26.3503 51.8421C12.1704 51.8421 0.675293 40.347 0.675293 26.1671C0.675293 11.9872 12.1704 0.492065 26.3503 0.492065C40.5302 0.492065 52.0253 11.9872 52.0253 26.1671Z" fill="#1D202D"/>
<path d="M28.2648 26.1701L21.8878 32.5381C21.7762 32.6497 21.6877 32.7822 21.6273 32.9281C21.5668 33.0739 21.5357 33.2302 21.5357 33.3881C21.5357 33.5459 21.5668 33.7022 21.6273 33.8481C21.6877 33.9939 21.7762 34.1264 21.8878 34.2381C21.9995 34.3497 22.132 34.4382 22.2778 34.4986C22.4237 34.5591 22.58 34.5901 22.7378 34.5901C22.8957 34.5901 23.052 34.5591 23.1978 34.4986C23.3437 34.4382 23.4762 34.3497 23.5878 34.2381L30.8138 27.0221C31.0325 26.8032 31.1583 26.5084 31.1648 26.1991C31.1713 25.8898 31.0581 25.5899 30.8488 25.3621L23.5978 18.0961C23.3724 17.8706 23.0666 17.744 22.7478 17.744C22.429 17.744 22.1233 17.8706 21.8978 18.0961C21.6724 18.3215 21.5457 18.6273 21.5457 18.9461C21.5457 19.2649 21.6724 19.5706 21.8978 19.7961L28.2648 26.1701Z" fill="white"/>
</svg>
