<svg width="53" height="52" viewBox="0 0 53 52" fill="none" xmlns="http://www.w3.org/2000/svg">
<g opacity="0.5">
<path opacity="0.5" d="M26.326 1.45996C22.9945 1.45996 19.7632 2.11222 16.7219 3.39861C13.7837 4.64133 11.1448 6.42061 8.87841 8.68701C6.61201 10.9534 4.83274 13.5923 3.59002 16.5304C2.30363 19.5718 1.65137 22.8031 1.65137 26.1346C1.65137 29.4661 2.30363 32.6975 3.59002 35.7388C4.83274 38.6769 6.61201 41.3159 8.87841 43.5823C11.1448 45.8487 13.7837 47.6279 16.7219 48.8707C19.7632 50.1571 22.9945 50.8093 26.326 50.8093C29.6575 50.8093 32.8889 50.1571 35.9302 48.8707C38.8684 47.6279 41.5073 45.8487 43.7737 43.5823C46.0401 41.3159 47.8194 38.6769 49.0621 35.7388C50.3485 32.6975 51.0007 29.4661 51.0007 26.1346C51.0007 22.8031 50.3485 19.5718 49.0621 16.5304C47.8194 13.5923 46.0401 10.9534 43.7737 8.68701C41.5073 6.42061 38.8684 4.64133 35.9302 3.39861C32.8889 2.11222 29.6575 1.45996 26.326 1.45996ZM26.326 0.459961C40.5058 0.459961 52.0007 11.9549 52.0007 26.1346C52.0007 40.3144 40.5058 51.8093 26.326 51.8093C12.1463 51.8093 0.651367 40.3144 0.651367 26.1346C0.651367 11.9549 12.1463 0.459961 26.326 0.459961Z" fill="#1D202D"/>
</g>
<path d="M28.0632 26.0009L21.6862 32.3689C21.5745 32.4806 21.486 32.6131 21.4256 32.7589C21.3652 32.9048 21.3341 33.0611 21.3341 33.2189C21.3341 33.3768 21.3652 33.5331 21.4256 33.679C21.486 33.8248 21.5745 33.9573 21.6862 34.0689C21.7978 34.1806 21.9303 34.2691 22.0762 34.3295C22.222 34.3899 22.3783 34.421 22.5362 34.421C22.694 34.421 22.8503 34.3899 22.9962 34.3295C23.142 34.2691 23.2745 34.1806 23.3862 34.0689L30.6122 26.8529C30.8309 26.6341 30.9566 26.3393 30.9631 26.03C30.9696 25.7207 30.8564 25.4208 30.6472 25.1929L23.3962 17.9269C23.1707 17.7015 22.865 17.5749 22.5462 17.5749C22.2274 17.5749 21.9216 17.7015 21.6962 17.9269C21.4707 18.1524 21.3441 18.4581 21.3441 18.7769C21.3441 19.0958 21.4707 19.4015 21.6962 19.6269L28.0632 26.0009Z" fill="#1D202D"/>
</svg>
