<svg width="88" height="88" viewBox="0 0 88 88" fill="none" xmlns="http://www.w3.org/2000/svg">
<path d="M4 0H84C85.0609 0 86.0783 0.421427 86.8284 1.17157C87.5786 1.92172 88 2.93913 88 4V84C88 85.0609 87.5786 86.0783 86.8284 86.8284C86.0783 87.5786 85.0609 88 84 88H4C2.93913 88 1.92172 87.5786 1.17157 86.8284C0.421427 86.0783 0 85.0609 0 84V4C0 2.93913 0.421427 1.92172 1.17157 1.17157C1.92172 0.421427 2.93913 0 4 0V0Z" fill="#FDFAF6"/>
<path d="M74.9002 43.7557C73.2912 30.8297 64.2942 44.1047 61.8602 36.0957C60.3842 31.2397 66.4882 25.2727 64.4172 19.9547C62.6862 15.5097 57.8652 14.3157 53.3102 15.2087C49.6432 15.9267 46.3802 19.7147 42.5262 19.0827C38.4442 18.4127 37.1702 13.0407 33.1102 11.6267C22.6822 7.99368 17.7922 21.0187 15.1932 28.5267C11.8932 38.0677 8.75318 50.5337 18.8932 56.8757C29.5692 63.5547 36.7472 54.1387 43.5932 67.5647C57.1002 94.0427 77.1512 61.8437 74.9002 43.7557Z" fill="url(#paint0_linear)"/>
<path opacity="0.11" d="M66.688 42.3715L61.116 34.8835C61.3612 34.8027 61.5747 34.6466 61.7261 34.4374C61.8774 34.2283 61.9589 33.9767 61.959 33.7185V24.7355C61.959 24.4135 61.8311 24.1047 61.6034 23.8771C61.3758 23.6494 61.067 23.5215 60.745 23.5215H49.645C49.323 23.5215 49.0142 23.6494 48.7866 23.8771C48.5589 24.1047 48.431 24.4135 48.431 24.7355V31.0715H21.496C20.8064 31.0715 20.1451 31.3454 19.6575 31.833C19.1699 32.3206 18.896 32.9819 18.896 33.6715V54.1315C18.8955 54.7764 19.1347 55.3985 19.5671 55.8769C19.9995 56.3553 20.5943 56.656 21.236 56.7205C20.3541 57.8828 19.9037 59.3156 19.962 60.7735C20.0411 62.4167 20.7521 63.9659 21.9464 65.0973C23.1406 66.2288 24.7259 66.8551 26.371 66.8455H29.291C30.4747 66.8586 31.6384 66.5399 32.6503 65.9254C33.6621 65.3109 34.4815 64.4252 35.0156 63.3688C35.5498 62.3124 35.7773 61.1274 35.6724 59.9483C35.5674 58.7692 35.1343 57.643 34.422 56.6975H56.933H57.015V64.5305C57.0029 65.1507 57.1141 65.7671 57.3422 66.3439C57.5703 66.9208 57.9107 67.4466 58.3436 67.8909C58.7765 68.3351 59.2934 68.6889 59.8642 68.9318C60.435 69.1747 61.0483 69.3017 61.6686 69.3056C62.2889 69.3096 62.9038 69.1902 63.4776 68.9545C64.0514 68.7189 64.5727 68.3716 65.0112 67.9328C65.4497 67.4941 65.7966 66.9726 66.032 66.3987C66.2673 65.8247 66.3863 65.2098 66.382 64.5895V45.9215L66.687 45.5115C67.0247 45.0577 67.2071 44.5072 67.2073 43.9417C67.2075 43.3761 67.0254 42.8254 66.688 42.3715ZM63.521 64.6835C63.521 65.1666 63.3291 65.6299 62.9875 65.9715C62.6459 66.3131 62.1826 66.505 61.6995 66.505C61.2164 66.505 60.7531 66.3131 60.4115 65.9715C60.0699 65.6299 59.878 65.1666 59.878 64.6835V54.4835L63.521 49.5835V64.6835Z" fill="#313131"/>
<path d="M68.8443 39.9895L64.0833 33.5895L61.2383 29.7755C60.9963 29.4506 60.6818 29.1868 60.3198 29.005C59.9578 28.8232 59.5584 28.7286 59.1533 28.7285H23.8383C23.1487 28.7285 22.4874 29.0024 21.9998 29.49C21.5122 29.9776 21.2383 30.6389 21.2383 31.3285V51.7545C21.2383 52.4441 21.5122 53.1054 21.9998 53.593C22.4874 54.0806 23.1487 54.3545 23.8383 54.3545H59.1553C59.5604 54.3545 59.9598 54.2598 60.3218 54.078C60.6838 53.8962 60.9983 53.6324 61.2403 53.3075L68.8403 43.0905C69.1739 42.6426 69.3545 42.0992 69.3552 41.5407C69.3559 40.9822 69.1768 40.4383 68.8443 39.9895ZM60.7543 44.9665C60.0796 44.9665 59.4202 44.7665 58.8592 44.3916C58.2983 44.0168 57.8611 43.4841 57.6029 42.8608C57.3448 42.2376 57.2772 41.5517 57.4088 40.8901C57.5404 40.2284 57.8653 39.6206 58.3423 39.1436C58.8194 38.6665 59.4272 38.3417 60.0888 38.2101C60.7505 38.0784 61.4363 38.146 62.0596 38.4042C62.6829 38.6623 63.2156 39.0995 63.5904 39.6605C63.9652 40.2214 64.1653 40.8809 64.1653 41.5555C64.1653 42.46 63.806 43.3274 63.1666 43.9671C62.5271 44.6068 61.6598 44.9662 60.7553 44.9665H60.7543Z" fill="#F9F1E5"/>
<path d="M48.4283 45.6319V54.3559H27.6133V45.6339C27.6133 45.4283 27.6949 45.2312 27.8403 45.0859C27.9856 44.9405 28.1827 44.8589 28.3883 44.8589H47.6523C47.8577 44.8586 48.0547 44.9399 48.2002 45.0848C48.3457 45.2297 48.4277 45.4265 48.4283 45.6319Z" fill="#585972"/>
<path d="M34.1712 47.5907H27.4552C27.3026 47.5934 27.1536 47.5437 27.0333 47.4498C26.913 47.3558 26.8286 47.2234 26.7942 47.0747C26.7743 46.9799 26.7757 46.8819 26.7985 46.7877C26.8213 46.6936 26.8647 46.6057 26.9258 46.5305C26.9868 46.4553 27.0638 46.3946 27.1513 46.353C27.2387 46.3113 27.3344 46.2897 27.4312 46.2897H34.1472C34.2998 46.2869 34.4488 46.3366 34.5691 46.4306C34.6895 46.5245 34.7739 46.6569 34.8082 46.8057C34.8281 46.9004 34.8267 46.9985 34.8039 47.0926C34.7812 47.1868 34.7377 47.2747 34.6767 47.3499C34.6156 47.4251 34.5386 47.4857 34.4511 47.5274C34.3637 47.569 34.2681 47.5906 34.1712 47.5907Z" fill="#313131"/>
<path d="M41.2923 49.6727H27.4533C27.3006 49.6755 27.1517 49.6257 27.0314 49.5318C26.911 49.4379 26.8266 49.3054 26.7923 49.1567C26.7723 49.0619 26.7738 48.9639 26.7965 48.8697C26.8193 48.7756 26.8628 48.6877 26.9238 48.6125C26.9848 48.5373 27.0619 48.4766 27.1493 48.435C27.2368 48.3933 27.3324 48.3717 27.4293 48.3717H41.2653C41.4179 48.3689 41.5668 48.4187 41.6872 48.5126C41.8075 48.6065 41.8919 48.7389 41.9263 48.8877C41.9461 48.9822 41.9447 49.08 41.9222 49.1739C41.8996 49.2679 41.8564 49.3556 41.7957 49.4307C41.735 49.5059 41.6583 49.5666 41.5712 49.6084C41.4842 49.6503 41.3889 49.6722 41.2923 49.6727Z" fill="#313131"/>
<path d="M68.7243 43.5139V62.2389C68.7293 62.8593 68.6111 63.4745 68.3763 64.0489C68.1416 64.6232 67.7951 65.1452 67.357 65.5845C66.9188 66.0238 66.3977 66.3717 65.824 66.608C65.2503 66.8442 64.6354 66.9642 64.0149 66.9608C63.3945 66.9574 62.7809 66.8308 62.2098 66.5883C61.6387 66.3458 61.1215 65.9923 60.6881 65.5482C60.2548 65.1042 59.914 64.5784 59.6855 64.0016C59.4571 63.4247 59.3455 62.8082 59.3573 62.1879V38.4599C59.8057 38.2518 60.294 38.144 60.7883 38.144C61.2826 38.144 61.7709 38.2518 62.2193 38.4599V62.2379C62.2193 62.7209 62.4112 63.1843 62.7528 63.5258C63.0944 63.8674 63.5577 64.0594 64.0408 64.0594C64.5239 64.0594 64.9872 63.8674 65.3288 63.5258C65.6704 63.1843 65.8623 62.7209 65.8623 62.2379V47.3609L68.7243 43.5139Z" fill="white"/>
<path d="M64.301 22.3987V31.4157C64.301 31.7376 64.173 32.0464 63.9454 32.2741C63.7177 32.5018 63.4089 32.6297 63.0869 32.6297H51.987C51.665 32.6297 51.3562 32.5018 51.1285 32.2741C50.9009 32.0464 50.7729 31.7376 50.7729 31.4157V22.3947C50.7729 22.0727 50.9009 21.7639 51.1285 21.5362C51.3562 21.3086 51.665 21.1807 51.987 21.1807H63.0869C63.4092 21.182 63.7178 21.3109 63.9453 21.5391C64.1728 21.7674 64.3007 22.0764 64.301 22.3987Z" fill="white"/>
<path d="M56.1521 25.0838H54.0031C53.8504 25.0866 53.7015 25.0369 53.5812 24.9429C53.4608 24.849 53.3764 24.7166 53.3421 24.5678C53.3221 24.4731 53.3236 24.375 53.3464 24.2809C53.3691 24.1867 53.4126 24.0989 53.4736 24.0236C53.5346 23.9484 53.6117 23.8878 53.6991 23.8461C53.7866 23.8045 53.8822 23.7829 53.9791 23.7828H56.1281C56.2809 23.7798 56.43 23.8295 56.5506 23.9234C56.6711 24.0174 56.7557 24.1499 56.7901 24.2988C56.81 24.3937 56.8085 24.4918 56.7857 24.5861C56.7629 24.6803 56.7193 24.7682 56.6582 24.8434C56.597 24.9187 56.5199 24.9793 56.4323 25.0209C56.3448 25.0625 56.249 25.084 56.1521 25.0838Z" fill="#313131"/>
<path d="M64.301 24.8145V31.4145C64.3004 31.7361 64.1723 32.0443 63.9447 32.2716C63.7171 32.4988 63.4086 32.6265 63.0869 32.6264H51.987C51.665 32.6264 51.3562 32.4985 51.1285 32.2709C50.9009 32.0432 50.7729 31.7344 50.7729 31.4125V29.3764H53.073C53.4188 29.3773 53.7509 29.2415 53.9969 28.9985L55.732 27.2834C55.9788 27.0411 56.311 26.9054 56.657 26.9054H61.65C61.8256 26.9063 61.9996 26.8723 62.162 26.8055C62.3154 26.7412 62.455 26.6478 62.573 26.5304L64.301 24.8145Z" fill="#F9F1E5"/>
<path d="M31.8033 64.5049C32.6404 64.5049 33.4692 64.3383 34.2413 64.0148C35.0134 63.6913 35.7134 63.2175 36.3006 62.6208C36.8878 62.0242 37.3503 61.3166 37.6614 60.5394C37.9724 59.7622 38.1257 58.9309 38.1123 58.0939C38.0671 56.4249 37.3696 54.84 36.1694 53.6793C34.9692 52.5185 33.3619 51.8743 31.6923 51.8849H28.6543V64.5049H31.8033Z" fill="white"/>
<path d="M28.6471 64.5017C32.1359 64.5017 34.9641 61.6735 34.9641 58.1847C34.9641 54.6959 32.1359 51.8677 28.6471 51.8677C25.1583 51.8677 22.3301 54.6959 22.3301 58.1847C22.3301 61.6735 25.1583 64.5017 28.6471 64.5017Z" fill="white"/>
<path d="M18.6119 57.4206C18.1724 57.4208 17.7463 57.2686 17.4063 56.9899C17.0664 56.7112 16.8336 56.3233 16.7476 55.8922C16.6617 55.4611 16.7278 55.0135 16.9349 54.6257C17.1419 54.238 17.477 53.934 17.883 53.7656C18.2891 53.5972 18.741 53.5748 19.1617 53.7022C19.5824 53.8296 19.9459 54.099 20.1903 54.4644C20.4347 54.8298 20.5448 55.2686 20.5019 55.7061C20.459 56.1436 20.2657 56.5526 19.9549 56.8636C19.779 57.0406 19.5698 57.181 19.3392 57.2766C19.1087 57.3723 18.8615 57.4212 18.6119 57.4206ZM18.6119 54.9206C18.513 54.92 18.4154 54.9439 18.328 54.9902C18.2405 55.0364 18.1658 55.1036 18.1106 55.1857C18.0554 55.2678 18.0213 55.3623 18.0114 55.4608C18.0016 55.5592 18.0162 55.6586 18.0541 55.7501C18.0919 55.8415 18.1518 55.9221 18.2283 55.9848C18.3049 56.0475 18.3958 56.0903 18.4929 56.1093C18.59 56.1284 18.6903 56.1232 18.7849 56.0941C18.8794 56.065 18.9653 56.0129 19.0349 55.9426C19.118 55.8586 19.1745 55.7521 19.1972 55.6362C19.22 55.5203 19.208 55.4003 19.1628 55.2911C19.1177 55.182 19.0413 55.0886 18.9433 55.0227C18.8453 54.9568 18.73 54.9213 18.6119 54.9206Z" fill="#F9F1E5"/>
<path d="M29.9894 22.5075C29.5498 22.5075 29.1238 22.3551 28.7839 22.0762C28.4441 21.7973 28.2116 21.4092 28.1258 20.978C28.0401 20.5469 28.1065 20.0993 28.3138 19.7116C28.5211 19.324 28.8564 19.0202 29.2626 18.852C29.6688 18.6839 30.1207 18.6618 30.5413 18.7895C30.962 18.9172 31.3253 19.1868 31.5694 19.5524C31.8136 19.918 31.9234 20.3569 31.8802 20.7944C31.8369 21.2318 31.6433 21.6408 31.3324 21.9515C31.1561 22.1281 30.9468 22.2681 30.7163 22.3635C30.4858 22.4589 30.2388 22.5078 29.9894 22.5075ZM29.9894 20.0075C29.8904 20.0069 29.7929 20.0308 29.7054 20.0771C29.6179 20.1234 29.5432 20.1905 29.488 20.2726C29.4328 20.3548 29.3987 20.4492 29.3889 20.5477C29.379 20.6462 29.3936 20.7455 29.4315 20.837C29.4693 20.9284 29.5292 21.0091 29.6057 21.0717C29.6823 21.1344 29.7732 21.1772 29.8703 21.1963C29.9674 21.2153 30.0677 21.2101 30.1623 21.181C30.2569 21.1519 30.3428 21.0999 30.4124 21.0295C30.4954 20.9456 30.5519 20.839 30.5746 20.7231C30.5974 20.6072 30.5854 20.4872 30.5402 20.378C30.4951 20.2689 30.4187 20.1756 30.3207 20.1097C30.2227 20.0437 30.1075 20.0082 29.9894 20.0075Z" fill="#F9F1E5"/>
<path d="M35.9473 23.0017H35.5473V22.6017C35.5501 22.4491 35.5003 22.3001 35.4064 22.1798C35.3125 22.0595 35.1801 21.9751 35.0313 21.9407C34.9365 21.9208 34.8385 21.9222 34.7444 21.945C34.6502 21.9677 34.5623 22.0112 34.4871 22.0723C34.4119 22.1333 34.3513 22.2103 34.3096 22.2978C34.268 22.3852 34.2463 22.4808 34.2463 22.5777V23.0007H33.8463C33.6937 22.9979 33.5447 23.0477 33.4244 23.1416C33.3041 23.2355 33.2197 23.368 33.1853 23.5167C33.1654 23.6115 33.1669 23.7095 33.1896 23.8037C33.2124 23.8978 33.2558 23.9857 33.3169 24.0609C33.3779 24.1361 33.455 24.1968 33.5424 24.2384C33.6298 24.2801 33.7255 24.3017 33.8223 24.3017H34.2453V24.7017C34.2426 24.8543 34.2923 25.0033 34.3862 25.1236C34.4802 25.2439 34.6126 25.3283 34.7613 25.3627C34.8561 25.3826 34.9541 25.3812 35.0483 25.3584C35.1424 25.3356 35.2303 25.2922 35.3055 25.2311C35.3807 25.1701 35.4414 25.0931 35.483 25.0056C35.5247 24.9182 35.5463 24.8226 35.5463 24.7257V24.3027H35.9693C36.0662 24.3027 36.1618 24.2811 36.2493 24.2394C36.3367 24.1978 36.4137 24.1371 36.4748 24.0619C36.5358 23.9867 36.5793 23.8988 36.602 23.8047C36.6248 23.7105 36.6263 23.6125 36.6063 23.5177C36.572 23.3693 36.4879 23.2371 36.368 23.1432C36.2481 23.0493 36.0996 22.9994 35.9473 23.0017Z" fill="#F9F1E5"/>
<path d="M56.3731 58.6496H55.9731V58.2497C55.9759 58.097 55.9261 57.9481 55.8322 57.8277C55.7383 57.7074 55.6058 57.623 55.4571 57.5886C55.3623 57.5687 55.2643 57.5702 55.1702 57.5929C55.076 57.6157 54.9881 57.6592 54.9129 57.7202C54.8377 57.7812 54.7771 57.8583 54.7354 57.9457C54.6937 58.0332 54.6721 58.1288 54.6721 58.2256V58.6486H54.2721C54.1195 58.6459 53.9705 58.6956 53.8502 58.7896C53.7299 58.8835 53.6455 59.0159 53.6111 59.1647C53.5912 59.2594 53.5926 59.3575 53.6154 59.4516C53.6382 59.5458 53.6816 59.6336 53.7427 59.7088C53.8037 59.7841 53.8807 59.8447 53.9682 59.8864C54.0556 59.928 54.1513 59.9496 54.2481 59.9496H54.6711V60.3497C54.6684 60.5023 54.7181 60.6512 54.812 60.7716C54.906 60.8919 55.0384 60.9763 55.1871 61.0106C55.2819 61.0306 55.3799 61.0291 55.4741 61.0064C55.5682 60.9836 55.6561 60.9401 55.7313 60.8791C55.8065 60.8181 55.8672 60.741 55.9088 60.6536C55.9505 60.5661 55.9721 60.4705 55.9721 60.3736V59.9506H56.3951C56.492 59.9506 56.5876 59.929 56.675 59.8873C56.7625 59.8457 56.8395 59.7851 56.9006 59.7099C56.9616 59.6346 57.0051 59.5468 57.0278 59.4526C57.0506 59.3585 57.0521 59.2604 57.0321 59.1656C56.9978 59.0172 56.9137 58.8851 56.7938 58.7912C56.6739 58.6973 56.5254 58.6473 56.3731 58.6496Z" fill="#F9F1E5"/>
<path d="M69.6441 32.2385H69.2441V31.8385C69.2469 31.6859 69.1971 31.5369 69.1032 31.4166C69.0093 31.2963 68.8768 31.2119 68.7281 31.1775C68.6333 31.1576 68.5353 31.159 68.4411 31.1818C68.347 31.2046 68.2591 31.248 68.1839 31.3091C68.1087 31.3701 68.0481 31.4471 68.0064 31.5346C67.9647 31.622 67.9431 31.7177 67.9431 31.8145V32.2375H67.5431C67.3905 32.2348 67.2415 32.2845 67.1212 32.3784C67.0009 32.4724 66.9165 32.6048 66.8821 32.7535C66.8622 32.8483 66.8636 32.9463 66.8864 33.0405C66.9092 33.1346 66.9526 33.2225 67.0137 33.2977C67.0747 33.3729 67.1517 33.4336 67.2392 33.4752C67.3266 33.5169 67.4223 33.5385 67.5191 33.5385H67.9421V33.9385C67.9394 34.0911 67.9891 34.2401 68.083 34.3604C68.177 34.4808 68.3094 34.5652 68.4581 34.5995C68.5529 34.6195 68.6509 34.618 68.7451 34.5952C68.8392 34.5725 68.9271 34.529 69.0023 34.468C69.0775 34.4069 69.1382 34.3299 69.1798 34.2425C69.2215 34.155 69.2431 34.0594 69.2431 33.9625V33.5395H69.6661C69.763 33.5395 69.8586 33.5179 69.946 33.4762C70.0335 33.4346 70.1105 33.3739 70.1716 33.2987C70.2326 33.2235 70.2761 33.1356 70.2988 33.0415C70.3216 32.9473 70.3231 32.8493 70.3031 32.7545C70.2688 32.6061 70.1847 32.474 70.0648 32.3801C69.9449 32.2862 69.7964 32.2362 69.6441 32.2385Z" fill="#F9F1E5"/>
<path d="M50.0294 46.4225C50.3487 46.1085 50.5672 45.7066 50.6573 45.2679C50.7474 44.8293 50.7049 44.3738 50.5352 43.9594C50.3656 43.545 50.0765 43.1904 49.7047 42.9409C49.3329 42.6914 48.8952 42.5581 48.4474 42.5581C47.9996 42.5581 47.562 42.6914 47.1902 42.9409C46.8184 43.1904 46.5292 43.545 46.3596 43.9594C46.1899 44.3738 46.1474 44.8293 46.2375 45.2679C46.3276 45.7066 46.5462 46.1085 46.8654 46.4225C46.6522 46.6318 46.4828 46.8816 46.3673 47.1572C46.2517 47.4328 46.1923 47.7286 46.1924 48.0275C46.1875 48.1159 46.2007 48.2043 46.2311 48.2874C46.2616 48.3706 46.3087 48.4466 46.3695 48.5109C46.4304 48.5752 46.5037 48.6265 46.585 48.6615C46.6663 48.6965 46.7539 48.7145 46.8424 48.7145C46.9309 48.7145 47.0185 48.6965 47.0999 48.6615C47.1812 48.6265 47.2545 48.5752 47.3153 48.5109C47.3762 48.4466 47.4232 48.3706 47.4537 48.2874C47.4841 48.2043 47.4973 48.1159 47.4924 48.0275C47.5004 47.7797 47.6045 47.5447 47.7826 47.3722C47.9608 47.1998 48.199 47.1034 48.4469 47.1034C48.6948 47.1034 48.9331 47.1998 49.1112 47.3722C49.2893 47.5447 49.3934 47.7797 49.4014 48.0275C49.3965 48.1159 49.4097 48.2043 49.4401 48.2874C49.4706 48.3706 49.5177 48.4466 49.5785 48.5109C49.6393 48.5752 49.7127 48.6265 49.794 48.6615C49.8753 48.6965 49.9629 48.7145 50.0514 48.7145C50.1399 48.7145 50.2275 48.6965 50.3088 48.6615C50.3902 48.6265 50.4635 48.5752 50.5243 48.5109C50.5852 48.4466 50.6322 48.3706 50.6627 48.2874C50.6931 48.2043 50.7063 48.1159 50.7014 48.0275C50.7017 47.7287 50.6425 47.4329 50.5271 47.1573C50.4117 46.8817 50.2425 46.6319 50.0294 46.4225ZM47.4924 44.8175C47.4924 44.6286 47.5484 44.4439 47.6534 44.2869C47.7583 44.1298 47.9074 44.0074 48.0819 43.9352C48.2564 43.8629 48.4485 43.844 48.6337 43.8808C48.819 43.9177 48.9891 44.0086 49.1227 44.1422C49.2562 44.2757 49.3472 44.4459 49.3841 44.6311C49.4209 44.8164 49.402 45.0084 49.3297 45.1829C49.2574 45.3574 49.135 45.5066 48.978 45.6115C48.8209 45.7164 48.6363 45.7725 48.4474 45.7725C48.3219 45.7726 48.1975 45.748 48.0815 45.7001C47.9654 45.6522 47.86 45.5818 47.7711 45.4932C47.6823 45.4045 47.6117 45.2992 47.5636 45.1832C47.5154 45.0673 47.4906 44.943 47.4904 44.8175H47.4924Z" fill="#313131"/>
<path d="M37.9453 34.2016C37.9173 34.0523 37.8381 33.9174 37.7212 33.8202C37.6044 33.7231 37.4572 33.6698 37.3053 33.6696H29.6663L29.2663 32.4286C29.2238 32.2979 29.1411 32.1839 29.0299 32.1031C28.9187 32.0222 28.7848 31.9787 28.6473 31.9786H26.8063C26.6537 31.9759 26.5047 32.0256 26.3844 32.1195C26.2641 32.2135 26.1796 32.3459 26.1453 32.4946C26.1254 32.5894 26.1268 32.6874 26.1496 32.7816C26.1723 32.8757 26.2158 32.9636 26.2768 33.0388C26.3379 33.114 26.4149 33.1747 26.5024 33.2163C26.5898 33.258 26.6854 33.2796 26.7823 33.2796H28.1633L29.7633 38.2236H29.6403C29.4903 38.2208 29.3445 38.2737 29.2313 38.3722C29.118 38.4707 29.0453 38.6077 29.0273 38.7566C29.0199 38.8376 29.0295 38.9193 29.0555 38.9963C29.0814 39.0734 29.1232 39.1442 29.178 39.2043C29.2329 39.2643 29.2997 39.3122 29.3741 39.345C29.4485 39.3778 29.529 39.3947 29.6103 39.3946H36.5173C36.6699 39.3946 36.8177 39.341 36.9347 39.243C37.0517 39.145 37.1305 39.0089 37.1573 38.8586L37.9463 34.4376C37.9608 34.3596 37.9604 34.2795 37.9453 34.2016ZM35.9543 38.0936H31.1293L30.1203 34.9716H36.5123L35.9543 38.0936Z" fill="#313131"/>
<path d="M31.0323 40.0469C30.6975 40.0469 30.3702 40.1462 30.0918 40.3322C29.8134 40.5182 29.5964 40.7826 29.4682 41.092C29.3401 41.4014 29.3066 41.7418 29.3719 42.0702C29.4372 42.3986 29.5984 42.7002 29.8352 42.937C30.072 43.1738 30.3736 43.335 30.7021 43.4003C31.0305 43.4657 31.3709 43.4321 31.6802 43.304C31.9896 43.1759 32.254 42.9589 32.44 42.6805C32.6261 42.402 32.7254 42.0747 32.7254 41.7399C32.7248 41.291 32.5463 40.8607 32.2289 40.5433C31.9115 40.226 31.4812 40.0474 31.0323 40.0469ZM31.0323 42.1319C30.9548 42.1319 30.879 42.1089 30.8146 42.0658C30.7501 42.0227 30.6999 41.9615 30.6702 41.8899C30.6405 41.8183 30.6328 41.7394 30.6479 41.6634C30.663 41.5874 30.7003 41.5175 30.7552 41.4627C30.81 41.4079 30.8798 41.3705 30.9559 41.3554C31.0319 41.3403 31.1107 41.348 31.1824 41.3777C31.254 41.4074 31.3152 41.4576 31.3583 41.5221C31.4014 41.5866 31.4243 41.6623 31.4243 41.7399C31.4243 41.8438 31.3831 41.9435 31.3095 42.0171C31.236 42.0906 31.1363 42.1319 31.0323 42.1319Z" fill="#313131"/>
<path d="M35.8903 40.0469C35.5554 40.0469 35.2281 40.1462 34.9497 40.3322C34.6713 40.5182 34.4543 40.7826 34.3261 41.092C34.198 41.4014 34.1645 41.7418 34.2298 42.0702C34.2951 42.3986 34.4564 42.7002 34.6931 42.937C34.9299 43.1738 35.2316 43.335 35.56 43.4003C35.8884 43.4657 36.2288 43.4321 36.5381 43.304C36.8475 43.1759 37.1119 42.9589 37.2979 42.6805C37.484 42.402 37.5833 42.0747 37.5833 41.7399C37.5827 41.291 37.4042 40.8607 37.0868 40.5433C36.7694 40.226 36.3391 40.0474 35.8903 40.0469ZM35.8903 42.1319C35.8127 42.1319 35.7369 42.1089 35.6725 42.0658C35.608 42.0227 35.5578 41.9615 35.5281 41.8899C35.4984 41.8183 35.4907 41.7394 35.5058 41.6634C35.5209 41.5874 35.5583 41.5175 35.6131 41.4627C35.6679 41.4079 35.7378 41.3705 35.8138 41.3554C35.8898 41.3403 35.9687 41.348 36.0403 41.3777C36.1119 41.4074 36.1731 41.4576 36.2162 41.5221C36.2593 41.5866 36.2823 41.6623 36.2823 41.7399C36.2823 41.8438 36.241 41.9435 36.1674 42.0171C36.0939 42.0906 35.9942 42.1319 35.8903 42.1319Z" fill="#313131"/>
<path d="M44.9411 39.9145H44.2411C43.8337 39.9145 43.443 39.7527 43.155 39.4646C42.8669 39.1765 42.7051 38.7859 42.7051 38.3785V36.2455C42.7051 35.8381 42.8669 35.4474 43.155 35.1594C43.443 34.8713 43.8337 34.7095 44.2411 34.7095H44.9411C45.3484 34.7095 45.7391 34.8713 46.0272 35.1594C46.3152 35.4474 46.4771 35.8381 46.4771 36.2455V38.3785C46.4771 38.7859 46.3152 39.1765 46.0272 39.4646C45.7391 39.7527 45.3484 39.9145 44.9411 39.9145ZM44.0051 36.2455V38.3785C44.0051 38.4408 44.0298 38.5006 44.0739 38.5446C44.118 38.5887 44.1777 38.6135 44.2401 38.6135H44.9401C45.0024 38.6135 45.0622 38.5887 45.1062 38.5446C45.1503 38.5006 45.1751 38.4408 45.1751 38.3785V36.2455C45.1751 36.1832 45.1503 36.1234 45.1062 36.0793C45.0622 36.0352 45.0024 36.0105 44.9401 36.0105H44.2401C44.2091 36.0105 44.1785 36.0166 44.1499 36.0285C44.1213 36.0403 44.0954 36.0577 44.0735 36.0797C44.0517 36.1016 44.0344 36.1276 44.0227 36.1562C44.0109 36.1849 44.0049 36.2155 44.0051 36.2465V36.2455Z" fill="#313131"/>
<path d="M48.0384 39.4785V36.0114H47.7754C47.7388 36.0113 47.7026 36.0037 47.6691 35.9891C47.6355 35.9745 47.6053 35.9532 47.5804 35.9265C47.4705 35.84 47.3898 35.7219 47.3494 35.588C47.309 35.4542 47.3107 35.3111 47.3544 35.1783C47.3981 35.0455 47.4816 34.9294 47.5936 34.8457C47.7056 34.762 47.8406 34.7147 47.9804 34.7104H49.0873C49.1542 34.7104 49.2183 34.737 49.2655 34.7843C49.3128 34.8315 49.3394 34.8956 49.3394 34.9624V39.2724C49.3351 39.4122 49.2878 39.5472 49.2041 39.6592C49.1204 39.7712 49.0043 39.8547 48.8715 39.8984C48.7387 39.9421 48.5956 39.9439 48.4618 39.9034C48.3279 39.863 48.2098 39.7824 48.1234 39.6725C48.0968 39.6476 48.0756 39.6175 48.061 39.5842C48.0463 39.5508 48.0387 39.5149 48.0384 39.4785Z" fill="#313131"/>
<path d="M29.4651 57.6095H29.3031V56.3095H30.0561C30.2088 56.3123 30.3577 56.2626 30.478 56.1686C30.5984 56.0747 30.6828 55.9423 30.7171 55.7935C30.7371 55.6987 30.7356 55.6007 30.7128 55.5066C30.6901 55.4124 30.6466 55.3246 30.5856 55.2493C30.5245 55.1741 30.4475 55.1135 30.3601 55.0718C30.2726 55.0302 30.177 55.0085 30.0801 55.0085H29.3031V54.7575C29.306 54.6044 29.2561 54.4551 29.1618 54.3345C29.0674 54.2139 28.9344 54.1295 28.7851 54.0955C28.691 54.0757 28.5937 54.077 28.5001 54.0993C28.4066 54.1217 28.3192 54.1646 28.2443 54.2249C28.1693 54.2852 28.1087 54.3614 28.0669 54.4479C28.025 54.5345 28.0029 54.6294 28.0021 54.7255V55.0085H27.8771C27.4066 55.0029 26.9502 55.1698 26.5943 55.4777C26.2383 55.7855 26.0074 56.213 25.9451 56.6795C25.917 56.9453 25.9453 57.2141 26.0281 57.4682C26.1109 57.7223 26.2463 57.9561 26.4257 58.1543C26.605 58.3525 26.8241 58.5106 27.0687 58.6184C27.3133 58.7261 27.5779 58.781 27.8451 58.7795H28.0071V60.0795H27.2541C27.1015 60.0768 26.9526 60.1265 26.8322 60.2204C26.7119 60.3144 26.6275 60.4468 26.5931 60.5955C26.5732 60.6903 26.5747 60.7883 26.5974 60.8825C26.6202 60.9766 26.6637 61.0645 26.7247 61.1397C26.7857 61.2149 26.8628 61.2756 26.9502 61.3172C27.0376 61.3589 27.1333 61.3805 27.2301 61.3805H28.0071V61.6315C28.0042 61.7846 28.0542 61.934 28.1485 62.0546C28.2428 62.1752 28.3759 62.2595 28.5251 62.2935C28.6192 62.3134 28.7166 62.3121 28.8101 62.2897C28.9037 62.2673 28.9911 62.2245 29.066 62.1642C29.1409 62.1039 29.2015 62.0277 29.2434 61.9411C29.2853 61.8545 29.3074 61.7597 29.3081 61.6635V61.3805H29.4331C29.9037 61.3861 30.3601 61.2192 30.716 60.9114C31.0719 60.6035 31.3029 60.176 31.3651 59.7095C31.3933 59.4437 31.365 59.175 31.2822 58.9209C31.1994 58.6668 31.0639 58.4329 30.8846 58.2348C30.7053 58.0366 30.4862 57.8784 30.2416 57.7707C29.997 57.663 29.7324 57.6081 29.4651 57.6095ZM27.8461 57.4795C27.7648 57.4795 27.6843 57.4624 27.6099 57.4295C27.5354 57.3966 27.4687 57.3486 27.4138 57.2885C27.359 57.2284 27.3173 57.1575 27.2913 57.0804C27.2654 57.0032 27.2558 56.9216 27.2631 56.8405C27.2819 56.6918 27.355 56.5553 27.4683 56.4573C27.5817 56.3593 27.7273 56.3066 27.8771 56.3095H28.0021V57.4805L27.8461 57.4795ZM29.4281 60.0795H29.3031V58.9085H29.4591C29.5405 58.9086 29.621 58.9256 29.6954 58.9585C29.7698 58.9914 29.8366 59.0394 29.8914 59.0996C29.9463 59.1597 29.988 59.2306 30.0139 59.3077C30.0399 59.3848 30.0495 59.4665 30.0421 59.5475C30.0243 59.6967 29.9517 59.8339 29.8385 59.9326C29.7252 60.0312 29.5793 60.0843 29.4291 60.0815L29.4281 60.0795Z" fill="#313131"/>
<path d="M69.4642 39.6148L64.3642 32.7628C64.45 32.6774 64.5273 32.584 64.5952 32.4838C64.8035 32.1762 64.9146 31.8132 64.9142 31.4418V22.4588C64.9136 21.9643 64.717 21.4902 64.3673 21.1406C64.0177 20.791 63.5436 20.5943 63.0492 20.5938H60.8492C60.7608 20.5889 60.6723 20.602 60.5892 20.6325C60.5061 20.6629 60.43 20.71 60.3657 20.7709C60.3014 20.8317 60.2502 20.905 60.2152 20.9863C60.1801 21.0676 60.1621 21.1552 60.1621 21.2438C60.1621 21.3323 60.1801 21.4199 60.2152 21.5012C60.2502 21.5825 60.3014 21.6558 60.3657 21.7167C60.43 21.7775 60.5061 21.8246 60.5892 21.855C60.6723 21.8855 60.7608 21.8987 60.8492 21.8938H63.0492C63.1984 21.894 63.3414 21.9534 63.447 22.059C63.5525 22.1645 63.6119 22.3075 63.6122 22.4568V24.5398L62.0772 26.0778C62.0199 26.1356 61.952 26.1818 61.8772 26.2138C61.7963 26.2485 61.7092 26.2665 61.6212 26.2668H56.6482C56.3916 26.2664 56.1376 26.3167 55.9006 26.4149C55.6635 26.5131 55.4483 26.6571 55.2672 26.8388L53.5382 28.5678C53.4164 28.6888 53.2518 28.7567 53.0802 28.7568H51.4412V22.4568C51.4414 22.3075 51.5008 22.1645 51.6064 22.059C51.7119 21.9534 51.8549 21.894 52.0042 21.8938H57.1912C57.3573 21.8845 57.5136 21.812 57.628 21.6912C57.7424 21.5703 57.8061 21.4102 57.8061 21.2438C57.8061 21.0774 57.7424 20.9173 57.628 20.7964C57.5136 20.6755 57.3573 20.603 57.1912 20.5938H52.0042C51.5099 20.5946 51.0361 20.7913 50.6866 21.141C50.3372 21.4906 50.1407 21.9645 50.1402 22.4588V28.0718H23.8712C23.0087 28.0726 22.1817 28.4155 21.5718 29.0254C20.9619 29.6353 20.619 30.4623 20.6182 31.3248V51.7878C20.6201 52.4213 20.8063 53.0406 21.1542 53.5701C21.502 54.0996 21.9965 54.5165 22.5772 54.7698C21.9805 55.8294 21.6718 57.0268 21.6817 58.2428C21.6917 59.4588 22.02 60.651 22.6339 61.7007C23.2479 62.7504 24.1261 63.621 25.1811 64.2257C26.2361 64.8305 27.4311 65.1484 28.6472 65.1478H31.8002C32.9907 65.1484 34.1615 64.8438 35.2008 64.263C36.24 63.6822 37.113 62.8447 37.7363 61.8303C38.3596 60.816 38.7125 59.6588 38.7611 58.4693C38.8097 57.2797 38.5526 56.0976 38.0142 55.0358H55.5862C55.7523 55.0266 55.9086 54.954 56.023 54.8332C56.1374 54.7123 56.2011 54.5522 56.2011 54.3858C56.2011 54.2194 56.1374 54.0593 56.023 53.9384C55.9086 53.8175 55.7523 53.745 55.5862 53.7358H37.1602C36.5075 52.9467 35.6886 52.3116 34.7621 51.8756C33.8355 51.4396 32.8242 51.2136 31.8002 51.2138H28.6472C27.6389 51.2135 26.6427 51.4324 25.7275 51.8555C24.8123 52.2785 24.0001 52.8956 23.3472 53.6638C22.9365 53.549 22.5747 53.3032 22.3165 52.9638C22.0584 52.6245 21.9182 52.2101 21.9172 51.7838V31.3248C21.9177 30.8072 22.1235 30.311 22.4895 29.9451C22.8554 29.5791 23.3516 29.3733 23.8692 29.3728H50.1392V29.4018V31.4378C50.14 31.9319 50.3366 32.4055 50.686 32.7549C51.0354 33.1043 51.509 33.301 52.0032 33.3018H63.0502C63.0822 33.3018 63.1132 33.3018 63.1452 33.3018L68.4202 40.3908C68.6726 40.7267 68.8092 41.1355 68.8092 41.5558C68.8092 41.976 68.6726 42.3849 68.4202 42.7208L62.8362 50.2208V45.0418C63.472 44.6626 63.9921 44.1168 64.34 43.4633C64.6879 42.8098 64.8504 42.0736 64.8099 41.3344C64.7694 40.5952 64.5275 39.8812 64.1103 39.2696C63.6931 38.658 63.1166 38.1722 62.4432 37.8648H62.4362C61.9095 37.6249 61.3374 37.5007 60.7587 37.5007C60.1799 37.5007 59.6079 37.6249 59.0812 37.8648L59.0522 37.8778C58.381 38.1873 57.8071 38.6743 57.3923 39.2861C56.9776 39.8979 56.7378 40.6113 56.6988 41.3494C56.6598 42.0875 56.8231 42.8223 57.171 43.4744C57.519 44.1265 58.0384 44.6712 58.6732 45.0498V62.2478C58.6732 63.6559 59.2326 65.0064 60.2283 66.0022C61.224 66.9979 62.5745 67.5573 63.9827 67.5573C65.3908 67.5573 66.7413 66.9979 67.737 66.0022C68.7328 65.0064 69.2922 63.6559 69.2922 62.2478V43.7298L69.4652 43.4978C69.8858 42.9379 70.1133 42.2566 70.1133 41.5563C70.1133 40.856 69.8858 40.1746 69.4652 39.6148H69.4642ZM37.4642 58.1848C37.4625 59.5092 36.9976 60.7913 36.1499 61.8089C35.3023 62.8266 34.1254 63.5156 32.8232 63.7568C33.6889 63.1086 34.3917 62.2676 34.8757 61.3005C35.3598 60.3334 35.6118 59.2668 35.6118 58.1853C35.6118 57.1038 35.3598 56.0372 34.8757 55.0701C34.3917 54.1029 33.6889 53.2619 32.8232 52.6138C34.1256 52.8544 35.3029 53.5432 36.1509 54.5607C36.9989 55.5782 37.4642 56.8602 37.4662 58.1848H37.4642ZM28.6452 52.5188C29.7658 52.5188 30.8613 52.8511 31.793 53.4737C32.7248 54.0963 33.451 54.9812 33.8799 56.0165C34.3087 57.0518 34.4209 58.1911 34.2023 59.2902C33.9837 60.3893 33.444 61.3988 32.6516 62.1912C31.8592 62.9836 30.8496 63.5233 29.7505 63.7419C28.6514 63.9605 27.5122 63.8483 26.4769 63.4195C25.4415 62.9906 24.5566 62.2644 23.9341 61.3326C23.3115 60.4009 22.9792 59.3054 22.9792 58.1848C22.981 56.6823 23.5788 55.2419 24.6414 54.1796C25.7041 53.1174 27.1447 52.5201 28.6472 52.5188H28.6452ZM53.0772 30.0568C53.5947 30.056 54.0908 29.8503 54.4572 29.4848L56.1842 27.7578C56.2447 27.6969 56.3167 27.6486 56.396 27.6157C56.4753 27.5827 56.5603 27.5658 56.6462 27.5658H61.6192C61.8825 27.5657 62.143 27.5123 62.3852 27.4088C62.6148 27.3115 62.8233 27.1706 62.9992 26.9938L63.6122 26.3808V31.4418C63.6122 31.5911 63.5528 31.7343 63.4473 31.8399C63.3417 31.9455 63.1985 32.0048 63.0492 32.0048H52.0052C51.8559 32.0045 51.7129 31.9451 51.6074 31.8396C51.5018 31.7341 51.4424 31.591 51.4422 31.4418V30.0568H53.0772ZM62.8332 43.3668V39.7478C63.2708 40.2488 63.5119 40.8915 63.5119 41.5568C63.5119 42.222 63.2708 42.8647 62.8332 43.3658V43.3668ZM57.9912 41.5558C57.993 40.8899 58.2368 40.2473 58.6772 39.7478V43.3678C58.2387 42.8661 57.9961 42.223 57.9942 41.5568L57.9912 41.5558ZM67.9912 62.2558C67.9912 63.3189 67.5688 64.3385 66.8171 65.0902C66.0654 65.8419 65.0458 66.2643 63.9827 66.2643C62.9195 66.2643 61.9 65.8419 61.1482 65.0902C60.3965 64.3385 59.9742 63.3189 59.9742 62.2558V38.9098C60.4834 38.7577 61.0259 38.7577 61.5352 38.9098V62.2478C61.5352 62.8968 61.793 63.5192 62.2519 63.9781C62.7108 64.437 63.3332 64.6948 63.9822 64.6948C64.6311 64.6948 65.2535 64.437 65.7124 63.9781C66.1713 63.5192 66.4292 62.8968 66.4292 62.2478V47.5768L67.9902 45.4768L67.9912 62.2558ZM65.1292 62.2558C65.1292 62.5597 65.0084 62.8512 64.7935 63.0661C64.5786 63.281 64.2871 63.4018 63.9832 63.4018C63.6792 63.4018 63.3877 63.281 63.1728 63.0661C62.9579 62.8512 62.8372 62.5597 62.8372 62.2558V52.4098L65.1292 49.3288V62.2478V62.2558Z" fill="#313131"/>
<defs>
<linearGradient id="paint0_linear" x1="43.5377" y1="11" x2="43.5377" y2="77.6121" gradientUnits="userSpaceOnUse">
<stop stop-color="#D2DBFC" stop-opacity="0"/>
<stop offset="1" stop-color="#5E5F6A"/>
</linearGradient>
</defs>
</svg>
