<svg width="25" height="30" viewBox="0 0 29 30" fill="none" xmlns="http://www.w3.org/2000/svg">
<path d="M22.612 5.76901C22.4747 5.76901 22.3405 5.80971 22.2264 5.88597C22.1123 5.96223 22.0233 6.07062 21.9708 6.19743C21.9183 6.32425 21.9045 6.46378 21.9313 6.5984C21.9581 6.73303 22.0242 6.85669 22.1212 6.95374C22.2183 7.0508 22.3419 7.1169 22.4766 7.14368C22.6112 7.17045 22.7507 7.15671 22.8775 7.10419C23.0043 7.05166 23.1127 6.96271 23.189 6.84858C23.2653 6.73445 23.306 6.60027 23.306 6.46301C23.3057 6.27903 23.2325 6.10267 23.1024 5.97257C22.9723 5.84248 22.7959 5.76928 22.612 5.76901Z" fill="black"/>
<path d="M14.2961 8.617C13.0789 8.617 11.8891 8.97793 10.8771 9.65414C9.86509 10.3304 9.07632 11.2915 8.61054 12.416C8.14476 13.5405 8.02288 14.7778 8.26034 15.9716C8.49779 17.1653 9.08391 18.2619 9.94456 19.1225C10.8052 19.9832 11.9018 20.5693 13.0955 20.8067C14.2893 21.0442 15.5266 20.9223 16.6511 20.4566C17.7756 19.9908 18.7367 19.202 19.413 18.19C20.0892 17.178 20.4501 15.9881 20.4501 14.771C20.4482 13.1394 19.7993 11.5752 18.6456 10.4215C17.4919 9.26781 15.9277 8.61886 14.2961 8.617Z" fill="black"/>
<path d="M20.754 0.479004H7.838C5.75996 0.481386 3.76772 1.30794 2.29833 2.77733C0.828934 4.24673 0.00238201 6.23897 0 8.317L0 21.233C0.00238201 23.311 0.828934 25.3033 2.29833 26.7727C3.76772 28.2421 5.75996 29.0686 7.838 29.071H20.754C22.832 29.0686 24.8243 28.2421 26.2937 26.7727C27.7631 25.3033 28.5896 23.311 28.592 21.233V8.317C28.5896 6.23897 27.7631 4.24673 26.2937 2.77733C24.8243 1.30794 22.832 0.481386 20.754 0.479004V0.479004ZM14.3 22.617C12.7487 22.6178 11.2319 22.1584 9.94171 21.2971C8.65149 20.4357 7.64574 19.211 7.0517 17.7779C6.45766 16.3448 6.30203 14.7677 6.60449 13.2461C6.90695 11.7245 7.65391 10.3268 8.75087 9.22987C9.84783 8.13291 11.2455 7.38595 12.7671 7.08349C14.2887 6.78103 15.8657 6.93667 17.2989 7.53071C18.732 8.12474 19.9567 9.13049 20.8181 10.4207C21.6794 11.7109 22.1388 13.2277 22.138 14.779C22.1346 16.8567 21.3077 18.8483 19.8385 20.3175C18.3693 21.7867 16.3777 22.6136 14.3 22.617ZM22.607 8.846C22.1356 8.846 21.6749 8.70622 21.283 8.44433C20.8911 8.18243 20.5856 7.8102 20.4053 7.37471C20.225 6.93921 20.1778 6.46002 20.2699 5.99774C20.3619 5.53545 20.5889 5.11084 20.9223 4.77762C21.2557 4.44439 21.6804 4.21751 22.1427 4.12567C22.605 4.03383 23.0842 4.08117 23.5196 4.26169C23.955 4.4422 24.3272 4.74779 24.5889 5.13981C24.8506 5.53182 24.9902 5.99265 24.99 6.464C24.9892 7.09568 24.7379 7.70124 24.2911 8.14781C23.8443 8.59438 23.2387 8.84547 22.607 8.846Z" fill="black"/>
</svg>
