<svg width="21" height="26" viewBox="0 0 26 26" fill="none" xmlns="http://www.w3.org/2000/svg">
<path d="M23.371 0.479004H1.817C1.57835 0.478873 1.34202 0.525781 1.12151 0.617047C0.901001 0.708314 0.700644 0.842148 0.531894 1.0109C0.363144 1.17965 0.22931 1.38 0.138043 1.60051C0.0467772 1.82102 -0.000131175 2.05736 2.75507e-07 2.296V23.85C-0.000131175 24.0887 0.0467772 24.325 0.138043 24.5455C0.22931 24.766 0.363144 24.9664 0.531894 25.1351C0.700644 25.3039 0.901001 25.4377 1.12151 25.529C1.34202 25.6202 1.57835 25.6671 1.817 25.667H23.371C23.6096 25.6671 23.846 25.6202 24.0665 25.529C24.287 25.4377 24.4874 25.3039 24.6561 25.1351C24.8249 24.9664 24.9587 24.766 25.05 24.5455C25.1412 24.325 25.1881 24.0887 25.188 23.85V2.296C25.1881 2.05736 25.1412 1.82102 25.05 1.60051C24.9587 1.38 24.8249 1.17965 24.6561 1.0109C24.4874 0.842148 24.287 0.708314 24.0665 0.617047C23.846 0.525781 23.6096 0.478873 23.371 0.479004ZM8.934 19.517H5.867V10.29H8.934V19.517ZM7.4 9.03H7.38C7.15893 9.04621 6.93691 9.0163 6.72801 8.94218C6.51911 8.86806 6.32788 8.75134 6.16647 8.59943C6.00505 8.44751 5.87696 8.26371 5.79032 8.05969C5.70368 7.85566 5.66037 7.63586 5.66316 7.41421C5.66594 7.19257 5.71474 6.97392 5.80647 6.77213C5.89821 6.57034 6.03087 6.38982 6.19605 6.242C6.36122 6.09418 6.55531 5.9823 6.76601 5.91344C6.9767 5.84458 7.19941 5.82026 7.42 5.842C7.64104 5.82425 7.86336 5.85265 8.07285 5.92538C8.28233 5.99811 8.47441 6.11359 8.6369 6.2645C8.79939 6.41541 8.92873 6.59844 9.01672 6.80199C9.10471 7.00554 9.14943 7.22516 9.14804 7.44691C9.14665 7.66866 9.09918 7.8877 9.00864 8.09012C8.9181 8.29255 8.78647 8.47395 8.6221 8.62281C8.45774 8.77167 8.26422 8.88473 8.05384 8.95483C7.84346 9.02493 7.6208 9.05053 7.4 9.03ZM19.994 19.517H16.927V14.579C16.927 13.338 16.483 12.492 15.373 12.492C15.0269 12.4944 14.6901 12.6037 14.4085 12.8049C14.1269 13.0061 13.9144 13.2894 13.8 13.616C13.7218 13.8573 13.6879 14.1107 13.7 14.364V19.517H10.632C10.632 19.517 10.672 11.155 10.632 10.289H13.7V11.596C13.9776 11.1139 14.382 10.717 14.8693 10.4485C15.3566 10.18 15.9081 10.0501 16.464 10.073C18.482 10.073 19.995 11.392 19.995 14.226L19.994 19.517Z" fill="black"/>
</svg>
