<svg width="52" height="52" viewBox="0 0 52 52" fill="none" xmlns="http://www.w3.org/2000/svg">
<path d="M44 0H8C3.58172 0 0 3.58172 0 8V44C0 48.4183 3.58172 52 8 52H44C48.4183 52 52 48.4183 52 44V8C52 3.58172 48.4183 0 44 0Z" fill="white"/>
<path d="M19.7061 36.026H15.3471V21.989H19.7061V36.026ZM17.5251 20.074C17.0233 20.0765 16.532 19.9302 16.1133 19.6536C15.6947 19.3769 15.3675 18.9823 15.1731 18.5196C14.9788 18.057 14.926 17.5471 15.0214 17.0544C15.1169 16.5618 15.3563 16.1085 15.7094 15.7519C16.0624 15.3954 16.5133 15.1515 17.005 15.0512C17.4967 14.9509 18.0071 14.9987 18.4716 15.1885C18.9362 15.3782 19.334 15.7015 19.6148 16.1174C19.8955 16.5333 20.0467 17.0232 20.0491 17.525C20.0499 18.1969 19.785 18.842 19.3122 19.3195C18.8394 19.797 18.197 20.0682 17.5251 20.074ZM36.0251 36.026H31.6751V29.193C31.6751 27.564 31.6421 25.476 29.4091 25.476C27.1431 25.476 26.7951 27.245 26.7951 29.076V36.027H22.4371V21.989H26.6181V23.9H26.6791C27.0973 23.1855 27.7014 22.5978 28.427 22.1993C29.1527 21.8009 29.9728 21.6065 30.8001 21.637C35.2121 21.637 36.0231 24.542 36.0231 28.316V36.027L36.0251 36.026Z" fill="#1D202D"/>
</svg>
