<svg width="116" height="51" viewBox="0 0 116 51" fill="none" xmlns="http://www.w3.org/2000/svg">
<path d="M29.3979 22.3491V49.9711H36.4389V22.3491H29.3979Z" fill="#227AF2"/>
<path d="M76.2039 22.3491H68.2039L63.1649 39.3071H63.1319L57.9499 22.3491H49.7299L45.8799 49.9711H52.5039L54.5429 31.9401H54.6909L59.9909 49.9711H65.9159L71.3229 31.9011H71.4709L73.3959 49.9711H80.0959L76.2039 22.3491Z" fill="black"/>
<path d="M101.57 22.3491C99.7425 22.2978 97.9238 22.6201 96.2252 23.2961C94.5265 23.9721 92.9837 24.9876 91.6912 26.2804C90.3986 27.5733 89.3834 29.1163 88.7078 30.8151C88.0322 32.5138 87.7103 34.3326 87.7619 36.1601C87.7464 37.9812 88.0917 39.7874 88.7779 41.4744C89.4641 43.1614 90.4776 44.6958 91.7599 45.989C93.0422 47.2823 94.5679 48.3088 96.249 49.0093C97.9301 49.7098 99.7332 50.0705 101.554 50.0705C103.376 50.0705 105.179 49.7098 106.86 49.0093C108.541 48.3088 110.067 47.2823 111.349 45.989C112.631 44.6958 113.645 43.1614 114.331 41.4744C115.017 39.7874 115.362 37.9812 115.347 36.1601C115.405 34.3335 115.089 32.5144 114.418 30.8146C113.746 29.1149 112.734 27.5706 111.444 26.2768C110.153 24.983 108.611 23.967 106.913 23.2915C105.215 22.6161 103.397 22.2953 101.57 22.3491V22.3491ZM101.57 43.8591C97.931 43.8591 94.5059 41.0701 94.5059 36.1591C94.5059 31.2481 97.931 28.4241 101.57 28.4241C105.142 28.4241 108.603 31.2461 108.603 36.1591C108.603 41.0721 105.142 43.8591 101.57 43.8591Z" fill="black"/>
<path d="M0.000976562 22.35L22.351 0V49.971H0.000976562V22.35Z" fill="black"/>
<path d="M29.3979 15.312V49.97H36.4389V22.348L29.3979 15.312Z" fill="black"/>
</svg>
