<svg width="26" height="21" viewBox="0 0 30 21" fill="none" xmlns="http://www.w3.org/2000/svg">
<path d="M29.011 2.96102L21.445 10.667C21.4312 10.6798 21.4202 10.6952 21.4127 10.7124C21.4051 10.7296 21.4012 10.7482 21.4012 10.767C21.4012 10.7858 21.4051 10.8044 21.4127 10.8216C21.4202 10.8388 21.4312 10.8543 21.445 10.867L26.74 16.504C26.8254 16.5888 26.8931 16.6896 26.9393 16.8006C26.9855 16.9117 27.0093 17.0307 27.0093 17.151C27.0093 17.2713 26.9855 17.3904 26.9393 17.5014C26.8931 17.6125 26.8254 17.7133 26.74 17.798C26.5682 17.9691 26.3356 18.0652 26.093 18.0652C25.8505 18.0652 25.6179 17.9691 25.446 17.798L20.173 12.18C20.1462 12.1541 20.1103 12.1396 20.073 12.1396C20.0357 12.1396 19.9999 12.1541 19.973 12.18L18.686 13.488C18.1599 14.0252 17.5321 14.4522 16.8391 14.7441C16.1461 15.036 15.402 15.1869 14.65 15.188C13.8813 15.1851 13.1209 15.0286 12.4135 14.728C11.706 14.4273 11.0657 13.9884 10.53 13.437L9.29204 12.178C9.2652 12.1521 9.22935 12.1376 9.19204 12.1376C9.15474 12.1376 9.11889 12.1521 9.09204 12.178L3.81104 17.797C3.63919 17.9681 3.40655 18.0642 3.16404 18.0642C2.92153 18.0642 2.6889 17.9681 2.51704 17.797C2.43172 17.7123 2.36401 17.6115 2.3178 17.5004C2.27159 17.3894 2.2478 17.2703 2.2478 17.15C2.2478 17.0297 2.27159 16.9107 2.3178 16.7996C2.36401 16.6886 2.43172 16.5878 2.51704 16.503L7.81204 10.864C7.83664 10.8365 7.85024 10.8009 7.85024 10.764C7.85024 10.7271 7.83664 10.6915 7.81204 10.664L0.239044 2.96102C0.219603 2.94086 0.194527 2.92705 0.167102 2.92139C0.139677 2.91573 0.111181 2.91848 0.0853481 2.92929C0.0595148 2.9401 0.0375486 2.95846 0.0223272 2.98196C0.00710575 3.00547 -0.000661095 3.03302 4.40976e-05 3.06102V18.481C0.00189024 19.0772 0.239536 19.6484 0.661093 20.07C1.08265 20.4915 1.65387 20.7292 2.25004 20.731H27C27.5962 20.7292 28.1674 20.4915 28.589 20.07C29.0106 19.6484 29.2482 19.0772 29.25 18.481V3.05902C29.2494 3.03162 29.2408 3.00501 29.2252 2.98243C29.2097 2.95985 29.1879 2.94229 29.1626 2.9319C29.1372 2.9215 29.1094 2.91872 29.0825 2.92389C29.0556 2.92906 29.0307 2.94196 29.011 2.96102Z" fill="black"/>
<path d="M14.6251 13.353C15.1369 13.3553 15.6439 13.2547 16.1161 13.0573C16.5883 12.86 17.0161 12.5698 17.3741 12.204L28.4061 0.97101C28.0122 0.652289 27.5208 0.478591 27.0141 0.47901H2.24307C1.73625 0.477775 1.24455 0.651566 0.851074 0.97101L11.8831 12.204C12.2402 12.5689 12.6669 12.8586 13.1378 13.056C13.6088 13.2533 14.1145 13.3543 14.6251 13.353Z" fill="black"/>
</svg>
