<svg width="88" height="88" viewBox="0 0 88 88" fill="none" xmlns="http://www.w3.org/2000/svg">
<path d="M4 0H84C85.0609 0 86.0783 0.421427 86.8284 1.17157C87.5786 1.92172 88 2.93913 88 4V84C88 85.0609 87.5786 86.0783 86.8284 86.8284C86.0783 87.5786 85.0609 88 84 88H4C2.93913 88 1.92172 87.5786 1.17157 86.8284C0.421427 86.0783 0 85.0609 0 84V4C0 2.93913 0.421427 1.92172 1.17157 1.17157C1.92172 0.421427 2.93913 0 4 0V0Z" fill="#FDFAF6"/>
<path d="M58.661 17.9158C49.634 14.3838 37.133 15.7258 30.225 22.0328C25.347 26.4858 29.125 27.7548 32.448 35.9028C34.855 41.7998 11 40.9878 11 51.6438C11 63.9638 28.278 61.6238 34.689 63.0388C44.489 65.1948 53.044 73.2608 63.518 72.1968C72.636 71.2708 76.112 64.1158 77.38 55.9128C79.742 40.6308 73.94 23.8928 58.661 17.9128V17.9158Z" fill="url(#paint0_linear)"/>
<path opacity="0.11" d="M65.0752 27.6729H18.3752C17.6822 27.6729 17.0176 27.9481 16.5275 28.4382C16.0375 28.9282 15.7622 29.5928 15.7622 30.2859V55.5579C15.7625 56.1367 15.9553 56.6991 16.3101 57.1565C16.6648 57.614 17.1616 57.9405 17.7222 58.0848V59.4949C17.7225 60.0737 17.9153 60.6361 18.2701 61.0935C18.6248 61.551 19.1216 61.8775 19.6822 62.0219V63.3779C19.6822 63.4619 19.6822 63.5438 19.6942 63.6258C19.7554 64.273 20.0559 64.874 20.5367 65.3113C21.0175 65.7487 21.6442 65.991 22.2942 65.9909H61.1552C61.8052 65.991 62.4319 65.7487 62.9127 65.3113C63.3936 64.874 63.694 64.273 63.7552 63.6258C63.7632 63.5438 63.7672 63.4609 63.7672 63.3779V62.0219C64.3277 61.8774 64.8244 61.5508 65.1791 61.0934C65.5339 60.636 65.7267 60.0737 65.7272 59.4949V58.0848C66.2877 57.9404 66.7844 57.6138 67.1391 57.1564C67.4939 56.699 67.6867 56.1367 67.6872 55.5579V30.2859C67.6872 29.593 67.412 28.9285 66.9222 28.4385C66.4324 27.9485 65.768 27.6731 65.0752 27.6729Z" fill="#2B2AB5"/>
<path d="M66.4889 51.0979V60.6979C66.4889 60.7819 66.4889 60.8639 66.4769 60.9459C66.4156 61.593 66.1152 62.194 65.6344 62.6313C65.1536 63.0687 64.5269 63.311 63.8769 63.3109H25.0129C24.3629 63.311 23.7362 63.0687 23.2554 62.6313C22.7745 62.194 22.4741 61.593 22.4129 60.9459C22.4049 60.8639 22.4009 60.7809 22.4009 60.6979V51.0979C22.4009 50.4048 22.6762 49.7402 23.1662 49.2502C23.6562 48.7602 24.3209 48.4849 25.0139 48.4849H63.8759C64.5689 48.4849 65.2335 48.7602 65.7235 49.2502C66.2136 49.7402 66.4889 50.4048 66.4889 51.0979Z" fill="white"/>
<path d="M65.8359 59.4227H23.0529C22.3599 59.4227 21.6953 59.1474 21.2053 58.6574C20.7152 58.1673 20.4399 57.5027 20.4399 56.8097V39.3757C20.4399 38.6827 20.7152 38.0181 21.2053 37.528C21.6953 37.038 22.3599 36.7627 23.0529 36.7627H65.8359C66.529 36.7627 67.1936 37.038 67.6836 37.528C68.1736 38.0181 68.4489 38.6827 68.4489 39.3757V56.8097C68.4489 57.5027 68.1736 58.1673 67.6836 58.6574C67.1936 59.1474 66.529 59.4227 65.8359 59.4227Z" fill="white"/>
<path d="M67.796 55.4897H21.096C20.7523 55.49 20.412 55.4225 20.0945 55.291C19.777 55.1596 19.4885 54.9668 19.2456 54.7237C19.0027 54.4806 18.8101 54.192 18.6789 53.8744C18.5477 53.5568 18.4804 53.2164 18.481 52.8727V27.5997C18.4818 26.9074 18.7573 26.2437 19.247 25.7544C19.7367 25.265 20.4006 24.99 21.093 24.9897H67.793C68.486 24.9897 69.1506 25.265 69.6406 25.7551C70.1307 26.2451 70.406 26.9097 70.406 27.6027V52.8727C70.4065 53.216 70.3394 53.5559 70.2085 53.8732C70.0776 54.1905 69.8855 54.4789 69.6431 54.7219C69.4007 54.965 69.1129 55.1579 68.7959 55.2896C68.479 55.4213 68.1392 55.4894 67.796 55.4897Z" fill="white"/>
<path d="M65.6969 36.9009V43.5729C65.696 43.7142 65.6498 43.8514 65.565 43.9643C65.4802 44.0772 65.3613 44.1598 65.2259 44.1999C63.9212 44.5995 62.7494 45.3455 61.8353 46.3584C60.9211 47.3713 60.2989 48.6133 60.0349 49.9519C60.0044 50.0989 59.924 50.2308 59.8073 50.3252C59.6907 50.4196 59.5449 50.4708 59.3949 50.4699H29.4949C29.3448 50.4708 29.1991 50.4196 29.0824 50.3252C28.9657 50.2308 28.8853 50.0989 28.8549 49.9519C28.5908 48.6133 27.9686 47.3713 27.0545 46.3584C26.1403 45.3455 24.9685 44.5995 23.6639 44.1999C23.5285 44.1598 23.4096 44.0772 23.3248 43.9643C23.2399 43.8514 23.1937 43.7142 23.1929 43.5729V36.9009C23.1937 36.7597 23.2399 36.6225 23.3248 36.5096C23.4096 36.3967 23.5285 36.3141 23.6639 36.2739C24.9694 35.8749 26.1421 35.1291 27.057 34.1159C27.9719 33.1027 28.5947 31.8603 28.8589 30.5209C28.8893 30.374 28.9697 30.2421 29.0864 30.1477C29.2031 30.0533 29.3488 30.0021 29.4989 30.0029H59.3989C59.549 30.0021 59.6947 30.0533 59.8113 30.1477C59.928 30.2421 60.0084 30.374 60.0389 30.5209C60.3029 31.8596 60.9251 33.1015 61.8393 34.1145C62.7534 35.1274 63.9252 35.8734 65.2299 36.2729C65.3653 36.3131 65.4842 36.3957 65.569 36.5086C65.6538 36.6215 65.7 36.7587 65.7009 36.8999L65.6969 36.9009Z" fill="#5E5F6A"/>
<path d="M44.4442 48.6226C48.0876 48.6226 51.0412 44.868 51.0412 40.2366C51.0412 35.6051 48.0876 31.8506 44.4442 31.8506C40.8007 31.8506 37.8472 35.6051 37.8472 40.2366C37.8472 44.868 40.8007 48.6226 44.4442 48.6226Z" fill="white"/>
<path d="M34.6973 48.0638H31.8483C31.6751 48.0638 31.509 47.995 31.3866 47.8725C31.2641 47.7501 31.1953 47.584 31.1953 47.4108C31.1953 47.2376 31.2641 47.0715 31.3866 46.9491C31.509 46.8266 31.6751 46.7578 31.8483 46.7578H34.6973C34.8705 46.7578 35.0366 46.8266 35.159 46.9491C35.2815 47.0715 35.3503 47.2376 35.3503 47.4108C35.3503 47.584 35.2815 47.7501 35.159 47.8725C35.0366 47.995 34.8705 48.0638 34.6973 48.0638Z" fill="#F9F1E5"/>
<path d="M57.0411 33.7147H54.1921C54.0189 33.7147 53.8528 33.6459 53.7303 33.5234C53.6079 33.401 53.5391 33.2349 53.5391 33.0617C53.5391 32.8885 53.6079 32.7224 53.7303 32.6C53.8528 32.4775 54.0189 32.4087 54.1921 32.4087H57.0411C57.2142 32.4087 57.3803 32.4775 57.5028 32.6C57.6253 32.7224 57.6941 32.8885 57.6941 33.0617C57.6941 33.2349 57.6253 33.401 57.5028 33.5234C57.3803 33.6459 57.2142 33.7147 57.0411 33.7147Z" fill="#F9F1E5"/>
<path d="M30.4102 40.9659C30.8133 40.9659 31.1402 40.639 31.1402 40.2359C31.1402 39.8327 30.8133 39.5059 30.4102 39.5059C30.007 39.5059 29.6802 39.8327 29.6802 40.2359C29.6802 40.639 30.007 40.9659 30.4102 40.9659Z" fill="#FDFAF6"/>
<path d="M32.6192 40.9659C33.0223 40.9659 33.3492 40.639 33.3492 40.2359C33.3492 39.8327 33.0223 39.5059 32.6192 39.5059C32.216 39.5059 31.8892 39.8327 31.8892 40.2359C31.8892 40.639 32.216 40.9659 32.6192 40.9659Z" fill="#FDFAF6"/>
<path d="M34.8281 40.9659C35.2313 40.9659 35.5581 40.639 35.5581 40.2359C35.5581 39.8327 35.2313 39.5059 34.8281 39.5059C34.425 39.5059 34.0981 39.8327 34.0981 40.2359C34.0981 40.639 34.425 40.9659 34.8281 40.9659Z" fill="#FDFAF6"/>
<path d="M54.0591 40.9659C54.4623 40.9659 54.7891 40.639 54.7891 40.2359C54.7891 39.8327 54.4623 39.5059 54.0591 39.5059C53.6559 39.5059 53.3291 39.8327 53.3291 40.2359C53.3291 40.639 53.6559 40.9659 54.0591 40.9659Z" fill="#FDFAF6"/>
<path d="M56.2681 40.9659C56.6713 40.9659 56.9981 40.639 56.9981 40.2359C56.9981 39.8327 56.6713 39.5059 56.2681 39.5059C55.8649 39.5059 55.5381 39.8327 55.5381 40.2359C55.5381 40.639 55.8649 40.9659 56.2681 40.9659Z" fill="#FDFAF6"/>
<path d="M58.478 40.9659C58.8812 40.9659 59.208 40.639 59.208 40.2359C59.208 39.8327 58.8812 39.5059 58.478 39.5059C58.0749 39.5059 57.748 39.8327 57.748 40.2359C57.748 40.639 58.0749 40.9659 58.478 40.9659Z" fill="#FDFAF6"/>
<path d="M64.6823 33.5401C64.5531 33.5402 64.4268 33.502 64.3193 33.4303C64.2118 33.3585 64.128 33.2565 64.0786 33.1371C64.0291 33.0177 64.0161 32.8864 64.0414 32.7596C64.0666 32.6329 64.1289 32.5165 64.2203 32.4251L66.5283 30.1171C66.589 30.0565 66.661 30.0084 66.7403 29.9755C66.8196 29.9427 66.9045 29.9258 66.9903 29.9258C67.0761 29.9258 67.1611 29.9427 67.2404 29.9755C67.3196 30.0084 67.3917 30.0565 67.4523 30.1171C67.513 30.1778 67.5611 30.2498 67.594 30.3291C67.6268 30.4084 67.6437 30.4933 67.6437 30.5791C67.6437 30.6649 67.6268 30.7499 67.594 30.8292C67.5611 30.9085 67.513 30.9805 67.4523 31.0412L65.1443 33.3492C65.0837 33.4099 65.0117 33.458 64.9324 33.4908C64.8531 33.5235 64.7681 33.5403 64.6823 33.5401Z" fill="#F9F1E5"/>
<path d="M63.051 31.733C62.9218 31.7331 62.7954 31.6949 62.6879 31.6231C62.5804 31.5514 62.4967 31.4494 62.4472 31.33C62.3977 31.2106 62.3848 31.0792 62.41 30.9525C62.4353 30.8257 62.4976 30.7093 62.589 30.618L64.897 28.31C65.0195 28.1875 65.1857 28.1187 65.359 28.1187C65.5323 28.1187 65.6985 28.1875 65.821 28.31C65.9435 28.4326 66.0123 28.5987 66.0123 28.772C66.0123 28.9453 65.9435 29.1115 65.821 29.234L63.513 31.542C63.4524 31.6027 63.3803 31.6509 63.301 31.6836C63.2218 31.7164 63.1368 31.7332 63.051 31.733Z" fill="#F9F1E5"/>
<path d="M23.529 52.3541C23.3998 52.3542 23.2734 52.316 23.1659 52.2442C23.0585 52.1725 22.9747 52.0705 22.9252 51.9511C22.8758 51.8317 22.8628 51.7003 22.8881 51.5736C22.9133 51.4468 22.9756 51.3304 23.067 51.2391L25.375 48.9311C25.4975 48.8086 25.6637 48.7397 25.837 48.7397C26.0103 48.7397 26.1765 48.8086 26.299 48.9311C26.4215 49.0537 26.4904 49.2198 26.4904 49.3931C26.4904 49.5664 26.4215 49.7326 26.299 49.8551L23.991 52.1631C23.9304 52.2238 23.8584 52.272 23.7791 52.3047C23.6998 52.3375 23.6148 52.3543 23.529 52.3541Z" fill="#F9F1E5"/>
<path d="M21.8952 50.5471C21.766 50.5472 21.6396 50.5089 21.5322 50.4372C21.4247 50.3654 21.3409 50.2634 21.2914 50.144C21.242 50.0246 21.229 49.8933 21.2543 49.7665C21.2795 49.6398 21.3418 49.5234 21.4332 49.4321L23.7452 47.1201C23.8059 47.0594 23.8779 47.0113 23.9572 46.9784C24.0365 46.9456 24.1214 46.9287 24.2072 46.9287C24.293 46.9287 24.378 46.9456 24.4573 46.9784C24.5365 47.0113 24.6085 47.0594 24.6692 47.1201C24.7299 47.1807 24.778 47.2528 24.8109 47.332C24.8437 47.4113 24.8606 47.4963 24.8606 47.5821C24.8606 47.6679 24.8437 47.7528 24.8109 47.8321C24.778 47.9114 24.7299 47.9834 24.6692 48.0441L22.3612 50.3521C22.3004 50.4139 22.2279 50.4631 22.1479 50.4965C22.0679 50.53 21.982 50.5472 21.8952 50.5471Z" fill="#F9F1E5"/>
<path d="M45.3002 39.5827H45.1002V38.2427H45.9512C46.1244 38.2427 46.2905 38.1739 46.4129 38.0514C46.5354 37.929 46.6042 37.7629 46.6042 37.5897C46.6042 37.4165 46.5354 37.2504 46.4129 37.1279C46.2905 37.0055 46.1244 36.9367 45.9512 36.9367H45.1002V36.6037C45.1002 36.4305 45.0314 36.2644 44.909 36.1419C44.7865 36.0195 44.6204 35.9507 44.4472 35.9507C44.274 35.9507 44.1079 36.0195 43.9855 36.1419C43.863 36.2644 43.7942 36.4305 43.7942 36.6037V36.9367H43.5942C43.0696 36.9367 42.5665 37.1451 42.1955 37.516C41.8246 37.887 41.6162 38.3901 41.6162 38.9147C41.6162 39.4393 41.8246 39.9424 42.1955 40.3133C42.5665 40.6843 43.0696 40.8927 43.5942 40.8927H43.7942V42.2357H42.9432C42.77 42.2357 42.6039 42.3045 42.4815 42.4269C42.359 42.5494 42.2902 42.7155 42.2902 42.8887C42.2902 43.0619 42.359 43.228 42.4815 43.3504C42.6039 43.4729 42.77 43.5417 42.9432 43.5417H43.7942V43.8747C43.7942 44.0479 43.863 44.214 43.9855 44.3364C44.1079 44.4589 44.274 44.5277 44.4472 44.5277C44.6204 44.5277 44.7865 44.4589 44.909 44.3364C45.0314 44.214 45.1002 44.0479 45.1002 43.8747V43.5427H45.3002C45.8248 43.5427 46.3279 43.3343 46.6989 42.9633C47.0698 42.5924 47.2782 42.0893 47.2782 41.5647C47.2782 41.0401 47.0698 40.537 46.6989 40.166C46.3279 39.7951 45.8248 39.5867 45.3002 39.5867V39.5827ZM43.5892 39.5827C43.4156 39.576 43.2513 39.5023 43.1309 39.3771C43.0104 39.2519 42.9431 39.0849 42.9431 38.9112C42.9431 38.7374 43.0104 38.5705 43.1309 38.4453C43.2513 38.3201 43.4156 38.2464 43.5892 38.2397H43.7892V39.5827H43.5892ZM45.3002 42.2327H45.1002V40.8897H45.3002C45.4738 40.8964 45.6381 40.9701 45.7585 41.0953C45.879 41.2205 45.9463 41.3874 45.9463 41.5612C45.9463 41.7349 45.879 41.9019 45.7585 42.0271C45.6381 42.1523 45.4738 42.226 45.3002 42.2327Z" fill="#F9F1E5"/>
<path d="M70.4081 46.5559C70.5813 46.5559 70.7474 46.4871 70.8698 46.3647C70.9923 46.2422 71.0611 46.0761 71.0611 45.9029V27.6029C71.06 26.737 70.7156 25.9069 70.1033 25.2947C69.4911 24.6824 68.661 24.338 67.7951 24.3369H21.0951C20.2292 24.338 19.3991 24.6824 18.7869 25.2947C18.1746 25.9069 17.8302 26.737 17.8291 27.6029V52.8719C17.8299 53.5071 18.0157 54.1283 18.3638 54.6596C18.7118 55.191 19.2071 55.6094 19.7891 55.8639V56.8079C19.7889 57.4436 19.9742 58.0655 20.3224 58.5973C20.6706 59.1292 21.1664 59.5478 21.7491 59.8019V60.6909C21.7502 61.5568 22.0946 62.3869 22.7069 62.9992C23.3191 63.6114 24.1492 63.9559 25.0151 63.9569H63.8761C64.7411 63.9548 65.57 63.61 66.1814 62.9981C66.7928 62.3862 67.1368 61.5569 67.1381 60.6919V59.8019C67.7207 59.548 68.2165 59.1295 68.5647 58.5979C68.9129 58.0662 69.0983 57.4444 69.0981 56.8089V55.8649C69.6801 55.6104 70.1754 55.192 70.5234 54.6606C70.8715 54.1293 71.0573 53.5081 71.0581 52.8729V49.5729C71.0581 49.3997 70.9893 49.2336 70.8668 49.1112C70.7444 48.9887 70.5783 48.9199 70.4051 48.9199C70.2319 48.9199 70.0658 48.9887 69.9434 49.1112C69.8209 49.2336 69.7521 49.3997 69.7521 49.5729V52.8729C69.7516 53.3926 69.5449 53.8908 69.1774 54.2583C68.81 54.6257 68.3118 54.8324 67.7921 54.8329H21.0921C20.5724 54.8324 20.0742 54.6257 19.7068 54.2583C19.3393 53.8908 19.1326 53.3926 19.1321 52.8729V27.5999C19.1326 27.0802 19.3393 26.582 19.7068 26.2146C20.0742 25.8471 20.5724 25.6404 21.0921 25.6399H67.7921C68.3118 25.6404 68.81 25.8471 69.1774 26.2146C69.5449 26.582 69.7516 27.0802 69.7521 27.5999V45.8999C69.7517 45.9862 69.7684 46.0717 69.8012 46.1514C69.834 46.2312 69.8824 46.3037 69.9434 46.3647C70.0043 46.4257 70.0768 46.474 70.1566 46.5068C70.2364 46.5396 70.3218 46.5563 70.4081 46.5559ZM67.7951 56.1379V56.8089C67.796 57.2438 67.6521 57.6666 67.3861 58.0106C67.1201 58.3546 66.7472 58.6003 66.3261 58.7089C66.1657 58.75 66.0007 58.7708 65.8351 58.7709H26.1621C25.9889 58.7709 25.8228 58.8397 25.7004 58.9622C25.5779 59.0846 25.5091 59.2507 25.5091 59.4239C25.5091 59.5971 25.5779 59.7632 25.7004 59.8857C25.8228 60.0081 25.9889 60.0769 26.1621 60.0769H65.8381V60.6939C65.8376 61.2136 65.6309 61.7118 65.2634 62.0793C64.896 62.4467 64.3978 62.6534 63.8781 62.6539H25.0121C24.4924 62.6534 23.9942 62.4467 23.6268 62.0793C23.2593 61.7118 23.0526 61.2136 23.0521 60.6939V59.3399C23.0522 59.195 23.0042 59.0541 22.9155 58.9395C22.8268 58.8249 22.7024 58.7431 22.5621 58.7069C22.1411 58.5982 21.7683 58.3524 21.5023 58.0084C21.2363 57.6644 21.0924 57.2417 21.0931 56.8069V56.1359L67.7951 56.1379Z" fill="#1D202D"/>
<path d="M60.675 30.3961C60.616 30.1002 60.456 29.834 60.2223 29.6431C59.9885 29.4523 59.6957 29.3487 59.394 29.3501H29.494C29.1928 29.3494 28.9007 29.4533 28.6676 29.6441C28.4345 29.8349 28.2748 30.1007 28.216 30.3961C27.9781 31.6199 27.411 32.7556 26.5759 33.6812C25.7407 34.6068 24.669 35.2871 23.476 35.6491C23.2061 35.7291 22.9693 35.8943 22.801 36.1199C22.6327 36.3456 22.5418 36.6196 22.542 36.9011V43.5731C22.5418 43.8546 22.6327 44.1286 22.801 44.3543C22.9693 44.5799 23.2061 44.7451 23.476 44.8251C24.669 45.1871 25.7407 45.8675 26.5759 46.793C27.411 47.7186 27.9781 48.8543 28.216 50.0781C28.2749 50.374 28.435 50.6402 28.6687 50.8311C28.9024 51.0219 29.1953 51.1255 29.497 51.1241H59.397C59.6987 51.1255 59.9916 51.0219 60.2253 50.8311C60.459 50.6402 60.619 50.374 60.678 50.0781C60.9156 48.8544 61.4822 47.7186 62.3171 46.7929C63.1519 45.8671 64.2233 45.1865 65.416 44.8241C65.6859 44.7441 65.9227 44.5789 66.091 44.3533C66.2593 44.1276 66.3502 43.8536 66.35 43.5721V36.9001C66.35 36.6188 66.259 36.345 66.0907 36.1195C65.9224 35.8941 65.6857 35.7291 65.416 35.6491C64.223 35.2871 63.1513 34.6068 62.3161 33.6812C61.481 32.7556 60.9139 31.6199 60.676 30.3961H60.675ZM65.034 43.5741C63.6158 44.0043 62.3416 44.8125 61.3479 45.912C60.3543 47.0115 59.6788 48.3608 59.394 49.8151L29.494 49.8251C29.2102 48.3673 28.5342 47.0145 27.5386 45.9125C26.543 44.8105 25.2656 44.001 23.844 43.5711L23.853 36.8971C25.2713 36.4669 26.5456 35.6585 27.5393 34.5588C28.5329 33.4591 29.2083 32.1096 29.493 30.6551L59.393 30.6451C59.6773 32.103 60.3535 33.4559 61.349 34.5583C62.3445 35.6607 63.6216 36.471 65.043 36.9021L65.034 43.5741Z" fill="#1D202D"/>
<path d="M18.741 60.5027H18.32V60.0817C18.32 59.9085 18.2512 59.7424 18.1288 59.62C18.0063 59.4975 17.8402 59.4287 17.667 59.4287C17.4938 59.4287 17.3278 59.4975 17.2053 59.62C17.0828 59.7424 17.014 59.9085 17.014 60.0817V60.5067H16.589C16.4158 60.5067 16.2498 60.5755 16.1273 60.698C16.0048 60.8204 15.936 60.9865 15.936 61.1597C15.936 61.3329 16.0048 61.499 16.1273 61.6215C16.2498 61.7439 16.4158 61.8127 16.589 61.8127H17.014V62.2377C17.014 62.4109 17.0828 62.577 17.2053 62.6995C17.3278 62.8219 17.4938 62.8907 17.667 62.8907C17.8402 62.8907 18.0063 62.8219 18.1288 62.6995C18.2512 62.577 18.32 62.4109 18.32 62.2377V61.8127H18.745C18.9182 61.8127 19.0843 61.7439 19.2068 61.6215C19.3292 61.499 19.398 61.3329 19.398 61.1597C19.398 60.9865 19.3292 60.8204 19.2068 60.698C19.0843 60.5755 18.9182 60.5067 18.745 60.5067L18.741 60.5027Z" fill="#F9F1E5"/>
<path d="M31.1459 20.9027H30.7209V20.4777C30.7209 20.3045 30.6521 20.1384 30.5297 20.016C30.4072 19.8935 30.2411 19.8247 30.0679 19.8247C29.8947 19.8247 29.7286 19.8935 29.6062 20.016C29.4837 20.1384 29.4149 20.3045 29.4149 20.4777V20.9027H28.9899C28.9042 20.9027 28.8193 20.9196 28.74 20.9524C28.6608 20.9852 28.5888 21.0333 28.5282 21.094C28.4675 21.1546 28.4194 21.2266 28.3866 21.3058C28.3538 21.385 28.3369 21.47 28.3369 21.5557C28.3369 21.6415 28.3538 21.7264 28.3866 21.8056C28.4194 21.8848 28.4675 21.9568 28.5282 22.0174C28.5888 22.0781 28.6608 22.1262 28.74 22.159C28.8193 22.1918 28.9042 22.2087 28.9899 22.2087H29.4149V22.6337C29.4149 22.8069 29.4837 22.973 29.6062 23.0954C29.7286 23.2179 29.8947 23.2867 30.0679 23.2867C30.2411 23.2867 30.4072 23.2179 30.5297 23.0954C30.6521 22.973 30.7209 22.8069 30.7209 22.6337V22.2087H31.1459C31.3191 22.2087 31.4852 22.1399 31.6077 22.0174C31.7301 21.895 31.7989 21.7289 31.7989 21.5557C31.7989 21.3825 31.7301 21.2164 31.6077 21.094C31.4852 20.9715 31.3191 20.9027 31.1459 20.9027Z" fill="#F9F1E5"/>
<path d="M71.893 61.5448H71.468V61.1198C71.468 60.9466 71.3992 60.7805 71.2767 60.6581C71.1543 60.5356 70.9882 60.4668 70.815 60.4668C70.6418 60.4668 70.4757 60.5356 70.3532 60.6581C70.2308 60.7805 70.162 60.9466 70.162 61.1198V61.5448H69.737C69.5638 61.5448 69.3977 61.6136 69.2752 61.7361C69.1528 61.8585 69.084 62.0246 69.084 62.1978C69.084 62.371 69.1528 62.5371 69.2752 62.6595C69.3977 62.782 69.5638 62.8508 69.737 62.8508H70.162V63.2758C70.162 63.449 70.2308 63.6151 70.3532 63.7375C70.4757 63.86 70.6418 63.9288 70.815 63.9288C70.9882 63.9288 71.1543 63.86 71.2767 63.7375C71.3992 63.6151 71.468 63.449 71.468 63.2758V62.8508H71.893C72.0662 62.8508 72.2323 62.782 72.3547 62.6595C72.4772 62.5371 72.546 62.371 72.546 62.1978C72.546 62.0246 72.4772 61.8585 72.3547 61.7361C72.2323 61.6136 72.0662 61.5448 71.893 61.5448Z" fill="#F9F1E5"/>
<path d="M69.7399 20.294C69.4407 20.2941 69.1457 20.2239 68.8786 20.089C68.6115 19.9542 68.3798 19.7584 68.2023 19.5175C68.0248 19.2767 67.9064 18.9974 67.8567 18.7024C67.8069 18.4073 67.8272 18.1047 67.9159 17.819C68.0209 17.4825 68.2171 17.1817 68.4827 16.95C68.7483 16.7182 69.073 16.5647 69.4206 16.5063C69.7682 16.4479 70.1252 16.4871 70.452 16.6193C70.7787 16.7516 71.0624 16.9719 71.2715 17.2556C71.4806 17.5394 71.607 17.8755 71.6366 18.2268C71.6662 18.578 71.5979 18.9306 71.4392 19.2454C71.2806 19.5601 71.0378 19.8248 70.7378 20.0099C70.4378 20.195 70.0924 20.2933 69.7399 20.294ZM69.7399 17.784C69.5886 17.7842 69.443 17.8416 69.3323 17.9447C69.2215 18.0477 69.1538 18.1888 69.1426 18.3396C69.1314 18.4905 69.1776 18.64 69.272 18.7582C69.3663 18.8765 69.5019 18.9547 69.6515 18.9773C69.801 18.9998 69.9536 18.9651 70.0787 18.8799C70.2037 18.7948 70.292 18.6655 70.3258 18.5181C70.3596 18.3706 70.3365 18.2159 70.261 18.0847C70.1856 17.9536 70.0634 17.8558 69.9189 17.811C69.86 17.7927 69.7986 17.7836 69.7369 17.784H69.7399Z" fill="#F9F1E5"/>
<path d="M20.8521 67.8736C20.4503 67.8734 20.0587 67.7462 19.7334 67.5104C19.408 67.2745 19.1654 66.9419 19.0403 66.56C18.9151 66.1781 18.9136 65.7665 19.0362 65.3838C19.1587 65.001 19.399 64.6668 19.7227 64.4287C20.0464 64.1905 20.4371 64.0607 20.8389 64.0577C21.2408 64.0546 21.6333 64.1786 21.9606 64.4118C22.2879 64.645 22.5332 64.9756 22.6615 65.3565C22.7898 65.7373 22.7945 66.1489 22.6751 66.5326C22.5552 66.9221 22.3133 67.2627 21.9851 67.5041C21.6568 67.7456 21.2596 67.8751 20.8521 67.8736ZM20.8521 65.3646C20.7008 65.3646 20.5551 65.4218 20.4441 65.5247C20.3332 65.6276 20.2652 65.7686 20.2539 65.9195C20.2425 66.0704 20.2885 66.22 20.3828 66.3384C20.4771 66.4568 20.6126 66.5351 20.7622 66.5578C20.9118 66.5805 21.0644 66.5459 21.1896 66.4608C21.3147 66.3757 21.403 66.2465 21.4369 66.099C21.4708 65.9515 21.4477 65.7967 21.3723 65.6655C21.2968 65.5343 21.1746 65.4365 21.0301 65.3916C20.9731 65.3739 20.9138 65.3648 20.8541 65.3646H20.8521Z" fill="#F9F1E5"/>
<defs>
<linearGradient id="paint0_linear" x1="139.359" y1="-582.502" x2="115.664" y2="-634.412" gradientUnits="userSpaceOnUse">
<stop stop-color="#D2DBFC" stop-opacity="0"/>
<stop offset="1" stop-color="#B8C1FB"/>
</linearGradient>
</defs>
</svg>
