<svg width="229" height="37" viewBox="0 0 229 37" fill="none" xmlns="http://www.w3.org/2000/svg">
<path d="M25.4378 1.00012C26.2145 1.19114 26.9368 1.55813 27.5491 2.07275C28.1613 2.58738 28.6471 3.23584 28.9688 3.96808C29.3075 4.93205 29.3658 5.97232 29.1368 6.96808C28.7978 8.84808 28.4368 10.7251 28.0368 12.5911C27.9228 13.1171 28.0759 13.3171 28.5319 13.5401C31.2149 14.8521 33.7088 16.4941 34.8058 19.3921C36.4058 23.6211 35.9009 28.9261 31.7169 32.0221C28.5891 34.2467 24.9358 35.6184 21.1168 36.0021C20.9298 36.0261 20.6828 35.9021 20.5858 36.1891H15.5579C15.4869 35.9491 15.2798 36.0201 15.1158 35.9991C12.9211 35.762 10.7696 35.2236 8.72186 34.3991C5.60386 33.0801 2.89081 31.2791 1.36481 28.0901C1.19393 27.4729 0.95516 26.8766 0.652832 26.3121V21.2851C1.11683 20.4341 1.24085 19.4521 1.74585 18.6071C3.15068 16.4033 5.17303 14.6616 7.56085 13.5991C8.08685 13.3381 8.24485 13.0991 8.12085 12.5111C7.70585 10.5571 7.33486 8.59411 6.97986 6.62811C6.7743 5.67169 6.87899 4.67465 7.27875 3.7818C7.67851 2.88895 8.35249 2.14675 9.20282 1.66309C9.67982 1.39509 10.2029 1.21607 10.7089 0.99707H12.3248C12.3568 1.04307 12.3818 1.1221 12.4248 1.1311C13.5451 1.37863 14.5375 2.02415 15.218 2.94788C15.8984 3.87161 16.2206 5.01083 16.1248 6.15411C16.0558 7.61711 16.1558 9.08708 16.0958 10.5541C16.0648 11.3011 16.3108 11.4691 17.0118 11.4011C17.7875 11.3371 18.5672 11.3371 19.3428 11.4011C19.8978 11.4391 20.0759 11.2741 20.0659 10.7131C20.0352 9.00774 20.0352 7.30244 20.0659 5.59711C20.0653 4.69353 20.3329 3.81011 20.835 3.05884C21.337 2.30756 22.0508 1.72223 22.8859 1.37708C23.1399 1.25108 23.4778 1.29107 23.6478 0.99707L25.4378 1.00012ZM18.0739 34.7481C22.2497 34.8893 26.374 33.7923 29.9279 31.5951C32.6949 29.7951 34.4589 27.3641 34.1489 23.8471C34.266 22.7157 34.1331 21.5724 33.7595 20.4981C33.3859 19.4238 32.7807 18.4447 31.9868 17.6301C30.5895 16.2296 28.9128 15.1392 27.0659 14.4301C26.5479 14.2301 26.3178 14.0301 26.4658 13.3881C26.8248 11.8811 27.0998 10.3511 27.3438 8.82007C27.6504 7.69741 27.8263 6.54315 27.8679 5.38013C27.7893 4.55178 27.3966 3.78489 26.7705 3.23688C26.1444 2.68887 25.3323 2.40128 24.5009 2.43311C23.6697 2.47659 22.8882 2.84215 22.3221 3.45227C21.7561 4.06239 21.45 4.86906 21.4688 5.70111C21.4558 7.76411 21.4318 9.82811 21.4828 11.8911C21.5018 12.6691 21.3208 12.9771 20.4898 12.8611C18.829 12.6548 17.1485 12.6632 15.4898 12.8861C14.8058 12.9681 14.6649 12.7771 14.6729 12.1531C14.6989 10.0301 14.6729 7.90712 14.6859 5.78412C14.7049 4.96897 14.425 4.17503 13.8989 3.55212C13.4491 3.02495 12.8392 2.65942 12.1623 2.51135C11.4854 2.36329 10.7786 2.44082 10.1498 2.73212C9.45733 3.07289 8.90474 3.64366 8.58661 4.34686C8.26848 5.05007 8.20457 5.84198 8.40582 6.5871C8.84182 8.9021 9.25082 11.2221 9.71582 13.5311C9.81582 14.0231 9.69882 14.2121 9.24982 14.3901C7.99305 14.8674 6.80897 15.5177 5.73181 16.3221C3.43981 18.0831 1.86185 20.2151 2.12585 23.2981C1.90043 24.7866 2.10599 26.3085 2.71826 27.6839C3.33054 29.0593 4.32386 30.2305 5.58081 31.0591C8.98268 33.4376 13.03 34.7202 17.1808 34.7351L18.0739 34.7481Z" fill="#B6B6B6"/>
<path d="M43.2479 18.895C43.2479 16.385 43.2479 13.8746 43.2479 11.364C43.2479 10.01 43.5959 9.61698 44.9299 9.63198C47.7079 9.66298 50.4899 9.47798 53.2629 9.76498C55.4729 9.99398 57.3959 10.815 58.2479 13.002C58.7601 14.1251 58.9755 15.3608 58.8736 16.5909C58.7717 17.821 58.3559 19.0045 57.6659 20.028C56.4459 21.8 54.5079 22.166 52.5399 22.328C51.4953 22.3911 50.448 22.3962 49.4028 22.343C48.8958 22.327 48.7269 22.477 48.7409 22.992C48.7739 24.216 48.7589 25.442 48.7489 26.667C48.7399 27.791 48.4179 28.122 47.3189 28.143C46.5419 28.158 45.7649 28.15 44.9879 28.143C43.5369 28.137 43.2509 27.857 43.2489 26.425C43.2455 23.9157 43.2452 21.4056 43.2479 18.895ZM48.7479 15.948V16.217C48.7479 18.547 48.7478 18.536 51.1138 18.447C51.4431 18.456 51.7704 18.3924 52.0723 18.2607C52.3742 18.129 52.6434 17.9325 52.8609 17.685C53.1704 17.2085 53.344 16.6565 53.3631 16.0885C53.3821 15.5206 53.2458 14.9582 52.9689 14.462C52.4653 13.9692 51.835 13.6256 51.148 13.4692C50.461 13.3128 49.7441 13.3498 49.0769 13.576C48.2769 13.927 48.9299 14.914 48.7529 15.59C48.7373 15.7088 48.7363 15.829 48.7499 15.948H48.7479Z" fill="#4E4E4E"/>
<path d="M213.644 24.7032C213.644 22.2812 213.668 19.8603 213.627 17.4393C213.601 17.1915 213.657 16.9421 213.785 16.7289C213.914 16.5156 214.109 16.35 214.34 16.2572C215.907 15.4053 217.63 14.8793 219.405 14.7109C221.181 14.5425 222.972 14.7352 224.671 15.2773C228.042 16.3043 229.162 19.3222 228.829 22.6142C228.591 24.9692 227.619 26.9412 225.329 27.9452C224.475 28.3539 223.546 28.5804 222.6 28.6103C221.654 28.6403 220.712 28.4731 219.835 28.1192C218.987 27.7672 218.971 28.0962 218.987 28.7572C219.016 29.9222 219.004 31.0892 218.993 32.2572C218.983 33.3242 218.657 33.6573 217.612 33.6763C216.775 33.6903 215.938 33.6883 215.1 33.6763C213.979 33.6653 213.657 33.3623 213.651 32.2353C213.637 29.7243 213.651 27.2133 213.651 24.7023L213.644 24.7032ZM220.493 18.3763C220.138 18.4063 219.778 18.4122 219.429 18.4762C219.362 18.4796 219.297 18.4966 219.237 18.5262C219.178 18.5558 219.125 18.5973 219.082 18.6482C219.038 18.6991 219.006 18.7583 218.987 18.8221C218.968 18.8859 218.962 18.9531 218.97 19.0193C218.998 20.4783 218.962 21.9403 219.022 23.3973C219.031 23.7604 219.167 24.109 219.406 24.3821C219.646 24.6551 219.974 24.8354 220.333 24.8913C221.833 25.2693 222.872 24.5963 223.239 22.8233C223.766 20.2763 223.016 18.2623 220.493 18.3763Z" fill="#4E4E4E"/>
<path d="M166.129 28.5783C164 28.5824 161.891 28.175 159.917 27.3783C159.511 27.1891 159.12 26.9699 158.747 26.7223C158.643 26.6775 158.552 26.6077 158.481 26.5191C158.411 26.4306 158.363 26.326 158.343 26.2147C158.323 26.1034 158.33 25.9888 158.365 25.8811C158.4 25.7734 158.46 25.6759 158.542 25.5973C159.042 24.8973 159.342 23.9373 160.005 23.4853C160.756 22.9693 161.456 23.9583 162.219 24.1853C163.556 24.6236 164.966 24.7975 166.37 24.6973C167.202 24.6163 167.905 24.3263 168.096 23.4103C168.173 23.0236 168.108 22.6221 167.914 22.2791C167.719 21.936 167.408 21.6742 167.037 21.5413C165.437 20.6753 163.658 20.1953 162.065 19.2983C159.248 17.7123 158.277 15.0693 159.565 12.3623C159.817 11.8166 160.174 11.3261 160.616 10.919C161.058 10.5119 161.576 10.1963 162.141 9.99031C163.728 9.39287 165.418 9.12039 167.112 9.18911C168.807 9.25782 170.47 9.66629 172.003 10.3903C173.345 10.9903 173.37 11.3263 172.567 12.5683C172.211 13.1183 171.96 13.8423 171.455 14.1683C170.819 14.5743 170.329 13.7133 169.716 13.5343C168.451 13.053 167.073 12.9487 165.75 13.2343C165.462 13.2965 165.197 13.4385 164.986 13.6441C164.775 13.8497 164.625 14.1106 164.555 14.3969C164.485 14.6832 164.497 14.9834 164.59 15.2632C164.683 15.543 164.852 15.7912 165.079 15.9793C165.735 16.5029 166.492 16.8862 167.302 17.1053C168.628 17.5608 169.906 18.146 171.118 18.8523C172.03 19.3568 172.756 20.1405 173.19 21.0883C173.624 22.0362 173.742 23.0982 173.528 24.1183C173.375 25.1028 172.925 26.0172 172.238 26.7391C171.551 27.461 170.66 27.9561 169.685 28.1583C168.53 28.4875 167.329 28.6293 166.129 28.5783Z" fill="#4E4E4E"/>
<path d="M131.694 23.0152C131.694 24.2682 131.706 25.4272 131.694 26.5862C131.677 27.8182 131.366 28.1272 130.149 28.1452C129.311 28.1572 128.473 28.1602 127.636 28.1452C126.548 28.1242 126.257 27.8452 126.246 26.7452C126.227 24.8902 126.237 23.0352 126.237 21.1802C126.237 17.8889 126.237 14.5978 126.237 11.3072C126.237 9.95418 126.521 9.6592 127.85 9.6292C128.597 9.61253 129.345 9.61253 130.094 9.6292C131.341 9.6592 131.684 9.99823 131.694 11.2632C131.709 13.8362 131.694 16.4092 131.704 18.9822C131.647 19.3276 131.704 19.6819 131.866 19.9922C132.755 18.8542 133.682 17.8222 134.425 16.6722C134.699 16.1132 135.147 15.6576 135.701 15.3735C136.255 15.0893 136.886 14.9917 137.5 15.0952C138.395 15.1616 139.294 15.1703 140.19 15.1212C140.514 15.1212 140.883 15.0712 141.038 15.4632C141.172 15.8012 140.923 16.0322 140.732 16.2522C139.382 17.8062 138.041 19.3692 136.656 20.8922C136.256 21.3342 136.233 21.5922 136.646 22.0552C138.052 23.6412 139.402 25.2772 140.76 26.9052C140.975 27.1632 141.346 27.3962 141.16 27.8252C140.951 28.3092 140.498 28.1402 140.135 28.1452C138.935 28.1622 137.741 28.1302 136.545 28.1622C136.294 28.1837 136.042 28.1357 135.817 28.0235C135.592 27.9114 135.402 27.7393 135.268 27.5262C134.313 26.1892 133.315 24.8842 132.335 23.5662C132.2 23.3067 131.971 23.1092 131.694 23.0152Z" fill="#4E4E4E"/>
<path d="M184.842 22.4462C184.197 24.2232 183.63 25.7232 183.11 27.2411C183.058 27.5364 182.891 27.7992 182.646 27.9717C182.401 28.1442 182.097 28.2123 181.802 28.1612C181.146 28.1023 180.486 28.1023 179.83 28.1612C178.983 28.2392 178.607 27.8702 178.379 27.0782C177.319 23.4069 176.229 19.7445 175.107 16.0912C174.865 15.3022 175.062 15.0622 175.851 15.0912C176.837 15.1312 177.826 15.1352 178.812 15.0992C179.481 15.0752 179.752 15.3671 179.89 15.9991C180.298 17.8571 180.759 19.6992 181.265 21.8292C181.688 20.7842 182.026 19.9612 182.352 19.1291C182.493 18.7691 182.601 18.3962 182.738 18.0352C183.438 16.1762 183.898 15.9262 185.838 16.2592C186.397 16.3592 186.514 16.7982 186.668 17.2052C187.168 18.5162 187.637 19.8351 188.119 21.1501C188.179 21.3141 188.195 21.5062 188.475 21.6302C188.901 19.8592 189.375 18.1172 189.722 16.3512C189.916 15.3712 190.342 14.9872 191.351 15.0892C192.247 15.1465 193.145 15.1526 194.042 15.1072C194.628 15.0992 194.864 15.2761 194.669 15.9131C193.494 19.7398 192.335 23.5715 191.191 27.4082C191.143 27.644 191.006 27.8524 190.809 27.9905C190.612 28.1285 190.37 28.1857 190.132 28.1501C189.415 28.1097 188.696 28.1137 187.979 28.1622C187.818 28.1907 187.654 28.1869 187.494 28.1512C187.335 28.1156 187.185 28.0486 187.052 27.9543C186.919 27.8599 186.806 27.7401 186.719 27.6017C186.633 27.4633 186.575 27.3092 186.549 27.1482C186.037 25.6632 185.479 24.1922 184.842 22.4462Z" fill="#4E4E4E"/>
<path d="M206.457 26.9103C205.805 27.4927 205.044 27.9399 204.218 28.2259C203.393 28.5119 202.518 28.631 201.646 28.5763C200.282 28.6184 198.955 28.1297 197.944 27.213C196.933 26.2962 196.317 25.023 196.226 23.6613C195.636 18.4543 198.737 14.8813 204.026 14.6983C206.273 14.5687 208.516 15.0253 210.534 16.0233C210.766 16.1149 210.962 16.2799 211.091 16.4931C211.221 16.7063 211.277 16.9561 211.252 17.2043C211.219 20.4333 211.24 23.6623 211.236 26.8923C211.236 28.0553 211.136 28.1453 209.936 28.1513C209.398 28.1513 208.856 28.1103 208.322 28.1593C207.406 28.2423 206.631 28.1363 206.457 26.9103ZM206.121 21.1353H206.127C206.127 20.4483 206.113 19.7613 206.133 19.0753C206.146 19.003 206.144 18.9289 206.129 18.8571C206.113 18.7854 206.083 18.7174 206.041 18.6572C205.999 18.597 205.945 18.5457 205.883 18.5063C205.821 18.4668 205.752 18.44 205.68 18.4273C205.001 18.2292 204.274 18.2672 203.619 18.5351C202.964 18.803 202.42 19.2849 202.074 19.9023C201.781 20.458 201.602 21.0668 201.549 21.6927C201.495 22.3186 201.568 22.9489 201.762 23.5463C202.079 24.6543 202.991 25.0843 204.342 24.8923C204.59 24.8868 204.834 24.8308 205.059 24.7275C205.285 24.6243 205.487 24.4761 205.653 24.2921C205.819 24.108 205.946 23.8919 206.026 23.657C206.106 23.4222 206.137 23.1735 206.117 22.9263C206.138 22.3303 206.121 21.7323 206.121 21.1353Z" fill="#4E4E4E"/>
<path d="M123.746 22.1599C123.746 23.8359 123.728 25.5119 123.755 27.1869C123.766 27.8689 123.526 28.1869 122.819 28.1539C122.072 28.1219 121.319 28.1269 120.575 28.1539C119.937 28.1769 119.385 28.1349 119.168 27.3799C119.027 26.8889 118.758 27.1349 118.505 27.3179C117.642 27.9445 116.644 28.3579 115.591 28.5245C114.538 28.691 113.461 28.6058 112.447 28.2759C111.599 28.0579 110.829 27.609 110.221 26.9793C109.614 26.3496 109.193 25.5636 109.005 24.7089C107.557 19.2889 110.875 14.9089 116.573 14.7009C118.822 14.5625 121.068 15.021 123.083 16.0299C123.302 16.1127 123.487 16.2653 123.611 16.4641C123.735 16.6629 123.789 16.8969 123.767 17.1299C123.731 18.8049 123.754 20.4809 123.754 22.1569L123.746 22.1599ZM118.676 21.0919H118.737C118.737 20.4339 118.729 19.7769 118.737 19.1189C118.763 18.9724 118.734 18.8212 118.656 18.6947C118.577 18.5683 118.454 18.4757 118.311 18.4349C117.646 18.2369 116.936 18.26 116.286 18.5008C115.635 18.7415 115.081 19.1869 114.706 19.7699C114.384 20.3625 114.187 21.0149 114.128 21.6867C114.069 22.3584 114.148 23.0352 114.362 23.6749C114.545 24.1408 114.892 24.5238 115.337 24.7523C115.782 24.9808 116.296 25.039 116.781 24.9159C117.929 24.7909 118.568 24.2609 118.661 23.2409C118.728 22.5299 118.675 21.8089 118.675 21.0949L118.676 21.0919Z" fill="#4E4E4E"/>
<path d="M69.994 26.9409C69.1776 27.659 68.1983 28.1672 67.1411 28.4214C66.0839 28.6756 64.9807 28.6683 63.927 28.3999C62.7881 28.166 61.7597 27.559 61.0044 26.6749C60.2492 25.7909 59.8102 24.6804 59.757 23.5189C59.185 18.0099 62.689 15.0019 67.472 14.7119C69.8092 14.5288 72.1507 15.0092 74.227 16.0979C74.4159 16.175 74.5748 16.3114 74.6797 16.4865C74.7846 16.6615 74.83 16.8659 74.809 17.0689C74.789 20.4189 74.781 23.7689 74.809 27.1189C74.817 27.9239 74.481 28.1909 73.736 28.1499C73.229 28.1219 72.719 28.1309 72.211 28.1499C71.248 28.1779 70.233 28.3289 69.994 26.9409ZM69.676 21.0409H69.723C69.723 20.3829 69.711 19.7249 69.723 19.0679C69.732 18.7189 69.623 18.4839 69.259 18.4289C68.6783 18.2769 68.0672 18.2853 67.4908 18.4531C66.9145 18.6209 66.3944 18.9419 65.986 19.3819C65.5129 20.054 65.2231 20.8377 65.1453 21.656C65.0674 22.4742 65.2042 23.2986 65.542 24.0479C65.8195 24.4226 66.2048 24.7037 66.6464 24.8534C67.088 25.0032 67.5648 25.0145 68.013 24.8859C69.03 24.6989 69.571 24.2209 69.658 23.2799C69.731 22.5349 69.676 21.7839 69.676 21.0369V21.0409Z" fill="#4E4E4E"/>
<path d="M77.2329 21.3811C77.2329 19.7071 77.2329 18.0331 77.2329 16.3591C77.2329 15.1691 77.2879 15.1191 78.5109 15.1151C79.1689 15.1151 79.8259 15.1151 80.4839 15.1151C81.0639 15.1151 81.5969 15.0641 81.7039 15.9151C81.7819 16.5281 82.1329 16.0311 82.3229 15.9151C83.2541 15.2841 84.3206 14.881 85.4364 14.7382C86.5521 14.5954 87.6858 14.717 88.7459 15.0931C89.5668 15.357 90.2793 15.8812 90.7756 16.5864C91.2718 17.2916 91.5247 18.1393 91.4959 19.0011C91.5699 21.6291 91.5269 24.2611 91.5159 26.8921C91.5159 27.7761 91.1619 28.1161 90.2469 28.1441C89.3809 28.1701 88.5129 28.1591 87.6469 28.1511C86.3549 28.1401 86.0469 27.8511 86.0469 26.5721C86.0359 24.4201 86.0569 22.2721 86.0419 20.1161C86.0319 18.7081 85.4499 18.2221 84.0769 18.4161C83.1629 18.5471 82.6999 19.1091 82.6919 20.1971C82.6749 22.2591 82.6919 24.3221 82.6919 26.3841C82.6919 27.8841 82.4179 28.1481 80.9169 28.1511C80.1689 28.1511 79.4169 28.1611 78.6749 28.1511C77.5899 28.1321 77.2699 27.8511 77.2509 26.7681C77.2199 24.9751 77.2429 23.1811 77.2429 21.3881L77.2329 21.3811Z" fill="#4E4E4E"/>
<path d="M151.756 22.7382C150.441 22.7382 149.125 22.7582 147.811 22.7302C147.196 22.7172 147.101 22.9612 147.254 23.4932C147.36 23.8867 147.576 24.2418 147.877 24.5161C148.179 24.7905 148.552 24.9727 148.954 25.0411C150.582 25.5039 152.323 25.3509 153.845 24.6112C154.585 24.2212 155.006 24.3771 155.282 25.1221C155.318 25.2044 155.358 25.2845 155.403 25.3621C156.282 27.0871 156.288 27.1991 154.403 27.8621C151.77 28.8413 148.878 28.8678 146.228 27.9371C144.91 27.4967 143.778 26.6265 143.015 25.4659C142.251 24.3053 141.899 22.9217 142.015 21.5372C142.169 17.2972 144.596 14.8931 148.935 14.7031C150.1 14.6279 151.269 14.738 152.399 15.0292C153.804 15.3849 155.035 16.2297 155.873 17.4119C156.711 18.594 157.1 20.036 156.97 21.4791C156.903 22.4261 156.588 22.7291 155.613 22.7371C154.327 22.7451 153.046 22.7372 151.756 22.7382ZM149.656 20.1461C150.256 20.1461 150.849 20.1112 151.441 20.1552C152.141 20.2082 152.166 19.8441 152.035 19.3301C151.771 18.2931 150.859 17.7992 149.316 17.8632C148.821 17.8493 148.336 18.0101 147.948 18.3174C147.559 18.6247 147.291 19.059 147.19 19.5441C147.109 19.9871 147.266 20.1502 147.69 20.1442C148.346 20.1392 149.001 20.1451 149.656 20.1451V20.1461Z" fill="#4E4E4E"/>
<path d="M101.257 28.5751C99.0958 28.5191 96.9317 28.241 95.2217 26.645C91.6787 23.339 93.0408 16.945 97.6708 15.293C100.148 14.4264 102.847 14.4332 105.32 15.3121C105.489 15.3711 105.653 15.4416 105.813 15.5231C107.285 16.2451 107.334 16.3741 106.513 17.7611C106.183 18.3201 106.045 19.123 105.442 19.361C104.839 19.599 104.358 18.8691 103.771 18.6851C102.352 18.2411 100.913 18.0301 99.7107 19.1151C99.2393 19.5835 98.9107 20.1762 98.7632 20.8242C98.6157 21.4722 98.6554 22.1487 98.8778 22.775C98.9838 23.3251 99.2641 23.8264 99.6773 24.2046C100.09 24.5828 100.615 24.8179 101.172 24.8751C102.455 25.0934 103.773 24.8171 104.86 24.1021C105.445 23.7271 105.806 23.7551 106.119 24.4191C106.389 24.9523 106.693 25.4676 107.029 25.962C107.411 26.562 107.334 26.9621 106.666 27.3251C104.995 28.1851 103.136 28.6147 101.257 28.5751Z" fill="#4E4E4E"/>
<path d="M2.12793 23.2971C1.86393 20.2151 3.44195 18.082 5.73395 16.321C6.81111 15.5167 7.99518 14.8664 9.25195 14.389C9.70195 14.211 9.81696 14.0231 9.71796 13.5301C9.25295 11.2211 8.84396 8.90106 8.40796 6.58606C8.2067 5.84095 8.27062 5.04903 8.58874 4.34583C8.90687 3.64263 9.45946 3.07186 10.152 2.73108C10.7807 2.43962 11.4875 2.362 12.1645 2.51008C12.8415 2.65815 13.4513 3.02377 13.9009 3.55109C14.427 4.17405 14.707 4.96795 14.688 5.78309C14.68 7.90609 14.701 10.029 14.675 12.152C14.667 12.775 14.8079 12.9661 15.4919 12.8851C17.1506 12.6622 18.8311 12.6538 20.4919 12.8601C21.3229 12.9761 21.504 12.6681 21.485 11.8901C21.434 9.82808 21.4579 7.76408 21.4709 5.70008C21.4521 4.86803 21.7582 4.06136 22.3243 3.45124C22.8903 2.84112 23.6718 2.47555 24.5029 2.43207C25.3344 2.40025 26.1465 2.68784 26.7726 3.23584C27.3988 3.78385 27.7913 4.55075 27.8699 5.37909C27.8283 6.54211 27.6525 7.69643 27.3459 8.8191C27.1029 10.3501 26.827 11.8801 26.468 13.3871C26.315 14.0301 26.545 14.2271 27.063 14.4291C28.9099 15.1382 30.5867 16.2285 31.9839 17.6291C32.7778 18.4437 33.383 19.4227 33.7566 20.4971C34.1302 21.5714 34.2631 22.7147 34.1459 23.8461C33.9139 23.8821 33.924 24.0771 33.864 24.2461C33.3387 25.7756 32.3992 27.1291 31.15 28.1561C27.818 30.8811 23.88 31.9181 19.72 32.2101C15.8366 32.5493 11.932 31.8682 8.39294 30.2341C5.37594 28.7981 2.83793 26.8531 2.12793 23.2971ZM25.9769 21.884C26.0091 21.2017 25.8293 20.5261 25.462 19.9501C25.3495 19.7027 25.1681 19.4929 24.9395 19.346C24.7108 19.199 24.4446 19.1212 24.1728 19.1217C23.9011 19.1222 23.6352 19.2011 23.4071 19.3489C23.179 19.4967 22.9985 19.7072 22.887 19.9551C22.5901 20.4401 22.4145 20.9895 22.3749 21.5568C22.3354 22.1241 22.4332 22.6926 22.66 23.2141C22.7475 23.5504 22.9367 23.8516 23.2018 24.0764C23.4668 24.3012 23.7948 24.4387 24.1409 24.4701C24.9479 24.4841 25.4009 23.8881 25.7009 23.1981C25.9006 22.7898 25.9954 22.3382 25.9769 21.884ZM13.623 21.9261C13.6758 21.3492 13.5775 20.7685 13.3379 20.2411C13.0049 19.6411 12.596 19.1191 11.8379 19.1411C11.5197 19.1579 11.2145 19.2726 10.9639 19.4695C10.7133 19.6664 10.5296 19.9359 10.438 20.2411C10.1554 20.8223 10.0384 21.4701 10.0998 22.1135C10.1612 22.7568 10.3986 23.3708 10.7859 23.8881C10.8988 24.0677 11.054 24.2171 11.2379 24.323C11.4217 24.4289 11.6288 24.4882 11.8408 24.4957C12.0529 24.5032 12.2636 24.4586 12.4545 24.366C12.6454 24.2733 12.8107 24.1353 12.936 23.9641C13.1854 23.6905 13.3751 23.368 13.4932 23.0172C13.6113 22.6663 13.6551 22.2948 13.6219 21.9261H13.623Z" fill="#9B9B9B"/>
<path d="M2.12767 23.2969C2.83767 26.8529 5.37664 28.7969 8.39464 30.2329C11.9337 31.867 15.8383 32.5481 19.7217 32.2089C23.8817 31.9159 27.8217 30.8799 31.1517 28.1549C32.4007 27.1282 33.3402 25.775 33.8657 24.2459C33.9256 24.0789 33.9157 23.8849 34.1477 23.8459C34.4587 27.3629 32.6937 29.7929 29.9267 31.5939C26.3728 33.7912 22.2485 34.8881 18.0727 34.7469C17.7837 34.1839 17.4856 34.1859 17.1786 34.7329C13.0278 34.718 8.98053 33.4354 5.57866 31.0569C4.32262 30.2278 3.33016 29.0566 2.71862 27.6815C2.10708 26.3063 1.90204 24.7848 2.12767 23.2969Z" fill="#DFDFDF"/>
<path d="M17.1797 34.7342C17.4867 34.1882 17.7797 34.1862 18.0737 34.7482L17.1797 34.7342Z" fill="#F2F2F2"/>
<path d="M25.9768 21.8839C25.9957 22.3383 25.9012 22.7902 25.7018 23.1989C25.4018 23.8889 24.9498 24.4849 24.1428 24.4709C23.7966 24.4395 23.4686 24.3019 23.2036 24.0772C22.9385 23.8524 22.7493 23.5513 22.6618 23.2149C22.435 22.6934 22.3372 22.1249 22.3767 21.5576C22.4162 20.9903 22.5919 20.4409 22.8888 19.9559C23.0003 19.708 23.1809 19.4976 23.4089 19.3498C23.637 19.202 23.9029 19.1231 24.1747 19.1226C24.4465 19.122 24.7126 19.1999 24.9412 19.3468C25.1699 19.4937 25.3513 19.7034 25.4638 19.9509C25.8301 20.5268 26.0093 21.2021 25.9768 21.8839Z" fill="#3E3E3E"/>
<path d="M13.6227 21.9261C13.656 22.2956 13.612 22.668 13.4933 23.0196C13.3747 23.3712 13.1841 23.6942 12.9337 23.968C12.8084 24.1395 12.6431 24.2777 12.4521 24.3705C12.2611 24.4633 12.0502 24.5079 11.838 24.5004C11.6258 24.4929 11.4186 24.4335 11.2347 24.3275C11.0507 24.2214 10.8955 24.0719 10.7827 23.892C10.3953 23.3747 10.1579 22.7607 10.0965 22.1174C10.0351 21.4741 10.1521 20.8262 10.4347 20.245C10.5263 19.9398 10.71 19.6703 10.9605 19.4734C11.2111 19.2765 11.5165 19.1619 11.8347 19.1451C12.5947 19.1181 13.0037 19.637 13.3347 20.245C13.5745 20.771 13.6737 21.3502 13.6227 21.9261Z" fill="#3E3E3E"/>
</svg>
