<svg width="168" height="44" viewBox="0 0 168 44" fill="none" xmlns="http://www.w3.org/2000/svg">
<path d="M0.561839 21.9493C0.290839 10.0493 10.5618 -0.0677246 22.7288 0.00527542C28.5364 0.0953467 34.0787 2.45233 38.1722 6.57293C42.2657 10.6935 44.5861 16.2512 44.6378 22.0593C44.5536 27.8914 42.1808 33.4567 38.0309 37.5554C33.881 41.654 28.2865 43.9576 22.4538 43.9693C10.3068 43.9093 0.282839 33.7623 0.561839 21.9493ZM35.8928 23.9793L36.1688 23.9213L36.0988 23.8063L35.8838 23.9703C35.8268 24.0073 35.6338 23.9703 35.7938 24.1263L35.8928 23.9793ZM39.0088 20.0673C38.7728 21.1665 38.2762 22.1929 37.5608 23.0603C36.2258 24.7173 34.5688 26.0543 33.1868 27.6603C31.9491 28.7614 30.8522 30.0112 29.9208 31.3813C27.7858 34.2423 26.0788 37.2593 26.1568 40.9953C26.1748 41.8363 26.5148 42.0263 27.2128 41.8413C28.22 41.6397 29.1955 41.3033 30.1128 40.8413C30.9737 40.6709 31.7653 40.2507 32.3888 39.6333C32.8023 39.6148 33.1989 39.4637 33.5198 39.2023C35.0006 38.2677 36.3464 37.1349 37.5198 35.8353C39.7975 33.4745 41.4508 30.5833 42.3304 27.4231C43.21 24.2629 43.2882 20.9333 42.5578 17.7353C41.6321 13.1594 39.117 9.05863 35.4578 6.15927C31.7917 3.14526 27.1764 1.52727 22.4308 1.59228C18.912 1.57476 15.4536 2.50759 12.4208 4.29229C9.26638 6.052 6.66656 8.65838 4.91484 11.8173C4.84314 11.8896 4.77852 11.9686 4.72184 12.0533C3.14544 14.7954 2.24474 17.8734 2.09433 21.0328C1.94391 24.1921 2.54808 27.3418 3.85684 30.2213C4.30378 31.412 4.95823 32.514 5.78984 33.4763C7.11908 30.2683 7.87424 26.8517 8.02084 23.3823C8.25884 20.4563 8.32084 17.4823 10.1008 14.9353L10.7068 14.2933C12.061 13.0552 13.6537 12.1067 15.3873 11.5057C17.1209 10.9047 18.9589 10.664 20.7888 10.7983C21.5018 10.8543 22.2118 10.9533 22.9228 11.0323L28.2618 12.8633C28.4899 13.0096 28.726 13.1431 28.9688 13.2633C30.8918 14.0943 32.9218 14.6173 34.8918 15.3133C35.7794 15.5819 36.6007 16.0337 37.3028 16.6395C38.0049 17.2453 38.5721 17.9916 38.9678 18.8303L39.0088 20.0673ZM19.6978 20.8913C20.7532 20.8908 21.7653 20.4718 22.5122 19.7263C23.2592 18.9809 23.6802 17.9696 23.6828 16.9143C23.6494 15.8806 23.2164 14.9002 22.4748 14.1794C21.7333 13.4585 20.741 13.0534 19.7068 13.0493C18.6538 13.0367 17.6386 13.4412 16.8828 14.1745C16.127 14.9078 15.6921 15.9104 15.6728 16.9633C15.6894 18.0164 16.1222 19.0202 16.8766 19.7553C17.6309 20.4904 18.6456 20.897 19.6988 20.8863L19.6978 20.8913ZM23.1978 25.4963C25.9708 27.5963 33.0068 26.7563 35.3928 24.1783C31.5488 25.8423 27.6108 26.6913 23.1938 25.4923L23.1978 25.4963ZM33.8388 20.0613C33.3318 20.1213 33.0008 20.3803 33.0138 20.9053C33.0062 21.017 33.0234 21.1291 33.0644 21.2334C33.1055 21.3376 33.1692 21.4315 33.2509 21.5081C33.3327 21.5846 33.4304 21.6421 33.5372 21.6762C33.6439 21.7103 33.7568 21.7202 33.8678 21.7053C33.9707 21.7091 34.0733 21.6916 34.1691 21.6539C34.2649 21.6163 34.3519 21.5592 34.4246 21.4864C34.4974 21.4135 34.5543 21.3264 34.5919 21.2306C34.6294 21.1347 34.6468 21.0322 34.6428 20.9293C34.6588 20.3983 34.3418 20.1293 33.8348 20.0573L33.8388 20.0613Z" fill="#B6B6B6"/>
<path d="M116.489 26.0213C114.307 28.3503 111.736 28.5943 109 27.4683C106.209 26.3193 104.943 23.9813 104.645 21.1213C104.437 19.8288 104.537 18.5054 104.937 17.2588C105.337 16.0121 106.025 14.8773 106.945 13.9463C108.313 12.7038 110.091 12.0105 111.939 11.9996C113.787 11.9888 115.574 12.661 116.956 13.8873C117.643 14.6087 118.138 15.4915 118.394 16.4543C118.541 16.9423 118.494 17.2543 117.863 17.1973C117.417 17.1676 116.969 17.1676 116.523 17.1973C116.173 17.2153 115.931 17.1313 115.823 16.7623C115.264 14.8253 113.743 14.2033 111.958 14.1553C111.125 14.0989 110.295 14.3019 109.582 14.7363C108.869 15.1707 108.308 15.8152 107.976 16.5813C107.441 17.6597 107.163 18.8474 107.164 20.0512C107.165 21.255 107.446 22.4421 107.983 23.5193C108.917 25.4703 110.788 26.2433 113.201 25.8193C113.994 25.656 114.715 25.2439 115.258 24.6428C115.801 24.0417 116.138 23.2831 116.22 22.4773C116.32 21.7953 116.115 21.6463 115.484 21.6773C114.592 21.7223 113.696 21.6663 112.802 21.6923C111.856 21.7203 112.243 21.0183 112.214 20.6023C112.185 20.1863 111.953 19.6133 112.814 19.6363C114.567 19.6833 116.322 19.6693 118.075 19.6363C118.617 19.6273 118.683 19.8633 118.675 20.3133C118.659 22.5423 118.67 24.7703 118.667 26.9993C118.667 27.3253 118.767 27.7733 118.201 27.6723C117.759 27.5933 117.153 28.0243 116.901 27.2543C116.785 26.8653 116.869 26.4143 116.489 26.0213Z" fill="#4E4E4E"/>
<path d="M61.0678 20.1111C61.014 20.9322 61.1243 21.7558 61.3921 22.5339C61.66 23.312 62.08 24.0289 62.6278 24.643C63.1588 25.2133 63.8402 25.6218 64.5935 25.8214C65.3467 26.021 66.1411 26.0036 66.8848 25.7711C67.551 25.5874 68.1524 25.2208 68.6209 24.7128C69.0895 24.2049 69.4064 23.5759 69.5358 22.8971C69.6308 22.5571 69.5568 22.0031 69.9578 21.9481C70.6693 21.8431 71.3933 21.8583 72.0998 21.993C72.4218 22.059 72.2428 22.607 72.1878 22.9171C71.8545 24.5633 70.8969 26.0167 69.5157 26.9725C68.1345 27.9283 66.4369 28.3123 64.7788 28.044C59.3418 27.218 57.6028 21.739 58.6938 17.657C58.9278 16.589 59.3999 15.5875 60.0748 14.7272C60.7497 13.867 61.6101 13.1701 62.5918 12.6887C63.5735 12.2072 64.6513 11.9535 65.7447 11.9464C66.8381 11.9394 67.919 12.1792 68.9068 12.648C69.6725 12.9553 70.3577 13.434 70.9096 14.0473C71.4616 14.6606 71.8656 15.3922 72.0908 16.186C72.3158 16.919 72.2798 17.2951 71.3908 17.1941C71.0489 17.1552 70.7037 17.1552 70.3618 17.1941C70.257 17.2204 70.1479 17.2247 70.0414 17.2068C69.9348 17.1888 69.8332 17.149 69.7428 17.0898C69.6524 17.0306 69.5752 16.9533 69.5162 16.8629C69.4572 16.7724 69.4175 16.6706 69.3998 16.5641C68.3418 13.5061 64.2298 13.547 62.5228 15.528C61.4862 16.8224 60.9677 18.4558 61.0678 20.1111Z" fill="#4E4E4E"/>
<path d="M148.073 20.8943C149.119 19.9801 150.096 18.9904 150.998 17.9333C152.086 16.4733 153.48 16.4773 155.043 16.6693C154.048 17.6933 153.126 18.7793 152.059 19.6973C151.232 20.4083 151.104 20.8973 151.795 21.8303C153.155 23.6623 154.35 25.6163 155.72 27.6813C154.747 27.6813 153.942 27.6633 153.139 27.6883C152.681 27.7033 152.587 27.3473 152.412 27.0743C151.419 25.5193 150.435 23.9603 149.412 22.3453C148.404 23.0803 147.58 23.8113 147.842 25.1863C147.918 25.5863 147.802 26.0143 147.863 26.4163C148.018 27.4273 147.687 27.7813 146.609 27.7163C145.77 27.6683 145.449 27.5723 145.463 26.6113C145.527 22.2253 145.542 17.8373 145.458 13.4523C145.436 12.3023 145.992 12.4433 146.745 12.3883C147.654 12.3223 147.907 12.5943 147.877 13.5093C147.804 15.7343 147.851 17.9643 147.86 20.1913C147.86 20.4133 147.763 20.6733 148.073 20.8943Z" fill="#4E4E4E"/>
<path d="M127.387 22.7462C126.252 22.7462 125.115 22.7902 123.987 22.7312C123.195 22.6902 123.14 23.0312 123.295 23.6522C123.367 24.2177 123.611 24.7473 123.996 25.1683C124.38 25.5894 124.885 25.8813 125.442 26.0042C126.801 26.2652 128.053 26.1042 128.808 24.7042C129.136 24.4848 129.506 24.3349 129.894 24.2635C130.283 24.1921 130.682 24.2009 131.067 24.2892C131.415 24.4892 131.13 24.7102 131.067 24.8962C130.677 25.8943 129.973 26.738 129.06 27.2992C128.147 27.8605 127.076 28.1087 126.01 28.0062C122.867 27.8142 121.153 26.0372 120.815 22.6202C120.639 21.2815 120.953 19.9243 121.701 18.7997C122.448 17.6751 123.577 16.8593 124.88 16.5032C128.925 15.5032 131.664 18.8552 131.48 22.2692C131.451 22.8212 131.127 22.7472 130.789 22.7472L127.387 22.7462ZM126.065 21.2462C126.818 21.2462 127.574 21.2112 128.324 21.2562C128.997 21.2972 129.069 20.9752 128.94 20.4472C128.791 19.8103 128.432 19.2423 127.919 18.8355C127.407 18.4287 126.773 18.2069 126.119 18.2062C125.448 18.2156 124.801 18.4538 124.284 18.8813C123.768 19.3089 123.413 19.9002 123.278 20.5572C123.167 21.0482 123.278 21.2632 123.805 21.2492C124.557 21.2262 125.311 21.2452 126.065 21.2462Z" fill="#4E4E4E"/>
<path d="M156.468 22.0334C156.627 18.2254 159.025 16.1464 162.623 16.3334C165.651 16.4884 167.815 18.9214 167.744 22.2334C167.667 25.8184 165.35 28.1334 161.957 28.0084C161.191 28.0199 160.431 27.8694 159.727 27.5665C159.023 27.2637 158.392 26.8154 157.873 26.2512C157.355 25.687 156.962 25.0195 156.72 24.2926C156.477 23.5657 156.392 22.7958 156.468 22.0334ZM158.928 22.1334C158.928 22.3384 158.916 22.5444 158.928 22.7484C158.92 23.5591 159.207 24.3451 159.738 24.9583C160.268 25.5716 161.005 25.9699 161.808 26.0784C163.525 26.2304 164.677 25.2854 165.187 23.3374C165.367 22.6396 165.388 21.9104 165.249 21.2034C164.782 18.7484 162.718 17.4954 160.769 18.5084C160.142 18.8686 159.634 19.4039 159.307 20.0487C158.98 20.6935 158.848 21.4198 158.928 22.1384V22.1334Z" fill="#4E4E4E"/>
<path d="M79.5897 16.3394C83.0097 16.3394 85.2357 18.6393 85.2247 22.1653C85.2137 25.6913 82.9666 28.0174 79.5806 28.0074C76.1586 27.9974 73.9806 25.7203 73.9736 22.1523C73.9666 18.5843 76.1427 16.3384 79.5897 16.3394ZM82.7396 22.1234C82.7396 21.8844 82.7566 21.6433 82.7396 21.4053C82.7149 20.6299 82.421 19.8873 81.9082 19.3052C81.3954 18.723 80.6957 18.3377 79.9296 18.2153C78.2356 18.0633 77.0536 18.9913 76.5416 20.8293C76.3583 21.4535 76.3029 22.1082 76.3787 22.7543C76.4545 23.4004 76.6599 24.0246 76.9827 24.5894C77.2302 25.0412 77.5912 25.4207 78.0301 25.6904C78.469 25.9601 78.9706 26.1108 79.4856 26.1274C80.0005 26.1441 80.5108 26.0262 80.9663 25.7854C81.4217 25.5446 81.8065 25.1892 82.0827 24.7543C82.5931 23.9781 82.8247 23.0515 82.7396 22.1263V22.1234Z" fill="#4E4E4E"/>
<path d="M94.9136 18.1612C95.4261 17.4102 96.1656 16.843 97.0237 16.5427C97.8819 16.2423 98.8136 16.2247 99.6826 16.4922C100.457 16.6299 101.152 17.0524 101.63 17.6766C102.109 18.3009 102.337 19.0816 102.269 19.8652C102.345 22.2652 102.287 24.6652 102.302 27.0652C102.302 27.4812 102.202 27.6572 101.734 27.6952C99.8716 27.8482 99.8736 27.8682 99.8736 26.0122C99.8736 24.3312 99.8736 22.6512 99.8736 20.9702C99.8676 19.0702 99.2186 18.2332 97.7406 18.2102C97.3698 18.1927 96.9994 18.2525 96.6529 18.3859C96.3065 18.5193 95.9916 18.7233 95.7282 18.9849C95.4649 19.2466 95.2589 19.5601 95.1233 19.9057C94.9877 20.2513 94.9255 20.6213 94.9406 20.9922C94.9006 22.9462 94.8976 24.9032 94.9456 26.8572C94.9626 27.5502 94.7186 27.8452 94.0846 27.6642C93.5566 27.5132 92.5646 28.2182 92.5386 27.1442C92.4566 23.8192 92.5116 20.4902 92.5066 17.1632C92.5066 16.7862 92.6386 16.6362 93.0386 16.5922C94.4866 16.4352 94.6356 16.5302 94.9136 18.1612Z" fill="#4E4E4E"/>
<path d="M138.371 16.3393C140.802 16.3393 142.558 17.4563 143.147 19.3273C143.359 20.0003 143.3 20.3163 142.459 20.2963C141.581 20.2753 140.976 20.2472 140.459 19.2562C139.588 17.6002 136.748 17.8713 135.833 19.6373C135.414 20.4087 135.193 21.2719 135.189 22.1496C135.186 23.0273 135.4 23.8923 135.812 24.6673C136.044 25.1523 136.423 25.5514 136.895 25.8075C137.368 26.0635 137.91 26.1631 138.443 26.0922C138.962 26.0736 139.462 25.8937 139.874 25.5776C140.287 25.2615 140.59 24.8248 140.743 24.3282C140.861 24.0352 140.789 23.5812 141.269 23.5672C141.883 23.5119 142.502 23.5334 143.111 23.6312C143.421 23.7022 143.22 24.1562 143.142 24.4312C142.887 25.4946 142.267 26.4348 141.39 27.0875C140.512 27.7402 139.433 28.064 138.342 28.0022C137.236 28.0928 136.131 27.8097 135.205 27.1984C134.279 26.5871 133.584 25.6828 133.233 24.6302C132.659 22.9626 132.697 21.1453 133.341 19.5033C133.722 18.5013 134.419 17.6507 135.327 17.0799C136.234 16.5091 137.302 16.2492 138.371 16.3393Z" fill="#4E4E4E"/>
<path d="M89.7761 22.1992C89.7761 23.7062 89.719 25.2152 89.798 26.7182C89.843 27.5752 89.5221 27.7972 88.7611 27.6902C88.5564 27.6617 88.3487 27.6617 88.1441 27.6902C87.5051 27.7802 87.3331 27.5122 87.3391 26.8902C87.3691 23.7402 87.3691 20.5902 87.3391 17.4402C87.3311 16.7402 87.574 16.5832 88.23 16.5932C89.775 16.6172 89.7761 16.5842 89.7761 18.0932C89.7761 19.4612 89.7761 20.8299 89.7761 22.1992Z" fill="#4E4E4E"/>
<path d="M88.5439 12.4405C89.3629 12.2845 89.823 12.3605 89.827 13.4525C89.831 14.5445 89.4559 14.6935 88.4939 14.7105C87.5319 14.7275 87.3379 14.4035 87.3139 13.5035C87.2869 12.4985 87.6349 12.2135 88.5439 12.4405Z" fill="#4E4E4E"/>
<path d="M19.6989 20.8872C18.6448 20.8979 17.6293 20.4906 16.8748 19.7545C16.1203 19.0183 15.6881 18.0132 15.6729 16.9592C15.6921 15.9063 16.127 14.9038 16.8828 14.1705C17.6386 13.4371 18.6538 13.0326 19.7068 13.0452C20.7419 13.0491 21.735 13.4547 22.4768 14.1764C23.2187 14.8981 23.6515 15.8797 23.6838 16.9142C23.6801 17.9689 23.2587 18.9791 22.5118 19.7237C21.765 20.4683 20.7535 20.8867 19.6989 20.8872ZM19.6559 14.2482C19.2958 14.2424 18.9381 14.3083 18.6037 14.442C18.2694 14.5758 17.9649 14.7748 17.7083 15.0274C17.4516 15.28 17.2477 15.5812 17.1086 15.9133C16.9694 16.2455 16.8978 16.6021 16.8978 16.9622C16.8955 17.3314 16.9661 17.6975 17.1058 18.0393C17.2454 18.381 17.4513 18.6919 17.7115 18.9538C17.9718 19.2157 18.2813 19.4235 18.6222 19.5654C18.9631 19.7072 19.3286 19.7802 19.6978 19.7802C20.4251 19.7665 21.119 19.4725 21.6347 18.9596C22.1504 18.4466 22.4482 17.7544 22.4659 17.0272C22.4715 16.6581 22.4025 16.2916 22.2628 15.9498C22.1232 15.6081 21.9159 15.2981 21.6534 15.0385C21.391 14.7789 21.0787 14.5751 20.7354 14.4393C20.3921 14.3034 20.0249 14.2385 19.6559 14.2482Z" fill="#F9F9F9"/>
<path d="M23.1938 25.4923C27.6108 26.6923 31.5489 25.8423 35.3889 24.1743C33.0039 26.7523 25.9668 27.5933 23.1938 25.4923Z" fill="#646464"/>
<path d="M33.8347 20.0571C34.3417 20.1291 34.6587 20.3971 34.6347 20.9211C34.6386 21.024 34.6213 21.1266 34.5837 21.2224C34.5462 21.3183 34.4892 21.4054 34.4165 21.4782C34.3437 21.5511 34.2567 21.6081 34.1609 21.6458C34.0651 21.6834 33.9626 21.7009 33.8597 21.6971C33.7487 21.7121 33.6357 21.7021 33.529 21.668C33.4223 21.6339 33.3245 21.5765 33.2427 21.4999C33.161 21.4233 33.0973 21.3295 33.0563 21.2252C33.0153 21.121 32.998 21.0089 33.0057 20.8971C32.9967 20.3761 33.3277 20.1171 33.8347 20.0571Z" fill="#FCFCFC"/>
<path d="M35.8848 23.9702L36.0998 23.8062L36.1698 23.9212L35.8938 23.9792L35.8848 23.9702Z" fill="#646464"/>
<path d="M35.8931 23.9743L35.7931 24.1223C35.6331 23.9613 35.8261 24.0033 35.8831 23.9663L35.8931 23.9743Z" fill="#646464"/>
<path d="M19.6561 14.2484C20.0249 14.2391 20.3918 14.3044 20.7347 14.4404C21.0776 14.5764 21.3896 14.7803 21.6517 15.0398C21.9139 15.2994 22.1209 15.6092 22.2603 15.9508C22.3998 16.2923 22.4687 16.6586 22.4631 17.0274C22.4454 17.7546 22.1477 18.4469 21.6319 18.9598C21.1162 19.4727 20.4223 19.7667 19.6951 19.7804C19.3258 19.7804 18.9603 19.7074 18.6194 19.5656C18.2785 19.4237 17.969 19.2159 17.7088 18.954C17.4486 18.6921 17.2427 18.3813 17.103 18.0395C16.9634 17.6977 16.8927 17.3316 16.8951 16.9624C16.895 16.602 16.9668 16.2452 17.1061 15.9129C17.2454 15.5805 17.4495 15.2792 17.7065 15.0265C17.9636 14.7739 18.2683 14.575 18.603 14.4414C18.9377 14.3078 19.2957 14.2422 19.6561 14.2484Z" fill="#5B5B5B"/>
</svg>
