<svg width="140" height="36" viewBox="0 0 140 36" fill="none" xmlns="http://www.w3.org/2000/svg">
<path d="M7.40344 16.91C7.40357 16.711 7.44299 16.5141 7.51942 16.3304C7.59585 16.1468 7.70779 15.98 7.84883 15.8397C7.98986 15.6994 8.15722 15.5883 8.34129 15.5129C8.52535 15.4374 8.72251 15.399 8.92144 15.4L11.4374 15.408C11.8387 15.408 12.2235 15.5674 12.5073 15.8511C12.791 16.1349 12.9504 16.5197 12.9504 16.921V26.435C13.2334 26.351 13.5964 26.261 13.9954 26.167C14.2721 26.102 14.5186 25.9455 14.6951 25.7227C14.8715 25.5 14.9675 25.2241 14.9674 24.94V13.14C14.9674 12.7387 15.1269 12.3539 15.4106 12.0701C15.6943 11.7864 16.0792 11.627 16.4804 11.627H19.0044C19.4057 11.627 19.7905 11.7864 20.0743 12.0701C20.358 12.3539 20.5174 12.7387 20.5174 13.14V24.094C20.5174 24.094 21.1484 23.839 21.7634 23.579C21.9918 23.4824 22.1867 23.3207 22.3238 23.114C22.461 22.9074 22.5342 22.665 22.5344 22.417V9.35796C22.5344 8.95686 22.6937 8.57219 22.9772 8.28847C23.2608 8.00476 23.6453 7.84523 24.0464 7.84496H26.5674C26.9684 7.84549 27.3527 8.00514 27.636 8.28883C27.9193 8.57251 28.0784 8.95704 28.0784 9.35796V20.111C30.3975 18.489 32.4716 16.5425 34.2374 14.331C34.4923 13.9984 34.661 13.608 34.7283 13.1945C34.7957 12.781 34.7596 12.3572 34.6234 11.961C33.8093 9.62057 32.5156 7.47586 30.8251 5.66405C29.1346 3.85225 27.0845 2.41323 24.8061 1.43906C22.5276 0.464893 20.0709 -0.0229825 17.5931 0.00664388C15.1153 0.0362703 12.671 0.582751 10.4165 1.61112C8.16194 2.63949 6.14688 4.1271 4.50019 5.97881C2.85351 7.83052 1.61146 10.0055 0.85348 12.3648C0.0954981 14.724 -0.161715 17.2154 0.0982918 19.6797C0.358298 22.144 1.1298 24.5269 2.36344 26.676C2.57849 27.0466 2.89481 27.3483 3.27529 27.5454C3.65577 27.7425 4.08461 27.827 4.51144 27.789C4.98844 27.747 5.58245 27.689 6.28845 27.605C6.59554 27.5699 6.87902 27.4232 7.08497 27.1927C7.29093 26.9622 7.40498 26.6641 7.40544 26.355V16.912" fill="#4E4E4E"/>
<path d="M7.34961 32.168C10.007 34.1013 13.1473 35.2618 16.4233 35.5211C19.6993 35.7804 22.9831 35.1283 25.9115 33.637C28.8399 32.1458 31.2987 29.8734 33.0157 27.0715C34.7328 24.2696 35.6413 21.0472 35.6406 17.761C35.6406 17.35 35.6216 16.945 35.5946 16.542C29.0866 26.249 17.0696 30.787 7.3506 32.168" fill="#9B9B9B"/>
<path d="M50.9702 17.4331C51.926 17.6071 52.7889 18.115 53.4052 18.8661C54.019 19.604 54.3482 20.5373 54.3332 21.497C54.3612 22.1121 54.2512 22.7255 54.0114 23.2925C53.7716 23.8596 53.408 24.3657 52.9472 24.774C51.8002 25.653 50.3719 26.0833 48.9302 25.9841H42.3252V9.39805H48.8052C50.1698 9.30671 51.5226 9.70213 52.6232 10.5141C53.0639 10.8898 53.4126 11.3615 53.6426 11.893C53.8727 12.4245 53.9779 13.0016 53.9502 13.58C53.9928 14.5011 53.7008 15.4064 53.1282 16.129C52.5676 16.7849 51.8093 17.2411 50.9672 17.4291L50.9702 17.4331ZM45.0052 16.5401H48.3172C49.0905 16.5938 49.8564 16.3594 50.4672 15.8821C50.7176 15.6498 50.9137 15.3653 51.0416 15.0486C51.1695 14.732 51.226 14.391 51.2072 14.0501C51.2243 13.7127 51.1668 13.3757 51.0389 13.063C50.911 12.7504 50.7158 12.4697 50.4672 12.2411C49.8246 11.7552 49.0264 11.5211 48.2232 11.5831H45.0052V16.5401ZM48.3882 23.7761C49.2322 23.8295 50.068 23.5842 50.7492 23.0831C51.0278 22.8458 51.2479 22.5476 51.3926 22.2115C51.5372 21.8754 51.6024 21.5105 51.5832 21.1451C51.6014 20.7769 51.5346 20.4095 51.3878 20.0713C51.2411 19.7331 51.0185 19.4333 50.7372 19.1951C50.0537 18.6887 49.2131 18.4407 48.3642 18.4951H45.0052V23.781L48.3882 23.7761ZM61.0972 12.8761C62.4153 12.8101 63.7128 13.2232 64.7502 14.039C65.6768 14.8326 66.2755 15.942 66.4302 17.1521H63.8912C63.8067 16.4952 63.4869 15.8912 62.9912 15.4521C62.4398 15.0012 61.7406 14.771 61.0292 14.8061C60.4671 14.77 59.9113 14.9415 59.4672 15.288C59.2843 15.45 59.1398 15.6508 59.0443 15.8757C58.9488 16.1006 58.9047 16.3439 58.9152 16.5881C58.9079 16.7715 58.9398 16.9545 59.0088 17.1247C59.0777 17.2949 59.1822 17.4484 59.3152 17.5751C59.6037 17.8387 59.9444 18.0387 60.3152 18.1621C60.8735 18.3477 61.4409 18.5046 62.0152 18.6321C62.8176 18.8019 63.6066 19.0295 64.3762 19.3131C64.9793 19.5478 65.5129 19.9318 65.9272 20.4291C66.3855 21.0218 66.6148 21.7599 66.5732 22.5081C66.5867 23.0123 66.4822 23.5127 66.2682 23.9695C66.0541 24.4263 65.7363 24.8268 65.3402 25.1391C64.385 25.8552 63.2084 26.2127 62.0162 26.149C60.6238 26.2147 59.2488 25.8181 58.1052 25.0211C57.6093 24.644 57.1943 24.1709 56.8851 23.6301C56.5758 23.0893 56.3786 22.4917 56.3052 21.8731H58.9132C58.9444 22.208 59.0439 22.5329 59.2056 22.8279C59.3673 23.1229 59.5877 23.3816 59.8532 23.5881C60.4759 24.0505 61.2395 24.283 62.0142 24.246C62.5652 24.2774 63.1073 24.0967 63.5292 23.7411C63.7085 23.5805 63.8507 23.3828 63.9461 23.1618C64.0414 22.9408 64.0875 22.7017 64.0812 22.4611C64.0911 22.2612 64.0586 22.0615 63.9856 21.8752C63.9127 21.6888 63.8011 21.5201 63.6582 21.3801C63.3537 21.1002 62.9935 20.8879 62.6012 20.7571C62.0318 20.569 61.4513 20.4161 60.8632 20.2991C60.0867 20.1272 59.3215 19.9075 58.5722 19.6411C57.9873 19.4221 57.4701 19.0535 57.0722 18.5721C56.6306 17.9986 56.4095 17.2857 56.4492 16.5631C56.4349 16.0536 56.5388 15.5478 56.7527 15.0853C56.9666 14.6228 57.2848 14.2161 57.6822 13.8971C58.6645 13.1653 59.8734 12.8034 61.0962 12.8751L61.0972 12.8761ZM75.0052 12.8761C76.5038 12.8182 77.9752 13.2878 79.1632 14.2031C80.2703 15.1079 80.9987 16.3942 81.2052 17.809H78.3632C78.2404 17.0479 77.8329 16.362 77.2232 15.8901C76.5668 15.411 75.7682 15.1669 74.9562 15.1971C74.4726 15.1855 73.9921 15.277 73.5466 15.4655C73.1011 15.6539 72.7007 15.935 72.3722 16.2901C71.6252 17.1848 71.2545 18.3345 71.3382 19.497C71.2561 20.6628 71.6265 21.8153 72.3722 22.7151C72.6994 23.0722 73.0993 23.3552 73.545 23.5449C73.9908 23.7347 74.4719 23.8268 74.9562 23.8151C75.7695 23.8464 76.5692 23.5995 77.2232 23.115C77.8305 22.6385 78.2373 21.9517 78.3632 21.1901H81.2052C80.9966 22.608 80.268 23.8976 79.1612 24.8081C77.977 25.7303 76.5051 26.2049 75.0052 26.1481C73.8469 26.1707 72.7023 25.8953 71.6812 25.3481C70.7189 24.8168 69.9315 24.0179 69.4142 23.0481C68.8443 21.9544 68.5615 20.7339 68.5922 19.5011C68.5631 18.2757 68.846 17.0631 69.4142 15.9771C69.9315 15.0072 70.7189 14.2083 71.6812 13.677C72.7023 13.1298 73.8469 12.8544 75.0052 12.8771V12.8761ZM94.6922 21.5681C94.6976 22.362 94.4952 23.1435 94.1052 23.8351C93.6872 24.5575 93.0666 25.1415 92.3202 25.5151C91.4078 25.9635 90.3993 26.1811 89.3832 26.149C88.3418 26.1662 87.3086 25.9617 86.3522 25.5491C85.5049 25.1856 84.7677 24.6063 84.2142 23.8691C83.6795 23.1424 83.3619 22.279 83.2982 21.379H86.1642C86.2377 22.0899 86.5676 22.7497 87.0922 23.2351C87.3857 23.5006 87.7287 23.7058 88.1016 23.8388C88.4744 23.9718 88.8698 24.03 89.2652 24.01C89.6083 24.0317 89.9523 23.9846 90.277 23.8716C90.6017 23.7587 90.9006 23.582 91.1562 23.3521C91.3785 23.1317 91.5528 22.8677 91.6681 22.5767C91.7834 22.2856 91.8373 21.9739 91.8262 21.6611C91.8474 21.1278 91.672 20.6054 91.3332 20.1931C90.9975 19.8063 90.5801 19.4989 90.1112 19.2931C89.6259 19.0737 88.9592 18.8231 88.1112 18.5411C87.2451 18.2782 86.4009 17.9482 85.5862 17.5541C84.9267 17.2169 84.3586 16.7253 83.9302 16.121C83.4462 15.3922 83.2076 14.5279 83.2492 13.6541C83.2318 12.8233 83.4607 12.0059 83.9072 11.3051C84.3683 10.6127 85.0213 10.0699 85.7862 9.74305C86.6756 9.35957 87.6368 9.171 88.6052 9.19005C90.0499 9.1124 91.476 9.54493 92.6342 10.4121C93.1189 10.802 93.5194 11.2862 93.8116 11.8353C94.1038 12.3845 94.2816 12.9872 94.3342 13.607H91.4442C91.3381 12.9875 91.028 12.4212 90.5632 11.9981C90.0211 11.5282 89.3174 11.2879 88.6012 11.3281C87.9485 11.2956 87.306 11.5002 86.7922 11.9041C86.5606 12.1104 86.379 12.3668 86.261 12.6536C86.1431 12.9405 86.0918 13.2505 86.1112 13.56C86.0914 14.0685 86.2586 14.5665 86.5812 14.9601C86.9053 15.3361 87.311 15.6333 87.7672 15.8291C88.2452 16.0404 88.8992 16.2871 89.7292 16.5691C90.6119 16.8331 91.472 17.1675 92.3012 17.5691C92.9758 17.9137 93.5562 18.4175 93.9922 19.0371C94.486 19.7856 94.7303 20.6712 94.6902 21.567L94.6922 21.5681ZM103.126 12.8761C104.625 12.8182 106.096 13.2878 107.284 14.2031C108.392 15.1075 109.121 16.3939 109.328 17.809H106.483C106.361 17.0481 105.953 16.3621 105.344 15.8901C104.688 15.411 103.889 15.1669 103.077 15.1971C102.594 15.1855 102.113 15.277 101.668 15.4655C101.222 15.6539 100.822 15.935 100.493 16.2901C99.7462 17.1848 99.3755 18.3345 99.4592 19.497C99.3771 20.6628 99.7475 21.8153 100.493 22.7151C100.82 23.0722 101.22 23.3552 101.666 23.5449C102.112 23.7347 102.593 23.8268 103.077 23.8151C103.89 23.8464 104.69 23.5995 105.344 23.115C105.951 22.6383 106.358 21.9515 106.483 21.1901H109.326C109.118 22.608 108.389 23.8976 107.282 24.8081C106.097 25.7304 104.625 26.2047 103.124 26.1471C101.966 26.1697 100.821 25.8943 99.8002 25.3471C98.8379 24.8158 98.0504 24.0169 97.5332 23.0471C96.9633 21.9534 96.6805 20.7329 96.7112 19.5001C96.6821 18.2747 96.965 17.0621 97.5332 15.976C98.0504 15.0062 98.8379 14.2073 99.8002 13.6761C100.821 13.1285 101.966 12.8527 103.124 12.8751L103.126 12.8761ZM117.104 12.8761C118.173 12.8448 119.224 13.1487 120.111 13.7451C120.927 14.3059 121.544 15.1112 121.873 16.045V13.0401H124.551V25.9841H121.871V22.9771C121.542 23.9109 120.925 24.7162 120.109 25.2771C119.222 25.8734 118.171 26.1773 117.102 26.1461C116.041 26.1636 114.996 25.8866 114.083 25.3461C113.182 24.7964 112.46 23.9975 112.004 23.046C111.48 21.9387 111.222 20.7239 111.252 19.4991C111.224 18.2818 111.481 17.0748 112.004 15.975C112.46 15.0236 113.182 14.2247 114.083 13.6751C114.997 13.1339 116.043 12.857 117.105 12.8751L117.104 12.8761ZM117.926 15.225C117.397 15.2012 116.869 15.2905 116.376 15.4869C115.884 15.6833 115.44 15.9823 115.072 16.364C114.322 17.2305 113.939 18.3556 114.005 19.5001C113.939 20.6447 114.323 21.7699 115.074 22.636C115.442 23.0178 115.886 23.3168 116.378 23.5132C116.871 23.7096 117.399 23.7989 117.928 23.775C118.637 23.7862 119.336 23.6032 119.948 23.246C120.548 22.8893 121.036 22.3727 121.358 21.754C121.716 21.0572 121.893 20.2821 121.875 19.4991C121.891 18.7198 121.713 17.9489 121.358 17.2551C121.038 16.6329 120.549 16.1131 119.948 15.7551C119.335 15.3965 118.635 15.2128 117.924 15.2241L117.926 15.225ZM135.005 12.8251C135.677 12.7961 136.348 12.9111 136.972 13.1624C137.596 13.4136 138.159 13.7954 138.623 14.282C139.597 15.4401 140.086 16.9301 139.986 18.4401V25.9811H137.305V18.7221C137.368 17.7435 137.047 16.779 136.412 16.032C136.096 15.7094 135.714 15.4578 135.293 15.2938C134.872 15.1299 134.421 15.0573 133.969 15.0811C133.494 15.0599 133.019 15.1403 132.577 15.3169C132.135 15.4935 131.735 15.7621 131.405 16.1051C130.708 16.9428 130.363 18.0181 130.442 19.1051V25.9881H127.768V13.0401H130.446V15.8831C130.756 14.9575 131.368 14.1631 132.184 13.628C133.024 13.0874 134.006 12.8089 135.005 12.8281V12.8251Z" fill="#4E4E4E"/>
</svg>
