<svg width="235" height="40" viewBox="0 0 235 40" fill="none" xmlns="http://www.w3.org/2000/svg">
<path opacity="0.7" d="M34.6176 23.9147C33.9127 24.3411 33.0903 24.4186 32.4638 24.0698C31.6806 23.6047 31.2106 22.5581 31.2106 21.124V16.7442C31.2106 14.6512 30.3883 13.1395 28.9785 12.7519C26.5897 12.0543 24.7884 14.9612 24.1226 16.0465L19.8934 22.7519V14.4961C19.8542 12.5969 19.2276 11.4729 18.0528 11.124C17.2696 10.8915 16.0948 11.0078 14.9592 12.7132L5.52158 27.6744C4.26845 25.3101 3.60273 22.6744 3.60273 20C3.60273 10.969 10.9257 3.64341 19.8934 3.64341C28.861 3.64341 36.184 10.969 36.184 20V20.0775C36.2623 21.8217 35.714 23.2171 34.6176 23.9147ZM39.7867 20V19.9225C39.7475 8.95349 30.819 0 19.8934 0C8.92851 0 0 8.95349 0 20C0 31.0077 8.92851 40 19.8934 40C24.945 40 29.7225 38.1008 33.4036 34.6512C34.1476 33.9535 34.1868 32.8295 33.4819 32.093C32.8162 31.3566 31.6806 31.3178 30.9365 31.9767C30.9365 31.9767 30.9365 31.9767 30.8973 32.0155C27.9212 34.8062 23.9268 36.3953 19.815 36.3953C14.9983 36.3953 10.6907 34.3023 7.71455 30.969L16.2123 17.4806V23.7209C16.2123 26.7054 17.3871 27.6744 18.3661 27.9457C19.3451 28.2171 20.8332 28.0233 22.4388 25.5039L27.0988 18.0233C27.2555 17.7907 27.3729 17.5581 27.5296 17.4031V21.2016C27.5296 23.9922 28.6652 26.2403 30.6232 27.3256C32.3854 28.3333 34.6176 28.217 36.4581 27.093C38.7294 25.6201 39.9433 23.062 39.7867 20ZM67.5121 13.1783C67.982 13.4496 68.4128 14.1085 68.4128 14.6899C68.4128 15.6202 67.6296 16.3954 66.7289 16.3954C66.4939 16.3954 66.2981 16.3178 66.1023 16.2791C65.045 15.5039 63.7136 15 62.3038 15C58.9752 15 56.7039 17.6744 56.7039 21.0078C56.7039 24.3411 59.0143 26.9767 62.3038 26.9767C63.9485 26.9767 65.4366 26.3178 66.5331 25.2713C66.8072 25.0775 67.1596 24.9612 67.5121 24.9612C68.4128 24.9612 69.1176 25.6589 69.1176 26.5504C69.1176 27.1318 68.7652 27.6357 68.3344 27.907C66.7289 29.2636 64.5751 30.155 62.3429 30.155C57.2521 30.155 53.1012 26.0077 53.1012 20.8915C53.1012 15.7752 57.2521 11.6279 62.3429 11.6279C64.2226 11.5891 66.024 12.1705 67.5121 13.1783ZM76.8322 17.0543C80.3174 17.0543 83.2153 19.9612 83.2153 23.5659C83.2153 27.1318 80.2783 30.1938 76.8322 30.1938C73.1903 30.1938 70.175 27.1705 70.175 23.5659C70.175 19.9612 73.1903 17.0543 76.8322 17.0543ZM76.793 26.9767C78.3203 26.9767 79.6126 25.5426 79.6126 23.6046C79.6126 21.6667 78.3203 20.4264 76.793 20.4264C75.1483 20.4264 73.7777 21.6279 73.7777 23.6046C73.7777 25.5039 75.1483 26.9767 76.793 26.9767ZM85.4083 28.1783V19.031C85.4083 18.0233 86.1915 17.2093 87.2096 17.2093C88.1886 17.2093 89.011 18.0233 89.011 19.031V28.1783C89.011 29.186 88.1886 30 87.2096 30C86.2306 30 85.4083 29.1473 85.4083 28.1783ZM85.1342 13.7597C85.1342 12.5581 86.074 11.6279 87.2096 11.6279C88.3844 11.6279 89.3243 12.5969 89.3243 13.7597C89.3243 14.9225 88.3844 15.8527 87.2096 15.8527C86.0348 15.8139 85.1342 14.8837 85.1342 13.7597ZM95.9032 23.217V28.1783C95.9032 29.186 95.0808 30 94.1018 30C93.1228 30 92.3005 29.186 92.3005 28.1783V18.6046C92.3005 17.8295 92.927 17.2093 93.7102 17.2093C94.4934 17.2093 95.0808 17.8682 95.0808 18.6046C96.5297 17.2481 97.822 17.0543 99.036 17.0543C102.639 17.0543 104.244 19.7287 104.244 22.7907V28.1783C104.244 29.186 103.422 30 102.443 30C101.464 30 100.642 29.186 100.642 28.1783V23.217C100.642 21.6667 100.446 20.3488 98.1745 20.3488C96.5689 20.3488 95.9032 21.6667 95.9032 23.217ZM115.914 25.1163C115.483 25.1163 115.209 24.9225 114.974 24.6512L110.784 20.155V28.1783C110.784 29.186 109.962 30 108.983 30C108.004 30 107.181 29.186 107.181 28.1783V12.2868C107.299 12.0155 107.573 11.8217 107.847 11.8217C108.16 11.8217 108.434 12.093 108.63 12.2868L115.327 19.7287C115.522 19.9612 115.757 20.0775 115.914 20.0775C116.031 20.0775 116.306 19.9612 116.501 19.7287L123.198 12.2868C123.394 12.093 123.629 11.8217 123.981 11.8217C124.294 11.8217 124.568 12.0155 124.647 12.2868V28.1783C124.647 29.186 123.864 30 122.845 30C121.866 30 121.044 29.186 121.044 28.1783V20.155L116.854 24.6512C116.541 24.9225 116.266 25.1163 115.914 25.1163ZM133.223 26.9767C134.828 26.9767 136.199 25.5426 136.199 23.6046C136.199 21.6667 134.789 20.3876 133.223 20.3876C131.656 20.3876 130.364 21.7054 130.364 23.6046C130.364 25.4651 131.617 26.9767 133.223 26.9767ZM137.06 28.6047L136.982 28.1783C136.277 29.5349 134.045 30.155 132.635 30.155C129.268 30.155 126.761 27.1318 126.761 23.5271C126.761 19.9612 129.307 17.0155 132.831 17.0155C133.419 17.0155 135.455 17.1705 137.021 18.9922L137.1 18.5659C137.1 17.7907 137.687 17.1705 138.47 17.1705C139.253 17.1705 139.88 17.8295 139.88 18.5659V28.5659C139.88 29.3411 139.253 29.9612 138.47 29.9612C137.648 30 137.06 29.3411 137.06 28.6047ZM149.788 20.3488H149.396C147.125 20.4651 146.694 21.7442 146.694 23.217V28.1783C146.694 29.186 145.872 30 144.893 30C143.914 30 143.091 29.186 143.091 28.1783V18.6046C143.091 17.8295 143.718 17.2093 144.501 17.2093C145.284 17.2093 145.872 17.8682 145.872 18.6046C147.203 17.3643 148.299 17.093 149.396 17.0543H149.748C150.61 17.0543 151.393 17.7907 151.393 18.7209C151.432 19.5736 150.649 20.3488 149.788 20.3488ZM163.689 27.3256C163.846 27.5969 163.964 27.8682 163.964 28.1783C163.964 29.1085 163.102 29.9612 162.162 29.9612C161.536 29.9612 160.987 29.4961 160.557 28.9535L156.406 24.186V28.1395C156.406 29.1473 155.583 29.9612 154.604 29.9612C153.625 29.9612 152.803 29.1473 152.803 28.1395V13.6047C152.803 12.5969 153.586 11.7829 154.604 11.7829C155.622 11.7829 156.406 12.5969 156.406 13.6047V22.6744L160.557 18.1395C160.987 17.6744 161.496 17.1705 162.123 17.1705C163.024 17.1705 163.846 17.9845 163.846 18.9147C163.846 19.1861 163.768 19.4961 163.611 19.7287L160.322 23.2946L163.689 27.3256ZM170.738 20.3876C169.759 20.3876 168.154 20.8915 168.154 22.4031H173.362C173.323 20.8915 171.678 20.3876 170.738 20.3876ZM175.437 24.6899H168.154C168.154 26.8217 170.229 27.1705 171.13 27.1705C171.796 27.1705 172.735 27.0543 173.479 26.7054C173.714 26.5504 174.067 26.4341 174.419 26.4341C175.202 26.4341 175.868 27.093 175.868 27.907C175.868 28.4496 175.516 28.9147 175.085 29.186C173.988 30 172.54 30.1938 171.169 30.1938C167.527 30.1938 164.512 28.2558 164.512 23.7209C164.512 20.155 166.352 17.0543 170.66 17.0543C174.145 17.0543 176.769 19.3023 176.847 23.2946C176.847 24.031 176.221 24.6899 175.437 24.6899ZM185.462 30.155H184.483C181.742 30.155 180.137 28.9535 180.137 24.7287V20.3488H179.197C178.335 20.3488 177.591 19.5736 177.591 18.7209C177.591 17.7907 178.374 17.0543 179.197 17.0543H180.137V13.6822C180.137 12.6744 180.92 11.8605 181.938 11.8605C182.917 11.8605 183.739 12.6744 183.739 13.6822V17.0543H185.227C186.089 17.0543 186.833 17.7907 186.833 18.7209C186.833 19.5736 186.05 20.3488 185.227 20.3488H183.739V24.031C183.739 26.4729 183.857 26.9767 184.953 26.9767H185.462C186.324 26.9767 187.068 27.6744 187.068 28.5659C187.068 29.4186 186.324 30.155 185.462 30.155ZM202.889 13.1783C203.359 13.4496 203.789 14.1085 203.789 14.6899C203.789 15.6202 203.006 16.3954 202.105 16.3954C201.871 16.3954 201.675 16.3178 201.479 16.2791C200.422 15.5039 199.09 15 197.68 15C194.352 15 192.08 17.6744 192.08 21.0078C192.08 24.3411 194.391 26.9767 197.68 26.9767C199.325 26.9767 200.813 26.3178 201.91 25.2713C202.184 25.0775 202.536 24.9612 202.889 24.9612C203.789 24.9612 204.494 25.6589 204.494 26.5504C204.494 27.1318 204.142 27.6357 203.711 27.907C202.105 29.2636 199.952 30.155 197.72 30.155C192.629 30.155 188.478 26.0077 188.478 20.8915C188.478 15.7752 192.629 11.6279 197.72 11.6279C199.599 11.5891 201.44 12.1705 202.889 13.1783ZM212.013 26.9767C213.619 26.9767 214.989 25.5426 214.989 23.6046C214.989 21.6667 213.579 20.3876 212.013 20.3876C210.407 20.3876 209.154 21.7054 209.154 23.6046C209.154 25.4651 210.447 26.9767 212.013 26.9767ZM215.851 28.6047L215.772 28.1783C215.067 29.5349 212.835 30.155 211.426 30.155C208.058 30.155 205.552 27.1318 205.552 23.5271C205.552 19.9612 208.097 17.0155 211.621 17.0155C212.209 17.0155 214.245 17.1705 215.812 18.9922L215.89 18.5659C215.89 17.7907 216.477 17.1705 217.26 17.1705C218.044 17.1705 218.67 17.8295 218.67 18.5659V28.5659C218.67 29.3411 218.044 29.9612 217.26 29.9612C216.438 30 215.851 29.3411 215.851 28.6047ZM228.499 26.9767C230.105 26.9767 231.358 25.4651 231.358 23.6046C231.358 21.6667 230.066 20.3876 228.499 20.3876C226.894 20.3876 225.523 21.6667 225.523 23.6046C225.523 25.5426 226.894 26.9767 228.499 26.9767ZM225.523 29.1085V33.6434C225.523 34.6512 224.701 35.4651 223.722 35.4651C222.743 35.4651 221.921 34.6512 221.921 33.6434V18.6046C221.921 17.8295 222.547 17.2093 223.33 17.2093C224.113 17.2093 224.701 17.8682 224.701 18.7597C226.032 17.4031 227.677 17.0543 228.93 17.0543C232.415 17.0543 235 19.9612 235 23.5659C235 27.1318 232.533 30.1938 229.126 30.1938C228.069 30.155 226.502 29.845 225.523 29.1085Z" fill="#17181B"/>
</svg>
