<svg width="85" height="88" viewBox="0 0 82 88" fill="none" xmlns="http://www.w3.org/2000/svg">
<path d="M53.9424 7.06255C37.3173 26.3269 1.1887 5.25652 0.0149058 36.9402C-0.644268 54.7317 20.7403 46.3575 28.2443 60.4036C32.3178 68.0284 37.0781 83.5755 44.9811 86.297C62.1646 92.2144 75.2903 70.1307 60.7618 51.7655C57.9247 48.179 58.3207 44.0944 61.4021 40.5007C66.2321 34.8675 73.8146 32.2301 77.9506 26.2485C90.2414 8.47278 69.2467 -10.6714 53.9424 7.06255Z" fill="url(#paint0_linear)"/>
<path opacity="0.1" d="M68.3591 49.1077H73.0258C73.3893 50.2839 74.485 51.1384 75.7805 51.1384C77.3728 51.1384 78.6635 49.8476 78.6635 48.2554C78.6635 46.6631 77.3728 45.3724 75.7805 45.3724C74.485 45.3724 73.3894 46.2269 73.0258 47.4029H67.5068C67.0362 47.4029 66.6545 47.7844 66.6545 48.2552V51.9696H58.2463V47.5323C58.2463 45.7487 56.8005 44.3031 55.0171 44.3031H53.3033V32.7933H66.6545V38.2911C66.6545 38.7619 67.0362 39.1434 67.5068 39.1434H73.0258C73.3893 40.3194 74.485 41.1741 75.7805 41.1741C77.3728 41.1741 78.6635 39.8833 78.6635 38.2911C78.6635 36.6988 77.3728 35.408 75.7805 35.408C74.485 35.408 73.3894 36.2626 73.0258 37.4388H68.3591V31.941V16.0442C69.5351 15.6807 70.3898 14.585 70.3898 13.2895C70.3898 11.6972 69.0991 10.4065 67.5068 10.4065C65.9145 10.4065 64.6238 11.6972 64.6238 13.2895C64.6238 14.585 65.4783 15.6806 66.6545 16.0442V22.88H57.747V19.4534C58.9231 19.09 59.7777 17.9942 59.7777 16.6987C59.7777 15.1065 58.487 13.8157 56.8947 13.8157C55.3025 13.8157 54.0117 15.1065 54.0117 16.6987C54.0117 17.9942 54.8662 19.0898 56.0424 19.4534V23.7323C56.0424 24.2031 56.4241 24.5846 56.8947 24.5846H66.6545V31.0889H53.283C52.9197 24.49 47.406 19.241 40.7033 19.3059C34.1211 19.3697 28.8131 24.6073 28.3813 31.0889H14.9983V24.5846H24.758C25.2287 24.5846 25.6103 24.2031 25.6103 23.7323V19.4534C26.7865 19.09 27.641 17.9942 27.641 16.6987C27.641 15.1065 26.3503 13.8157 24.758 13.8157C23.1657 13.8157 21.875 15.1065 21.875 16.6987C21.875 17.9942 22.7295 19.0898 23.9057 19.4534V22.88H14.9983V16.0442C16.1743 15.6807 17.029 14.585 17.029 13.2895C17.029 11.6972 15.7382 10.4065 14.1459 10.4065C12.5537 10.4065 11.2631 11.6974 11.2631 13.2895C11.2631 14.585 12.1176 15.6806 13.2938 16.0442V31.9412V37.4389H8.62709C8.26367 36.2629 7.16795 35.4082 5.87244 35.4082C4.28016 35.4082 2.98943 36.6989 2.98943 38.2912C2.98943 39.8835 4.28016 41.1742 5.87244 41.1742C7.16795 41.1742 8.26367 40.3197 8.62709 39.1435H14.1461C14.6168 39.1435 14.9984 38.762 14.9984 38.2912V32.7935H28.3496V44.3032H26.6358C24.8523 44.3032 23.4066 45.7491 23.4066 47.5324V51.9697H14.9984V48.2554C14.9984 47.7846 14.6168 47.4031 14.1461 47.4031H8.62692C8.2635 46.2271 7.16778 45.3725 5.87227 45.3725C4.27999 45.3725 2.98926 46.6633 2.98926 48.2555C2.98926 49.8478 4.27999 51.1385 5.87227 51.1385C7.16778 51.1385 8.2635 50.284 8.62692 49.1078H13.2936V52.8222V63.3802H8.62692C8.2635 62.2042 7.16778 61.3497 5.87227 61.3497C4.27999 61.3497 2.98926 62.6404 2.98926 64.2327C2.98926 65.825 4.27999 67.1157 5.87227 67.1157C7.16778 67.1157 8.2635 66.2612 8.62692 65.085H14.1459C14.6166 65.085 14.9983 64.7035 14.9983 64.2327V53.6747H23.4064V68.1383H16.4523C15.9816 68.1383 15.6 68.5198 15.6 68.9906V79.4152C14.424 79.7786 13.5693 80.8743 13.5693 82.1698C13.5693 83.7621 14.86 85.0528 16.4523 85.0528C18.0446 85.0528 19.3353 83.7621 19.3353 82.1698C19.3353 80.8743 18.4808 79.7788 17.3046 79.4152V69.8429H23.4064V73.9766C23.4064 75.7601 24.8523 77.2058 26.6356 77.2058H55.0169C56.8005 77.2058 58.2462 75.76 58.2462 73.9766V69.8429H64.348V79.4152C63.172 79.7786 62.3173 80.8743 62.3173 82.1698C62.3173 83.7621 63.608 85.0528 65.2003 85.0528C66.7926 85.0528 68.0833 83.7621 68.0833 82.1698C68.0833 80.8743 67.2288 79.7788 66.0526 79.4152V68.9906C66.0526 68.5198 65.6709 68.1383 65.2003 68.1383H58.2462V53.6747H66.6543V64.2327C66.6543 64.7035 67.036 65.085 67.5066 65.085H73.0257C73.3891 66.2612 74.4848 67.1157 75.7803 67.1157C77.3726 67.1157 78.6633 65.825 78.6633 64.2327C78.6633 62.6404 77.3726 61.3497 75.7803 61.3497C74.4848 61.3497 73.3892 62.2042 73.0257 63.3802H68.3589V52.8222V49.1077H68.3591ZM48.7605 38.4557C48.7605 38.8976 48.5055 39.2995 48.1058 39.4877C47.706 39.6759 47.451 40.0778 47.451 40.5195V44.3032H34.2019V31.8996C34.2019 28.1928 37.2353 25.0951 40.9416 25.1586C44.5416 25.2203 47.451 28.1679 47.451 31.7822V35.8947C47.451 36.3364 47.7062 36.7385 48.1058 36.9267C48.5055 37.1149 48.7605 37.5168 48.7605 37.9587V38.4557Z" fill="#313131"/>
<path d="M40.7023 15.215C33.8336 15.2816 28.3486 20.9811 28.3486 27.8502V42.9846H34.2007V27.8085C34.2007 24.1016 37.2341 21.004 40.9404 21.0674C44.5404 21.1291 47.4498 24.0767 47.4498 27.691V31.8036C47.4498 32.2452 47.7049 32.6473 48.1046 32.8355C48.5043 33.0237 48.7593 33.4257 48.7593 33.8675V34.3646C48.7593 34.8062 48.5043 35.2084 48.1046 35.3965C47.7049 35.5847 47.4498 35.9867 47.4498 36.4285V42.9846H53.3019V27.6912C53.3021 20.7705 47.6382 15.1478 40.7023 15.215Z" fill="#FDFAF6"/>
<path d="M55.0161 73.1145H26.635C24.8514 73.1145 23.4058 71.6686 23.4058 69.8853V43.4416C23.4058 41.6581 24.8516 40.2124 26.635 40.2124H55.0163C56.7998 40.2124 58.2455 41.6583 58.2455 43.4416V69.8853C58.2455 71.6686 56.7996 73.1145 55.0161 73.1145Z" fill="#585972"/>
<path d="M44.8862 57.2561C44.8862 54.9275 42.9259 53.0568 40.5655 53.2039C38.5847 53.3275 36.9563 54.9104 36.7819 56.8874C36.6329 58.5757 37.5185 60.0728 38.8754 60.8176V65.1364C38.8754 66.2137 39.7486 67.087 40.826 67.087C41.9033 67.087 42.7765 66.2137 42.7765 65.1364V60.8176C44.0339 60.1275 44.8862 58.7916 44.8862 57.2561Z" fill="#FDFAF6"/>
<path d="M28.3484 59.2209C29.3179 59.2209 30.1039 58.4349 30.1039 57.4653C30.1039 56.4957 29.3179 55.7097 28.3484 55.7097C27.3788 55.7097 26.5928 56.4957 26.5928 57.4653C26.5928 58.4349 27.3788 59.2209 28.3484 59.2209Z" fill="#FDFAF6"/>
<path d="M53.302 59.2206C54.2715 59.2206 55.0576 58.4346 55.0576 57.4651C55.0576 56.4955 54.2715 55.7095 53.302 55.7095C52.3324 55.7095 51.5464 56.4955 51.5464 57.4651C51.5464 58.4346 52.3324 59.2206 53.302 59.2206Z" fill="#FDFAF6"/>
<path d="M14.1457 12.0812C15.738 12.0812 17.0287 10.7904 17.0287 9.1982C17.0287 7.60595 15.738 6.31519 14.1457 6.31519C12.5535 6.31519 11.2627 7.60595 11.2627 9.1982C11.2627 10.7904 12.5535 12.0812 14.1457 12.0812Z" fill="#585972"/>
<path d="M5.87227 37.0829C7.46451 37.0829 8.75528 35.7921 8.75528 34.1999C8.75528 32.6077 7.46451 31.3169 5.87227 31.3169C4.28003 31.3169 2.98926 32.6077 2.98926 34.1999C2.98926 35.7921 4.28003 37.0829 5.87227 37.0829Z" fill="#FDFAF6"/>
<path d="M5.87227 47.0473C7.46451 47.0473 8.75528 45.7565 8.75528 44.1643C8.75528 42.572 7.46451 41.2812 5.87227 41.2812C4.28003 41.2812 2.98926 42.572 2.98926 44.1643C2.98926 45.7565 4.28003 47.0473 5.87227 47.0473Z" fill="#585972"/>
<path d="M5.87227 63.0243C7.46451 63.0243 8.75528 61.7336 8.75528 60.1413C8.75528 58.5491 7.46451 57.2583 5.87227 57.2583C4.28003 57.2583 2.98926 58.5491 2.98926 60.1413C2.98926 61.7336 4.28003 63.0243 5.87227 63.0243Z" fill="#FDFAF6"/>
<path d="M16.4523 80.9613C18.0446 80.9613 19.3354 79.6706 19.3354 78.0783C19.3354 76.4861 18.0446 75.1953 16.4523 75.1953C14.8601 75.1953 13.5693 76.4861 13.5693 78.0783C13.5693 79.6706 14.8601 80.9613 16.4523 80.9613Z" fill="#585972"/>
<path d="M24.758 15.4906C26.3503 15.4906 27.641 14.1999 27.641 12.6076C27.641 11.0154 26.3503 9.72461 24.758 9.72461C23.1658 9.72461 21.875 11.0154 21.875 12.6076C21.875 14.1999 23.1658 15.4906 24.758 15.4906Z" fill="#FDFAF6"/>
<path d="M67.5065 12.0815C69.0988 12.0815 70.3896 10.7907 70.3896 9.19844C70.3896 7.6062 69.0988 6.31543 67.5065 6.31543C65.9143 6.31543 64.6235 7.6062 64.6235 9.19844C64.6235 10.7907 65.9143 12.0815 67.5065 12.0815Z" fill="#FDFAF6"/>
<path d="M75.781 37.0829C77.3732 37.0829 78.664 35.7921 78.664 34.1999C78.664 32.6077 77.3732 31.3169 75.781 31.3169C74.1887 31.3169 72.8979 32.6077 72.8979 34.1999C72.8979 35.7921 74.1887 37.0829 75.781 37.0829Z" fill="#FDFAF6"/>
<path d="M75.781 47.0473C77.3732 47.0473 78.664 45.7565 78.664 44.1643C78.664 42.572 77.3732 41.2812 75.781 41.2812C74.1887 41.2812 72.8979 42.572 72.8979 44.1643C72.8979 45.7565 74.1887 47.0473 75.781 47.0473Z" fill="#FDFAF6"/>
<path d="M75.7805 63.0246C77.3727 63.0246 78.6635 61.7338 78.6635 60.1416C78.6635 58.5493 77.3727 57.2585 75.7805 57.2585C74.1882 57.2585 72.8975 58.5493 72.8975 60.1416C72.8975 61.7338 74.1882 63.0246 75.7805 63.0246Z" fill="#585972"/>
<path d="M65.1999 80.9613C66.7921 80.9613 68.0829 79.6706 68.0829 78.0783C68.0829 76.4861 66.7921 75.1953 65.1999 75.1953C63.6077 75.1953 62.3169 76.4861 62.3169 78.0783C62.3169 79.6706 63.6077 80.9613 65.1999 80.9613Z" fill="#FDFAF6"/>
<path d="M56.8947 15.4906C58.487 15.4906 59.7777 14.1999 59.7777 12.6076C59.7777 11.0154 58.487 9.72461 56.8947 9.72461C55.3025 9.72461 54.0117 11.0154 54.0117 12.6076C54.0117 14.1999 55.3025 15.4906 56.8947 15.4906Z" fill="#585972"/>
<path d="M46.2202 47.8784H35.4319C34.9613 47.8784 34.5796 48.2601 34.5796 48.7307C34.5796 49.2014 34.9613 49.583 35.4319 49.583H46.2202C46.6909 49.583 47.0725 49.2014 47.0725 48.7307C47.0725 48.2601 46.6909 47.8784 46.2202 47.8784Z" fill="#313131"/>
<path d="M43.5536 46.3987C44.0243 46.3987 44.4059 46.017 44.4059 45.5464C44.4059 45.0758 44.0243 44.6941 43.5536 44.6941H38.0994C37.6287 44.6941 37.2471 45.0758 37.2471 45.5464C37.2471 46.017 37.6287 46.3987 38.0994 46.3987H43.5536Z" fill="#313131"/>
<path d="M68.3587 45.0164H72.144C72.5307 46.6667 74.0136 47.8995 75.7799 47.8995C77.8396 47.8995 79.5152 46.2238 79.5152 44.1641C79.5152 42.1046 77.8396 40.429 75.7799 40.429C74.0136 40.429 72.5307 41.6618 72.144 43.3118H67.5064C67.0358 43.3118 66.6541 43.6933 66.6541 44.1641V47.8785H59.0982V43.4412C59.0982 41.1906 57.2671 39.3597 55.0165 39.3597H54.155V28.7023H66.6539V34.2C66.6539 34.6708 67.0356 35.0523 67.5062 35.0523H72.1438C72.5306 36.7025 74.0134 37.9353 75.7797 37.9353C77.8394 37.9353 79.5151 36.2597 79.5151 34.2C79.5151 32.1403 77.8394 30.4647 75.7797 30.4647C74.0134 30.4647 72.5306 31.6975 72.1438 33.3477H68.3585V27.85V12.8344C70.0086 12.4476 71.2415 10.9648 71.2415 9.19828C71.2415 7.13877 69.5659 5.46313 67.5062 5.46313C65.4465 5.46313 63.7709 7.13877 63.7709 9.19828C63.7709 10.9648 65.0037 12.4476 66.6539 12.8344V18.7888H57.7465V16.2436C59.3965 15.8568 60.6295 14.374 60.6295 12.6075C60.6295 10.548 58.9538 8.87236 56.8942 8.87236C54.8345 8.87236 53.1588 10.548 53.1588 12.6075C53.1588 14.374 54.3916 15.8568 56.0419 16.2436V19.6411C56.0419 20.1119 56.4235 20.4934 56.8942 20.4934H66.6539V26.9977H54.1368C53.9675 23.6791 52.5854 20.5858 50.2007 18.224C47.6828 15.7304 44.3588 14.3619 40.8272 14.3619C40.783 14.3619 40.7385 14.3622 40.6945 14.3626C33.7004 14.4302 27.9625 20.0227 27.5264 26.9977H14.9979V20.4934H24.7576C25.2283 20.4934 25.6099 20.1119 25.6099 19.6411V16.2436C27.2602 15.8568 28.4929 14.374 28.4929 12.6075C28.4929 10.548 26.8173 8.87236 24.7576 8.87236C22.6979 8.87236 21.0223 10.548 21.0223 12.6075C21.0223 14.374 22.2551 15.8568 23.9053 16.2436V18.7888H14.9979V12.8344C16.6479 12.4476 17.8809 10.9648 17.8809 9.19828C17.8809 7.13877 16.2052 5.46313 14.1455 5.46313C12.0859 5.46313 10.4102 7.13877 10.4102 9.19828C10.4102 10.9648 11.643 12.4476 13.2932 12.8344V27.85V33.3477H9.50798C9.1212 31.6975 7.63836 30.4647 5.87204 30.4647C3.81235 30.4647 2.13672 32.1403 2.13672 34.2C2.13672 36.2597 3.81235 37.9353 5.87204 37.9353C7.63836 37.9353 9.1212 36.7025 9.50798 35.0523H14.1455C14.6162 35.0523 14.9979 34.6708 14.9979 34.2V28.7023H27.4968V39.3597H26.6352C24.3846 39.3597 22.5535 41.1906 22.5535 43.4412V47.8785H14.9977V44.1641C14.9977 43.6933 14.616 43.3118 14.1454 43.3118H9.50798C9.1212 41.6618 7.63836 40.429 5.87204 40.429C3.81235 40.429 2.13672 42.1046 2.13672 44.1641C2.13672 46.2238 3.81235 47.8995 5.87204 47.8995C7.63836 47.8995 9.1212 46.6667 9.50798 45.0164H13.2932V48.7308V59.2888H9.50798C9.1212 57.6388 7.63836 56.406 5.87204 56.406C3.81235 56.406 2.13672 58.0816 2.13672 60.1411C2.13672 62.2008 3.81235 63.8765 5.87204 63.8765C7.63836 63.8765 9.1212 62.6437 9.50798 60.9934H14.1455C14.6162 60.9934 14.9979 60.6119 14.9979 60.1411V49.5831H22.5537V64.0467H16.4521C15.9814 64.0467 15.5998 64.4282 15.5998 64.8991V74.4423C13.9497 74.8291 12.7167 76.3119 12.7167 78.0784C12.7167 80.1379 14.3924 81.8136 16.4521 81.8136C18.5117 81.8136 20.1874 80.1379 20.1874 78.0784C20.1874 76.3119 18.9546 74.8291 17.3044 74.4423V65.7514H22.5537V69.885C22.5537 72.1356 24.3848 73.9666 26.6354 73.9666H44.2265C44.6971 73.9666 45.0788 73.5851 45.0788 73.1143C45.0788 72.6434 44.6971 72.262 44.2265 72.262H26.6354C25.3247 72.262 24.2583 71.1955 24.2583 69.885V43.4412C24.2583 42.1307 25.3247 41.0643 26.6354 41.0643H55.0165C56.3272 41.0643 57.3936 42.1307 57.3936 43.4412V69.885C57.3936 71.1955 56.3272 72.262 55.0165 72.262H49.1373C48.6667 72.262 48.285 72.6434 48.285 73.1143C48.285 73.5851 48.6667 73.9666 49.1373 73.9666H55.0165C57.2671 73.9666 59.0982 72.1356 59.0982 69.885V65.7514H64.3476V74.4423C62.6975 74.8291 61.4646 76.3119 61.4646 78.0784C61.4646 80.1379 63.1402 81.8136 65.1999 81.8136C67.2596 81.8136 68.9352 80.1379 68.9352 78.0784C68.9352 76.3119 67.7024 74.8291 66.0522 74.4423V64.8991C66.0522 64.4282 65.6705 64.0467 65.1999 64.0467H59.0982V49.5831H66.6541V60.1411C66.6541 60.6119 67.0358 60.9934 67.5064 60.9934H72.144C72.5307 62.6437 74.0136 63.8765 75.7799 63.8765C77.8396 63.8765 79.5152 62.2008 79.5152 60.1411C79.5152 58.0816 77.8396 56.406 75.7799 56.406C74.0136 56.406 72.5307 57.6388 72.144 59.2888H68.3587V48.7308V45.0164ZM75.7799 42.1336C76.8997 42.1336 77.8106 43.0446 77.8106 44.1641C77.8106 45.2839 76.8997 46.1948 75.7799 46.1948C74.6601 46.1948 73.7492 45.2839 73.7492 44.1641C73.7494 43.0446 74.6601 42.1336 75.7799 42.1336ZM75.7799 32.1693C76.8997 32.1693 77.8106 33.0802 77.8106 34.2C77.8106 35.3198 76.8997 36.2307 75.7799 36.2307C74.6601 36.2307 73.7492 35.3198 73.7492 34.2C73.7492 33.0802 74.6601 32.1693 75.7799 32.1693ZM54.8636 12.6075C54.8636 11.4879 55.7746 10.577 56.8943 10.577C58.0141 10.577 58.925 11.4879 58.925 12.6075C58.925 13.7121 58.0383 14.6116 56.9395 14.636C56.9243 14.6351 56.9098 14.6314 56.8945 14.6314C56.8792 14.6314 56.8647 14.6351 56.8495 14.636C55.7504 14.6116 54.8636 13.7121 54.8636 12.6075ZM22.7271 12.6075C22.7271 11.4879 23.638 10.577 24.7578 10.577C25.8775 10.577 26.7885 11.4879 26.7885 12.6075C26.7885 13.7121 25.9016 14.6116 24.8028 14.636C24.7876 14.6351 24.7731 14.6314 24.7578 14.6314C24.7424 14.6314 24.728 14.6351 24.7128 14.636C23.6138 14.6116 22.7271 13.7121 22.7271 12.6075ZM5.87204 36.2307C4.75228 36.2307 3.84133 35.3198 3.84133 34.2C3.84133 33.0802 4.75228 32.1693 5.87204 32.1693C6.9918 32.1693 7.90274 33.0802 7.90274 34.2C7.90274 35.3198 6.9918 36.2307 5.87204 36.2307ZM12.115 9.19828C12.115 8.07869 13.026 7.16775 14.1457 7.16775C15.2655 7.16775 16.1764 8.07869 16.1764 9.19828C16.1764 10.3029 15.2897 11.2024 14.1909 11.2268C14.1757 11.2259 14.1612 11.2222 14.1459 11.2222C14.1305 11.2222 14.1161 11.2259 14.1009 11.2268C13.0017 11.2024 12.115 10.3029 12.115 9.19828ZM5.87204 46.1948C4.75228 46.1948 3.84133 45.2839 3.84133 44.1641C3.84133 43.0446 4.75228 42.1336 5.87204 42.1336C6.9918 42.1336 7.90274 43.0446 7.90274 44.1641C7.90257 45.2839 6.9918 46.1948 5.87204 46.1948ZM5.87204 62.172C4.75228 62.172 3.84133 61.2611 3.84133 60.1413C3.84133 59.0217 4.75228 58.1108 5.87204 58.1108C6.9918 58.1108 7.90274 59.0217 7.90274 60.1413C7.90257 61.2611 6.9918 62.172 5.87204 62.172ZM18.4826 78.0783C18.4826 79.1979 17.5716 80.1088 16.4519 80.1088C15.3321 80.1088 14.4212 79.1979 14.4212 78.0783C14.4212 76.9585 15.3321 76.0476 16.4519 76.0476C17.5716 76.0476 18.4826 76.9585 18.4826 78.0783ZM65.4757 9.19828C65.4757 8.07869 66.3866 7.16775 67.5064 7.16775C68.6262 7.16775 69.5371 8.07869 69.5371 9.19828C69.5371 10.3029 68.6504 11.2024 67.5516 11.2268C67.5364 11.2259 67.5219 11.2222 67.5066 11.2222C67.4912 11.2222 67.4767 11.2259 67.4616 11.2268C66.3624 11.2024 65.4757 10.3029 65.4757 9.19828ZM29.2015 27.85C29.2015 21.4142 34.3648 16.1284 40.7113 16.0672C43.8331 16.0336 46.7776 17.233 49.0015 19.4353C51.2256 21.6382 52.4506 24.57 52.4506 27.6911V39.3597H48.3029V36.4284C48.3029 36.3175 48.3679 36.215 48.4684 36.1678C49.1634 35.8407 49.6124 35.1329 49.6124 34.3647V33.8676C49.6124 33.0993 49.1634 32.3916 48.4684 32.0645C48.3679 32.0172 48.3029 31.9148 48.3029 31.8038V27.6913C48.3029 23.6386 45.007 20.2849 40.9557 20.2155C38.9696 20.178 37.0823 20.9429 35.6414 22.3593C34.1846 23.7913 33.349 25.7777 33.349 27.8087V35.4885C33.349 35.9593 33.7307 36.3408 34.2013 36.3408C34.672 36.3408 35.0536 35.9593 35.0536 35.4885V27.8087C35.0536 26.2318 35.7034 24.6886 36.8363 23.575C37.9486 22.4816 39.4014 21.8958 40.9264 21.9198C44.0538 21.9735 46.5981 24.5626 46.5981 27.6913V31.8038C46.5981 32.5721 47.0473 33.2799 47.7423 33.607C47.8427 33.6542 47.9076 33.7565 47.9076 33.8676V34.3647C47.9076 34.4758 47.8427 34.5781 47.7423 34.6253C47.0473 34.9524 46.5981 35.6602 46.5981 36.4284V39.3597H29.2015V27.85ZM67.2306 78.0783C67.2306 79.1979 66.3196 80.1088 65.1999 80.1088C64.0801 80.1088 63.1692 79.1979 63.1692 78.0783C63.1692 76.9585 64.0801 76.0476 65.1999 76.0476C66.3196 76.0476 67.2306 76.9585 67.2306 78.0783ZM75.7799 58.1106C76.8997 58.1106 77.8106 59.0215 77.8106 60.1411C77.8106 61.2609 76.8997 62.1718 75.7799 62.1718C74.6601 62.1718 73.7492 61.2609 73.7492 60.1411C73.7494 59.0215 74.6601 58.1106 75.7799 58.1106Z" fill="#313131"/>
<path d="M48.7603 10.0587C48.2897 10.0587 47.908 9.67722 47.908 9.20641C47.908 8.68957 47.4875 8.26887 46.9705 8.26887C46.4998 8.26887 46.1182 7.88738 46.1182 7.41656C46.1182 6.94575 46.4998 6.56426 46.9705 6.56426C47.4875 6.56426 47.908 6.14356 47.908 5.62672C47.908 5.15591 48.2897 4.77441 48.7603 4.77441C49.231 4.77441 49.6126 5.15591 49.6126 5.62672C49.6126 6.14356 50.0331 6.56426 50.5502 6.56426C51.0208 6.56426 51.4025 6.94575 51.4025 7.41656C51.4025 7.88738 51.0208 8.26887 50.5502 8.26887C50.0331 8.26887 49.6126 8.68957 49.6126 9.20641C49.6126 9.67722 49.231 10.0587 48.7603 10.0587Z" fill="#585972"/>
<path d="M74.3458 75.1945C73.8751 75.1945 73.4935 74.813 73.4935 74.3421C73.4935 73.8253 73.0729 73.4046 72.5559 73.4046C72.0853 73.4046 71.7036 73.0231 71.7036 72.5523C71.7036 72.0815 72.0853 71.7 72.5559 71.7C73.0729 71.7 73.4935 71.2793 73.4935 70.7625C73.4935 70.2916 73.8751 69.9102 74.3458 69.9102C74.8164 69.9102 75.1981 70.2916 75.1981 70.7625C75.1981 71.2793 75.6186 71.7 76.1356 71.7C76.6062 71.7 76.9879 72.0815 76.9879 72.5523C76.9879 73.0231 76.6062 73.4046 76.1356 73.4046C75.6186 73.4046 75.1981 73.8253 75.1981 74.3421C75.1981 74.813 74.8164 75.1945 74.3458 75.1945Z" fill="#585972"/>
<path d="M6.86578 25.8916C6.39514 25.8916 6.01348 25.5102 6.01348 25.0393C6.01348 24.5225 5.59295 24.1018 5.07594 24.1018C4.6053 24.1018 4.22363 23.7203 4.22363 23.2495C4.22363 22.7787 4.6053 22.3972 5.07594 22.3972C5.59295 22.3972 6.01348 21.9765 6.01348 21.4595C6.01348 20.9887 6.39514 20.6072 6.86578 20.6072C7.33643 20.6072 7.71809 20.9887 7.71809 21.4595C7.71809 21.9765 8.13862 22.3972 8.65563 22.3972C9.12627 22.3972 9.50793 22.7787 9.50793 23.2495C9.50793 23.7203 9.12627 24.1018 8.65563 24.1018C8.13862 24.1018 7.71809 24.5225 7.71809 25.0393C7.71809 25.51 7.33643 25.8916 6.86578 25.8916Z" fill="#585972"/>
<path d="M5.16103 17.1951C4.94284 17.1951 4.72482 17.1119 4.55828 16.9453C4.22537 16.6126 4.22537 16.0729 4.55828 15.7402L6.26289 14.0356C6.5958 13.7027 7.13531 13.7027 7.46822 14.0356C7.80113 14.3683 7.80113 14.908 7.46822 15.2407L5.76361 16.9453C5.59724 17.1119 5.37922 17.1951 5.16103 17.1951Z" fill="#585972"/>
<path d="M26.8573 81.8135C26.6391 81.8135 26.4211 81.7303 26.2546 81.5638C25.9217 81.231 25.9217 80.6913 26.2546 80.3586L27.9592 78.654C28.2921 78.3211 28.8316 78.3211 29.1645 78.654C29.4974 78.9867 29.4974 79.5264 29.1645 79.8591L27.4599 81.5638C27.2935 81.7303 27.0755 81.8135 26.8573 81.8135Z" fill="#585972"/>
<defs>
<linearGradient id="paint0_linear" x1="21.5114" y1="64.5596" x2="79.5462" y2="6.52475" gradientUnits="userSpaceOnUse">
<stop stop-color="#313131" stop-opacity="0"/>
<stop offset="1" stop-color="#313131"/>
</linearGradient>
</defs>
</svg>
