<svg width="85" height="88" viewBox="0 0 90 87" fill="none" xmlns="http://www.w3.org/2000/svg">
<path d="M89.0085 37.6673C86.9303 29.009 75.3481 25.9586 68.3877 26.3192C59.0993 26.8004 54.891 23.8712 56.9264 14.4012C58.0894 8.99001 59.2602 5.30858 50.8786 2.45454C43.64 -0.00996484 20.2915 -2.68509 15.4291 5.64956C13.0562 9.71701 21.7902 13.427 17.6684 18.9227C14.7608 22.7997 6.14437 19.933 1.48834 25.9171C-1.81583 30.1636 0.266163 37.1208 8.89291 40.8117C16.243 43.9563 27.0551 45.7695 29.035 54.836C30.0274 59.3806 24.9626 65.7487 27.5028 72.4379C29.4658 77.6073 35.3771 79.8889 43.1832 72.297C58.5856 57.317 55.3282 78.7052 57.6653 83.0826C60.3427 88.0977 69.6064 86.0453 73.7695 81.8493C85.1522 70.3764 92.0106 50.1756 89.0085 37.6673Z" fill="url(#paint0_linear)"/>
<path opacity="0.1" d="M73.5592 39.7044H74.428C74.4274 39.7172 74.4241 39.7293 74.4241 39.7423V46.6631C74.4241 47.147 74.8163 47.5392 75.3002 47.5392C75.7842 47.5392 76.1763 47.147 76.1763 46.6631V39.7423C76.1763 39.7293 76.173 39.7172 76.1725 39.7044H77.0411C77.162 39.7044 77.2773 39.6799 77.3821 39.6356C77.5916 39.5469 77.7597 39.379 77.8483 39.1693C77.8927 39.0645 77.9172 38.9492 77.9172 38.8283V35.8986V32.2844C77.9172 31.8006 77.525 31.4083 77.0411 31.4083H76.1725C76.173 31.3955 76.1763 31.3834 76.1763 31.3705V20.2445C76.1763 19.7606 75.7842 19.3684 75.3002 19.3684C74.8163 19.3684 74.4241 19.7606 74.4241 20.2445V31.3705C74.4241 31.3834 74.4274 31.3955 74.428 31.4083H73.5592C73.0754 31.4083 72.6831 31.8006 72.6831 32.2844V35.8986V38.8283C72.6831 39.3121 73.0754 39.7044 73.5592 39.7044Z" fill="#313131"/>
<path opacity="0.1" d="M47.8683 24.9857H48.7371C48.7365 24.9985 48.7332 25.0106 48.7332 25.0236V28.4399C48.7332 28.9239 49.1254 29.316 49.6093 29.316C50.0933 29.316 50.4854 28.9239 50.4854 28.4399V25.0236C50.4854 25.0106 50.4821 24.9985 50.4816 24.9857H51.3502C51.8339 24.9857 52.2263 24.5934 52.2263 24.1096V18.2666C52.2263 17.7829 51.8339 17.3905 51.3502 17.3905H50.4816C50.4821 17.3777 50.4854 17.3656 50.4854 17.3527V11.1063C50.4854 10.6224 50.0933 10.2302 49.6093 10.2302C49.1254 10.2302 48.7332 10.6224 48.7332 11.1063V17.3525C48.7332 17.3655 48.7365 17.3776 48.7371 17.3904H47.8683C47.3845 17.3904 46.9922 17.7827 46.9922 18.2665V21.1797V24.1094C46.9922 24.5934 47.3845 24.9857 47.8683 24.9857Z" fill="#313131"/>
<path opacity="0.1" d="M39.2897 34.4477H40.1583C40.1577 34.4605 40.1544 34.4726 40.1544 34.4856V37.9019C40.1544 38.3858 40.5466 38.778 41.0305 38.778C41.5145 38.778 41.9066 38.3858 41.9066 37.9019V34.4856C41.9066 34.4726 41.9033 34.4605 41.9028 34.4477H42.7715C43.2553 34.4477 43.6477 34.0554 43.6477 33.5716V28.0791C43.6477 27.5953 43.2553 27.2029 42.7715 27.2029H41.9028C41.9033 27.1902 41.9066 27.1781 41.9066 27.1651V24.4498C41.9066 23.9659 41.5145 23.5737 41.0305 23.5737C40.5466 23.5737 40.1544 23.9659 40.1544 24.4498V27.1651C40.1544 27.1781 40.1577 27.1902 40.1583 27.2029H39.2897C38.8059 27.2029 38.4136 27.5953 38.4136 28.0791V30.6419V33.5716C38.4136 34.0554 38.8057 34.4477 39.2897 34.4477Z" fill="#313131"/>
<path opacity="0.1" d="M15.6293 35.3766C16.1222 35.8695 16.7907 36.1465 17.4877 36.1465C18.1848 36.1465 18.8532 35.8697 19.3461 35.3766L23.8462 30.8765L31.5909 38.6212V44.5821C31.5909 45.066 31.983 45.4582 32.467 45.4582C32.951 45.4582 33.3431 45.066 33.3431 44.5821V40.3734L36.7144 43.7447C37.2073 44.2376 37.8758 44.5146 38.5728 44.5146H57.2968V53.0552C57.2968 53.5391 57.6889 53.9313 58.1729 53.9313C58.6569 53.9313 59.049 53.5391 59.049 53.0552V44.5146H60.0968L65.8603 50.278V56.1252C65.8603 56.6092 66.2524 57.0013 66.7364 57.0013C67.2203 57.0013 67.6125 56.6092 67.6125 56.1252V52.0303L74.3864 58.8042H72.2527C70.8012 58.8042 69.6244 59.981 69.6244 61.4326C69.6244 62.8841 70.8012 64.0609 72.2527 64.0609H80.7318C82.1833 64.0609 83.3601 62.8841 83.3601 61.4326V52.9535C83.3601 51.502 82.1833 50.3252 80.7318 50.3252C79.2802 50.3252 78.1034 51.502 78.1034 52.9535V55.0872L67.9773 44.9611H68.4774C68.6589 44.9611 68.8275 44.9059 68.9673 44.8114C69.0605 44.7485 69.141 44.6679 69.204 44.5747C69.2985 44.4349 69.3537 44.2663 69.3537 44.0848V27.0277C69.3537 26.5439 68.9614 26.1516 68.4776 26.1516H67.6088C67.6093 26.1388 67.6127 26.1267 67.6127 26.1138V20.5949C67.6127 20.111 67.2205 19.7188 66.7366 19.7188C66.2526 19.7188 65.8604 20.111 65.8604 20.5949V26.1138C65.8604 26.1267 65.8638 26.1388 65.8643 26.1516H64.9957C64.5119 26.1516 64.1196 26.5439 64.1196 27.0277V41.103L63.0443 40.0277C62.5514 39.5348 61.8829 39.2578 61.1858 39.2578H59.0494V36.2376C59.0494 36.2247 59.046 36.2126 59.0455 36.1998H59.9141C60.3979 36.1998 60.7902 35.8074 60.7902 35.3237V21.771C60.7902 21.2873 60.3979 20.8949 59.9141 20.8949H59.0455C59.046 20.8821 59.0494 20.87 59.0494 20.8571V13.9365C59.0494 13.4525 58.6572 13.0604 58.1732 13.0604C57.6893 13.0604 57.2971 13.4525 57.2971 13.9365V20.8571C57.2971 20.87 57.3004 20.8821 57.301 20.8949H56.4324C55.9486 20.8949 55.5563 21.2873 55.5563 21.771V32.3941V35.3238C55.5563 35.8076 55.9486 36.1999 56.4324 36.1999H57.301C57.3004 36.2127 57.2971 36.2248 57.2971 36.2378V39.2579H39.6618L33.4498 33.0459H34.2082C34.692 33.0459 35.0843 32.6536 35.0843 32.1698V14.7621C35.0843 14.2783 34.692 13.886 34.2082 13.886H33.3396C33.3401 13.8732 33.3435 13.8611 33.3435 13.8482V10.432C33.3435 9.94806 32.9513 9.55591 32.4673 9.55591C31.9834 9.55591 31.5912 9.94806 31.5912 10.432V13.8482C31.5912 13.8611 31.5946 13.8732 31.5951 13.886H30.7265C30.2427 13.886 29.8504 14.2783 29.8504 14.7621V29.2401V29.4463L25.7051 25.3011C24.6789 24.2746 23.0146 24.2746 21.9881 25.3011L17.4881 29.8012L10.8412 23.1543C10.3279 22.641 9.65525 22.3843 8.98275 22.3843C8.31024 22.3843 7.63739 22.6409 7.12433 23.1543C6.09788 24.1805 6.09788 25.8448 7.12433 26.8713L15.6293 35.3766Z" fill="#313131"/>
<path d="M73.5592 35.499H77.0411C77.5249 35.499 77.9172 35.1067 77.9172 34.6229V28.079C77.9172 27.5952 77.5249 27.2029 77.0411 27.2029H73.5592C73.0754 27.2029 72.6831 27.5952 72.6831 28.079V34.6229C72.6831 35.1067 73.0754 35.499 73.5592 35.499Z" fill="#585972"/>
<path d="M73.5592 35.4992H77.0411C77.5249 35.4992 77.9172 35.1069 77.9172 34.6231V31.6934H72.6831V34.6231C72.6831 35.1069 73.0754 35.4992 73.5592 35.4992Z" fill="#FDFAF6"/>
<path d="M64.9957 40.7558H68.4776C68.9614 40.7558 69.3537 40.3634 69.3537 39.8796V22.8224C69.3537 22.3386 68.9614 21.9463 68.4776 21.9463H64.9957C64.512 21.9463 64.1196 22.3386 64.1196 22.8224V39.8796C64.1196 40.3634 64.512 40.7558 64.9957 40.7558Z" fill="#585972"/>
<path d="M64.9957 40.7558H68.4776C68.9614 40.7558 69.3537 40.3635 69.3537 39.8797V36.95H64.1196V39.8797C64.1196 40.3635 64.512 40.7558 64.9957 40.7558Z" fill="#FDFAF6"/>
<path d="M56.4323 31.9947H59.9141C60.3979 31.9947 60.7902 31.6024 60.7902 31.1186V17.5658C60.7902 17.082 60.3979 16.6897 59.9141 16.6897H56.4323C55.9485 16.6897 55.5562 17.082 55.5562 17.5658V31.1186C55.5562 31.6024 55.9483 31.9947 56.4323 31.9947Z" fill="#585972"/>
<path d="M56.4323 31.9946H59.9141C60.3979 31.9946 60.7902 31.6022 60.7902 31.1185V28.1887H55.5562V31.1185C55.5562 31.6022 55.9483 31.9946 56.4323 31.9946Z" fill="#FDFAF6"/>
<path d="M47.8688 20.7803H51.3506C51.8344 20.7803 52.2268 20.3879 52.2268 19.9042V14.0612C52.2268 13.5774 51.8344 13.1851 51.3506 13.1851H47.8688C47.385 13.1851 46.9927 13.5774 46.9927 14.0612V19.9042C46.9927 20.3879 47.385 20.7803 47.8688 20.7803Z" fill="#FDFAF6"/>
<path d="M47.8688 20.7804H51.3506C51.8344 20.7804 52.2268 20.3881 52.2268 19.9043V16.9746H46.9927V19.9043C46.9927 20.3881 47.385 20.7804 47.8688 20.7804Z" fill="#585972"/>
<path d="M39.2902 30.2423H42.772C43.2558 30.2423 43.6481 29.85 43.6481 29.3662V23.8737C43.6481 23.3899 43.2558 22.9976 42.772 22.9976H39.2902C38.8064 22.9976 38.4141 23.3899 38.4141 23.8737V29.3662C38.4141 29.85 38.8062 30.2423 39.2902 30.2423Z" fill="#585972"/>
<path d="M39.2902 30.2424H42.772C43.2558 30.2424 43.6481 29.85 43.6481 29.3663V26.4365H38.4141V29.3663C38.4141 29.85 38.8062 30.2424 39.2902 30.2424Z" fill="#FDFAF6"/>
<path d="M30.7272 28.8406H34.209C34.6928 28.8406 35.0852 28.4483 35.0852 27.9645V10.5568C35.0852 10.073 34.6928 9.68066 34.209 9.68066H30.7272C30.2434 9.68066 29.8511 10.073 29.8511 10.5568V27.9645C29.8511 28.4483 30.2432 28.8406 30.7272 28.8406Z" fill="#FDFAF6"/>
<path d="M30.7262 28.8405H34.2081C34.6919 28.8405 35.0842 28.4482 35.0842 27.9644V25.0347H29.8501V27.9644C29.8501 28.4482 30.2424 28.8405 30.7262 28.8405Z" fill="#585972"/>
<path d="M80.7317 59.8555H72.2526C70.8011 59.8555 69.6243 58.6787 69.6243 57.2272C69.6243 55.7756 70.8011 54.5988 72.2526 54.5988H74.3863L60.0967 40.3092H38.5727C37.8757 40.3092 37.2072 40.0322 36.7143 39.5393L23.8461 26.6713L19.346 31.1714C18.8531 31.6643 18.1847 31.9413 17.4876 31.9413C16.7904 31.9413 16.1221 31.6643 15.6292 31.1714L7.12371 22.6659C6.09743 21.6394 6.09743 19.9753 7.12371 18.9489C7.63694 18.4357 8.30962 18.179 8.98213 18.179C9.65463 18.179 10.3275 18.4355 10.8405 18.9489L17.4874 25.5958L21.9875 21.0957C23.0138 20.0693 24.6781 20.0693 25.7045 21.0957L39.6614 35.0526H61.1854C61.8824 35.0526 62.5509 35.3294 63.0438 35.8225L78.1032 50.8818V48.7482C78.1032 47.2966 79.28 46.1198 80.7315 46.1198C82.1831 46.1198 83.3598 47.2966 83.3598 48.7482V57.2272C83.36 58.6787 82.1832 59.8555 80.7317 59.8555Z" fill="#585972"/>
<path opacity="0.1" d="M83.9646 82.747L82.2553 76.9326C82.1527 76.5832 81.832 76.3433 81.4679 76.3433H74.3996C74.9475 76.3433 75.3416 75.8168 75.187 75.2911L73.4777 69.4767C73.375 69.1273 73.0544 68.8874 72.6903 68.8874H65.6218C66.1697 68.8874 66.5636 68.3609 66.4092 67.8352L64.6999 62.0208C64.5972 61.6714 64.2766 61.4315 63.9125 61.4315H56.844C57.3919 61.4315 57.7858 60.9049 57.6314 60.3793L55.9221 54.5649C55.8195 54.2155 55.4988 53.9756 55.1347 53.9756H43.2416H39.9066H34.5791C34.215 53.9756 33.8944 54.2155 33.7917 54.5649L32.0824 60.3793C31.9278 60.9049 32.3219 61.4315 32.8698 61.4315H31.1288H28.0051V56.8955C28.0051 55.444 26.8283 54.2672 25.3768 54.2672H11.7935C10.3419 54.2672 9.16515 55.444 9.16515 56.8955V61.6029C9.16515 63.0544 10.3419 64.2312 11.7935 64.2312H24.3643L23.3048 67.8352C23.1502 68.3609 23.5443 68.8874 24.0922 68.8874H22.3512H17.0237C16.6596 68.8874 16.3391 69.1273 16.2363 69.4767L14.527 75.2911C14.3724 75.8168 14.7665 76.3433 15.3144 76.3433H13.5734H8.24593C7.88182 76.3433 7.56116 76.5832 7.45848 76.9326L5.74918 82.747C5.59463 83.2727 5.98871 83.7992 6.53663 83.7992H83.1774C83.7251 83.7992 84.1192 83.2725 83.9646 82.747Z" fill="#313131"/>
<path opacity="0.1" d="M9.16567 43.2842H12.4217C12.9056 43.2842 13.2978 42.8921 13.2978 42.4081C13.2978 41.9241 12.9056 41.532 12.4217 41.532H9.16567C8.6817 41.532 8.28955 41.9241 8.28955 42.4081C8.28955 42.8921 8.6817 43.2842 9.16567 43.2842Z" fill="#313131"/>
<path opacity="0.1" d="M19.4306 45.1033H9.16567C8.6817 45.1033 8.28955 45.4954 8.28955 45.9794C8.28955 46.4633 8.6817 46.8555 9.16567 46.8555H19.4306C19.9145 46.8555 20.3067 46.4633 20.3067 45.9794C20.3067 45.4954 19.9144 45.1033 19.4306 45.1033Z" fill="#313131"/>
<path opacity="0.1" d="M19.4306 48.6746H9.16567C8.6817 48.6746 8.28955 49.0667 8.28955 49.5507C8.28955 50.0346 8.6817 50.4268 9.16567 50.4268H19.4306C19.9145 50.4268 20.3067 50.0346 20.3067 49.5507C20.3067 49.0667 19.9144 48.6746 19.4306 48.6746Z" fill="#313131"/>
<path d="M12.7856 72.7275L11.0763 78.5419C10.9218 79.0675 11.3159 79.5941 11.8638 79.5941H33.7933C34.3412 79.5941 34.7353 79.0675 34.5807 78.5419L32.8714 72.7275C32.7687 72.3781 32.4481 72.1382 32.084 72.1382H13.5731C13.209 72.1382 12.8883 72.3782 12.7856 72.7275Z" fill="#FDFAF6"/>
<path d="M7.45848 72.7275L5.74918 78.5419C5.59463 79.0675 5.98871 79.5941 6.53663 79.5941H18.6177C19.1656 79.5941 19.5597 79.0675 19.4052 78.5419L17.6959 72.7275C17.5932 72.3781 17.2725 72.1382 16.9084 72.1382H8.24576C7.88164 72.1382 7.56116 72.3782 7.45848 72.7275Z" fill="#585972"/>
<path d="M30.3413 72.7275L28.632 78.5419C28.4774 79.0675 28.8715 79.5941 29.4194 79.5941H51.3489C51.8969 79.5941 52.2909 79.0675 52.1364 78.5419L50.4271 72.7275C50.3244 72.3781 50.0038 72.1382 49.6396 72.1382H31.1286C30.7645 72.1382 30.444 72.3782 30.3413 72.7275Z" fill="#FDFAF6"/>
<path d="M25.0141 72.7275L23.3048 78.5419C23.1503 79.0675 23.5444 79.5941 24.0923 79.5941H36.1734C36.7213 79.5941 37.1154 79.0675 36.9608 78.5419L35.2515 72.7275C35.1489 72.3781 34.8282 72.1382 34.4641 72.1382H25.8016C25.4375 72.1382 25.1168 72.3782 25.0141 72.7275Z" fill="#585972"/>
<path d="M47.897 72.7275L46.1877 78.5419C46.0331 79.0675 46.4272 79.5941 46.9751 79.5941H68.9046C69.4525 79.5941 69.8466 79.0675 69.692 78.5419L67.9827 72.7275C67.8801 72.3781 67.5594 72.1382 67.1953 72.1382H48.6844C48.3203 72.1382 47.9996 72.3782 47.897 72.7275Z" fill="#FDFAF6"/>
<path d="M42.5698 72.7275L40.8605 78.5419C40.706 79.0675 41.1 79.5941 41.648 79.5941H53.7291C54.277 79.5941 54.6711 79.0675 54.5165 78.5419L52.8072 72.7275C52.7045 72.3781 52.3839 72.1382 52.0198 72.1382H43.3573C42.993 72.1382 42.6725 72.3782 42.5698 72.7275Z" fill="#585972"/>
<path d="M65.4526 72.7275L63.7433 78.5419C63.5888 79.0675 63.9829 79.5941 64.5308 79.5941H83.1775C83.7254 79.5941 84.1195 79.0675 83.9649 78.5419L82.2556 72.7275C82.1529 72.3781 81.8323 72.1382 81.4682 72.1382H66.2401C65.876 72.1382 65.5553 72.3782 65.4526 72.7275Z" fill="#FDFAF6"/>
<path d="M60.125 72.7275L58.4157 78.5419C58.2611 79.0675 58.6552 79.5941 59.2031 79.5941H71.2842C71.8321 79.5941 72.2262 79.0675 72.0717 78.5419L70.3624 72.7275C70.2597 72.3781 69.939 72.1382 69.5749 72.1382H60.9124C60.5483 72.1382 60.2277 72.3782 60.125 72.7275Z" fill="#585972"/>
<path d="M21.5639 65.2716L19.8546 71.0861C19.7001 71.6117 20.0942 72.1383 20.6421 72.1383H42.5716C43.1195 72.1383 43.5136 71.6117 43.359 71.0861L41.6497 65.2716C41.5471 64.9223 41.2264 64.6824 40.8623 64.6824H22.3514C21.9873 64.6824 21.6666 64.9223 21.5639 65.2716Z" fill="#FDFAF6"/>
<path d="M16.2363 65.2716L14.527 71.0861C14.3725 71.6117 14.7665 72.1383 15.3145 72.1383H27.3956C27.9435 72.1383 28.3376 71.6117 28.183 71.0861L26.4737 65.2716C26.371 64.9223 26.0504 64.6824 25.6863 64.6824H17.0238C16.6596 64.6824 16.339 64.9223 16.2363 65.2716Z" fill="#585972"/>
<path d="M39.1196 65.2716L37.4103 71.0861C37.2558 71.6117 37.6498 72.1383 38.1978 72.1383H60.1273C60.6752 72.1383 61.0693 71.6117 60.9147 71.0861L59.2054 65.2716C59.1027 64.9223 58.7821 64.6824 58.418 64.6824H39.9069C39.5428 64.6824 39.2223 64.9223 39.1196 65.2716Z" fill="#FDFAF6"/>
<path d="M33.792 65.2716L32.0827 71.0861C31.9281 71.6117 32.3222 72.1383 32.8701 72.1383H44.9512C45.4991 72.1383 45.8932 71.6117 45.7387 71.0861L44.0294 65.2716C43.9267 64.9223 43.606 64.6824 43.2419 64.6824H34.5794C34.2153 64.6824 33.8947 64.9223 33.792 65.2716Z" fill="#585972"/>
<path d="M56.6748 65.2716L54.9655 71.0861C54.8109 71.6117 55.205 72.1383 55.7529 72.1383H74.3996C74.9476 72.1383 75.3416 71.6117 75.1871 71.0861L73.4778 65.2716C73.3751 64.9223 73.0544 64.6824 72.6903 64.6824H57.4622C57.0981 64.6824 56.7775 64.9223 56.6748 65.2716Z" fill="#FDFAF6"/>
<path d="M51.3472 65.2716L49.6379 71.0861C49.4833 71.6117 49.8774 72.1383 50.4253 72.1383H62.5064C63.0543 72.1383 63.4484 71.6117 63.2938 71.0861L61.5845 65.2716C61.4819 64.9223 61.1612 64.6824 60.7971 64.6824H52.1346C51.7705 64.6824 51.45 64.9223 51.3472 65.2716Z" fill="#585972"/>
<path d="M30.3413 57.8158L28.632 63.6303C28.4774 64.1559 28.8715 64.6825 29.4194 64.6825H51.3489C51.8969 64.6825 52.2909 64.1559 52.1364 63.6303L50.4271 57.8158C50.3244 57.4664 50.0038 57.2266 49.6396 57.2266H31.1286C30.7645 57.2266 30.444 57.4664 30.3413 57.8158Z" fill="#FDFAF6"/>
<path d="M25.0141 57.8158L23.3048 63.6303C23.1503 64.1559 23.5444 64.6825 24.0923 64.6825H36.1734C36.7213 64.6825 37.1154 64.1559 36.9608 63.6303L35.2515 57.8158C35.1489 57.4664 34.8282 57.2266 34.4641 57.2266H25.8016C25.4375 57.2266 25.1168 57.4664 25.0141 57.8158Z" fill="#585972"/>
<path d="M47.897 57.8158L46.1877 63.6303C46.0331 64.1559 46.4272 64.6825 46.9751 64.6825H65.6218C66.1697 64.6825 66.5638 64.1559 66.4092 63.6303L64.6999 57.8158C64.5973 57.4664 64.2766 57.2266 63.9125 57.2266H48.6844C48.3203 57.2266 47.9996 57.4664 47.897 57.8158Z" fill="#FDFAF6"/>
<path d="M42.5698 57.8158L40.8605 63.6303C40.706 64.1559 41.1 64.6825 41.648 64.6825H53.7291C54.277 64.6825 54.6711 64.1559 54.5165 63.6303L52.8072 57.8158C52.7045 57.4664 52.3839 57.2266 52.0198 57.2266H43.3573C42.993 57.2266 42.6725 57.4664 42.5698 57.8158Z" fill="#585972"/>
<path d="M39.1196 50.36L37.4103 56.1744C37.2558 56.7001 37.6498 57.2267 38.1978 57.2267H56.8443C57.3922 57.2267 57.7863 56.7001 57.6317 56.1744L55.9224 50.36C55.8197 50.0106 55.4991 49.7708 55.135 49.7708H39.9069C39.5428 49.7709 39.2223 50.0108 39.1196 50.36Z" fill="#FDFAF6"/>
<path d="M33.792 50.36L32.0827 56.1744C31.9281 56.7001 32.3222 57.2267 32.8701 57.2267H44.9512C45.4991 57.2267 45.8932 56.7001 45.7387 56.1744L44.0294 50.36C43.9267 50.0106 43.606 49.7708 43.2419 49.7708H34.5794C34.2153 49.7709 33.8947 50.0108 33.792 50.36Z" fill="#585972"/>
<path d="M25.3767 60.0263H11.7934C10.3418 60.0263 9.16504 58.8495 9.16504 57.398V52.6906C9.16504 51.2391 10.3418 50.0623 11.7934 50.0623H25.3767C26.8282 50.0623 28.005 51.2391 28.005 52.6906V57.398C28.005 58.8497 26.8284 60.0263 25.3767 60.0263Z" fill="#585972"/>
<path d="M24.0578 55.9204C24.5416 55.9204 24.9339 55.5281 24.9339 55.0443C24.9339 54.5605 24.5416 54.1682 24.0578 54.1682H21.5724C21.0886 54.1682 20.6963 54.5605 20.6963 55.0443C20.6963 55.5281 21.0886 55.9204 21.5724 55.9204H24.0578Z" fill="#FDFAF6"/>
<path d="M17.7091 56.7799H13.6823C13.1985 56.7799 12.8062 56.3875 12.8062 55.9037V54.1845C12.8062 53.7007 13.1985 53.3083 13.6823 53.3083H17.7092C18.193 53.3083 18.5854 53.7007 18.5854 54.1845V55.9037C18.5852 56.3875 18.193 56.7799 17.7091 56.7799Z" fill="#FDFAF6"/>
<path d="M73.5594 36.3751H74.4243V42.4577C74.4243 42.9416 74.8164 43.3338 75.3004 43.3338C75.7843 43.3338 76.1765 42.9416 76.1765 42.4577V36.3751H77.0414C78.0076 36.3751 78.7936 35.5891 78.7936 34.6229V28.079C78.7936 27.1129 78.0076 26.3268 77.0414 26.3268H76.1765V16.039C76.1765 15.555 75.7843 15.1628 75.3004 15.1628C74.8164 15.1628 74.4243 15.555 74.4243 16.039V26.3268H73.5594C72.5932 26.3268 71.8071 27.1129 71.8071 28.079V34.6229C71.8071 35.5891 72.5932 36.3751 73.5594 36.3751ZM73.5594 28.0792H77.0412V34.6231H73.5594V28.0792Z" fill="#313131"/>
<path d="M47.8689 21.6565H48.7338V24.2346C48.7338 24.7185 49.126 25.1107 49.6099 25.1107C50.0939 25.1107 50.4861 24.7185 50.4861 24.2346V21.6565H51.351C52.3171 21.6565 53.1032 20.8705 53.1032 19.9043V14.0615C53.1032 13.0953 52.3171 12.3093 51.351 12.3093H50.4861V6.90102C50.4861 6.41705 50.0939 6.0249 49.6099 6.0249C49.126 6.0249 48.7338 6.41705 48.7338 6.90102V12.3091H47.8689C46.9027 12.3091 46.1167 13.0951 46.1167 14.0613V19.9043C46.1167 20.8705 46.9027 21.6565 47.8689 21.6565ZM47.8689 14.0615H51.3508V19.9045H47.8689V14.0615Z" fill="#313131"/>
<path d="M15.0098 31.791C15.6718 32.4528 16.552 32.8173 17.4878 32.8173C18.4242 32.8173 19.3042 32.4527 19.9658 31.7908L23.8465 27.9104L31.5912 35.655V40.3768C31.5912 40.8607 31.9833 41.2529 32.4673 41.2529C32.9513 41.2529 33.3434 40.8607 33.3434 40.3768V37.4073L36.0951 40.159C36.7571 40.8208 37.6372 41.1852 38.5731 41.1852H57.2964V48.8497C57.2964 49.3336 57.6885 49.7258 58.1725 49.7258C58.6564 49.7258 59.0486 49.3336 59.0486 48.8497V41.1852H59.7342L65.8606 47.3116V51.9196C65.8606 52.4035 66.2527 52.7957 66.7367 52.7957C67.2206 52.7957 67.6128 52.4035 67.6128 51.9196V49.0638L72.2716 53.7226H72.2532C70.3209 53.7226 68.7488 55.2947 68.7488 57.2271C68.7488 59.1594 70.3209 60.7315 72.2532 60.7315H80.7323C82.6646 60.7315 84.2367 59.1594 84.2367 57.2271V48.748C84.2367 46.8157 82.6646 45.2436 80.7323 45.2436C78.7999 45.2436 77.2278 46.8157 77.2278 48.748V48.7664L69.6445 41.1833C70.0027 40.8623 70.2296 40.3978 70.2296 39.88V22.8224C70.2296 21.8562 69.4435 21.0702 68.4773 21.0702H67.6128V16.3896C67.6128 15.9057 67.2206 15.5135 66.7367 15.5135C66.2527 15.5135 65.8606 15.9057 65.8606 16.3896V21.0702H64.9955C64.0293 21.0702 63.2433 21.8562 63.2433 22.8224V34.8485C62.6484 34.4145 61.9361 34.1767 61.1858 34.1767H59.0486V32.8709H59.914C60.8802 32.8709 61.6662 32.0849 61.6662 31.1187V17.5659C61.6662 16.5997 60.8802 15.8137 59.914 15.8137H59.0491V9.73116C59.0491 9.24719 58.657 8.85504 58.173 8.85504C57.689 8.85504 57.2969 9.24719 57.2969 9.73116V15.8137H56.432C55.4658 15.8137 54.6798 16.5997 54.6798 17.5659V31.1187C54.6798 32.0849 55.4658 32.8709 56.432 32.8709H57.2962V34.1767H41.9067V31.1187H42.7716C43.7378 31.1187 44.5238 30.3326 44.5238 29.3665V23.8739C44.5238 22.9077 43.7378 22.1217 42.7716 22.1217H41.9067V20.2445C41.9067 19.7606 41.5146 19.3684 41.0306 19.3684C40.5466 19.3684 40.1545 19.7606 40.1545 20.2445V22.1217H39.2896C38.3234 22.1217 37.5374 22.9077 37.5374 23.8739V29.3665C37.5374 30.3326 38.3234 31.1187 39.2896 31.1187H40.1545V34.1767H40.0247L35.2318 29.3838C35.6721 29.0653 35.9604 28.5485 35.9604 27.9647V10.5568C35.9604 9.59063 35.1743 8.80458 34.2081 8.80458H33.3432V6.2267C33.3432 5.74273 32.9511 5.35059 32.4671 5.35059C31.9832 5.35059 31.591 5.74273 31.591 6.2267V8.80458H30.7261C29.7599 8.80458 28.9739 9.59063 28.9739 10.5568V20.0393C28.9739 20.5233 29.366 20.9155 29.85 20.9155C30.334 20.9155 30.7261 20.5233 30.7261 20.0393V10.5568H34.208L34.209 27.9647H34.208C34.0911 27.9647 33.9798 27.9885 33.8778 28.03L26.3242 20.4763C25.6623 19.8144 24.7822 19.4499 23.846 19.4499C22.9098 19.4499 22.0298 19.8144 21.368 20.4763L17.4873 24.3568L11.4602 18.3297C10.7985 17.6679 9.91821 17.3032 8.982 17.3032C8.0456 17.3032 7.16564 17.6679 6.50399 18.3295C5.842 18.9913 5.47754 19.8715 5.47754 20.8075C5.47736 21.7437 5.842 22.6237 6.50382 23.2857L15.0098 31.791ZM56.4323 17.5659H59.9142V31.1187H56.4323V17.5659ZM39.2899 23.8739H42.7718V29.3665H39.2899V23.8739ZM68.4773 22.8224V39.8805C68.4349 39.8805 68.3945 39.8872 68.3536 39.893L64.9957 36.535V22.8224H68.4773ZM7.74352 19.5683C8.07434 19.2373 8.51415 19.0551 8.98235 19.0551C9.45054 19.0551 9.89053 19.2373 10.2213 19.5683L16.8683 26.2153C17.2101 26.5575 17.7652 26.5575 18.1071 26.2153L22.6075 21.7152C22.9385 21.3842 23.3783 21.2019 23.8463 21.2019C24.3143 21.2019 24.7543 21.3842 25.0853 21.7152L39.0422 35.672C39.2065 35.8364 39.4292 35.9287 39.6616 35.9287H58.1688C58.17 35.9287 58.1711 35.9291 58.1723 35.9291C58.1735 35.9291 58.1746 35.9287 58.1758 35.9287H61.1858C61.6538 35.9287 62.0938 36.111 62.4248 36.442L63.4975 37.5145C63.4993 37.5162 63.501 37.518 63.5028 37.5199L77.4841 51.5013C77.7347 51.7522 78.112 51.8269 78.4388 51.6912C78.7663 51.5558 78.9797 51.2362 78.9797 50.8819V48.7482C78.9797 47.782 79.7657 46.996 80.7319 46.996C81.6981 46.996 82.4841 47.782 82.4841 48.7482V57.2272C82.4841 58.1934 81.6981 58.9795 80.7319 58.9795H72.2529C71.2867 58.9795 70.5006 58.1934 70.5006 57.2272C70.5006 56.2611 71.2867 55.475 72.2529 55.475H74.3866C74.7409 55.475 75.0605 55.2616 75.1959 54.9341C75.3315 54.6068 75.2567 54.2299 75.006 53.9795L60.7164 39.6899C60.552 39.5255 60.3293 39.4332 60.097 39.4332H38.5731C38.1053 39.4332 37.6651 39.251 37.3341 38.92L24.4661 26.0519C24.1242 25.7097 23.5691 25.7097 23.2273 26.0519L18.7268 30.552C18.396 30.883 17.9562 31.0652 17.488 31.0652C17.0202 31.0652 16.58 30.883 16.249 30.552L7.7437 22.0465C7.4127 21.7155 7.23047 21.2755 7.23047 20.8075C7.23047 20.3395 7.41253 19.8995 7.74352 19.5683Z" fill="#313131"/>
<path d="M14.0046 75.6951H11.15C10.6661 75.6951 10.2739 76.0872 10.2739 76.5712C10.2739 77.0551 10.6661 77.4473 11.15 77.4473H14.0046C14.4886 77.4473 14.8807 77.0551 14.8807 76.5712C14.8807 76.0872 14.4886 75.6951 14.0046 75.6951Z" fill="#313131"/>
<path d="M31.5601 75.6951H28.7057C28.2217 75.6951 27.8296 76.0872 27.8296 76.5712C27.8296 77.0551 28.2217 77.4473 28.7057 77.4473H31.5601C32.0441 77.4473 32.4362 77.0551 32.4362 76.5712C32.4362 76.0872 32.0441 75.6951 31.5601 75.6951Z" fill="#313131"/>
<path d="M49.1157 75.6951H46.2614C45.7774 75.6951 45.3853 76.0872 45.3853 76.5712C45.3853 77.0551 45.7774 77.4473 46.2614 77.4473H49.1157C49.5997 77.4473 49.9919 77.0551 49.9919 76.5712C49.9919 76.0872 49.5995 75.6951 49.1157 75.6951Z" fill="#313131"/>
<path d="M84.8056 78.2943L83.0963 72.4837C82.888 71.7648 82.2183 71.2628 81.4681 71.2628H76.0953C76.0902 71.1212 76.0686 70.9789 76.0271 70.8387L74.3185 65.0241C74.1072 64.3075 73.4373 63.807 72.6896 63.807H67.3175C67.3126 63.6654 67.2914 63.5233 67.2502 63.3828L65.5409 57.5722C65.3322 56.8524 64.6625 56.3495 63.9127 56.3495H58.5397C58.5344 56.2085 58.5129 56.0669 58.4715 55.9274L56.7627 50.1121C56.5509 49.3948 55.8819 48.8938 55.1358 48.8938H52.1938C51.7098 48.8938 51.3177 49.2859 51.3177 49.7699C51.3177 50.2539 51.7098 50.646 52.1938 50.646H55.0934L56.7692 56.3497H46.6466C46.6415 56.2088 46.6201 56.0671 46.5791 55.9274L45.0267 50.646H47.0947C47.5786 50.646 47.9708 50.2539 47.9708 49.7699C47.9708 49.2859 47.5786 48.8938 47.0947 48.8938L34.5794 48.8947C33.8319 48.8947 33.1625 49.3955 32.9514 50.1126V50.113L31.2421 55.9274C31.2009 56.0671 31.1797 56.2088 31.1746 56.3497H28.8815V52.6905C28.8815 50.7582 27.3094 49.1861 25.377 49.1861H11.7937C9.86136 49.1861 8.28926 50.7582 8.28926 52.6905V57.3977C8.28926 59.3301 9.86136 60.9022 11.7937 60.9022H23.1937L22.4639 63.3835C22.4229 63.5233 22.4017 63.6651 22.3966 63.8061H17.0239C16.2761 63.8061 15.6067 64.3071 15.396 65.0245L13.6867 70.8389C13.6455 70.9789 13.6241 71.1208 13.6192 71.2621H8.24633C7.49848 71.2621 6.82913 71.7628 6.61834 72.4802L4.90904 78.2946C4.75677 78.8126 4.85489 79.3575 5.17835 79.7898C5.50199 80.2221 5.99717 80.47 6.53703 80.47L83.1767 80.4707C83.7168 80.4707 84.2121 80.2228 84.5359 79.7903C84.8597 79.3579 84.9579 78.8128 84.8056 78.2943ZM74.3253 71.2628L64.2022 71.2621C64.1971 71.1208 64.1759 70.9789 64.1347 70.8389L62.5828 65.5592H72.6495L74.3253 71.2628ZM57.508 78.7178H55.4246C55.4195 78.5766 55.3981 78.4346 55.3571 78.2946L53.8048 73.0143H59.1281L57.5756 78.2946C57.5343 78.4346 57.5129 78.5766 57.508 78.7178ZM50.4996 71.2621L52.1763 65.5584L60.7561 65.5592L62.4326 71.2621H50.4996ZM39.9524 78.7178H37.869C37.8639 78.5766 37.8425 78.4346 37.8015 78.2946L36.2491 73.0143H38.1977H41.5723L40.02 78.2946C39.9788 78.4346 39.9575 78.5766 39.9524 78.7178ZM32.9442 71.2621L34.6207 65.5592L43.2005 65.5584L44.8772 71.2621H32.9442ZM29.0237 70.8389L27.4714 65.5592H32.7944L31.2422 70.8389C31.2011 70.9789 31.1797 71.1208 31.1748 71.2621H29.0914C29.0861 71.1208 29.0649 70.9789 29.0237 70.8389ZM37.8021 63.3828L36.2489 58.1026H41.5721L40.0198 63.383C39.9787 63.523 39.9573 63.6649 39.9524 63.8061H37.8697C37.8646 63.6649 37.8432 63.523 37.8021 63.3828ZM51.9783 58.1026L53.655 63.8061H41.7218L43.3985 58.1026H51.9783ZM46.5791 70.8389L45.0268 65.5584H50.3499L48.7976 70.8389C48.7565 70.9789 48.7351 71.1208 48.7302 71.2621H46.6468C46.6417 71.1208 46.6203 70.9789 46.5791 70.8389ZM63.8703 58.1018L65.5484 63.807L55.4244 63.8061C55.4193 63.6649 55.3979 63.523 55.3569 63.383L53.8043 58.1018H63.8703ZM34.6209 50.6467H43.2005L44.8772 56.3504L32.9443 56.3495L34.6209 50.6467ZM10.0417 57.3977V52.6905C10.0417 51.7243 10.8277 50.9383 11.7939 50.9383H25.3772C26.3433 50.9383 27.1294 51.7243 27.1294 52.6905V57.3977C27.1294 58.3639 26.3433 59.1499 25.3772 59.1499H11.7939C10.8277 59.1499 10.0417 58.3637 10.0417 57.3977ZM25.0204 60.9022H25.3772C27.0684 60.9022 28.4837 59.6979 28.8105 58.1019L34.4227 58.1028L36.1003 63.8063H24.1666L25.0204 60.9022ZM17.0655 65.5584L25.6451 65.5592L27.3218 71.2621H15.3886L17.0655 65.5584ZM22.397 78.7178H20.3134C20.3083 78.5766 20.2869 78.4346 20.2459 78.2946L18.6936 73.0143H20.6423H24.0169L22.4646 78.2946C22.4233 78.4346 22.4019 78.5766 22.397 78.7178ZM6.61098 78.7178L8.28768 73.0143H16.8671L18.5438 78.7178H6.61098ZM24.1664 78.7178L25.8431 73.0143H34.4225L36.0994 78.7178H24.1664ZM41.7218 78.7178L43.3985 73.0143H51.9781L53.6548 78.7178H41.7218ZM59.2774 78.7178L60.9543 73.0143L69.5339 73.015L71.2104 78.7178H59.2774ZM72.98 78.7185C72.9749 78.5771 72.9537 78.435 72.9125 78.2946L71.3604 73.015H81.4262L83.1038 78.7185H72.98Z" fill="#313131"/>
<path d="M66.6714 75.6951H63.817C63.3331 75.6951 62.9409 76.0872 62.9409 76.5712C62.9409 77.0551 63.3331 77.4473 63.817 77.4473H66.6714C67.1554 77.4473 67.5475 77.0551 67.5475 76.5712C67.5475 76.0872 67.1554 75.6951 66.6714 75.6951Z" fill="#313131"/>
<path d="M19.9279 69.9912H22.7824C23.2664 69.9912 23.6585 69.5991 23.6585 69.1151C23.6585 68.6312 23.2664 68.239 22.7824 68.239H19.9279C19.4439 68.239 19.0518 68.6312 19.0518 69.1151C19.0518 69.5991 19.4439 69.9912 19.9279 69.9912Z" fill="#313131"/>
<path d="M40.3379 68.239H37.4835C36.9996 68.239 36.6074 68.6312 36.6074 69.1151C36.6074 69.5991 36.9996 69.9912 37.4835 69.9912H40.3379C40.8219 69.9912 41.214 69.5991 41.214 69.1151C41.214 68.6312 40.8219 68.239 40.3379 68.239Z" fill="#313131"/>
<path d="M57.8931 68.239H55.0387C54.5547 68.239 54.1626 68.6312 54.1626 69.1151C54.1626 69.5991 54.5547 69.9912 55.0387 69.9912H57.8931C58.3771 69.9912 58.7692 69.5991 58.7692 69.1151C58.7692 68.6312 58.3771 68.239 57.8931 68.239Z" fill="#313131"/>
<path d="M28.7057 62.5357H31.5601C32.0441 62.5357 32.4362 62.1435 32.4362 61.6596C32.4362 61.1756 32.0441 60.7834 31.5601 60.7834H28.7057C28.2217 60.7834 27.8296 61.1756 27.8296 61.6596C27.8296 62.1435 28.2219 62.5357 28.7057 62.5357Z" fill="#313131"/>
<path d="M46.2614 62.5357H49.1157C49.5997 62.5357 49.9919 62.1435 49.9919 61.6596C49.9919 61.1756 49.5997 60.7834 49.1157 60.7834H46.2614C45.7774 60.7834 45.3853 61.1756 45.3853 61.6596C45.3853 62.1435 45.7774 62.5357 46.2614 62.5357Z" fill="#313131"/>
<path d="M37.4835 55.0796H40.3379C40.8219 55.0796 41.214 54.6875 41.214 54.2035C41.214 53.7195 40.8219 53.3274 40.3379 53.3274H37.4835C36.9996 53.3274 36.6074 53.7195 36.6074 54.2035C36.6074 54.6875 36.9996 55.0796 37.4835 55.0796Z" fill="#313131"/>
<path d="M9.16567 39.0789H12.4217C12.9056 39.0789 13.2978 38.6867 13.2978 38.2028C13.2978 37.7188 12.9056 37.3267 12.4217 37.3267H9.16567C8.6817 37.3267 8.28955 37.7188 8.28955 38.2028C8.28955 38.6867 8.6817 39.0789 9.16567 39.0789Z" fill="#313131"/>
<path d="M19.4306 40.8979H9.16567C8.6817 40.8979 8.28955 41.2901 8.28955 41.7741C8.28955 42.258 8.6817 42.6502 9.16567 42.6502H19.4306C19.9145 42.6502 20.3067 42.258 20.3067 41.7741C20.3067 41.2901 19.9144 40.8979 19.4306 40.8979Z" fill="#313131"/>
<path d="M19.4306 44.4692H9.16567C8.6817 44.4692 8.28955 44.8614 8.28955 45.3454C8.28955 45.8293 8.6817 46.2215 9.16567 46.2215H19.4306C19.9145 46.2215 20.3067 45.8293 20.3067 45.3454C20.3067 44.8614 19.9144 44.4692 19.4306 44.4692Z" fill="#313131"/>
<path d="M68.3617 11.7025C68.1376 11.7025 67.9131 11.617 67.7423 11.4458L66.8723 10.576L66.0023 11.4458C65.6605 11.788 65.1054 11.788 64.7635 11.4458C64.4213 11.1038 64.4213 10.549 64.7635 10.207L66.2529 8.7176C66.5948 8.37538 67.1499 8.37538 67.4917 8.7176L68.9811 10.207C69.3233 10.549 69.3233 11.1038 68.9811 11.4458C68.8101 11.6168 68.5858 11.7025 68.3617 11.7025Z" fill="#585972"/>
<path d="M22.8446 7.745C22.6205 7.745 22.396 7.65949 22.2252 7.4883L21.3552 6.61849L20.4852 7.4883C20.1434 7.83051 19.5883 7.83051 19.2464 7.4883C18.9042 7.14626 18.9042 6.59151 19.2464 6.24947L20.7358 4.76008C21.0777 4.41787 21.6328 4.41787 21.9746 4.76008L23.464 6.24947C23.8062 6.59151 23.8062 7.14626 23.464 7.4883C23.2932 7.65931 23.0687 7.745 22.8446 7.745Z" fill="#585972"/>
<path d="M26.1254 38.4291C25.9013 38.4291 25.6768 38.3436 25.506 38.1724L24.636 37.3026L23.766 38.1724C23.4241 38.5146 22.869 38.5146 22.5272 38.1724C22.185 37.8303 22.185 37.2756 22.5272 36.9335L24.0166 35.4442C24.3584 35.1019 24.9135 35.1019 25.2554 35.4442L26.7448 36.9335C27.087 37.2756 27.087 37.8303 26.7448 38.1724C26.5738 38.3436 26.3495 38.4291 26.1254 38.4291Z" fill="#585972"/>
<path d="M5.36404 65.3861C5.21405 65.3861 5.06178 65.3474 4.92283 65.2663L4.90549 65.2561C4.48775 65.012 4.34687 64.4755 4.59096 64.0576C4.83505 63.6399 5.37175 63.499 5.78949 63.7431L5.80683 63.7532C6.22456 63.9973 6.36544 64.5338 6.12136 64.9517C5.95858 65.2305 5.66525 65.3861 5.36404 65.3861Z" fill="#585972"/>
<path d="M9.72732 67.9053C9.57733 67.9053 9.42507 67.8666 9.28611 67.7855L9.26877 67.7753C8.85103 67.5312 8.71016 66.9947 8.95424 66.5768C9.19833 66.1591 9.73504 66.0184 10.1528 66.2623L10.1701 66.2724C10.5878 66.5165 10.7287 67.0531 10.4846 67.471C10.3217 67.7497 10.0284 67.9053 9.72732 67.9053Z" fill="#585972"/>
<path d="M5.36404 65.3861C5.21405 65.3861 5.06178 65.3474 4.92283 65.2663L4.90549 65.2561C4.48775 65.012 4.34687 64.4755 4.59096 64.0576C4.83505 63.6399 5.37175 63.499 5.78949 63.7431L5.80683 63.7532C6.22456 63.9973 6.36544 64.5338 6.12136 64.9517C5.95858 65.2305 5.66525 65.3861 5.36404 65.3861Z" fill="#585972"/>
<path d="M9.72732 67.9053C9.57733 67.9053 9.42507 67.8666 9.28611 67.7855L9.26877 67.7753C8.85103 67.5312 8.71016 66.9947 8.95424 66.5768C9.19833 66.1591 9.73504 66.0184 10.1528 66.2623L10.1701 66.2724C10.5878 66.5165 10.7287 67.0531 10.4846 67.471C10.3217 67.7497 10.0284 67.9053 9.72732 67.9053Z" fill="#585972"/>
<path d="M9.71155 65.3862C9.41017 65.3862 9.11702 65.2306 8.95424 64.9518C8.71016 64.5339 8.85103 63.9974 9.26877 63.7533L9.28611 63.7431C9.7042 63.4994 10.2406 63.6401 10.4846 64.0576C10.7287 64.4755 10.5878 65.0121 10.1701 65.2562L10.1528 65.2663C10.0136 65.3475 9.86155 65.3862 9.71155 65.3862Z" fill="#585972"/>
<path d="M5.34876 67.9053C5.04738 67.9053 4.75423 67.7497 4.59145 67.4709C4.34736 67.053 4.48824 66.5165 4.90597 66.2724L4.92332 66.2622C5.3414 66.0183 5.87776 66.1592 6.12185 66.5768C6.36593 66.9947 6.22505 67.5312 5.80732 67.7753L5.78997 67.7854C5.65102 67.8666 5.49893 67.9053 5.34876 67.9053Z" fill="#585972"/>
<path d="M9.71155 65.3862C9.41017 65.3862 9.11702 65.2306 8.95424 64.9518C8.71016 64.5339 8.85103 63.9974 9.26877 63.7533L9.28611 63.7431C9.7042 63.4994 10.2406 63.6401 10.4846 64.0576C10.7287 64.4755 10.5878 65.0121 10.1701 65.2562L10.1528 65.2663C10.0136 65.3475 9.86155 65.3862 9.71155 65.3862Z" fill="#585972"/>
<path d="M5.34876 67.9053C5.04738 67.9053 4.75423 67.7497 4.59145 67.4709C4.34736 67.053 4.48824 66.5165 4.90597 66.2724L4.92332 66.2622C5.3414 66.0183 5.87776 66.1592 6.12185 66.5768C6.36593 66.9947 6.22505 67.5312 5.80732 67.7753L5.78997 67.7854C5.65102 67.8666 5.49893 67.9053 5.34876 67.9053Z" fill="#585972"/>
<path d="M7.53822 64.1313C7.05426 64.1313 6.66211 63.7392 6.66211 63.2552V63.2352C6.66211 62.7513 7.05426 62.3591 7.53822 62.3591C8.02219 62.3591 8.41434 62.7513 8.41434 63.2352V63.2552C8.41434 63.739 8.02201 64.1313 7.53822 64.1313Z" fill="#585972"/>
<path d="M7.53822 69.1694C7.05426 69.1694 6.66211 68.7773 6.66211 68.2933V68.2733C6.66211 67.7894 7.05426 67.3972 7.53822 67.3972C8.02219 67.3972 8.41434 67.7894 8.41434 68.2733V68.2933C8.41434 68.7773 8.02201 69.1694 7.53822 69.1694Z" fill="#585972"/>
<path d="M75.2288 8.27521C75.0788 8.27521 74.9265 8.23648 74.7876 8.15535L74.7702 8.14519C74.3525 7.90111 74.2116 7.36457 74.4557 6.94667C74.6998 6.52894 75.2363 6.38823 75.6542 6.63214L75.6716 6.64231C76.0893 6.88639 76.2302 7.42292 75.9861 7.84083C75.8233 8.11961 75.53 8.27521 75.2288 8.27521Z" fill="#585972"/>
<path d="M79.592 10.7942C79.4439 10.7942 79.2941 10.7567 79.1565 10.6776L79.1392 10.6677C78.7195 10.4267 78.5748 9.89107 78.8157 9.47158C79.0568 9.0521 79.5921 8.90684 80.0118 9.14812L80.0292 9.15811C80.4488 9.39904 80.5935 9.9347 80.3526 10.3542C80.1905 10.6363 79.8956 10.7942 79.592 10.7942Z" fill="#585972"/>
<path d="M75.2288 8.27521C75.0788 8.27521 74.9265 8.23648 74.7876 8.15535L74.7702 8.14519C74.3525 7.90111 74.2116 7.36457 74.4557 6.94667C74.6998 6.52894 75.2363 6.38823 75.6542 6.63214L75.6716 6.64231C76.0893 6.88639 76.2302 7.42292 75.9861 7.84083C75.8233 8.11961 75.53 8.27521 75.2288 8.27521Z" fill="#585972"/>
<path d="M79.592 10.7942C79.4439 10.7942 79.2941 10.7567 79.1565 10.6776L79.1392 10.6677C78.7195 10.4267 78.5748 9.89107 78.8157 9.47158C79.0568 9.0521 79.5921 8.90684 80.0118 9.14812L80.0292 9.15811C80.4488 9.39904 80.5935 9.9347 80.3526 10.3542C80.1905 10.6363 79.8956 10.7942 79.592 10.7942Z" fill="#585972"/>
<path d="M79.5768 8.27517C79.2754 8.27517 78.9823 8.11957 78.8195 7.84079C78.5754 7.42288 78.7163 6.88635 79.134 6.64227L79.1513 6.6321C79.5694 6.38819 80.106 6.52907 80.3499 6.94663C80.594 7.36453 80.4531 7.90107 80.0354 8.14515L80.018 8.15532C79.8789 8.23644 79.7268 8.27517 79.5768 8.27517Z" fill="#585972"/>
<path d="M75.2131 10.7939C74.9096 10.7939 74.6145 10.6361 74.4524 10.3539C74.2115 9.93429 74.3562 9.39881 74.7759 9.15788L74.7933 9.14789C75.2133 8.90713 75.7484 9.05187 75.9893 9.47135C76.2303 9.89101 76.0855 10.4265 75.6659 10.6674L75.6485 10.6774C75.511 10.7563 75.361 10.7939 75.2131 10.7939Z" fill="#585972"/>
<path d="M79.5768 8.27517C79.2754 8.27517 78.9823 8.11957 78.8195 7.84079C78.5754 7.42288 78.7163 6.88635 79.134 6.64227L79.1513 6.6321C79.5694 6.38819 80.106 6.52907 80.3499 6.94663C80.594 7.36453 80.4531 7.90107 80.0354 8.14515L80.018 8.15532C79.8789 8.23644 79.7268 8.27517 79.5768 8.27517Z" fill="#585972"/>
<path d="M75.2131 10.7939C74.9096 10.7939 74.6145 10.6361 74.4524 10.3539C74.2115 9.93429 74.3562 9.39881 74.7759 9.15788L74.7933 9.14789C75.2133 8.90713 75.7484 9.05187 75.9893 9.47135C76.2303 9.89101 76.0855 10.4265 75.6659 10.6674L75.6485 10.6774C75.511 10.7563 75.361 10.7939 75.2131 10.7939Z" fill="#585972"/>
<path d="M77.403 7.0205C76.919 7.0205 76.5269 6.62835 76.5269 6.14438V6.12441C76.5269 5.64044 76.919 5.24829 77.403 5.24829C77.8869 5.24829 78.2791 5.64044 78.2791 6.12441V6.14438C78.2791 6.62835 77.8869 7.0205 77.403 7.0205Z" fill="#585972"/>
<path d="M77.403 12.0588C76.919 12.0588 76.5269 11.6667 76.5269 11.1827V11.1627C76.5269 10.6788 76.919 10.2866 77.403 10.2866C77.8869 10.2866 78.2791 10.6788 78.2791 11.1627V11.1827C78.2791 11.6667 77.8869 12.0588 77.403 12.0588Z" fill="#585972"/>
<defs>
<linearGradient id="paint0_linear" x1="1.76804e-07" y1="43.0134" x2="89.7141" y2="43.0134" gradientUnits="userSpaceOnUse">
<stop stop-color="#313131" stop-opacity="0"/>
<stop offset="1" stop-color="#313131"/>
</linearGradient>
</defs>
</svg>
