<svg width="85" height="88" viewBox="0 0 88 86" fill="none" xmlns="http://www.w3.org/2000/svg">
<path d="M48.559 1.13119C56.1765 4.83753 58.1916 13.961 61.6557 20.9944C66.1124 30.0435 70.998 29.6553 79.1165 33.3054C86.4886 36.6199 88.3772 46.2124 86.7154 53.6193C80.477 81.4227 59.5297 44.9534 50.6519 67.7381C47.6637 75.4071 44.5569 79.6158 36.5224 82.6144C22.3775 87.8936 5.00288 88.3521 0.276325 70.9872C-2.53032 60.676 16.7901 55.509 24.4131 53.9817C31.034 52.6552 54.095 48.3292 50.6633 39.5808C49.1089 35.6181 30.2001 39.3039 24.9371 36.9792C19.1824 34.4371 19.2081 28.802 23.7095 24.9557C25.6474 23.2999 27.7924 21.7754 29.1225 19.6008C30.6012 17.1834 30.9709 14.2564 31.2843 11.4398C32.794 -2.127 44.9128 -0.642799 48.559 1.13119Z" fill="url(#paint0_linear)"/>
<path opacity="0.1" d="M65.3064 45.3705C69.8047 41.8097 72.7085 36.3088 72.7124 30.1567C72.7194 19.4208 64.015 10.7164 53.2792 10.7234C42.6645 10.7302 33.9865 19.3675 33.874 29.9381C31.9885 29.3216 29.9788 28.9858 27.8937 28.9846C17.1579 28.9776 8.45363 37.682 8.46045 48.4178C8.46744 59.1548 17.3047 67.9116 28.0413 67.8247C31.4923 67.7967 34.7289 66.8684 37.5277 65.2635L40.0583 65.6457C40.3159 68.4922 41.1854 71.1623 42.5379 73.5208L41.5405 80.125C41.3987 81.0639 42.2065 81.8717 43.1454 81.7299L49.7496 80.7325C52.5484 82.3376 55.7848 83.2657 59.2359 83.2937C69.9726 83.3806 78.8098 74.6239 78.8168 63.8869C78.8223 55.2165 73.1457 47.8724 65.3064 45.3705Z" fill="#313131"/>
<path d="M59.3823 40.3626C48.6453 40.3695 39.8885 49.2068 39.9752 59.9434C40.0032 63.3946 40.9315 66.631 42.5364 69.4298L41.5391 76.034C41.3972 76.9729 42.2051 77.7807 43.144 77.6389L49.7481 76.6415C52.5469 78.2465 55.7833 79.1747 59.2345 79.2027C69.9711 79.2896 78.8084 70.5328 78.8154 59.7958C78.8223 49.0602 70.1179 40.3557 59.3823 40.3626Z" fill="#FDFAF6"/>
<path d="M59.3948 75.2522C67.9381 75.2522 74.8638 68.3265 74.8638 59.7832C74.8638 51.2399 67.9381 44.3142 59.3948 44.3142C50.8515 44.3142 43.9258 51.2399 43.9258 59.7832C43.9258 68.3265 50.8515 75.2522 59.3948 75.2522Z" fill="#585972"/>
<path d="M69.8888 71.1473C67.1319 73.6955 63.4443 75.2523 59.3944 75.2523C55.343 75.2523 51.6568 73.6955 48.8999 71.1459L50.265 64.8763C50.3551 64.4632 50.6175 64.1064 50.9855 63.8964L57.5455 60.1764V57.9399H61.2444V60.1764L67.803 63.8964C68.1724 64.1065 68.4334 64.4633 68.5251 64.8763L69.8888 71.1473Z" fill="#FDFAF6"/>
<path d="M54.815 51.4744L54.978 54.8521C55.0917 57.209 57.0358 59.0615 59.3953 59.0615C61.755 59.0615 63.6989 57.209 63.8126 54.8521L63.9756 51.4744C64.1019 48.858 62.0146 46.6677 59.3953 46.6677C56.776 46.6677 54.6889 48.8582 54.815 51.4744Z" fill="#FDFAF6"/>
<path d="M27.8926 24.8936C38.6296 24.9005 47.3864 33.7378 47.2996 44.4744C47.2716 47.9256 46.3433 51.162 44.7384 53.9608L45.7358 60.565C45.8776 61.5039 45.0698 62.3117 44.1309 62.1699L37.5267 61.1725C34.7279 62.7775 31.4915 63.7057 28.0404 63.7337C17.3037 63.8206 8.46647 55.0638 8.45948 44.3268C8.45249 33.5912 17.1569 24.8867 27.8926 24.8936Z" fill="#585972"/>
<path d="M27.8792 59.783C36.4225 59.783 43.3482 52.8573 43.3482 44.314C43.3482 35.7707 36.4225 28.845 27.8792 28.845C19.3359 28.845 12.4102 35.7707 12.4102 44.314C12.4102 52.8573 19.3359 59.783 27.8792 59.783Z" fill="#FDFAF6"/>
<path d="M17.3853 55.6783C20.1421 58.2265 23.8297 59.7833 27.8797 59.7833C31.9311 59.7833 35.6173 58.2265 38.3742 55.6769L37.0091 49.4074C36.9189 48.9942 36.6566 48.6374 36.2886 48.4274L29.7285 44.7074V42.4709H26.0297V44.7074L19.471 48.4274C19.1016 48.6376 18.8407 48.9943 18.7489 49.4074L17.3853 55.6783Z" fill="#585972"/>
<path d="M32.459 36.0052L32.296 39.3828C32.1823 41.7398 30.2382 43.5922 27.8787 43.5922C25.519 43.5922 23.5751 41.7398 23.4614 39.3828L23.2984 36.0052C23.1721 33.3887 25.2594 31.1985 27.8787 31.1985C30.498 31.1985 32.5851 33.3889 32.459 36.0052Z" fill="#585972"/>
<path d="M53.2783 6.63257C42.5412 6.63956 33.7845 15.4768 33.8712 26.2135C33.8992 29.6646 34.8275 32.901 36.4324 35.6998L35.4351 42.304C35.2932 43.2429 36.101 44.0507 37.0399 43.9089L43.6441 42.9115C46.4429 44.5166 49.6793 45.4447 53.1305 45.4727C63.8671 45.5596 72.7044 36.8029 72.7114 26.0658C72.7185 15.33 64.0141 6.62558 53.2783 6.63257Z" fill="#FDFAF6"/>
<path d="M53.2913 41.5218C61.8346 41.5218 68.7603 34.5961 68.7603 26.0528C68.7603 17.5095 61.8346 10.5837 53.2913 10.5837C44.748 10.5837 37.8223 17.5095 37.8223 26.0528C37.8223 34.5961 44.748 41.5218 53.2913 41.5218Z" fill="#585972"/>
<path d="M63.7848 37.4175C61.0279 39.9658 57.3403 41.5226 53.2903 41.5226C49.239 41.5226 45.5528 39.9658 42.7959 37.4162L44.161 31.1466C44.2511 30.7334 44.5135 30.3766 44.8815 30.1666L51.4415 26.4467V24.2102H55.1404V26.4467L61.699 30.1666C62.0684 30.3768 62.3294 30.7336 62.4211 31.1466L63.7848 37.4175Z" fill="#FDFAF6"/>
<path d="M48.711 17.7444L48.874 21.1221C48.9877 23.4789 50.9318 25.3315 53.2913 25.3315C55.651 25.3315 57.5949 23.4791 57.7086 21.1221L57.8716 17.7444C57.9979 15.128 55.9106 12.9377 53.2913 12.9377C50.672 12.9377 48.5847 15.128 48.711 17.7444Z" fill="#FDFAF6"/>
<path d="M70.1842 42.6177C69.7859 42.3668 69.2596 42.4866 69.0089 42.8846C68.758 43.283 68.8775 43.8092 69.2758 44.0601C74.72 47.4888 77.968 53.3713 77.9639 59.7954C77.9607 64.7582 76.0029 69.4304 72.4512 72.9513C68.8983 76.4734 64.2014 78.3936 59.2421 78.3505C56.0572 78.3247 52.9213 77.4782 50.1731 75.9023C50.0062 75.8065 49.8117 75.7702 49.622 75.799L43.0178 76.7964C42.8414 76.8235 42.6667 76.7659 42.5398 76.6392C42.4134 76.5126 42.3561 76.3385 42.3828 76.1614L43.3802 69.5572C43.4088 69.3672 43.3724 69.1728 43.2769 69.006C42.1277 67.002 41.3764 64.8382 41.036 62.5646L43.3783 62.9183C44.0726 66.4847 45.954 69.7379 48.7243 72.1338C51.6856 74.6948 55.4753 76.1052 59.3957 76.1052C68.3956 76.1052 75.7174 68.7833 75.7174 59.7835C75.7174 55.509 74.0764 51.4679 71.0965 48.4044C68.856 46.1009 66.0427 44.539 62.9712 43.8547C64.6258 42.9472 66.1659 41.8014 67.5474 40.4319C71.4242 36.5888 73.5611 31.4871 73.5646 26.0666C73.5682 20.6464 71.4594 15.5508 67.627 11.7182C63.7976 7.88878 58.7074 5.78052 53.292 5.78052C53.2879 5.78052 53.283 5.78052 53.2787 5.78052C47.8581 5.7841 42.7563 7.921 38.9133 11.7978C35.069 15.6758 32.9763 20.7978 33.0201 26.2205C33.0272 27.1151 33.0956 28.0058 33.2199 28.8871C31.51 28.2938 29.7206 27.9926 27.8814 27.9926C18.8815 27.9926 11.5597 35.3145 11.5597 44.3143C11.5597 53.3141 18.8815 60.636 27.8814 60.636C36.8812 60.636 44.203 53.3141 44.203 44.3143C44.203 44.2679 44.2003 44.2209 44.2 44.1744C44.9237 44.5376 45.6681 44.8571 46.4292 45.1303C46.3004 48.0829 45.465 50.9829 44.0002 53.5371C43.9045 53.704 43.8682 53.8982 43.8969 54.0884L44.8942 60.6926C44.921 60.8695 44.8637 61.0437 44.7373 61.1702C44.6106 61.297 44.4364 61.3543 44.2593 61.3274L37.6551 60.33C37.4654 60.3014 37.2707 60.3377 37.104 60.4333C34.356 62.0092 31.2198 62.8557 28.0349 62.8816C27.9836 62.882 27.933 62.8823 27.882 62.8823C22.974 62.8823 18.3422 60.968 14.8261 57.4824C11.2742 53.9616 9.31642 49.2894 9.31319 44.3264C9.30995 39.3619 11.2414 34.6947 14.7516 31.1844C18.259 27.6769 22.9211 25.746 27.8808 25.746H27.8931C28.2726 25.7463 28.6714 25.7598 29.079 25.786C29.5519 25.8145 29.9543 25.4601 29.9845 24.9903C30.0149 24.5207 29.6588 24.1152 29.189 24.0848C28.7453 24.0562 28.3099 24.0415 27.8943 24.0412C27.8897 24.0412 27.8855 24.0412 27.881 24.0412C22.466 24.0412 17.3753 26.1498 13.5461 29.9789C9.7136 33.8113 7.60482 38.9071 7.6084 44.3273C7.61198 49.7478 9.74906 54.8497 13.6257 58.6925C17.464 62.4972 22.5205 64.5866 27.8815 64.5864C27.9369 64.5864 27.9928 64.5862 28.0486 64.5857C31.4254 64.5583 34.7523 63.6855 37.6906 62.0586L39.2799 62.2986C39.5982 64.873 40.3941 67.3238 41.6512 69.5922L40.6977 75.9061C40.5892 76.624 40.8216 77.3303 41.3348 77.8437C41.8483 78.3571 42.554 78.5898 43.2726 78.481L49.5867 77.5275C52.5251 79.1544 55.852 80.0271 59.2288 80.0544C59.2848 80.0547 59.3402 80.0551 59.3959 80.0551C64.7566 80.0549 69.8136 77.9657 73.6516 74.1612C77.5284 70.3182 79.6653 65.2164 79.6689 59.7959C79.6731 52.7826 76.1277 46.3607 70.1842 42.6177ZM74.0126 59.7833C74.0126 65.2807 70.9608 70.077 66.4636 72.5723L65.9443 68.461C65.8895 68.0422 65.5073 67.7461 65.0869 67.801C64.6681 67.856 64.372 68.2396 64.4283 68.6584L65.024 73.2718C63.2906 73.9977 61.3893 74.4004 59.3954 74.4004C57.4185 74.4004 55.5138 73.9928 53.769 73.2551L54.3639 68.6584C54.4189 68.2396 54.1242 67.856 53.7052 67.801C53.285 67.7474 52.9015 68.0422 52.8464 68.461L52.3369 72.5531C48.7388 70.5483 46.023 67.0695 45.114 62.9017C45.4193 62.7906 45.7017 62.6149 45.9416 62.3752C46.455 61.8618 46.6872 61.1555 46.5787 60.4377L45.7062 54.6598C47.1113 50.9059 50.01 47.8821 53.7035 46.3206C55.8783 46.277 57.9988 45.8892 60.0036 45.1821C67.8729 45.5024 74.0126 51.8818 74.0126 59.7833ZM40.1237 12.9975C43.6444 9.44578 48.3166 7.48803 53.2796 7.48479H53.2919C58.2516 7.48479 62.9142 9.41612 66.4213 12.9234C69.9316 16.4335 71.8629 21.1009 71.8597 26.0652C71.8564 31.0282 69.8987 35.7002 66.347 39.2213C62.8305 42.707 58.1996 44.6211 53.2912 44.6211C53.2402 44.6211 53.1889 44.621 53.1381 44.6205C49.953 44.5947 46.8171 43.7482 44.0689 42.1723C43.9392 42.0978 43.7929 42.0593 43.6449 42.0593C43.6025 42.0593 43.56 42.0625 43.5176 42.0688L36.9136 43.0662C36.737 43.0929 36.5624 43.0357 36.4358 42.909C36.3091 42.7824 36.2519 42.6082 36.2786 42.4312L37.276 35.827C37.3046 35.6368 37.2682 35.4426 37.1727 35.2758C35.5966 32.5274 34.7501 29.3913 34.7245 26.2065C34.6841 21.2414 36.6016 16.5503 40.1237 12.9975ZM34.942 57.1069L34.4296 52.992C34.3746 52.5732 33.991 52.2784 33.5708 52.332C33.152 52.387 32.8573 52.7705 32.9122 53.1894L33.5093 57.8024C31.7759 58.5284 29.8746 58.9308 27.8808 58.9308C25.887 58.9308 23.9856 58.5284 22.2522 57.8022L22.848 53.1892C22.9044 52.7704 22.6083 52.3868 22.1895 52.3318C21.7693 52.2767 21.3871 52.573 21.3321 52.9918L20.8128 57.1028C16.3157 54.6074 13.2638 49.8112 13.2638 44.3138C13.2638 36.2539 19.8211 29.6967 27.8808 29.6967C29.8676 29.6967 31.7887 30.0871 33.5978 30.8572C34.0224 32.6021 34.6751 34.2881 35.5465 35.8622L34.5929 42.1764C34.4847 42.8944 34.717 43.6006 35.2305 44.114C35.7441 44.6273 36.4503 44.8598 37.1677 44.7512L42.4897 43.9475C42.4928 44.0697 42.4979 44.1926 42.4979 44.3136C42.4981 49.8142 39.4431 54.6127 34.942 57.1069ZM50.4593 46.1253C49.474 46.7707 48.5656 47.5205 47.7454 48.3568C47.9266 47.466 48.0473 46.562 48.1073 45.6524C48.8801 45.8563 49.666 46.0136 50.4593 46.1253Z" fill="#313131"/>
<path d="M53.292 42.3741C62.2915 42.3741 69.6132 35.0524 69.6132 26.0528C69.6132 17.0531 62.2915 9.73145 53.292 9.73145C44.2924 9.73145 36.9707 17.0533 36.9707 26.0528C36.9707 35.0523 44.2924 42.3741 53.292 42.3741ZM53.292 11.4361C61.3516 11.4361 67.9086 17.993 67.9086 26.0528C67.9086 31.5501 64.8568 36.3462 60.3595 38.8416L59.8403 34.7308C59.7852 34.312 59.4032 34.0159 58.9829 34.0708C58.5641 34.1258 58.268 34.5094 58.3242 34.9282L58.92 39.541C57.1867 40.267 55.2856 40.6695 53.2919 40.6695C51.2978 40.6695 49.3965 40.267 47.6631 39.5409L48.26 34.9284C48.3151 34.5095 48.0203 34.126 47.6015 34.0709C47.1813 34.0174 46.7978 34.3121 46.7427 34.731L46.2305 38.8452C41.73 36.3508 38.6753 31.5527 38.6753 26.0529C38.6753 17.9932 45.2324 11.4361 53.292 11.4361Z" fill="#313131"/>
<path d="M65.9885 60.0059H70.5098C70.9807 60.0059 71.3622 59.6244 71.3622 59.1536C71.3622 58.6828 70.9807 58.3013 70.5098 58.3013H65.9885C65.5179 58.3013 65.1362 58.6828 65.1362 59.1536C65.1362 59.6244 65.5179 60.0059 65.9885 60.0059Z" fill="#313131"/>
<path d="M68.7161 56.9334H70.51C70.9808 56.9334 71.3623 56.5519 71.3623 56.0811C71.3623 55.6103 70.9808 55.2288 70.51 55.2288H68.7161C68.2454 55.2288 67.8638 55.6103 67.8638 56.0811C67.8638 56.5519 68.2454 56.9334 68.7161 56.9334Z" fill="#313131"/>
<path d="M46.8036 25.5755C46.8036 25.1046 46.4219 24.7231 45.9513 24.7231H41.4299C40.9591 24.7231 40.5776 25.1046 40.5776 25.5755C40.5776 26.0463 40.9591 26.4278 41.4299 26.4278H45.9513C46.4219 26.4278 46.8036 26.0463 46.8036 25.5755Z" fill="#313131"/>
<path d="M41.4299 23.3552H43.2239C43.6945 23.3552 44.0762 22.9738 44.0762 22.5029C44.0762 22.0321 43.6945 21.6506 43.2239 21.6506H41.4299C40.9591 21.6506 40.5776 22.0321 40.5776 22.5029C40.5776 22.9738 40.9591 23.3552 41.4299 23.3552Z" fill="#313131"/>
<path d="M20.9239 42.9841H16.4026C15.9318 42.9841 15.5503 43.3656 15.5503 43.8364C15.5503 44.3073 15.9318 44.6887 16.4026 44.6887H20.9239C21.3946 44.6887 21.7762 44.3073 21.7762 43.8364C21.7762 43.3656 21.3946 42.9841 20.9239 42.9841Z" fill="#313131"/>
<path d="M16.4026 41.6162H18.1965C18.6672 41.6162 19.0488 41.2347 19.0488 40.7639C19.0488 40.2931 18.6672 39.9116 18.1965 39.9116H16.4026C15.9318 39.9116 15.5503 40.2931 15.5503 40.7639C15.5503 41.2347 15.9318 41.6162 16.4026 41.6162Z" fill="#313131"/>
<path d="M26.4937 15.5795C26.2757 15.5795 26.0573 15.4964 25.8911 15.33L24.1012 13.5401C23.7683 13.2072 23.7683 12.6675 24.1012 12.3348L25.8911 10.545C26.2237 10.2122 26.7637 10.2122 27.0962 10.545L28.8861 12.3348C29.219 12.6677 29.219 13.2074 28.8861 13.5401L27.0962 15.33C26.9299 15.4962 26.7117 15.5795 26.4937 15.5795ZM25.9092 12.9374L26.4937 13.5219L27.0782 12.9374L26.4937 12.3529L25.9092 12.9374Z" fill="#FDFAF6"/>
<path d="M75.8877 41.8806C75.6697 41.8806 75.4513 41.7974 75.2851 41.631L73.4953 39.8412C73.1624 39.5083 73.1624 38.9686 73.4953 38.6358L75.2851 36.846C75.6177 36.5133 76.1577 36.5133 76.4903 36.846L78.2801 38.6358C78.613 38.9687 78.613 39.5084 78.2801 39.8412L76.4903 41.631C76.3241 41.7972 76.1059 41.8806 75.8877 41.8806ZM75.3034 39.2384L75.8879 39.8229L76.4724 39.2384L75.8879 38.6539L75.3034 39.2384Z" fill="#FDFAF6"/>
<path d="M19.5401 75.1984C19.322 75.1984 19.1037 75.1152 18.9375 74.9489L17.1476 73.159C16.8147 72.8261 16.8147 72.2864 17.1476 71.9537L18.9375 70.1639C19.27 69.8311 19.8101 69.8311 20.1426 70.1639L21.9325 71.9537C22.2654 72.2866 22.2654 72.8263 21.9325 73.159L20.1426 74.9489C19.9763 75.1151 19.7581 75.1984 19.5401 75.1984ZM18.9555 72.5563L19.5401 73.1408L20.1246 72.5563L19.5401 71.9718L18.9555 72.5563Z" fill="#FDFAF6"/>
<path d="M19.8449 23.3551C19.6269 23.3551 19.4086 23.2719 19.2424 23.1055C18.9094 22.7726 18.9094 22.233 19.2424 21.9002L20.947 20.1956C21.2795 19.8629 21.8196 19.8629 22.1521 20.1956C22.485 20.5285 22.485 21.0682 22.1521 21.4009L20.4475 23.1055C20.2811 23.2719 20.063 23.3551 19.8449 23.3551Z" fill="#FDFAF6"/>
<path d="M27.8806 75.1132C27.6626 75.1132 27.4442 75.03 27.278 74.8636C26.9451 74.5307 26.9451 73.991 27.278 73.6583L28.9826 71.9537C29.3152 71.6209 29.8552 71.6209 30.1878 71.9537C30.5207 72.2866 30.5207 72.8262 30.1878 73.159L28.4832 74.8636C28.3168 75.0298 28.0986 75.1132 27.8806 75.1132Z" fill="#FDFAF6"/>
<defs>
<linearGradient id="paint0_linear" x1="-0.000163009" y1="42.9181" x2="87.276" y2="42.9181" gradientUnits="userSpaceOnUse">
<stop stop-color="#313131" stop-opacity="0"/>
<stop offset="1" stop-color="#313131"/>
</linearGradient>
</defs>
</svg>
