<svg width="85" height="88" viewBox="0 0 88 84" fill="none" xmlns="http://www.w3.org/2000/svg">
<path d="M85.2172 69.1439C81.2246 59.807 77.2764 56.2222 64.0553 46.0982C55.0211 39.1802 59.0435 30.2935 62.4517 26.8853C72.4878 16.8492 76.7696 12.8967 72.5891 6.43592C59.2164 -14.2308 29.2689 23.0453 16.5468 5.54952C6.75538 -5.51989 -0.00238583 12.1367 6.31868e-07 33.2926C0.0040917 70.3037 43.5379 69.017 70.2294 80.7669C82.2038 86.0383 91.5914 84.0503 85.2172 69.1439Z" fill="url(#paint0_linear)"/>
<path opacity="0.1" d="M78.8321 69.7411H75.4629L69.8493 64.1275C73.249 59.0879 75.2338 53.0154 75.2338 46.4791C75.2338 39.1331 72.7265 32.3729 68.5216 27.0068L71.9642 23.5642C72.156 23.3724 72.2637 23.1123 72.2637 22.8409V15.3275C72.2637 15.0563 72.156 14.7962 71.9642 14.6042L66.6514 9.29144C66.4597 9.09968 66.1995 8.99194 65.9282 8.99194H58.4147C58.1435 8.99194 57.8834 9.09968 57.6915 9.29144L52.3787 14.6042C52.1869 14.796 52.0792 15.0561 52.0792 15.3275V16.0247C49.3917 15.2813 46.5612 14.8824 43.6371 14.8824C38.0564 14.8824 32.8149 16.3312 28.2647 18.8702V14.2144C28.2647 13.7437 27.8831 13.3621 27.4124 13.3621H8.44215C7.97151 13.3621 7.58984 13.7437 7.58984 14.2144V20.8446C7.58984 21.3153 7.97151 21.6969 8.44215 21.6969H13.8671L18.9412 26.7711C14.6234 32.1745 12.0404 39.0247 12.0404 46.4791C12.0404 63.9296 26.1868 78.0758 43.6371 78.0758C49.2178 78.0758 54.4594 76.6271 59.0095 74.088V77.2235C59.0095 77.6941 59.3911 78.0758 59.8618 78.0758H78.8321C79.3027 78.0758 79.6844 77.6941 79.6844 77.2235V70.5932C79.6844 70.1226 79.3029 69.7411 78.8321 69.7411ZM16.2777 21.6969H24.0361C22.5988 22.8353 21.2637 24.0965 20.0448 25.464L16.2777 21.6969ZM65.0181 69.7411C66.415 68.4565 67.6958 67.0476 68.8432 65.5321L73.0523 69.7411H65.0181Z" fill="#313131"/>
<path d="M43.6377 73.9847C61.0881 73.9847 75.2344 59.8383 75.2344 42.388C75.2344 24.9376 61.0881 10.7913 43.6377 10.7913C26.1873 10.7913 12.041 24.9376 12.041 42.388C12.041 59.8383 26.1873 73.9847 43.6377 73.9847Z" fill="#585972"/>
<path d="M72.2155 55.8817C67.2193 66.4452 56.5382 73.7938 44.1235 73.9796L50.8416 67.2615C51.1612 66.9419 51.3409 66.5082 51.3409 66.0562V64.5617C51.3409 64.1099 51.5204 63.6764 51.8398 63.3566L54.9908 60.2044C55.3102 59.8848 55.4897 59.4513 55.4897 58.9993V53.1509C55.4897 52.2094 56.2529 51.4463 57.1943 51.4463H67.0739C67.526 51.4463 67.9596 51.626 68.2793 51.9456L72.2155 55.8817Z" fill="#FDFAF6"/>
<path d="M55.7713 63.35C58.1249 63.35 60.0328 61.442 60.0328 59.0884C60.0328 56.7349 58.1249 54.8269 55.7713 54.8269C53.4177 54.8269 51.5098 56.7349 51.5098 59.0884C51.5098 61.442 53.4177 63.35 55.7713 63.35Z" fill="#FDFAF6"/>
<path d="M55.7709 61.2193C56.9477 61.2193 57.9017 60.2653 57.9017 59.0885C57.9017 57.9117 56.9477 56.9578 55.7709 56.9578C54.5941 56.9578 53.6401 57.9117 53.6401 59.0885C53.6401 60.2653 54.5941 61.2193 55.7709 61.2193Z" fill="#585972"/>
<path d="M75.2344 42.388C75.2344 43.3596 75.1901 44.3193 75.1048 45.2688H68.9853C68.0438 45.2688 67.2807 44.5056 67.2807 43.5642V40.532C67.2807 40.0799 67.101 39.6463 66.7814 39.3267L60.2865 32.8318C59.9669 32.5121 59.5332 32.3325 59.0811 32.3325H55.5942C55.1421 32.3325 54.7085 32.5121 54.3889 32.8318L48.7803 38.4403C48.4607 38.7599 48.281 39.1935 48.281 39.6456V46.5229C48.281 46.9751 48.1014 47.4088 47.7816 47.7284L43.3036 52.205C42.9838 52.5246 42.8041 52.9583 42.8041 53.4105V60.254C42.8041 61.1955 42.041 61.9586 41.0995 61.9586H39.5828C39.1307 61.9586 38.697 61.779 38.3774 61.4594L35.0463 58.1282C34.7267 57.8086 34.547 57.3749 34.547 56.9229V45.3919C34.547 44.9398 34.3673 44.5061 34.0477 44.1865L28.9983 39.1371C28.6787 38.8175 28.499 38.3839 28.499 37.9318V27.8309C28.499 27.3789 28.6787 26.9452 28.9983 26.6256L31.2521 24.3718C31.5718 24.0522 32.0054 23.8725 32.4575 23.8725H37.9731C38.4252 23.8725 38.8586 23.693 39.1783 23.3734L43.9142 18.639C44.2338 18.3194 44.6673 18.1399 45.1193 18.1399H52.2547C53.1961 18.1399 53.9593 17.3767 53.9593 16.4353V12.5164C66.3414 16.7932 75.2344 28.5534 75.2344 42.388Z" fill="#FDFAF6"/>
<path d="M47.8182 43.4718C50.1718 43.4718 52.0797 41.5638 52.0797 39.2103C52.0797 36.8567 50.1718 34.9487 47.8182 34.9487C45.4646 34.9487 43.5566 36.8567 43.5566 39.2103C43.5566 41.5638 45.4646 43.4718 47.8182 43.4718Z" fill="#585972"/>
<path d="M47.8188 41.3411C48.9955 41.3411 49.9495 40.3871 49.9495 39.2104C49.9495 38.0336 48.9955 37.0796 47.8188 37.0796C46.642 37.0796 45.688 38.0336 45.688 39.2104C45.688 40.3871 46.642 41.3411 47.8188 41.3411Z" fill="#FDFAF6"/>
<path d="M35.8441 57.5135C38.1976 57.5135 40.1056 55.6056 40.1056 53.252C40.1056 50.8984 38.1976 48.9905 35.8441 48.9905C33.4905 48.9905 31.5825 50.8984 31.5825 53.252C31.5825 55.6056 33.4905 57.5135 35.8441 57.5135Z" fill="#585972"/>
<path d="M35.8441 55.3826C37.0209 55.3826 37.9749 54.4286 37.9749 53.2519C37.9749 52.0751 37.0209 51.1211 35.8441 51.1211C34.6674 51.1211 33.7134 52.0751 33.7134 53.2519C33.7134 54.4286 34.6674 55.3826 35.8441 55.3826Z" fill="#FDFAF6"/>
<path d="M78.8329 73.9848H59.8626C59.3919 73.9848 59.0103 73.6031 59.0103 73.1325V66.5022C59.0103 66.0316 59.3919 65.6499 59.8626 65.6499H78.8329C79.3035 65.6499 79.6852 66.0316 79.6852 66.5022V73.1325C79.6852 73.6033 79.3037 73.9848 78.8329 73.9848Z" fill="#FDFAF6"/>
<path d="M27.4124 17.6059H8.44215C7.97151 17.6059 7.58984 17.2242 7.58984 16.7536V10.1233C7.58984 9.65266 7.97151 9.271 8.44215 9.271H27.4124C27.8831 9.271 28.2647 9.65266 28.2647 10.1233V16.7536C28.2647 17.2242 27.8831 17.6059 27.4124 17.6059Z" fill="#FDFAF6"/>
<path d="M23.4748 14.2908H12.3806C11.91 14.2908 11.5283 13.9091 11.5283 13.4385C11.5283 12.9678 11.91 12.5862 12.3806 12.5862H23.4748C23.9454 12.5862 24.3271 12.9678 24.3271 13.4385C24.3271 13.9091 23.9456 14.2908 23.4748 14.2908Z" fill="#585972"/>
<path d="M74.8942 70.6697H63.8001C63.3294 70.6697 62.9478 70.288 62.9478 69.8174C62.9478 69.3468 63.3294 68.9651 63.8001 68.9651H74.8942C75.3648 68.9651 75.7465 69.3468 75.7465 69.8174C75.7465 70.288 75.3648 70.6697 74.8942 70.6697Z" fill="#585972"/>
<path d="M40.9759 27.131C43.3295 27.131 45.2374 25.223 45.2374 22.8694C45.2374 20.5159 43.3295 18.6079 40.9759 18.6079C38.6223 18.6079 36.7144 20.5159 36.7144 22.8694C36.7144 25.223 38.6223 27.131 40.9759 27.131Z" fill="#FDFAF6"/>
<path d="M40.976 25.0001C42.1528 25.0001 43.1067 24.0461 43.1067 22.8693C43.1067 21.6925 42.1528 20.7385 40.976 20.7385C39.7992 20.7385 38.8452 21.6925 38.8452 22.8693C38.8452 24.0461 39.7992 25.0001 40.976 25.0001Z" fill="#585972"/>
<path d="M65.929 4.90112H58.4156C58.1444 4.90112 57.8843 5.00885 57.6923 5.20062L52.3796 10.5134C52.1878 10.7052 52.0801 10.9653 52.0801 11.2367V18.7501C52.0801 19.0213 52.1878 19.2814 52.3796 19.4733L57.6923 24.7861C57.8841 24.9779 58.1442 25.0856 58.4156 25.0856H65.929C66.2002 25.0856 66.4604 24.9779 66.6523 24.7861L71.9651 19.4733C72.1568 19.2816 72.2646 19.0215 72.2646 18.7501V11.2367C72.2646 10.9655 72.1568 10.7053 71.9651 10.5134L66.6523 5.20062C66.4604 5.00885 66.2002 4.90112 65.929 4.90112Z" fill="#FDFAF6"/>
<path d="M62.1722 22.6855C66.4205 22.6855 69.8644 19.2416 69.8644 14.9933C69.8644 10.745 66.4205 7.30103 62.1722 7.30103C57.9239 7.30103 54.48 10.745 54.48 14.9933C54.48 19.2416 57.9239 22.6855 62.1722 22.6855Z" fill="#585972"/>
<path d="M60.8854 59.0884C60.8854 56.2687 58.5913 53.9746 55.7716 53.9746C52.9518 53.9746 50.6577 56.2687 50.6577 59.0884C50.6577 61.9082 52.9518 64.2023 55.7716 64.2023C58.5913 64.2023 60.8854 61.9082 60.8854 59.0884ZM52.3623 59.0884C52.3623 57.2086 53.8917 55.6792 55.7716 55.6792C57.6514 55.6792 59.1808 57.2086 59.1808 59.0884C59.1808 60.9683 57.6514 62.4977 55.7716 62.4977C53.8917 62.4977 52.3623 60.9683 52.3623 59.0884Z" fill="#313131"/>
<path d="M78.8328 64.7976H74.6114L70.4565 60.6427C74.0856 55.3015 76.0869 48.9355 76.0869 42.3881C76.0869 36.9087 74.6932 31.4894 72.0565 26.7162C71.8289 26.3042 71.31 26.1545 70.8984 26.3822C70.4864 26.6098 70.3369 27.1284 70.5644 27.5404C73.062 32.0618 74.3821 37.1961 74.3821 42.3881C74.3821 48.4819 72.5518 54.4095 69.2278 59.4142L51.9843 42.1707C52.5803 41.3346 52.9324 40.313 52.9324 39.2103C52.9324 36.3905 50.6384 34.0965 47.8186 34.0965C44.9988 34.0965 42.7048 36.3905 42.7048 39.2103C42.7048 42.0301 44.9988 44.3242 47.8186 44.3242C48.9213 44.3242 49.9429 43.9721 50.779 43.376L68.2315 60.8286C67.1719 62.2444 65.9846 63.573 64.681 64.7976H59.8625C58.9226 64.7976 58.1579 65.5623 58.1579 66.5022V69.4895C53.7176 71.8719 48.7096 73.1323 43.6379 73.1323C26.6853 73.1323 12.8935 59.3404 12.8935 42.3879C12.8935 35.3379 15.2615 28.6576 19.5425 23.2804L23.345 27.0828V41.6043C23.345 41.8303 23.4348 42.0471 23.5945 42.207L31.6788 50.2913C31.0829 51.1274 30.7307 52.149 30.7307 53.2517C30.7307 56.0715 33.0248 58.3656 35.8445 58.3656C38.6643 58.3656 40.9584 56.0715 40.9584 53.2517C40.9584 50.4319 38.6643 48.1379 35.8445 48.1379C34.7418 48.1379 33.7203 48.4899 32.8841 49.086L25.0496 41.2512V26.73C25.0496 26.504 24.9597 26.2871 24.8 26.1272L20.6452 21.9722C21.767 20.7136 23.0015 19.5382 24.3405 18.458H27.4132C28.3531 18.458 29.1178 17.6933 29.1178 16.7534V15.2864C33.558 12.9042 38.5661 11.6437 43.6379 11.6437C46.2074 11.6437 48.7578 11.965 51.2278 12.5918V18.7498C51.2278 19.2507 51.4228 19.7216 51.777 20.0757L57.0898 25.3885C57.444 25.7427 57.9148 25.9377 58.4157 25.9377H65.9291C66.4299 25.9377 66.9009 25.7427 67.2549 25.3885L72.5677 20.0757C72.9219 19.7215 73.1169 19.2507 73.1169 18.7498V11.2364C73.1169 10.7356 72.9219 10.2646 72.5677 9.91058L67.2549 4.59781C66.9007 4.24359 66.4299 4.04858 65.9291 4.04858H58.4157C57.9148 4.04858 57.4439 4.24359 57.0898 4.59781L51.777 9.91058C51.5171 10.1705 51.3439 10.4936 51.2696 10.8449C48.7805 10.2455 46.218 9.93904 43.6379 9.93904C38.59 9.93904 33.6013 11.1227 29.1178 13.3667V10.1233C29.1178 9.18339 28.3531 8.4187 27.4132 8.4187H8.44289C7.50297 8.4187 6.73828 9.18339 6.73828 10.1233V16.7536C6.73828 17.6935 7.50297 18.4582 8.44289 18.4582H14.7201L18.3291 22.0672C13.7332 27.7686 11.1889 34.8799 11.1889 42.3881C11.1889 60.2805 25.7454 74.8371 43.6379 74.8371C48.6857 74.8371 53.6744 73.6534 58.1579 71.4094V73.1324C58.1579 74.0724 58.9226 74.8371 59.8625 74.8371H63.5948C64.0654 74.8371 64.4471 74.4554 64.4471 73.9847C64.4471 73.5141 64.0654 73.1324 63.5948 73.1324H59.8625V66.5022H78.8328V73.1324H68.5058C68.0351 73.1324 67.6535 73.5141 67.6535 73.9847C67.6535 74.4554 68.0351 74.8371 68.5058 74.8371H78.8328C79.7728 74.8371 80.5374 74.0724 80.5374 73.1324V66.5022C80.5374 65.5623 79.7728 64.7976 78.8328 64.7976ZM47.8186 42.6194C45.9387 42.6194 44.4094 41.09 44.4094 39.2101C44.4094 37.3303 45.9387 35.8009 47.8186 35.8009C49.6984 35.8009 51.2278 37.3303 51.2278 39.2101C51.2278 39.8412 51.0524 40.4308 50.7522 40.9383L48.4213 38.6074C48.0884 38.2747 47.5489 38.2747 47.216 38.6074C46.8831 38.9403 46.8831 39.48 47.216 39.8127L49.5469 42.1436C49.0393 42.444 48.4496 42.6194 47.8186 42.6194ZM35.8445 49.8427C37.7244 49.8427 39.2538 51.372 39.2538 53.2519C39.2538 55.1317 37.7244 56.6611 35.8445 56.6611C33.9647 56.6611 32.4353 55.1317 32.4353 53.2519C32.4353 52.6208 32.6107 52.0312 32.9109 51.5238L35.2418 53.8546C35.4083 54.021 35.6264 54.1042 35.8445 54.1042C36.0627 54.1042 36.2808 54.021 36.4473 53.8546C36.7802 53.5217 36.7802 52.982 36.4473 52.6493L34.1164 50.3184C34.6239 50.0181 35.2135 49.8427 35.8445 49.8427ZM52.9324 11.2364C52.9324 11.1909 52.9502 11.1481 52.9824 11.1159L58.2951 5.80314C58.3268 5.77144 58.3708 5.7532 58.4157 5.7532H65.9291C65.9739 5.7532 66.0179 5.77144 66.0496 5.80314L71.3624 11.1159C71.3946 11.1481 71.4123 11.1909 71.4123 11.2364V18.7498C71.4123 18.7954 71.3946 18.8381 71.3624 18.8704L66.0496 24.1831C66.0179 24.2148 65.9739 24.2331 65.9291 24.2331H58.4157C58.3708 24.2331 58.3268 24.2148 58.2951 24.1831L52.9824 18.8704C52.9502 18.8381 52.9324 18.7954 52.9324 18.7498V11.2364ZM8.44289 10.1233H27.4132L27.4142 16.7534H8.44289V10.1233ZM17.1308 18.4582H21.7259C20.9213 19.1934 20.1565 19.9618 19.4368 20.7642L17.1308 18.4582ZM69.4479 62.0448L72.2007 64.7976H67.1002C67.9359 63.9214 68.7199 63.0026 69.4479 62.0448Z" fill="#313131"/>
<path d="M35.8618 22.8695C35.8618 25.6892 38.1559 27.9833 40.9757 27.9833C43.7954 27.9833 46.0895 25.6892 46.0895 22.8695C46.0895 20.0497 43.7954 17.7556 40.9757 17.7556C38.1559 17.7556 35.8618 20.0497 35.8618 22.8695ZM44.3849 22.8695C44.3849 24.7493 42.8555 26.2787 40.9757 26.2787C39.0958 26.2787 37.5664 24.7493 37.5664 22.8695C37.5664 20.9896 39.0958 19.4602 40.9757 19.4602C42.8555 19.4602 44.3849 20.9896 44.3849 22.8695Z" fill="#313131"/>
<path d="M61.3986 11.098C61.2706 10.7717 60.9557 10.5571 60.6052 10.5571H60.5793C60.2289 10.5571 59.914 10.7717 59.786 11.098L57.2398 17.5841C57.0678 18.0221 57.2836 18.5168 57.7217 18.6888C58.1596 18.8605 58.6545 18.645 58.8265 18.2069L59.3416 16.8945H61.8428L62.3579 18.2069C62.4897 18.5427 62.8113 18.748 63.1516 18.748C63.2551 18.748 63.3606 18.7289 63.4629 18.6888C63.9009 18.5168 64.1167 18.0221 63.9447 17.5841L61.3986 11.098ZM60.0107 15.1901L60.5921 13.709L61.1736 15.1901H60.0107Z" fill="#FDFAF6"/>
<path d="M66.3111 11.7262H65.9942V11.4094C65.9942 10.9388 65.6126 10.5571 65.1419 10.5571C64.6713 10.5571 64.2896 10.9388 64.2896 11.4094V11.7262H63.9729C63.5023 11.7262 63.1206 12.1078 63.1206 12.5785C63.1206 13.0491 63.5023 13.4308 63.9729 13.4308H64.2896V13.7477C64.2896 14.2183 64.6713 14.6 65.1419 14.6C65.6126 14.6 65.9942 14.2183 65.9942 13.7477V13.4308H66.3111C66.7818 13.4308 67.1634 13.0491 67.1634 12.5785C67.1634 12.1078 66.7818 11.7262 66.3111 11.7262Z" fill="#FDFAF6"/>
<path d="M48.8761 25.4263C49.5822 25.4263 50.1546 24.8539 50.1546 24.1478C50.1546 23.4418 49.5822 22.8694 48.8761 22.8694C48.17 22.8694 47.5977 23.4418 47.5977 24.1478C47.5977 24.8539 48.17 25.4263 48.8761 25.4263Z" fill="#585972"/>
<path d="M54.4064 68.5796C55.1125 68.5796 55.6848 68.0072 55.6848 67.3012C55.6848 66.5951 55.1125 66.0227 54.4064 66.0227C53.7003 66.0227 53.1279 66.5951 53.1279 67.3012C53.1279 68.0072 53.7003 68.5796 54.4064 68.5796Z" fill="#585972"/>
<path d="M40.1066 41.8831C40.8127 41.8831 41.385 41.3107 41.385 40.6046C41.385 39.8986 40.8127 39.3262 40.1066 39.3262C39.4005 39.3262 38.8281 39.8986 38.8281 40.6046C38.8281 41.3107 39.4005 41.8831 40.1066 41.8831Z" fill="#585972"/>
<path d="M42.255 45.9785C42.9611 45.9785 43.5335 45.4062 43.5335 44.7001C43.5335 43.994 42.9611 43.4216 42.255 43.4216C41.5489 43.4216 40.9766 43.994 40.9766 44.7001C40.9766 45.4062 41.5489 45.9785 42.255 45.9785Z" fill="#585972"/>
<path d="M65.3966 32.3528C66.1027 32.3528 66.6751 31.7804 66.6751 31.0744C66.6751 30.3683 66.1027 29.7959 65.3966 29.7959C64.6905 29.7959 64.1182 30.3683 64.1182 31.0744C64.1182 31.7804 64.6905 32.3528 65.3966 32.3528Z" fill="#585972"/>
<path d="M36.715 32.2642C37.4211 32.2642 37.9934 31.6918 37.9934 30.9857C37.9934 30.2797 37.4211 29.7073 36.715 29.7073C36.0089 29.7073 35.4365 30.2797 35.4365 30.9857C35.4365 31.6918 36.0089 32.2642 36.715 32.2642Z" fill="#585972"/>
<path d="M57.8664 36.7044H55.7214C55.2508 36.7044 54.8691 36.3227 54.8691 35.8521C54.8691 35.3814 55.2508 34.9998 55.7214 34.9998H57.8664C58.337 34.9998 58.7187 35.3814 58.7187 35.8521C58.7187 36.3227 58.337 36.7044 57.8664 36.7044Z" fill="#FDFAF6"/>
<path d="M62.2979 40.1785H55.721C55.2503 40.1785 54.8687 39.7968 54.8687 39.3262C54.8687 38.8555 55.2503 38.4739 55.721 38.4739H62.2979C62.7685 38.4739 63.1502 38.8555 63.1502 39.3262C63.1502 39.7968 62.7685 40.1785 62.2979 40.1785Z" fill="#FDFAF6"/>
<path d="M62.2979 43.6529H55.721C55.2503 43.6529 54.8687 43.2712 54.8687 42.8005C54.8687 42.3299 55.2503 41.9482 55.721 41.9482H62.2979C62.7685 41.9482 63.1502 42.3299 63.1502 42.8005C63.1502 43.2712 62.7685 43.6529 62.2979 43.6529Z" fill="#FDFAF6"/>
<path d="M28.7467 53.2822H26.6018C26.1312 53.2822 25.7495 52.9006 25.7495 52.4299C25.7495 51.9593 26.1312 51.5776 26.6018 51.5776H28.7467C29.2174 51.5776 29.599 51.9593 29.599 52.4299C29.599 52.9006 29.2174 53.2822 28.7467 53.2822Z" fill="#FDFAF6"/>
<path d="M28.7471 56.7564H22.1702C21.6995 56.7564 21.3179 56.3747 21.3179 55.9041C21.3179 55.4334 21.6995 55.0518 22.1702 55.0518H28.7471C29.2177 55.0518 29.5994 55.4334 29.5994 55.9041C29.5994 56.3747 29.2177 56.7564 28.7471 56.7564Z" fill="#FDFAF6"/>
<path d="M28.7471 60.2307H22.1702C21.6995 60.2307 21.3179 59.8491 21.3179 59.3784C21.3179 58.9078 21.6995 58.5261 22.1702 58.5261H28.7471C29.2177 58.5261 29.5994 58.9078 29.5994 59.3784C29.5994 59.8491 29.2177 60.2307 28.7471 60.2307Z" fill="#FDFAF6"/>
<path d="M20.2547 75.0886C20.079 75.0886 19.9032 75.0344 19.7537 74.9258L19.0959 74.4478L18.4381 74.9258C18.1393 75.1426 17.735 75.1428 17.4361 74.9258C17.1375 74.7088 17.0124 74.324 17.1266 73.9729L17.3778 73.1995L16.72 72.7215C16.4214 72.5045 16.2963 72.1198 16.4105 71.7687C16.5247 71.4175 16.8518 71.1797 17.221 71.1797H18.0343L18.2855 70.4063C18.3996 70.0552 18.7269 69.8174 19.0961 69.8174C19.4653 69.8174 19.7926 70.0552 19.9066 70.4063L20.1579 71.1797H20.9712C21.3404 71.1797 21.6677 71.4175 21.7817 71.7687C21.8957 72.1198 21.7708 72.5045 21.4721 72.7215L20.8143 73.1995L21.0656 73.9729C21.1796 74.324 21.0547 74.7088 20.756 74.9258C20.6064 75.0344 20.4306 75.0886 20.2547 75.0886Z" fill="#FDFAF6"/>
<path d="M78.7156 27.3039C78.5399 27.3039 78.3642 27.2497 78.2147 27.1411L77.5569 26.6631L76.899 27.1411C76.6002 27.3579 76.1959 27.3581 75.8971 27.1411C75.5984 26.9241 75.4733 26.5394 75.5875 26.1882L75.8388 25.4148L75.181 24.9369C74.8823 24.7199 74.7572 24.3351 74.8714 23.984C74.9856 23.6328 75.3127 23.395 75.682 23.395H76.4952L76.7465 22.6217C76.8605 22.2705 77.1878 22.0327 77.557 22.0327C77.9262 22.0327 78.2535 22.2705 78.3676 22.6217L78.6188 23.395H79.4321C79.8013 23.395 80.1286 23.6328 80.2426 23.984C80.3567 24.3351 80.2317 24.7199 79.9331 24.9369L79.2753 25.4148L79.5265 26.1882C79.6406 26.5394 79.5156 26.9241 79.217 27.1411C79.0673 27.2495 78.8916 27.3039 78.7156 27.3039Z" fill="#FDFAF6"/>
<path d="M81.7493 15.2216C81.5736 15.2216 81.3979 15.1674 81.2484 15.0588L80.5905 14.5808L79.9327 15.0588C79.6339 15.2756 79.2296 15.2758 78.9308 15.0588C78.6321 14.8418 78.507 14.4571 78.6212 14.1059L78.8725 13.3326L78.2147 12.8546C77.916 12.6376 77.7909 12.2529 77.9051 11.9017C78.0193 11.5506 78.3464 11.3128 78.7156 11.3128H79.5289L79.7802 10.5394C79.8942 10.1882 80.2215 9.95044 80.5907 9.95044C80.9599 9.95044 81.2872 10.1882 81.4013 10.5394L81.6525 11.3128H82.4658C82.835 11.3128 83.1623 11.5506 83.2763 11.9017C83.3904 12.2529 83.2654 12.6376 82.9668 12.8546L82.309 13.3326L82.5602 14.1059C82.6743 14.4571 82.5493 14.8418 82.2507 15.0588C82.101 15.1674 81.9251 15.2216 81.7493 15.2216Z" fill="#FDFAF6"/>
<path d="M11.5295 69.4321C11.3113 69.4321 11.0933 69.3489 10.9267 69.1825L9.13689 67.3927C8.80398 67.0598 8.80398 66.5201 9.13689 66.1873L10.9267 64.3975C11.2596 64.0648 11.7992 64.0648 12.1321 64.3975L13.9219 66.1873C14.2548 66.5203 14.2548 67.0599 13.9219 67.3927L12.1321 69.1825C11.9657 69.3489 11.7477 69.4321 11.5295 69.4321ZM10.9451 66.7899L11.5297 67.3744L12.1142 66.7899L11.5297 66.2054L10.9451 66.7899Z" fill="#FDFAF6"/>
<path d="M33.7145 7.05268C33.4964 7.05268 33.2783 6.9695 33.1118 6.80313L31.3219 5.01328C30.989 4.68037 30.989 4.14069 31.3219 3.80795L33.1118 2.01811C33.4447 1.68537 33.9842 1.68537 34.3171 2.01811L36.107 3.80795C36.4399 4.14086 36.4399 4.68054 36.107 5.01328L34.3171 6.80313C34.1508 6.9695 33.9327 7.05268 33.7145 7.05268ZM33.1302 4.41053L33.7147 4.99505L34.2992 4.41053L33.7147 3.82602L33.1302 4.41053Z" fill="#FDFAF6"/>
<defs>
<linearGradient id="paint0_linear" x1="6.31868e-07" y1="41.7061" x2="87.2762" y2="41.7061" gradientUnits="userSpaceOnUse">
<stop stop-color="#313131" stop-opacity="0"/>
<stop offset="1" stop-color="#313131"/>
</linearGradient>
</defs>
</svg>
