<svg width="85" height="88" viewBox="0 0 115 99" fill="none" xmlns="http://www.w3.org/2000/svg">
<path d="M112.429 23.1251C107.421 10.3811 91.9931 2.73915 78.9291 7.79615C64.0141 13.5691 68.9591 37.2961 55.4111 42.0901C48.0931 44.6811 37.2741 35.0011 29.8801 33.5171C16.2551 30.7821 3.92112 40.3951 0.880117 53.7081C-2.21988 67.2901 2.75112 85.4312 17.6741 89.1171C35.4491 93.5081 44.7091 77.5291 59.6201 72.9411C74.9201 68.2321 91.9371 79.3531 104.605 65.8231C113.964 55.8231 117.386 35.7441 112.427 23.1231L112.429 23.1251Z" fill="url(#paint0_linear)"/>
<path opacity="0.11" d="M47.0719 19.0342C46.913 16.9035 46.2139 14.8484 45.0407 13.0627C43.8675 11.2771 42.2588 9.81964 40.3663 8.82794C38.4738 7.83623 36.3598 7.34293 34.2239 7.39454C32.0879 7.44616 30.0002 8.04098 28.1578 9.12294C26.3154 10.2049 24.779 11.7383 23.6934 13.5786C22.6078 15.4188 22.0089 17.5053 21.953 19.6412C21.8972 21.7771 22.3863 23.892 23.3743 25.7864C24.3623 27.6809 25.8165 29.2925 27.5999 30.4692V52.0302C27.5998 52.2243 27.6495 52.4152 27.7442 52.5846C27.839 52.754 27.9757 52.8962 28.1412 52.9977C28.3066 53.0991 28.4954 53.1564 28.6893 53.164C28.8833 53.1716 29.076 53.1294 29.2489 53.0412L31.6319 51.8262V87.5822H24.9119C24.6177 87.5822 24.3264 87.6402 24.0547 87.7527C23.7829 87.8653 23.536 88.0303 23.328 88.2383C23.12 88.4463 22.955 88.6932 22.8424 88.965C22.7298 89.2368 22.6719 89.5281 22.6719 89.8222V93.6582C22.6639 94.8901 23.1455 96.0747 24.0107 96.9515C24.876 97.8284 26.054 98.3257 27.2859 98.3342H74.2859C74.2369 98.3342 74.1859 98.3282 74.1399 98.3272C75.3542 98.2944 76.5076 97.7887 77.3545 96.9179C78.2015 96.047 78.6748 94.8799 78.6739 93.6652V23.7042C78.6734 22.4664 79.1643 21.2791 80.0389 20.4032C80.9135 19.5273 82.1001 19.0345 83.3379 19.0332L47.0719 19.0342Z" fill="#313131"/>
<path d="M80.24 18.973V30.678H90.54C91.1341 30.678 91.7038 30.442 92.1239 30.0219C92.544 29.6019 92.78 29.0321 92.78 28.438V18.969C92.7763 17.9857 92.4608 17.0288 91.879 16.2361C91.2972 15.4433 90.479 14.8555 89.542 14.557C89.0681 14.4023 88.5726 14.324 88.074 14.325H75.54C76.7796 14.3184 77.971 14.8043 78.8524 15.6759C79.7338 16.5475 80.2329 17.7335 80.24 18.973Z" fill="white"/>
<path opacity="0.11" d="M74.8631 24.349V36.054H85.1631C85.7572 36.054 86.3269 35.818 86.747 35.3979C87.1671 34.9778 87.4031 34.4081 87.4031 33.814V24.345C87.3993 23.3616 87.0839 22.4048 86.502 21.6121C85.9202 20.8193 85.102 20.2314 84.1651 19.933C83.6911 19.7783 83.1956 19.7 82.6971 19.701H70.1631C71.4026 19.6943 72.5941 20.1802 73.4754 21.0519C74.3568 21.9235 74.8559 23.1094 74.8631 24.349Z" fill="#313131"/>
<path d="M88.2853 14.3291C87.0452 14.328 85.8555 14.8195 84.9777 15.6954C84.0999 16.5714 83.6059 17.76 83.6043 19.0001V88.9661C83.6043 90.2031 83.1129 91.3894 82.2383 92.264C81.3636 93.1387 80.1773 93.6301 78.9403 93.6301H36.3413V19.0001C36.3416 18.3863 36.4627 17.7787 36.6979 17.2117C36.933 16.6448 37.2776 16.1298 37.7118 15.696C38.146 15.2623 38.6614 14.9183 39.2286 14.6838C39.7957 14.4492 40.4036 14.3287 41.0173 14.3291H88.2853Z" fill="white"/>
<path d="M67.2511 60.7002H47.7621C47.465 60.7002 47.1802 60.8182 46.9701 61.0282C46.7601 61.2383 46.6421 61.5231 46.6421 61.8202V93.1822H68.3711V61.8202C68.3711 61.5231 68.2531 61.2383 68.043 61.0282C67.833 60.8182 67.5481 60.7002 67.2511 60.7002Z" fill="#585972"/>
<path d="M79.0963 93.626H31.8293C30.5893 93.6258 29.4 93.133 28.5232 92.2562C27.6463 91.3793 27.1536 90.1901 27.1533 88.95V85.118C27.1533 84.8233 27.2114 84.5314 27.3242 84.2591C27.4371 83.9867 27.6024 83.7393 27.8109 83.5309C28.0194 83.3226 28.2669 83.1573 28.5393 83.0446C28.8116 82.9318 29.1036 82.8739 29.3983 82.874H72.1753C72.4701 82.8739 72.762 82.9318 73.0344 83.0446C73.3067 83.1573 73.5542 83.3226 73.7627 83.5309C73.9712 83.7393 74.1366 83.9867 74.2494 84.2591C74.3622 84.5314 74.4203 84.8233 74.4203 85.118V88.95C74.4206 90.1901 74.9133 91.3793 75.7902 92.2562C76.667 93.133 77.8563 93.6258 79.0963 93.626Z" fill="white"/>
<path d="M82.4722 57.6892C87.3273 57.6892 91.2632 53.7533 91.2632 48.8982C91.2632 44.043 87.3273 40.1072 82.4722 40.1072C77.617 40.1072 73.6812 44.043 73.6812 48.8982C73.6812 53.7533 77.617 57.6892 82.4722 57.6892Z" fill="#585972"/>
<path d="M46.1942 20.8252V47.2812C46.1944 47.4731 46.1453 47.6619 46.0517 47.8294C45.958 47.9969 45.823 48.1376 45.6594 48.2379C45.4958 48.3383 45.3092 48.395 45.1174 48.4025C44.9257 48.4101 44.7352 48.3683 44.5642 48.2812L39.2512 45.5742L33.9352 48.2822C33.7642 48.3693 33.5737 48.4111 33.3819 48.4035C33.1902 48.396 33.0035 48.3393 32.84 48.2389C32.6764 48.1386 32.5413 47.9979 32.4477 47.8304C32.354 47.6629 32.305 47.4741 32.3052 47.2822V20.8252H46.1942Z" fill="white"/>
<path d="M39.2879 27.8911C46.2456 27.8911 51.8859 22.2508 51.8859 15.2931C51.8859 8.33538 46.2456 2.69507 39.2879 2.69507C32.3303 2.69507 26.6899 8.33538 26.6899 15.2931C26.6899 22.2508 32.3303 27.8911 39.2879 27.8911Z" fill="#585972"/>
<path d="M54.2511 36.059H73.979C74.3336 36.059 74.6737 35.9182 74.9245 35.6674C75.1752 35.4167 75.3161 35.0766 75.3161 34.722V27.763C75.3161 27.4084 75.1752 27.0683 74.9245 26.8176C74.6737 26.5669 74.3336 26.426 73.979 26.426H54.2511C53.8965 26.426 53.5564 26.5669 53.3057 26.8176C53.0549 27.0683 52.9141 27.4084 52.9141 27.763V34.735C52.9148 34.9098 52.9501 35.0826 53.0177 35.2438C53.0853 35.4049 53.184 35.5511 53.3082 35.6741C53.4324 35.797 53.5796 35.8943 53.7413 35.9604C53.9031 36.0264 54.0763 36.0599 54.2511 36.059Z" fill="#585972"/>
<path d="M56.4041 27.5461H52.7041C52.4412 27.551 52.1846 27.4655 51.9773 27.3039C51.7699 27.1422 51.6244 26.9142 51.5651 26.6581C51.5306 26.4946 51.5332 26.3255 51.5725 26.1631C51.6119 26.0007 51.687 25.8492 51.7925 25.7196C51.8979 25.59 52.031 25.4856 52.182 25.4141C52.333 25.3425 52.498 25.3057 52.6651 25.3061H56.3651C56.628 25.3012 56.8845 25.3867 57.0919 25.5483C57.2992 25.71 57.4448 25.938 57.5041 26.1941C57.5385 26.3576 57.536 26.5267 57.4966 26.6891C57.4573 26.8515 57.3821 27.003 57.2767 27.1326C57.1712 27.2622 57.0382 27.3666 56.8872 27.4381C56.7362 27.5097 56.5712 27.5466 56.4041 27.5461Z" fill="#313131"/>
<path d="M64.2671 34.4902H52.7031C52.4402 34.4951 52.1836 34.4096 51.9763 34.248C51.7689 34.0863 51.6234 33.8583 51.5641 33.6022C51.5297 33.4387 51.5322 33.2696 51.5716 33.1072C51.6109 32.9448 51.686 32.7933 51.7915 32.6637C51.8969 32.5341 52.03 32.4297 52.181 32.3582C52.332 32.2866 52.497 32.2497 52.6641 32.2502H64.2281C64.491 32.2453 64.7476 32.3308 64.9549 32.4924C65.1623 32.6541 65.3078 32.8821 65.3671 33.1382C65.4015 33.3017 65.399 33.4708 65.3596 33.6332C65.3203 33.7955 65.2451 33.9471 65.1397 34.0767C65.0343 34.2063 64.9012 34.3107 64.7502 34.3822C64.5992 34.4538 64.4342 34.4906 64.2671 34.4902Z" fill="#313131"/>
<path d="M69.8031 38.2981H52.7031C52.4402 38.303 52.1836 38.2175 51.9763 38.0558C51.7689 37.8942 51.6234 37.6662 51.5641 37.4101C51.5297 37.2466 51.5322 37.0774 51.5716 36.9151C51.6109 36.7527 51.686 36.6012 51.7915 36.4716C51.8969 36.342 52.03 36.2376 52.181 36.166C52.332 36.0945 52.497 36.0576 52.6641 36.0581H69.7641C70.027 36.0531 70.2836 36.1386 70.4909 36.3003C70.6983 36.4619 70.8438 36.6899 70.9031 36.9461C70.9375 37.1096 70.935 37.2787 70.8956 37.441C70.8563 37.6034 70.7812 37.7549 70.6757 37.8845C70.5703 38.0141 70.4372 38.1185 70.2862 38.1901C70.1352 38.2616 69.9702 38.2985 69.8031 38.2981Z" fill="#313131"/>
<path d="M60.795 55.5471H46.331C46.0682 55.552 45.8116 55.4665 45.6042 55.3049C45.3969 55.1432 45.2514 54.9152 45.192 54.6591C45.1576 54.4956 45.1601 54.3265 45.1995 54.1641C45.2388 54.0017 45.314 53.8502 45.4194 53.7206C45.5249 53.591 45.6579 53.4866 45.8089 53.4151C45.9599 53.3435 46.1249 53.3066 46.292 53.3071H60.756C61.0189 53.3021 61.2755 53.3877 61.4828 53.5493C61.6902 53.711 61.8357 53.939 61.895 54.1951C61.9295 54.3586 61.9269 54.5277 61.8876 54.6901C61.8482 54.8524 61.7731 55.004 61.6676 55.1336C61.5622 55.2632 61.4291 55.3676 61.2781 55.4391C61.1272 55.5107 60.9621 55.5475 60.795 55.5471Z" fill="#313131"/>
<path d="M74.792 62.0441H46.331C46.0682 62.0491 45.8116 61.9636 45.6042 61.8019C45.3969 61.6403 45.2514 61.4123 45.192 61.1561C45.1576 60.9927 45.1601 60.8236 45.1995 60.6612C45.2388 60.4988 45.314 60.3473 45.4194 60.2177C45.5249 60.0881 45.6579 59.9837 45.8089 59.9121C45.9599 59.8406 46.1249 59.8037 46.292 59.8042H74.747C75.0099 59.7992 75.2665 59.8847 75.4738 60.0464C75.6812 60.208 75.8267 60.436 75.886 60.6922C75.9204 60.8552 75.9179 61.0237 75.8789 61.1857C75.8399 61.3476 75.7653 61.4988 75.6605 61.6283C75.5557 61.7578 75.4234 61.8623 75.2732 61.9342C75.123 62.0062 74.9586 62.0437 74.792 62.0441Z" fill="#313131"/>
<path d="M74.792 66.3H46.331C46.0682 66.305 45.8116 66.2194 45.6042 66.0578C45.3969 65.8961 45.2514 65.6681 45.192 65.412C45.1576 65.2485 45.1601 65.0794 45.1995 64.917C45.2388 64.7547 45.314 64.6031 45.4194 64.4735C45.5249 64.3439 45.6579 64.2395 45.8089 64.168C45.9599 64.0964 46.1249 64.0596 46.292 64.06H74.747C75.0099 64.0551 75.2665 64.1406 75.4738 64.3022C75.6812 64.4639 75.8267 64.6919 75.886 64.948C75.9204 65.111 75.9179 65.2796 75.8789 65.4415C75.8399 65.6035 75.7653 65.7547 75.6605 65.8842C75.5557 66.0137 75.4234 66.1181 75.2732 66.1901C75.123 66.262 74.9586 66.2996 74.792 66.3Z" fill="#313131"/>
<path d="M74.792 70.5561H46.331C46.0682 70.5611 45.8116 70.4755 45.6042 70.3139C45.3969 70.1522 45.2514 69.9242 45.192 69.6681C45.1576 69.5046 45.1601 69.3355 45.1995 69.1731C45.2388 69.0108 45.314 68.8592 45.4194 68.7296C45.5249 68.6 45.6579 68.4956 45.8089 68.4241C45.9599 68.3525 46.1249 68.3157 46.292 68.3161H74.747C75.0099 68.3112 75.2665 68.3967 75.4738 68.5583C75.6812 68.72 75.8267 68.948 75.886 69.2041C75.9204 69.3671 75.9179 69.5357 75.8789 69.6976C75.8399 69.8596 75.7653 70.0108 75.6605 70.1403C75.5557 70.2698 75.4234 70.3743 75.2732 70.4462C75.123 70.5181 74.9586 70.5557 74.792 70.5561Z" fill="#313131"/>
<path d="M53.1382 44.6041C53.8297 44.6041 54.3902 44.0436 54.3902 43.3521C54.3902 42.6606 53.8297 42.1001 53.1382 42.1001C52.4468 42.1001 51.8862 42.6606 51.8862 43.3521C51.8862 44.0436 52.4468 44.6041 53.1382 44.6041Z" fill="#313131"/>
<path d="M58.1472 43.5489C58.2578 42.8663 57.7942 42.2233 57.1117 42.1126C56.4291 42.002 55.7861 42.4656 55.6754 43.1482C55.5648 43.8307 56.0284 44.4737 56.711 44.5844C57.3935 44.695 58.0365 44.2314 58.1472 43.5489Z" fill="#313131"/>
<path d="M60.7139 44.6041C61.4054 44.6041 61.9659 44.0436 61.9659 43.3521C61.9659 42.6606 61.4054 42.1001 60.7139 42.1001C60.0225 42.1001 59.4619 42.6606 59.4619 43.3521C59.4619 44.0436 60.0225 44.6041 60.7139 44.6041Z" fill="#313131"/>
<path d="M38.1331 36.6281V34.1281C38.1281 33.8653 38.2137 33.6087 38.3753 33.4013C38.537 33.194 38.7649 33.0485 39.0211 32.9891C39.1846 32.9547 39.3537 32.9573 39.5161 32.9966C39.6784 33.036 39.83 33.1111 39.9596 33.2165C40.0892 33.322 40.1936 33.4551 40.2651 33.606C40.3366 33.757 40.3735 33.9221 40.3731 34.0891V36.6711C40.3735 36.8382 40.3366 37.0033 40.2651 37.1543C40.1936 37.3052 40.0892 37.4383 39.9596 37.5438C39.83 37.6492 39.6784 37.7243 39.5161 37.7637C39.3537 37.803 39.1846 37.8056 39.0211 37.7711C38.7643 37.7115 38.536 37.5654 38.3743 37.3572C38.2126 37.1491 38.1274 36.8916 38.1331 36.6281Z" fill="#313131"/>
<path d="M39.2881 23.9622C37.5739 23.9622 35.8983 23.4539 34.473 22.5015C33.0477 21.5492 31.9368 20.1956 31.2808 18.6119C30.6249 17.0282 30.4532 15.2856 30.7876 13.6043C31.122 11.9231 31.9475 10.3788 33.1596 9.16668C34.3717 7.95458 35.916 7.12913 37.5973 6.79471C39.2785 6.46029 41.0211 6.63193 42.6048 7.28791C44.1885 7.9439 45.5421 9.05477 46.4944 10.4801C47.4468 11.9053 47.9551 13.581 47.9551 15.2952C47.9524 17.593 47.0385 19.7959 45.4137 21.4207C43.7889 23.0456 41.5859 23.9595 39.2881 23.9622ZM39.2881 8.86818C38.017 8.86818 36.7744 9.24512 35.7175 9.95133C34.6605 10.6575 33.8368 11.6613 33.3503 12.8357C32.8639 14.0101 32.7366 15.3023 32.9846 16.549C33.2326 17.7957 33.8447 18.9409 34.7435 19.8398C35.6424 20.7386 36.7875 21.3507 38.0343 21.5987C39.281 21.8467 40.5732 21.7194 41.7476 21.233C42.922 20.7465 43.9258 19.9227 44.632 18.8658C45.3382 17.8089 45.7151 16.5663 45.7151 15.2952C45.7148 13.5902 45.0378 11.955 43.8328 10.7488C42.6277 9.54258 40.9931 8.86403 39.2881 8.86218V8.86818Z" fill="white"/>
<path d="M38.5771 18.7292V13.4292H38.1231C38.0603 13.4289 37.9981 13.4158 37.9405 13.3907C37.8829 13.3656 37.8311 13.329 37.7881 13.2832C37.5989 13.1342 37.4602 12.9307 37.3907 12.7001C37.3212 12.4696 37.3244 12.2232 37.3998 11.9946C37.4751 11.7659 37.619 11.5659 37.8119 11.4218C38.0048 11.2778 38.2374 11.1965 38.4781 11.1892H40.3841C40.4989 11.1892 40.6091 11.2348 40.6903 11.316C40.7715 11.3972 40.8171 11.5074 40.8171 11.6222V18.3712C40.8104 18.6123 40.7294 18.8455 40.5853 19.0389C40.4411 19.2323 40.2408 19.3765 40.0117 19.4519C39.7826 19.5272 39.5358 19.53 39.305 19.46C39.0742 19.3899 38.8706 19.2503 38.7221 19.0602C38.677 19.0176 38.6409 18.9663 38.616 18.9094C38.5911 18.8526 38.5778 18.7913 38.5771 18.7292Z" fill="#313131"/>
<path d="M79.1393 26.4411C79.1405 25.8302 78.9914 25.2283 78.7049 24.6887C78.4185 24.149 78.0036 23.6882 77.4969 23.3468C76.9902 23.0055 76.4073 22.7941 75.7996 22.7314C75.1919 22.6686 74.5781 22.7564 74.0123 22.987C73.4466 23.2177 72.9463 23.584 72.5556 24.0538C72.165 24.5235 71.8959 25.0822 71.7723 25.6805C71.6487 26.2788 71.6742 26.8984 71.8467 27.4845C72.0192 28.0706 72.3333 28.6052 72.7613 29.0411C72.0789 29.7345 71.6964 30.6683 71.6963 31.6411C71.6963 31.9382 71.8143 32.2231 72.0244 32.4331C72.2344 32.6431 72.5193 32.7611 72.8163 32.7611C73.1134 32.7611 73.3982 32.6431 73.6083 32.4331C73.8183 32.2231 73.9363 31.9382 73.9363 31.6411C73.9363 31.2482 74.0924 30.8714 74.3702 30.5936C74.6481 30.3157 75.0249 30.1596 75.4178 30.1596C75.8107 30.1596 76.1876 30.3157 76.4654 30.5936C76.7432 30.8714 76.8993 31.2482 76.8993 31.6411C76.8993 31.9382 77.0173 32.2231 77.2274 32.4331C77.4374 32.6431 77.7223 32.7611 78.0193 32.7611C78.3164 32.7611 78.6012 32.6431 78.8113 32.4331C79.0213 32.2231 79.1393 31.9382 79.1393 31.6411C79.1392 30.6683 78.7567 29.7345 78.0743 29.0411C78.7566 28.3477 79.1391 27.414 79.1393 26.4411ZM75.4173 24.9601C75.7102 24.9601 75.9966 25.047 76.2401 25.2097C76.4837 25.3725 76.6735 25.6038 76.7856 25.8744C76.8977 26.145 76.927 26.4428 76.8698 26.7301C76.8127 27.0174 76.6717 27.2813 76.4645 27.4884C76.2574 27.6955 75.9935 27.8365 75.7062 27.8937C75.419 27.9508 75.1212 27.9215 74.8506 27.8094C74.5799 27.6973 74.3487 27.5075 74.1859 27.2639C74.0232 27.0204 73.9363 26.7341 73.9363 26.4411C73.9366 26.0484 74.0927 25.6717 74.3703 25.3939C74.648 25.116 75.0245 24.9597 75.4173 24.9592V24.9601Z" fill="#313131"/>
<path d="M99.789 49.051H99.061V48.365C99.0659 48.102 98.9803 47.8453 98.8184 47.6379C98.6566 47.4306 98.4283 47.2851 98.172 47.226C98.0086 47.1917 97.8396 47.1944 97.6774 47.2338C97.5151 47.2733 97.3637 47.3484 97.2342 47.4539C97.1048 47.5593 97.0005 47.6923 96.929 47.8432C96.8575 47.9941 96.8206 48.159 96.821 48.326V49.054H96.135C95.872 49.0491 95.6153 49.1348 95.4079 49.2966C95.2006 49.4585 95.0551 49.6867 94.996 49.943C94.9618 50.1064 94.9644 50.2754 95.0039 50.4377C95.0433 50.5999 95.1185 50.7513 95.2239 50.8808C95.3293 51.0103 95.4623 51.1146 95.6132 51.1861C95.7641 51.2575 95.9291 51.2944 96.096 51.294H96.824V51.98C96.8191 52.243 96.9048 52.4997 97.0666 52.7071C97.2285 52.9144 97.4567 53.0599 97.713 53.119C97.8764 53.1533 98.0454 53.1506 98.2077 53.1112C98.3699 53.0717 98.5213 52.9966 98.6508 52.8911C98.7803 52.7857 98.8846 52.6527 98.9561 52.5018C99.0276 52.3509 99.0644 52.186 99.064 52.019V51.291H99.75C100.013 51.2959 100.27 51.2102 100.477 51.0484C100.684 50.8865 100.83 50.6583 100.889 50.402C100.923 50.2386 100.921 50.0696 100.881 49.9073C100.842 49.7451 100.767 49.5937 100.661 49.4642C100.556 49.3347 100.423 49.2304 100.272 49.1589C100.121 49.0874 99.956 49.0506 99.789 49.051Z" fill="#FDFAF6"/>
<path d="M22.9101 37.402H22.2241V36.716C22.229 36.4532 22.1435 36.1966 21.9819 35.9892C21.8202 35.7819 21.5922 35.6364 21.3361 35.577C21.1726 35.5426 21.0035 35.5452 20.8411 35.5845C20.6788 35.6238 20.5272 35.699 20.3976 35.8044C20.268 35.9099 20.1636 36.0429 20.0921 36.1939C20.0205 36.3449 19.9836 36.51 19.9841 36.677V37.405H19.2981C19.0351 37.4001 18.7784 37.4858 18.571 37.6477C18.3637 37.8095 18.2182 38.0377 18.1591 38.294C18.1248 38.4575 18.1275 38.6265 18.1669 38.7887C18.2064 38.951 18.2815 39.1023 18.387 39.2318C18.4924 39.3613 18.6254 39.4656 18.7763 39.5371C18.9272 39.6086 19.0921 39.6455 19.2591 39.645H19.9871V40.331C19.9822 40.5939 20.0677 40.8505 20.2293 41.0578C20.391 41.2652 20.619 41.4107 20.8751 41.47C21.0386 41.5045 21.2077 41.5019 21.3701 41.4626C21.5325 41.4232 21.684 41.3481 21.8136 41.2426C21.9432 41.1372 22.0476 41.0041 22.1191 40.8531C22.1907 40.7022 22.2276 40.5371 22.2271 40.37V39.642H22.9551C23.1221 39.6425 23.287 39.6056 23.4379 39.5341C23.5888 39.4626 23.7218 39.3583 23.8272 39.2288C23.9327 39.0994 24.0078 38.948 24.0473 38.7857C24.0867 38.6235 24.0894 38.4545 24.0551 38.291C23.9958 38.0337 23.8495 37.8047 23.6408 37.6427C23.4322 37.4808 23.1741 37.3957 22.9101 37.402Z" fill="#FDFAF6"/>
<path d="M92.5791 89.374H91.8931V88.688C91.8979 88.425 91.8123 88.1683 91.6504 87.9609C91.4886 87.7536 91.2604 87.6081 91.004 87.549C90.8406 87.5147 90.6716 87.5174 90.5094 87.5568C90.3471 87.5963 90.1957 87.6714 90.0663 87.7769C89.9368 87.8823 89.8325 88.0153 89.761 88.1662C89.6895 88.3171 89.6526 88.482 89.6531 88.649V89.377H88.9671C88.704 89.3721 88.4473 89.4578 88.24 89.6196C88.0326 89.7815 87.8872 90.0097 87.828 90.266C87.7938 90.4294 87.7965 90.5984 87.8359 90.7607C87.8753 90.9229 87.9505 91.0743 88.0559 91.2038C88.1613 91.3333 88.2943 91.4376 88.4452 91.5091C88.5961 91.5806 88.7611 91.6174 88.9281 91.617H89.6561V92.303C89.6512 92.566 89.7368 92.8227 89.8987 93.0301C90.0605 93.2374 90.2887 93.3829 90.5451 93.442C90.7085 93.4763 90.8775 93.4736 91.0397 93.4342C91.202 93.3947 91.3534 93.3196 91.4828 93.2142C91.6123 93.1087 91.7166 92.9757 91.7881 92.8248C91.8596 92.6739 91.8965 92.509 91.896 92.342V91.614H92.6241C92.791 91.6144 92.956 91.5775 93.1069 91.5061C93.2577 91.4346 93.3908 91.3303 93.4962 91.2008C93.6016 91.0713 93.6768 90.9199 93.7162 90.7577C93.7556 90.5954 93.7583 90.4264 93.724 90.263C93.6647 90.0057 93.5184 89.7767 93.3098 89.6147C93.1012 89.4527 92.8431 89.3677 92.5791 89.374Z" fill="#FDFAF6"/>
<path d="M16.9804 31.626C16.1795 31.628 15.4056 31.3366 14.8049 30.8068C14.2042 30.2771 13.8183 29.5457 13.7201 28.7509C13.6218 27.956 13.8181 27.1527 14.2718 26.4927C14.7255 25.8327 15.4052 25.3617 16.1825 25.1686C16.9598 24.9756 17.7808 25.0739 18.4906 25.445C19.2003 25.816 19.7496 26.4342 20.0347 27.1826C20.3198 27.9311 20.3209 28.758 20.0378 29.5072C19.7548 30.2564 19.2071 30.876 18.4984 31.249C18.0301 31.4952 17.5093 31.6246 16.9804 31.626ZM16.9804 27.326C16.7895 27.3261 16.6024 27.3791 16.4398 27.4792C16.2772 27.5792 16.1456 27.7224 16.0596 27.8928C15.9735 28.0632 15.9364 28.2541 15.9524 28.4443C15.9683 28.6345 16.0367 28.8166 16.15 28.9702C16.2632 29.1239 16.4169 29.2432 16.5938 29.3147C16.7708 29.3863 16.9641 29.4074 17.1523 29.3757C17.3406 29.3439 17.5163 29.2606 17.66 29.135C17.8037 29.0093 17.9098 28.8463 17.9664 28.664V28.351C17.9711 28.1417 17.9109 27.936 17.7939 27.7623C17.677 27.5886 17.5091 27.4554 17.3134 27.381C17.207 27.3434 17.0952 27.3234 16.9824 27.322L16.9804 27.326Z" fill="#FDFAF6"/>
<path d="M65.8432 11.2442C65.1538 11.2453 64.4816 11.0286 63.9226 10.625C63.3636 10.2214 62.9464 9.6516 62.7305 8.99682C62.5146 8.34205 62.511 7.6358 62.7203 6.97889C62.9296 6.32197 63.3411 5.74796 63.896 5.33877C64.4509 4.92959 65.1209 4.70613 65.8103 4.70031C66.4997 4.69449 67.1734 4.90659 67.7351 5.30635C68.2968 5.70611 68.7179 6.27309 68.9383 6.92637C69.1587 7.57966 69.167 8.28586 68.9622 8.94419C68.7546 9.60948 68.3402 10.1912 67.7793 10.6048C67.2184 11.0185 66.5402 11.2424 65.8432 11.2442ZM65.8432 6.94419C65.6526 6.94415 65.4656 6.99698 65.3032 7.09681C65.1407 7.19664 65.0091 7.33956 64.9231 7.50968C64.837 7.67981 64.7997 7.87047 64.8155 8.06048C64.8313 8.2505 64.8995 8.43242 65.0124 8.58602C65.1254 8.73962 65.2787 8.85889 65.4554 8.93056C65.6321 9.00224 65.8252 9.02352 66.0132 8.99204C66.2013 8.96056 66.3769 8.87754 66.5206 8.75223C66.6643 8.62692 66.7704 8.46421 66.8272 8.28219C66.8751 8.12793 66.8862 7.96456 66.8594 7.80525C66.8326 7.64595 66.7688 7.49517 66.673 7.36507C66.5773 7.23497 66.4523 7.12918 66.3082 7.05625C66.164 6.98332 66.0048 6.94527 65.8432 6.94519V6.94419Z" fill="#FDFAF6"/>
<path d="M88.2041 12.6901H76.8511C76.5541 12.6901 76.2692 12.8081 76.0592 13.0181C75.8491 13.2282 75.7311 13.5131 75.7311 13.8101C75.7311 14.1071 75.8491 14.392 76.0592 14.6021C76.2692 14.8121 76.5541 14.9301 76.8511 14.9301H83.5971C82.8072 15.9436 82.3788 17.1921 82.3801 18.4771V38.4141C79.7521 38.4141 77.2317 39.4581 75.3734 41.3164C73.5151 43.1747 72.4711 45.6951 72.4711 48.3231C72.4711 50.9511 73.5151 53.4715 75.3734 55.3298C77.2317 57.1881 79.7521 58.2321 82.3801 58.2321V88.3661C82.3958 88.8239 82.3192 89.2801 82.1548 89.7076C81.9905 90.1352 81.7417 90.5253 81.4234 90.8546C81.1051 91.184 80.7238 91.4459 80.3022 91.6248C79.8805 91.8037 79.4272 91.8959 78.9691 91.8959C78.5111 91.8959 78.0578 91.8037 77.6361 91.6248C77.2144 91.4459 76.8331 91.184 76.5148 90.8546C76.1965 90.5253 75.9478 90.1352 75.7834 89.7076C75.6191 89.2801 75.5424 88.8239 75.5581 88.3661V84.5391C75.5571 83.6483 75.2027 82.7943 74.5728 82.1644C73.9429 81.5345 73.0889 81.1802 72.1981 81.1791H37.4511V47.2421L39.2871 46.3061L44.0871 48.7541C44.4289 48.9283 44.8097 49.0118 45.1931 48.9965C45.5764 48.9813 45.9494 48.8679 46.2763 48.6671C46.6032 48.4664 46.8731 48.185 47.06 47.8501C47.247 47.5151 47.3449 47.1377 47.3441 46.7541V25.8081C49.0667 24.5578 50.4743 22.9234 51.4555 21.0346C52.4367 19.1457 52.9645 17.0543 52.9971 14.9261H70.5531C70.8502 14.9261 71.1351 14.8081 71.3451 14.5981C71.5551 14.388 71.6731 14.1031 71.6731 13.8061C71.6731 13.5091 71.5551 13.2242 71.3451 13.0141C71.1351 12.8041 70.8502 12.6861 70.5531 12.6861H52.8531C52.5199 10.4494 51.6389 8.32981 50.2885 6.51592C48.9381 4.70204 47.1602 3.25015 45.113 2.2895C43.0658 1.32884 40.8129 0.889206 38.5548 1.00973C36.2966 1.13026 34.1033 1.80721 32.17 2.98032C30.2367 4.15344 28.6234 5.78632 27.4738 7.73364C26.3241 9.68097 25.6737 11.8823 25.5805 14.1418C25.4873 16.4012 25.9541 18.6487 26.9394 20.6841C27.9248 22.7195 29.3981 24.4797 31.2281 25.8081V32.2761C31.2281 32.5731 31.3461 32.858 31.5562 33.0681C31.7662 33.2781 32.0511 33.3961 32.3481 33.3961C32.6452 33.3961 32.93 33.2781 33.1401 33.0681C33.3501 32.858 33.4681 32.5731 33.4681 32.2761V27.1361C35.2888 27.9918 37.2759 28.4354 39.2876 28.4354C41.2994 28.4354 43.2864 27.9918 45.1071 27.1361V46.7581L39.7961 44.0501C39.6386 43.9699 39.4644 43.928 39.2876 43.928C39.1109 43.928 38.9366 43.9699 38.7791 44.0501L33.4681 46.7571V38.5711C33.4681 38.2741 33.3501 37.9892 33.1401 37.7791C32.93 37.5691 32.6452 37.4511 32.3481 37.4511C32.0511 37.4511 31.7662 37.5691 31.5562 37.7791C31.3461 37.9892 31.2281 38.2741 31.2281 38.5711V46.7581C31.2274 47.1417 31.3252 47.5191 31.5122 47.8541C31.6992 48.189 31.9691 48.4704 32.296 48.6711C32.6229 48.8719 32.9959 48.9853 33.3792 49.0005C33.7625 49.0158 34.1433 48.9323 34.4851 48.7581L35.2111 48.3881V81.1821H29.5111C28.6203 81.1832 27.7663 81.5375 27.1364 82.1674C26.5065 82.7973 26.1522 83.6513 26.1511 84.5421V88.3691C26.1546 89.9023 26.7656 91.3716 27.8503 92.4552C28.935 93.5388 30.4049 94.1483 31.9381 94.1501H79.1061C79.182 94.1501 79.2578 94.1424 79.3321 94.1271C80.7745 94.0009 82.1173 93.3393 83.0962 92.2724C84.0751 91.2056 84.6191 89.811 84.6211 88.3631V57.9971C86.823 57.5089 88.7924 56.2841 90.204 54.5252C91.6156 52.7663 92.3849 50.5784 92.3849 48.3231C92.3849 46.0678 91.6156 43.88 90.204 42.121C88.7924 40.3621 86.823 39.1374 84.6211 38.6491V31.3571H90.4761C91.3669 31.356 92.2209 31.0017 92.8508 30.3718C93.4807 29.7419 93.8351 28.8879 93.8361 27.9971V18.4721C93.8344 16.965 93.2453 15.518 92.1939 14.4382C91.1425 13.3584 89.7116 12.731 88.2051 12.6891L88.2041 12.6901ZM27.8111 14.7181C27.8109 12.4479 28.484 10.2286 29.7451 8.3409C31.0062 6.45319 32.7989 4.98188 34.8962 4.11301C36.9936 3.24414 39.3015 3.01676 41.5281 3.4596C43.7547 3.90245 45.8 4.99565 47.4053 6.60094C49.0106 8.20622 50.1038 10.2515 50.5466 12.4781C50.9895 14.7047 50.7621 17.0126 49.8932 19.11C49.0244 21.2074 47.553 23 45.6653 24.2611C43.7776 25.5223 41.5583 26.1953 39.2881 26.1951C36.2449 26.1919 33.3273 24.9816 31.1755 22.8298C29.0236 20.6779 27.8133 17.7603 27.8101 14.7171L27.8111 14.7181ZM71.8561 91.9181H31.9381C30.9977 91.917 30.0962 91.543 29.4312 90.8781C28.7662 90.2131 28.3922 89.3115 28.3911 88.3711V84.5441C28.3914 84.2471 28.5095 83.9624 28.7195 83.7524C28.9294 83.5425 29.2142 83.4244 29.5111 83.4241H72.1981C72.4951 83.4244 72.7798 83.5425 72.9898 83.7524C73.1998 83.9624 73.3179 84.2471 73.3181 84.5441V88.3711C73.3165 89.6561 73.7449 90.9048 74.5351 91.9181H71.8561ZM90.1381 48.3231C90.1381 49.8403 89.6882 51.3234 88.8453 52.5849C88.0024 53.8464 86.8044 54.8296 85.4027 55.4102C84.001 55.9908 82.4586 56.1427 80.9706 55.8467C79.4826 55.5507 78.1157 54.8201 77.0429 53.7473C75.9701 52.6745 75.2395 51.3077 74.9435 49.8196C74.6475 48.3316 74.7995 46.7892 75.3801 45.3875C75.9607 43.9859 76.9439 42.7878 78.2054 41.9449C79.4668 41.102 80.95 40.6521 82.4671 40.6521C84.5009 40.6545 86.4506 41.4634 87.8887 42.9015C89.3268 44.3396 90.1357 46.2894 90.1381 48.3231ZM91.5901 27.9971C91.5899 28.2941 91.4718 28.5788 91.2618 28.7888C91.0518 28.9988 90.7671 29.1168 90.4701 29.1171H84.6151V18.4731C84.6073 18.0102 84.6917 17.5503 84.8635 17.1203C85.0352 16.6903 85.2908 16.2988 85.6155 15.9686C85.9401 15.6385 86.3272 15.3762 86.7542 15.1972C87.1812 15.0182 87.6396 14.926 88.1026 14.926C88.5657 14.926 89.024 15.0182 89.4511 15.1972C89.8781 15.3762 90.2652 15.6385 90.5898 15.9686C90.9144 16.2988 91.1701 16.6903 91.3418 17.1203C91.5136 17.5503 91.598 18.0102 91.5901 18.4731V27.9971Z" fill="#313131"/>
<path d="M82.471 52.541C82.3239 52.5411 82.1783 52.5121 82.0424 52.4558C81.9065 52.3996 81.783 52.317 81.679 52.213L79.121 49.653C79.0171 49.5489 78.9347 49.4254 78.8784 49.2895C78.8222 49.1535 78.7934 49.0079 78.7935 48.8608C78.7936 48.7137 78.8226 48.5681 78.879 48.4322C78.9354 48.2964 79.0179 48.1729 79.122 48.069C79.2261 47.9651 79.3496 47.8826 79.4855 47.8264C79.6215 47.7702 79.7671 47.7413 79.9142 47.7414C80.0613 47.7415 80.2069 47.7706 80.3428 47.827C80.4787 47.8833 80.6021 47.9659 80.706 48.07L82.472 49.837L91.414 40.893C91.6241 40.683 91.909 40.5649 92.206 40.5649C92.5031 40.5649 92.788 40.683 92.998 40.893C93.2081 41.1031 93.3261 41.3879 93.3261 41.685C93.3261 41.9821 93.2081 42.267 92.998 42.477L83.264 52.213C83.1599 52.3171 83.0362 52.3997 82.9002 52.456C82.7641 52.5122 82.6183 52.5411 82.471 52.541Z" fill="white"/>
<defs>
<linearGradient id="paint0_linear" x1="57.3478" y1="6.21973" x2="57.3478" y2="89.8729" gradientUnits="userSpaceOnUse">
<stop stop-color="#5E5F6A" stop-opacity="0"/>
<stop offset="1" stop-color="#5E5F6A"/>
</linearGradient>
</defs>
</svg>
