<svg width="85" height="88" viewBox="0 0 85 88" fill="none" xmlns="http://www.w3.org/2000/svg">
<path d="M79.67 1.44758C73.1108 -1.75607 61.765 12.6892 47.9054 3.84529C37.992 -2.48036 22.1984 -1.9584 21.4407 12.6997C20.5816 29.3211 32.9549 35.9065 12.953 43.8532C-9.2682 52.6816 -1.26692 81.0826 24.5457 75.6461C38.9294 72.6165 43.2738 81.8917 50.2812 85.0244C61.5012 90.0404 81.2835 87.4603 74.2871 69.2501C65.0411 45.185 95.6594 9.25726 79.67 1.44758Z" fill="url(#paint0_linear)"/>
<path opacity="0.1" d="M72.2802 35.6645H77.7992C78.1626 36.8407 79.2583 37.6952 80.5538 37.6952C82.1461 37.6952 83.4368 36.4045 83.4368 34.8122C83.4368 33.2199 82.1461 31.9292 80.5538 31.9292C79.2583 31.9292 78.1628 32.7837 77.7992 33.9597H73.1325V22.9142C73.1325 22.8736 73.126 22.8349 73.1205 22.7959C74.3027 22.436 75.1632 21.3379 75.1632 20.0381C75.1632 18.4459 73.8724 17.1551 72.2802 17.1551C70.9073 17.1551 69.7606 18.1157 69.4703 19.4008H60.1339V16.0957C60.1339 16.0551 60.1275 16.0164 60.122 15.9774C61.3042 15.6176 62.1646 14.5194 62.1646 13.2197C62.1646 11.6274 60.8739 10.3367 59.2816 10.3367C57.6894 10.3367 56.3986 11.6274 56.3986 13.2197C56.3986 14.5194 57.2591 15.6176 58.4413 15.9774C58.4358 16.0164 58.4293 16.0553 58.4293 16.0957V20.2531C58.4293 20.7237 58.811 21.1054 59.2816 21.1054H69.6036C69.9259 21.9127 70.6008 22.5405 71.4396 22.7959C71.4342 22.8349 71.4277 22.8738 71.4277 22.9142V27.6099H62.1055C57.0142 22.5027 49.9716 19.342 42.1903 19.342C34.4091 19.342 27.3665 22.5027 22.2752 27.6099H12.9532V22.9142C12.9532 22.8736 12.9467 22.8349 12.9412 22.7959C13.7801 22.5405 14.4551 21.9129 14.7774 21.1054H25.0994C25.57 21.1054 25.9517 20.7237 25.9517 20.2531V16.0957C25.9517 16.0551 25.9452 16.0164 25.9398 15.9774C27.1219 15.6176 27.9824 14.5194 27.9824 13.2197C27.9824 11.6274 26.6917 10.3367 25.0994 10.3367C23.5071 10.3367 22.2164 11.6274 22.2164 13.2197C22.2164 14.5194 23.0769 15.6176 24.259 15.9774C24.2536 16.0164 24.2471 16.0553 24.2471 16.0957V19.4008H14.9109C14.6204 18.1157 13.4739 17.1551 12.101 17.1551C10.5087 17.1551 9.21801 18.4459 9.21801 20.0381C9.21801 21.3379 10.0785 22.436 11.2607 22.7959C11.2552 22.8349 11.2487 22.8738 11.2487 22.9142V33.9597H6.582C6.21858 32.7837 5.12285 31.9292 3.82735 31.9292C2.23507 31.9292 0.944336 33.2199 0.944336 34.8122C0.944336 36.4045 2.23507 37.6952 3.82735 37.6952C5.12285 37.6952 6.21858 36.8407 6.582 35.6645H12.101C12.5717 35.6645 12.9533 35.2828 12.9533 34.8122V29.3146H20.7119C17.3369 33.305 15.0548 38.2478 14.3244 43.6832H6.57825C6.10761 43.6832 5.72594 44.0648 5.72594 44.5355V62.3565C4.54993 62.7201 3.69524 63.8157 3.69524 65.1112C3.69524 66.7034 4.98597 67.9942 6.57825 67.9942C8.17053 67.9942 9.46126 66.7034 9.46126 65.1112C9.46126 63.8157 8.60674 62.7199 7.43056 62.3565V45.3878H14.146C14.0961 46.073 14.0697 46.7649 14.0697 47.463C14.0697 53.9405 16.261 59.9051 19.9412 64.6589H14.4074C13.9367 64.6589 13.5551 65.0406 13.5551 65.5112V75.936C12.379 76.2994 11.5244 77.3951 11.5244 78.6906C11.5244 80.2829 12.8151 81.5736 14.4074 81.5736C15.9996 81.5736 17.2904 80.2829 17.2904 78.6906C17.2904 77.3951 16.4359 76.2994 15.2597 75.936V66.3635H21.3716C24.3434 69.6343 28.0746 72.2029 32.2877 73.7885V80.3593C32.2877 81.4831 33.1988 82.3942 34.3227 82.3942H50.0587C51.1825 82.3942 52.0936 81.4831 52.0936 80.3593V73.7885C56.3067 72.2029 60.038 69.6343 63.0098 66.3635H69.1217V75.936C67.9457 76.2994 67.091 77.3951 67.091 78.6906C67.091 80.2829 68.3817 81.5736 69.974 81.5736C71.5663 81.5736 72.857 80.2829 72.857 78.6906C72.857 77.3951 72.0025 76.2994 70.8263 75.936V65.5112C70.8263 65.0406 70.4446 64.6589 69.974 64.6589H64.4401C68.1204 59.9051 70.3115 53.9403 70.3115 47.463C70.3115 46.7649 70.2852 46.073 70.2351 45.3878H76.9506V62.3565C75.7744 62.7199 74.9199 63.8157 74.9199 65.1112C74.9199 66.7034 76.2107 67.9942 77.8029 67.9942C79.3952 67.9942 80.6859 66.7034 80.6859 65.1112C80.6859 63.8157 79.8314 62.7201 78.6552 62.3565V44.5355C78.6552 44.0648 78.2736 43.6832 77.8029 43.6832H70.0568C69.3264 38.2478 67.0443 33.3048 63.6693 29.3146H71.4279V34.8122C71.4279 35.2828 71.8093 35.6645 72.2802 35.6645ZM14.3119 43.7658C14.3116 43.768 14.3112 43.7703 14.3109 43.7726C14.3061 43.7703 14.3076 43.768 14.3119 43.7658ZM70.0701 43.7726C70.0698 43.7706 70.0695 43.7686 70.0693 43.7665C70.0732 43.7686 70.0744 43.7704 70.0701 43.7726Z" fill="#313131"/>
<path d="M12.1018 18.83C13.694 18.83 14.9848 17.5392 14.9848 15.947C14.9848 14.3547 13.694 13.064 12.1018 13.064C10.5095 13.064 9.21875 14.3547 9.21875 15.947C9.21875 17.5392 10.5095 18.83 12.1018 18.83Z" fill="#585972"/>
<path d="M3.82784 33.6042C5.42008 33.6042 6.71085 32.3134 6.71085 30.7211C6.71085 29.1289 5.42008 27.8381 3.82784 27.8381C2.23559 27.8381 0.944824 29.1289 0.944824 30.7211C0.944824 32.3134 2.23559 33.6042 3.82784 33.6042Z" fill="white"/>
<path d="M14.4079 77.4823C16.0002 77.4823 17.2909 76.1916 17.2909 74.5993C17.2909 73.0071 16.0002 71.7163 14.4079 71.7163C12.8157 71.7163 11.5249 73.0071 11.5249 74.5993C11.5249 76.1916 12.8157 77.4823 14.4079 77.4823Z" fill="#585972"/>
<path d="M25.0998 12.0116C26.692 12.0116 27.9828 10.7209 27.9828 9.12862C27.9828 7.53637 26.692 6.24561 25.0998 6.24561C23.5076 6.24561 22.2168 7.53637 22.2168 9.12862C22.2168 10.7209 23.5076 12.0116 25.0998 12.0116Z" fill="white"/>
<path d="M72.2795 18.83C73.8717 18.83 75.1625 17.5392 75.1625 15.947C75.1625 14.3547 73.8717 13.064 72.2795 13.064C70.6873 13.064 69.3965 14.3547 69.3965 15.947C69.3965 17.5392 70.6873 18.83 72.2795 18.83Z" fill="white"/>
<path d="M80.5529 33.6039C82.1452 33.6039 83.4359 32.3131 83.4359 30.7209C83.4359 29.1287 82.1452 27.8379 80.5529 27.8379C78.9607 27.8379 77.6699 29.1287 77.6699 30.7209C77.6699 32.3131 78.9607 33.6039 80.5529 33.6039Z" fill="white"/>
<path d="M69.9729 77.4823C71.5651 77.4823 72.8559 76.1916 72.8559 74.5993C72.8559 73.0071 71.5651 71.7163 69.9729 71.7163C68.3806 71.7163 67.0898 73.0071 67.0898 74.5993C67.0898 76.1916 68.3806 77.4823 69.9729 77.4823Z" fill="white"/>
<path d="M59.2819 12.0116C60.8742 12.0116 62.1649 10.7209 62.1649 9.12862C62.1649 7.53637 60.8742 6.24561 59.2819 6.24561C57.6897 6.24561 56.3989 7.53637 56.3989 9.12862C56.3989 10.7209 57.6897 12.0116 59.2819 12.0116Z" fill="#585972"/>
<path d="M42.1906 71.4926C57.7213 71.4926 70.3115 58.9025 70.3115 43.3718C70.3115 27.8411 57.7213 15.251 42.1906 15.251C26.6599 15.251 14.0698 27.8411 14.0698 43.3718C14.0698 58.9025 26.6599 71.4926 42.1906 71.4926Z" fill="#FDFAF6"/>
<path d="M61.8168 23.2334C56.7507 26.687 49.8266 28.8143 42.1916 28.8143C34.5567 28.8143 27.6325 26.687 22.5664 23.2334C27.6325 18.2935 34.5567 15.2507 42.1916 15.2507C49.8266 15.2509 56.7507 18.2936 61.8168 23.2334Z" fill="#585972"/>
<path d="M42.1915 71.4926C53.0491 71.4926 61.8508 58.9025 61.8508 43.3718C61.8508 27.8411 53.0491 15.251 42.1915 15.251C31.334 15.251 22.5322 27.8411 22.5322 43.3718C22.5322 58.9025 31.334 71.4926 42.1915 71.4926Z" fill="#585972"/>
<path d="M42.1914 71.4926C46.9243 71.4926 50.7611 58.9025 50.7611 43.3718C50.7611 27.8411 46.9243 15.251 42.1914 15.251C37.4584 15.251 33.6216 27.8411 33.6216 43.3718C33.6216 58.9025 37.4584 71.4926 42.1914 71.4926Z" fill="#FDFAF6"/>
<path d="M57.4632 25.6645C53.067 27.6571 47.8219 28.8146 42.1915 28.8146C36.5612 28.8146 31.3161 27.6571 26.9199 25.6645C30.5235 19.3114 36.026 15.251 42.1915 15.251C48.3571 15.251 53.8596 19.3112 57.4632 25.6645Z" fill="#FDFAF6"/>
<path d="M49.4 28.1617C47.1005 28.5879 44.6834 28.8146 42.1912 28.8146C39.6991 28.8146 37.2819 28.5879 34.9824 28.1617C36.5063 20.3938 39.1655 15.251 42.1912 15.251C45.2169 15.251 47.8761 20.3938 49.4 28.1617Z" fill="#585972"/>
<path d="M70.312 43.3721C70.312 58.9028 57.7219 71.4929 42.1911 71.4929C26.6604 71.4929 14.0703 58.9026 14.0703 43.3721H70.312Z" fill="#585972"/>
<path d="M61.8173 63.5101C56.7512 68.4501 49.8271 71.4928 42.1921 71.4928C34.5571 71.4928 27.633 68.4501 22.5669 63.5101C27.633 60.0566 34.5571 57.9292 42.1921 57.9292C49.8271 57.9292 56.7512 60.0566 61.8173 63.5101Z" fill="#FDFAF6"/>
<path d="M61.8513 43.3718C61.8513 58.9026 53.0495 71.4926 42.192 71.4926C31.3345 71.4926 22.5327 58.9026 22.5327 43.3718H61.8513Z" fill="#FDFAF6"/>
<path d="M50.7616 43.3718C50.7616 58.9026 46.9247 71.4926 42.1918 71.4926C37.459 71.4926 33.6221 58.9026 33.6221 43.3718H50.7616Z" fill="#585972"/>
<path d="M57.4637 61.0793C53.8601 67.4324 48.3576 71.4928 42.192 71.4928C36.0265 71.4928 30.524 67.4324 26.9204 61.0793C31.3166 59.0866 36.5617 57.9292 42.192 57.9292C47.8224 57.9292 53.0675 59.0866 57.4637 61.0793Z" fill="#585972"/>
<path d="M49.4 58.5818C47.8761 66.3497 45.2169 71.4926 42.1912 71.4926C39.1655 71.4926 36.5063 66.3497 34.9824 58.5818C37.2819 58.1557 39.6991 57.929 42.1912 57.929C44.6834 57.929 47.1005 58.1557 49.4 58.5818Z" fill="#FDFAF6"/>
<path d="M37.9291 61.598V52.8997C37.9291 50.5497 39.8409 48.6378 42.1909 48.6378C44.5409 48.6378 46.4528 50.5497 46.4528 52.8997V61.598H50.355V52.8997C50.355 48.398 46.6926 44.7356 42.1909 44.7356C37.6892 44.7356 34.0269 48.398 34.0269 52.8997V61.598H37.9291Z" fill="white"/>
<path d="M50.059 78.3031H34.3231C33.1992 78.3031 32.2881 77.392 32.2881 76.2681V62.3975C32.2881 61.2737 33.1992 60.3625 34.3231 60.3625H50.059C51.1829 60.3625 52.094 61.2737 52.094 62.3975V76.2681C52.094 77.392 51.1829 78.3031 50.059 78.3031Z" fill="#585972"/>
<path d="M77.8029 63.903C79.3952 63.903 80.6859 62.6122 80.6859 61.02C80.6859 59.4277 79.3952 58.137 77.8029 58.137C76.2107 58.137 74.9199 59.4277 74.9199 61.02C74.9199 62.6122 76.2107 63.903 77.8029 63.903Z" fill="white"/>
<path d="M6.57832 63.903C8.17057 63.903 9.46133 62.6122 9.46133 61.02C9.46133 59.4277 8.17057 58.137 6.57832 58.137C4.98608 58.137 3.69531 59.4277 3.69531 61.02C3.69531 62.6122 4.98608 63.903 6.57832 63.903Z" fill="white"/>
<path d="M72.2799 31.5735H76.9175C77.3043 33.2237 78.7871 34.4565 80.5534 34.4565C82.6131 34.4565 84.2887 32.7809 84.2887 30.7212C84.2887 28.6615 82.6131 26.9859 80.5534 26.9859C78.7871 26.9859 77.3043 28.2187 76.9175 29.8689H73.1322V19.5833C74.7823 19.1965 76.0152 17.7136 76.0152 15.9473C76.0152 13.8876 74.3396 12.212 72.2799 12.212C70.4376 12.212 68.9036 13.553 68.6002 15.31H60.1337V12.7648C61.7838 12.378 63.0167 10.8952 63.0167 9.12887C63.0167 7.06919 61.3411 5.39355 59.2814 5.39355C57.2217 5.39355 55.5461 7.06919 55.5461 9.12887C55.5461 10.8952 56.7789 12.378 58.4291 12.7648V16.1623C58.4291 16.6329 58.8108 17.0146 59.2814 17.0146H68.7009C69.0814 18.2881 70.1239 19.2776 71.4276 19.5833V23.519H63.2878C61.4154 21.5303 59.2667 19.8033 56.9021 18.4069C52.4619 15.7847 47.3747 14.3987 42.1903 14.3987C33.8905 14.3987 26.3958 17.9078 21.1087 23.5189H12.9529V19.5831C14.2566 19.2775 15.2992 18.2878 15.6796 17.0144H25.0991C25.5698 17.0144 25.9515 16.6327 25.9515 16.1621V12.7648C27.6017 12.378 28.8345 10.8952 28.8345 9.12887C28.8345 7.06919 27.1588 5.39355 25.0991 5.39355C23.0395 5.39355 21.3638 7.06919 21.3638 9.12887C21.3638 10.8952 22.5966 12.378 24.2468 12.7648V15.31H15.7804C15.4769 13.5529 13.943 12.2118 12.1006 12.2118C10.0409 12.2118 8.36531 13.8875 8.36531 15.9472C8.36531 17.7135 9.59808 19.1963 11.2483 19.5831V29.8687H7.46305C7.07628 28.2187 5.59343 26.9857 3.82711 26.9857C1.76743 26.9857 0.0917969 28.6613 0.0917969 30.721C0.0917969 32.7807 1.76743 34.4563 3.82711 34.4563C5.59343 34.4563 7.07628 33.2236 7.46305 31.5733H12.1006C12.5713 31.5733 12.9529 31.1917 12.9529 30.721V25.2235H19.6234C16.3659 29.2661 14.1697 34.1976 13.4636 39.592H6.57802C6.10738 39.592 5.72571 39.9737 5.72571 40.4443V57.3841C4.07565 57.7709 2.8427 59.2537 2.8427 61.0202C2.8427 63.0799 4.51834 64.7555 6.57802 64.7555C8.6377 64.7555 10.3133 63.0799 10.3133 61.0202C10.3133 59.2537 9.08056 57.7709 7.43033 57.3841V41.2966H13.2923C13.2436 41.9822 13.2173 42.6739 13.2173 43.3718C13.2173 49.8055 15.3264 55.755 18.8881 60.5678H14.4071C13.9365 60.5678 13.5548 60.9494 13.5548 61.4201V70.9634C11.9048 71.3501 10.6718 72.833 10.6718 74.5993C10.6718 76.659 12.3475 78.3346 14.4071 78.3346C16.4668 78.3346 18.1425 76.659 18.1425 74.5993C18.1425 72.833 16.9097 71.3501 15.2594 70.9634V62.2724H20.2511C23.2624 65.7624 27.0901 68.529 31.435 70.2725V76.2681C31.435 77.86 32.7302 79.1554 34.3223 79.1554H35.6577H35.6585C35.6585 79.1554 35.659 79.1554 35.6594 79.1554H39.8205C40.2912 79.1554 40.6728 78.7737 40.6728 78.3031C40.6728 77.8324 40.2912 77.4508 39.8205 77.4508H36.5108V71.9982C36.5108 71.5283 36.8932 71.1459 37.3632 71.1459H47.0176C47.4875 71.1459 47.8699 71.5283 47.8699 71.9982V77.4508H44.7315C44.2609 77.4508 43.8792 77.8324 43.8792 78.3031C43.8792 78.7737 44.2609 79.1554 44.7315 79.1554H48.7213H48.7222C48.7222 79.1554 48.7227 79.1554 48.723 79.1554H50.0584C51.6504 79.1554 52.9457 77.8602 52.9457 76.2681V70.2723C57.2906 68.529 61.1183 65.7624 64.1297 62.2724H69.1213V70.9634C67.4712 71.3501 66.2383 72.833 66.2383 74.5993C66.2383 76.659 67.9139 78.3346 69.9736 78.3346C72.0333 78.3346 73.7089 76.659 73.7089 74.5993C73.7089 72.833 72.4761 71.3501 70.8259 70.9634V61.4201C70.8259 60.9494 70.4442 60.5678 69.9736 60.5678H65.4927C69.0543 55.755 71.1634 49.8055 71.1634 43.3718C71.1634 42.677 71.1377 41.9851 71.0889 41.2966H76.9504V57.3841C75.3002 57.7709 74.0674 59.2537 74.0674 61.0202C74.0674 63.0799 75.743 64.7555 77.8027 64.7555C79.8624 64.7555 81.538 63.0799 81.538 61.0202C81.538 59.2537 80.3052 57.7709 78.655 57.3841V40.4443C78.655 39.9737 78.2733 39.592 77.8027 39.592H70.919C70.6493 37.5229 70.157 35.4934 69.446 33.5256C69.2859 33.0828 68.7972 32.8538 68.3547 33.0137C67.912 33.1736 67.6829 33.6623 67.8428 34.105C68.9152 37.0728 69.4588 40.1905 69.4588 43.3718C69.4588 54.59 62.6482 64.2455 52.9455 68.4266V62.3975C52.9455 61.2135 52.2286 60.1948 51.2067 59.7499V52.8997C51.2067 47.9281 47.1619 43.8832 42.1903 43.8832C37.2186 43.8832 33.1737 47.9281 33.1737 52.8997V59.7499C32.1518 60.195 31.435 61.2137 31.435 62.3975V68.426C21.7324 64.2451 14.9218 54.59 14.9218 43.3718C14.9218 28.3358 27.1544 16.1033 42.1903 16.1033C47.0701 16.1033 51.8575 17.4073 56.0353 19.8746C60.0925 22.2706 63.4802 25.6945 65.8327 29.7758C66.0678 30.1837 66.5892 30.3237 66.9968 30.0886C67.4047 29.8536 67.5447 29.3325 67.3096 28.9245C66.5599 27.6239 65.7095 26.3876 64.7725 25.2233H71.4276V30.7209C71.4276 31.1918 71.8091 31.5735 72.2799 31.5735ZM80.5534 28.6905C81.6732 28.6905 82.5841 29.6014 82.5841 30.7212C82.5841 31.841 81.6732 32.7519 80.5534 32.7519C79.4337 32.7519 78.5227 31.841 78.5227 30.7212C78.5227 29.6014 79.4337 28.6905 80.5534 28.6905ZM57.2507 9.1287C57.2507 8.00894 58.1616 7.098 59.2814 7.098C60.4012 7.098 61.3121 8.00894 61.3121 9.1287C61.3121 10.2331 60.4255 11.1325 59.3271 11.157C59.3117 11.1562 59.2971 11.1524 59.2814 11.1524C59.2657 11.1524 59.2512 11.1562 59.2357 11.157C58.1373 11.1325 57.2507 10.2331 57.2507 9.1287ZM23.0686 9.1287C23.0686 8.00894 23.9796 7.098 25.0993 7.098C26.2191 7.098 27.13 8.00894 27.13 9.1287C27.13 10.2331 26.2435 11.1325 25.1448 11.157C25.1295 11.1562 25.1148 11.1524 25.0991 11.1524C25.0835 11.1524 25.069 11.1562 25.0535 11.157C23.955 11.1325 23.0686 10.2331 23.0686 9.1287ZM3.82711 32.7519C2.70735 32.7519 1.79641 31.841 1.79641 30.7212C1.79641 29.6014 2.70735 28.6905 3.82711 28.6905C4.94687 28.6905 5.85782 29.6014 5.85782 30.7212C5.85782 31.841 4.94687 32.7519 3.82711 32.7519ZM10.0701 15.9472C10.0701 14.8274 10.981 13.9164 12.1008 13.9164C13.2206 13.9164 14.1315 14.8274 14.1315 15.9472C14.1315 17.0516 13.2449 17.9509 12.1465 17.9755C12.1311 17.9746 12.1165 17.9709 12.1008 17.9709C12.0851 17.9709 12.0706 17.9746 12.0551 17.9755C10.9565 17.9509 10.0701 17.0516 10.0701 15.9472ZM8.60872 61.0202C8.60872 62.1399 7.69778 63.0509 6.57802 63.0509C5.45826 63.0509 4.54731 62.1399 4.54731 61.0202C4.54731 59.9004 5.45826 58.9895 6.57802 58.9895C7.69778 58.9895 8.60872 59.9004 8.60872 61.0202ZM16.4377 74.5995C16.4377 75.7192 15.5267 76.6302 14.407 76.6302C13.2872 76.6302 12.3763 75.7192 12.3763 74.5995C12.3763 73.4797 13.2872 72.5688 14.407 72.5688C15.5267 72.5688 16.4377 73.4797 16.4377 74.5995ZM72.0041 74.5995C72.0041 75.7192 71.0932 76.6302 69.9734 76.6302C68.8537 76.6302 67.9427 75.7192 67.9427 74.5995C67.9427 73.4797 68.8537 72.5688 69.9734 72.5688C71.0932 72.5688 72.0041 73.4797 72.0041 74.5995ZM79.8332 61.0202C79.8332 62.1399 78.9223 63.0509 77.8025 63.0509C76.6828 63.0509 75.7718 62.1399 75.7718 61.0202C75.7718 59.9004 76.6828 58.9895 77.8025 58.9895C78.9223 58.9895 79.8332 59.9004 79.8332 61.0202ZM42.1903 45.5878C46.222 45.5878 49.502 48.8678 49.502 52.8997V59.5102H47.3045V52.8997C47.3045 50.0798 45.0102 47.7856 42.1903 47.7856C39.3703 47.7856 37.0761 50.0798 37.0761 52.8997V59.5102H34.8785V52.8997C34.8783 48.868 38.1585 45.5878 42.1903 45.5878ZM45.5998 59.5102H38.7805V52.8997C38.7805 51.0197 40.3101 49.4902 42.1901 49.4902C44.0701 49.4902 45.5997 51.0197 45.5997 52.8997V59.5102H45.5998ZM33.1396 62.3975C33.1396 61.7453 33.6701 61.2148 34.3223 61.2148H50.0583C50.7103 61.2148 51.2409 61.7453 51.2409 62.3975V76.2681C51.2409 76.9201 50.7104 77.4508 50.0583 77.4508H49.5743V71.9982C49.5743 70.5883 48.4273 69.4413 47.0174 69.4413H37.363C35.9531 69.4413 34.8061 70.5883 34.8061 71.9982V77.4508H34.3221C33.6701 77.4508 33.1395 76.9203 33.1395 76.2681V62.3975H33.1396ZM70.2492 15.9472C70.2492 14.8274 71.1602 13.9164 72.2799 13.9164C73.3997 13.9164 74.3106 14.8274 74.3106 15.9472C74.3106 17.0516 73.4241 17.9509 72.3256 17.9755C72.3103 17.9746 72.2956 17.9709 72.2799 17.9709C72.2642 17.9709 72.2498 17.9746 72.2342 17.9755C71.1356 17.9509 70.2492 17.0516 70.2492 15.9472Z" fill="#313131"/>
<path d="M35.8793 64.6338C36.3773 64.6338 36.781 64.2301 36.781 63.7321C36.781 63.234 36.3773 62.8303 35.8793 62.8303C35.3813 62.8303 34.9775 63.234 34.9775 63.7321C34.9775 64.2301 35.3813 64.6338 35.8793 64.6338Z" fill="#313131"/>
<path d="M48.5028 64.6338C49.0008 64.6338 49.4046 64.2301 49.4046 63.7321C49.4046 63.234 49.0008 62.8303 48.5028 62.8303C48.0048 62.8303 47.6011 63.234 47.6011 63.7321C47.6011 64.2301 48.0048 64.6338 48.5028 64.6338Z" fill="#313131"/>
<path d="M79.8077 76.9405C79.337 76.9405 78.9554 76.5589 78.9554 76.0882C78.9554 75.5712 78.5348 75.1507 78.0178 75.1507C77.5472 75.1507 77.1655 74.769 77.1655 74.2984C77.1655 73.8278 77.5472 73.4461 78.0178 73.4461C78.5348 73.4461 78.9554 73.0256 78.9554 72.5086C78.9554 72.0379 79.337 71.6562 79.8077 71.6562C80.2783 71.6562 80.66 72.0379 80.66 72.5086C80.66 73.0256 81.0805 73.4461 81.5975 73.4461C82.0682 73.4461 82.4498 73.8278 82.4498 74.2984C82.4498 74.769 82.0682 75.1507 81.5975 75.1507C81.0805 75.1507 80.66 75.5712 80.66 76.0882C80.66 76.5589 80.2783 76.9405 79.8077 76.9405Z" fill="#585972"/>
<path d="M36.796 11.7709C36.3253 11.7709 35.9437 11.3892 35.9437 10.9186C35.9437 10.4016 35.5231 9.98103 35.0061 9.98103C34.5355 9.98103 34.1538 9.59937 34.1538 9.12872C34.1538 8.65808 34.5355 8.27642 35.0061 8.27642C35.5231 8.27642 35.9437 7.85589 35.9437 7.33888C35.9437 6.86824 36.3253 6.48657 36.796 6.48657C37.2666 6.48657 37.6483 6.86824 37.6483 7.33888C37.6483 7.85589 38.0688 8.27642 38.5858 8.27642C39.0564 8.27642 39.4381 8.65808 39.4381 9.12872C39.4381 9.59937 39.0564 9.98103 38.5858 9.98103C38.069 9.98103 37.6483 10.4016 37.6483 10.9186C37.6483 11.3892 37.2666 11.7709 36.796 11.7709Z" fill="#585972"/>
<path d="M25.5191 80.1246C25.0485 80.1246 24.6668 79.743 24.6668 79.2723C24.6668 78.7553 24.2463 78.3348 23.7293 78.3348C23.2586 78.3348 22.877 77.9531 22.877 77.4825C22.877 77.0118 23.2586 76.6302 23.7293 76.6302C24.2463 76.6302 24.6668 76.2096 24.6668 75.6926C24.6668 75.222 25.0485 74.8403 25.5191 74.8403C25.9897 74.8403 26.3714 75.222 26.3714 75.6926C26.3714 76.2096 26.7919 76.6302 27.3089 76.6302C27.7796 76.6302 28.1613 77.0118 28.1613 77.4825C28.1613 77.9531 27.7796 78.3348 27.3089 78.3348C26.7919 78.3348 26.3714 78.7553 26.3714 79.2723C26.3714 79.7431 25.9897 80.1246 25.5191 80.1246Z" fill="#585972"/>
<path d="M43.5824 7.98572C43.3642 7.98572 43.1462 7.90253 42.9797 7.73616C42.6468 7.40325 42.6468 6.86357 42.9797 6.53083L44.6843 4.82622C45.0172 4.49348 45.5567 4.49348 45.8896 4.82622C46.2225 5.15913 46.2225 5.69881 45.8896 6.03155L44.185 7.73616C44.0186 7.90253 43.8006 7.98572 43.5824 7.98572Z" fill="#585972"/>
<path d="M75.3202 82.858C75.102 82.858 74.884 82.7748 74.7175 82.6085C74.3845 82.2756 74.3845 81.7359 74.7175 81.4031L76.4221 79.6985C76.755 79.3658 77.2945 79.3658 77.6274 79.6985C77.9603 80.0314 77.9603 80.5711 77.6274 80.9039L75.9228 82.6085C75.7566 82.7748 75.5384 82.858 75.3202 82.858Z" fill="#585972"/>
<path d="M44.7485 69.2884C44.7485 67.821 43.5131 66.6421 42.0259 66.7349C40.7778 66.8128 39.7516 67.8103 39.6416 69.056C39.5477 70.1199 40.1058 71.0634 40.9608 71.5327V73.9131C40.9608 74.5919 41.5111 75.1423 42.19 75.1423C42.8688 75.1423 43.4192 74.5921 43.4192 73.9131V71.5327C44.2112 71.0978 44.7485 70.2559 44.7485 69.2884Z" fill="white"/>
<defs>
<linearGradient id="paint0_linear" x1="12.9061" y1="79.5952" x2="85.7087" y2="6.79239" gradientUnits="userSpaceOnUse">
<stop stop-color="#313131" stop-opacity="0"/>
<stop offset="1" stop-color="#313131"/>
</linearGradient>
</defs>
</svg>
