<svg width="143" height="143" viewBox="0 0 143 143" fill="none" xmlns="http://www.w3.org/2000/svg">
<mask id="mask0" style="mask-type:alpha" maskUnits="userSpaceOnUse" x="0" y="0" width="143" height="143">
<circle cx="71.5" cy="71.5" r="71.5" fill="white"/>
</mask>
<g mask="url(#mask0)">
<path d="M254.921 -9.72531C254.541 -29.3757 251.641 -47.3642 242.469 -65.2333C231.948 -85.4887 217.392 -103.376 199.697 -117.795C188.073 -127.361 175.674 -135.945 162.628 -143.458C39.4541 -214.578 -160.247 -214.578 -283.429 -143.458C-295.34 -136.712 -306.675 -128.995 -317.317 -120.385C-326.631 -112.781 -335.324 -104.445 -343.312 -95.4582C-350.566 -87.1318 -356.771 -77.9464 -361.788 -68.1079C-366.369 -59.6519 -370.01 -50.7195 -372.647 -41.4707C-375.831 -29.2564 -375.997 -16.4969 -375.901 -3.95113C-375.901 8.04805 -376.258 20.0649 -375.615 32.0479C-375.425 35.3984 -375.165 38.7252 -374.784 42.0285C-374.309 46.1864 -373.621 50.3222 -372.812 54.4329C-370.781 64.0061 -367.338 73.2238 -362.594 81.7833C-351.627 101.255 -337.216 118.573 -320.06 132.895C-309.798 141.126 -298.993 148.657 -287.72 155.437C-286.342 156.321 -284.963 157.22 -283.562 158.028C-160.286 229.099 39.4026 229.099 162.592 157.814C185.338 145.012 205.806 128.527 223.161 109.03C236.997 93.229 246.941 74.4078 252.198 54.0734C255.453 40.5773 254.908 26.4152 254.908 12.6332V-5.21086C254.944 -6.73138 254.944 -8.22836 254.921 -9.72531Z" fill="#1D202C"/>
<path opacity="0.7" d="M162.511 114.074C39.3365 185.194 -160.365 185.194 -283.547 114.074C-406.729 42.9538 -406.705 -72.338 -283.547 -143.458C-160.389 -214.578 39.3291 -214.578 162.511 -143.458C285.693 -72.338 285.668 42.9553 162.511 114.074Z" fill="#5E606A"/>
<path d="M162.487 133.674C39.313 204.794 -160.389 204.794 -283.57 133.674C-289.274 130.394 -294.715 126.546 -300.203 122.815C-305.692 119.085 -310.729 115.521 -315.792 111.618C-320.854 107.715 -325.296 104.061 -329.74 99.9779C-333.955 96.1239 -337.968 92.0555 -341.764 87.7886C-345.36 83.7572 -348.739 79.5373 -351.886 75.147C-354.908 70.9824 -357.693 66.6506 -360.227 62.1725C-362.656 57.9083 -364.815 53.4957 -366.691 48.9607C-368.496 44.603 -370.022 40.1345 -371.258 35.5824C-372.433 31.122 -373.361 26.6003 -374.039 22.0377C-374.728 17.5233 -375.203 12.9602 -375.659 8.42221C-375.703 7.3242 -375.807 6.22937 -375.969 5.14247V24.149C-375.969 29.1865 -375.493 34.3433 -375.042 39.3572C-374.642 44.306 -373.944 49.2262 -372.951 54.091C-371.969 58.8517 -370.626 63.5309 -368.935 68.0881C-367.211 72.6931 -365.171 77.1731 -362.828 81.4958C-360.414 86.0073 -357.758 90.3847 -354.871 94.6089C-351.854 99.0762 -348.621 103.424 -345.2 107.607C-341.779 111.79 -337.739 116.3 -333.723 120.366C-329.428 124.682 -324.915 128.774 -320.201 132.628C-315.211 136.739 -310.007 140.565 -304.685 144.223C-299.363 147.882 -293.446 151.685 -287.741 155.274C-286.364 156.158 -284.985 157.08 -283.584 157.887C-160.409 229.102 39.2924 229.102 162.474 157.817C174.707 150.883 186.336 142.934 197.238 134.054C206.726 126.261 215.533 117.676 223.566 108.391C230.911 99.8087 237.154 90.3415 242.148 80.2096C246.668 71.5356 250.138 62.3541 252.486 52.8593C255.194 40.835 255.029 28.2892 254.98 16.0528V5.07764C254.309 14.2321 253.015 23.3302 251.107 32.3086C248.887 41.6035 245.493 50.5782 241.008 59.0165C236.018 68.2487 230.026 76.9026 223.139 84.8213C215.571 93.6479 207.163 101.719 198.036 108.921C187.864 116.838 177.301 124.238 166.384 131.091C165.172 131.966 163.747 132.893 162.487 133.674Z" fill="#7E848D"/>
<path opacity="0.33" d="M67.2007 16.6025L91.3435 18.0759L163.175 -23.603L110.447 -56.3945L67.2007 16.6025Z" fill="url(#paint0_linear)"/>
<path d="M67.083 0.612373L8.91406 -31.9655L67.6768 -64.7334L125.679 -31.5618L67.083 0.612373Z" fill="white"/>
<path d="M125.727 -15.7365L67.1547 16.4377L67.084 0.612122L125.679 -31.562L125.727 -15.7365Z" fill="#CAC4C5"/>
<path d="M67.1538 16.4376L8.95535 -16.1403L8.9082 -31.9658L67.0771 0.612019L67.1538 16.4376Z" fill="#F7F1F1"/>
<path d="M99.7554 -16.9961L92.4136 -12.9561L92.4607 2.46577L99.8099 -1.55067L99.7554 -16.9961Z" fill="url(#paint1_linear)"/>
<path d="M91.414 -12.4346L84.0957 -8.39459L84.1428 7.02727L91.4847 3.01083L91.414 -12.4346Z" fill="url(#paint2_linear)"/>
<path d="M83.0971 -7.84814L75.7788 -3.83172L75.826 11.6137L83.1442 7.57369L83.0971 -7.84814Z" fill="url(#paint3_linear)"/>
<path d="M74.7812 -3.28662L67.4629 0.729803L67.51 16.1752L74.8283 12.1352L74.7812 -3.28662Z" fill="url(#paint4_linear)"/>
<path d="M34.4814 -17.3999L41.8483 -13.242L41.8955 2.2034L34.5536 -1.95448L34.4814 -17.3999Z" fill="url(#paint5_linear)"/>
<path d="M42.8457 -12.6958L50.1875 -8.53794L50.2347 6.90748L42.8928 2.77318L42.8457 -12.6958Z" fill="url(#paint6_linear)"/>
<path d="M51.1865 -7.96729L58.5534 -3.83299L58.6006 11.6124L51.2337 7.45457L51.1865 -7.96729Z" fill="url(#paint7_linear)"/>
<path d="M59.5493 -3.26123L66.8912 0.896628L66.9383 16.3185L59.5714 12.1842L59.5493 -3.26123Z" fill="url(#paint8_linear)"/>
<path d="M135.303 -39.6895L176.079 -15.6896L176.008 33.5683L134.566 9.83077L135.303 -39.6895Z" fill="#F7F1F1"/>
<g opacity="0.15">
<path opacity="0.15" d="M10.695 138.595C8.19974 138.571 5.74179 139.202 3.5668 140.425C1.42893 141.685 4.70721 144.013 6.53714 144.75C6.91228 144.873 7.30633 144.93 7.7011 144.916C10.179 144.775 12.6031 144.136 14.8293 143.039C15.417 142.582 15.9027 142.008 16.2555 141.352L16.3749 141.091C16.379 140.839 16.2996 140.593 16.149 140.391C15.9984 140.189 15.7851 140.042 15.5424 139.974C14.3313 139.499 13.048 139.048 11.7116 138.62L10.695 138.595Z" fill="black"/>
</g>
<path d="M9.74645 141.733C9.73441 141.566 9.68014 141.404 9.58869 141.263C9.49724 141.121 9.37159 141.006 9.2234 140.926C8.80901 139.891 8.59164 138.787 8.58249 137.671C8.58715 136.224 8.75468 134.781 9.08195 133.371L6.42103 134.607C6.67653 135.607 6.77299 136.641 6.70686 137.671C6.79834 138.718 6.70154 139.772 6.42103 140.785C6.24203 140.856 6.08448 140.972 5.96365 141.122C5.84283 141.272 5.76287 141.451 5.7315 141.641C5.7293 141.814 5.78824 141.982 5.89798 142.117C6.1179 142.422 6.42045 142.658 6.76999 142.796C7.11953 142.935 7.50149 142.971 7.87084 142.9C8.96409 142.9 9.43852 142.45 9.60501 142.117C9.67977 142.001 9.72992 141.872 9.75234 141.736L9.74645 141.733Z" fill="#C4C4C3"/>
<path d="M5.87307 123.009C5.91028 123.665 5.74936 124.318 5.41121 124.882C5.07305 125.445 4.57327 125.894 3.9767 126.171C3.38013 126.447 2.7143 126.538 2.06562 126.431C1.41693 126.324 0.815324 126.025 0.338848 125.572C-0.137627 125.119 -0.466979 124.533 -0.606473 123.89C-0.745968 123.248 -0.68916 122.578 -0.443434 121.969C-0.197708 121.359 0.225588 120.837 0.771558 120.471C1.31753 120.105 1.96097 119.911 2.61838 119.915C3.45965 119.896 4.27422 120.211 4.88409 120.79C5.49396 121.37 5.84954 122.168 5.87307 123.009Z" fill="url(#paint9_radial)"/>
<path d="M14.3156 122.843C14.372 123.501 14.2283 124.161 13.9032 124.736C13.5782 125.312 13.0871 125.775 12.4941 126.067C11.9012 126.358 11.234 126.463 10.5801 126.369C9.9262 126.275 9.31601 125.986 8.8294 125.539C8.3428 125.092 8.00249 124.508 7.85306 123.865C7.70363 123.221 7.75204 122.548 7.99195 121.932C8.23186 121.316 8.65209 120.788 9.19759 120.415C9.74309 120.042 10.3884 119.843 11.0491 119.843C11.8703 119.844 12.6614 120.152 13.2662 120.707C13.8711 121.263 14.2455 122.025 14.3156 122.843Z" fill="url(#paint10_radial)"/>
<path d="M5.20722 128.759C5.25506 129.568 5.0588 130.372 4.64389 131.067C4.22899 131.763 3.61461 132.318 2.88047 132.66C2.14633 133.002 1.32633 133.115 0.526883 132.986C-0.272563 132.856 -1.01456 132.489 -1.60279 131.932C-2.19102 131.375 -2.59832 130.655 -2.77187 129.863C-2.94542 129.072 -2.87721 128.247 -2.57605 127.495C-2.2749 126.744 -1.7547 126.1 -1.08301 125.647C-0.411307 125.195 0.380893 124.954 1.1908 124.958C2.22673 124.932 3.23075 125.317 3.98337 126.03C4.73599 126.742 5.176 127.723 5.20722 128.759Z" fill="url(#paint11_radial)"/>
<path d="M16.6126 126.499C16.6795 127.327 16.4951 128.157 16.0835 128.879C15.6718 129.601 15.0519 130.183 14.3048 130.547C13.5577 130.912 12.718 131.043 11.8954 130.923C11.0728 130.803 10.3054 130.438 9.69345 129.875C9.0815 129.312 8.65339 128.578 8.46499 127.769C8.27659 126.959 8.33666 126.111 8.63736 125.336C8.93806 124.561 9.46541 123.895 10.1506 123.424C10.8358 122.953 11.647 122.7 12.4783 122.697C12.9995 122.675 13.5199 122.756 14.0099 122.935C14.4998 123.114 14.9497 123.388 15.3337 123.741C15.7177 124.094 16.0283 124.519 16.2478 124.992C16.4672 125.466 16.5912 125.978 16.6126 126.499Z" fill="url(#paint12_radial)"/>
<path d="M11.3847 133.416C11.2624 134.324 10.7974 135.15 10.0849 135.726C9.37253 136.301 8.46684 136.582 7.55386 136.511C6.99404 136.373 6.48376 136.082 6.08055 135.67C5.67734 135.258 5.39725 134.741 5.27185 134.179C5.14645 133.616 5.18073 133.03 5.37082 132.485C5.56091 131.941 5.89925 131.461 6.3477 131.099C6.79616 130.736 7.33689 130.507 7.90892 130.435C8.48095 130.364 9.06154 130.454 9.58522 130.695C10.1089 130.936 10.5549 131.318 10.8728 131.799C11.1907 132.28 11.368 132.84 11.3847 133.416Z" fill="url(#paint13_radial)"/>
<path d="M10.2681 120.204C10.3158 120.847 10.1689 121.489 9.84663 122.046C9.52437 122.604 9.04167 123.052 8.46136 123.331C7.88104 123.611 7.23001 123.709 6.59302 123.614C5.95603 123.518 5.3626 123.233 4.88999 122.795C4.41738 122.357 4.08747 121.788 3.94325 121.16C3.79903 120.532 3.84717 119.875 4.08138 119.275C4.31559 118.675 4.72503 118.16 5.2564 117.796C5.78777 117.432 6.41645 117.236 7.06057 117.234C7.87961 117.203 8.67735 117.499 9.27871 118.056C9.88007 118.613 10.2359 119.385 10.2681 120.204Z" fill="url(#paint14_radial)"/>
<path d="M3.37713 126.145C3.4201 126.664 3.30549 127.185 3.04824 127.638C2.79099 128.091 2.40307 128.456 1.93516 128.685C1.46725 128.914 0.9411 128.997 0.425425 128.922C-0.0902493 128.848 -0.57148 128.62 -0.955394 128.267C-1.33931 127.915 -1.60805 127.455 -1.72655 126.948C-1.84505 126.441 -1.80779 125.909 -1.61962 125.423C-1.43145 124.937 -1.10111 124.52 -0.671784 124.224C-0.242455 123.929 0.265911 123.77 0.786935 123.769C1.44161 123.755 2.07629 123.995 2.55878 124.437C3.04128 124.88 3.3344 125.492 3.37713 126.145Z" fill="url(#paint15_radial)"/>
<path d="M14.7116 125.713C14.7546 126.232 14.64 126.752 14.3827 127.205C14.1255 127.658 13.7376 128.023 13.2696 128.252C12.8017 128.482 12.2756 128.564 11.7599 128.49C11.2442 128.415 10.763 128.187 10.3791 127.835C9.99518 127.483 9.72642 127.023 9.60792 126.515C9.48942 126.008 9.52669 125.477 9.71486 124.991C9.90303 124.505 10.2334 124.087 10.6627 123.792C11.092 123.497 11.6004 123.338 12.1214 123.336C12.7777 123.317 13.4157 123.554 13.8995 123.998C14.3833 124.442 14.6747 125.057 14.7116 125.713Z" fill="url(#paint16_radial)"/>
<path d="M3.70971 131.802C3.54203 132.431 3.13504 132.969 2.57565 133.302C2.01625 133.636 1.3488 133.737 0.715807 133.584C0.398415 133.546 0.0920072 133.444 -0.18509 133.285C-0.462187 133.125 -0.704287 132.912 -0.896869 132.657C-1.08945 132.401 -1.22855 132.11 -1.30588 131.8C-1.38322 131.49 -1.39717 131.167 -1.34691 130.851C-1.16877 130.23 -0.758615 129.701 -0.201322 129.374C0.355971 129.047 1.01773 128.946 1.64699 129.094C1.96206 129.132 2.26625 129.233 2.54159 129.391C2.81693 129.549 3.05782 129.76 3.25009 130.013C3.44235 130.266 3.58209 130.554 3.66103 130.862C3.73997 131.169 3.75652 131.489 3.70971 131.803V131.802Z" fill="url(#paint17_radial)"/>
<path d="M6.32399 133.677C6.15101 134.301 5.74183 134.834 5.18303 135.162C4.62424 135.49 3.95969 135.588 3.33009 135.435C3.01254 135.4 2.7053 135.301 2.42675 135.145C2.14819 134.988 1.90404 134.777 1.70887 134.524C1.51371 134.271 1.37154 133.982 1.29087 133.673C1.2102 133.363 1.1927 133.041 1.23938 132.725C1.42289 132.102 1.83767 131.573 2.39871 131.247C2.95975 130.92 3.62455 130.82 4.25684 130.967C4.57192 131.006 4.87611 131.107 5.15145 131.265C5.42678 131.423 5.6677 131.634 5.85996 131.887C6.05223 132.14 6.19195 132.428 6.27089 132.735C6.34983 133.043 6.3664 133.363 6.31959 133.677H6.32399Z" fill="url(#paint18_radial)"/>
<path d="M13.6892 133.82C13.5111 134.441 13.1009 134.97 12.5437 135.297C11.9864 135.624 11.3246 135.725 10.6953 135.578C10.3778 135.543 10.0706 135.444 9.792 135.288C9.51344 135.131 9.26929 134.92 9.07412 134.667C8.87896 134.414 8.73679 134.125 8.65612 133.815C8.57545 133.506 8.55793 133.184 8.60461 132.868C8.7776 132.244 9.1868 131.711 9.74559 131.383C10.3044 131.055 10.9689 130.957 11.5985 131.11C11.9161 131.145 12.2233 131.244 12.5019 131.4C12.7804 131.557 13.0246 131.768 13.2198 132.021C13.4149 132.274 13.5571 132.563 13.6377 132.872C13.7184 133.182 13.7359 133.504 13.6892 133.82Z" fill="url(#paint19_radial)"/>
<path d="M16.5656 130.993C16.6086 131.512 16.494 132.032 16.2367 132.485C15.9795 132.938 15.5916 133.303 15.1236 133.533C14.6557 133.762 14.1296 133.845 13.6139 133.77C13.0982 133.696 12.617 133.467 12.2331 133.115C11.8492 132.763 11.5804 132.303 11.4619 131.796C11.3434 131.288 11.3807 130.757 11.5689 130.271C11.757 129.785 12.0874 129.367 12.5167 129.072C12.946 128.777 13.4544 128.618 13.9754 128.616C14.6317 128.597 15.2697 128.834 15.7535 129.278C16.2373 129.722 16.5287 130.337 16.5656 130.993Z" fill="url(#paint20_radial)"/>
<path d="M13.333 129.139C13.333 131.349 10.7428 133.131 7.55884 133.131C4.37488 133.131 1.78467 131.348 1.78467 129.139C1.78467 126.931 4.3513 125.171 7.55884 125.171C10.7664 125.171 13.333 126.929 13.333 129.139Z" fill="url(#paint21_radial)"/>
<path d="M11.6694 124.292C11.897 125.209 11.8327 126.174 11.4854 127.053C11.1381 127.932 10.5251 128.68 9.732 129.194C8.93888 129.708 8.00521 129.961 7.06123 129.918C6.11725 129.876 5.21007 129.54 4.46625 128.957C3.72244 128.374 3.1791 127.574 2.91205 126.668C2.645 125.761 2.66755 124.794 2.97657 123.901C3.2856 123.008 3.86567 122.234 4.63585 121.686C5.40604 121.139 6.32792 120.845 7.27285 120.847C8.30941 120.739 9.34753 121.037 10.1679 121.68C10.9883 122.323 11.5267 123.259 11.6694 124.292Z" fill="url(#paint22_radial)"/>
<g opacity="0.15">
<path opacity="0.15" d="M29.2306 128.64C26.7354 128.616 24.2774 129.247 22.1024 130.47C19.9646 131.753 23.2429 134.057 25.0728 134.794C25.4556 134.92 25.8577 134.976 26.2603 134.961C28.7371 134.812 31.1599 134.174 33.3885 133.084C33.9685 132.625 34.4463 132.05 34.7912 131.397C34.8501 131.32 34.891 131.231 34.9105 131.136C34.9203 130.886 34.846 130.64 34.6996 130.438C34.5532 130.235 34.3432 130.088 34.1031 130.019C32.8674 129.544 31.5841 129.092 30.2532 128.665L29.2306 128.64Z" fill="black"/>
</g>
<path d="M28.304 131.682C28.2965 131.513 28.2442 131.349 28.1522 131.207C28.0603 131.066 27.9321 130.951 27.781 130.875C27.3596 129.842 27.1497 128.735 27.1636 127.62C27.158 126.173 27.3177 124.73 27.6395 123.319L24.9786 124.579C25.2372 125.571 25.3337 126.598 25.2644 127.62C25.3559 128.667 25.2591 129.721 24.9786 130.733C24.8009 130.806 24.6444 130.923 24.5239 131.073C24.4033 131.222 24.3226 131.4 24.2891 131.589C24.2994 131.772 24.3658 131.946 24.4791 132.089C24.6939 132.392 24.9929 132.626 25.3391 132.761C25.6853 132.896 26.0635 132.927 26.4269 132.849C27.5202 132.849 27.9946 132.398 28.1611 132.065C28.2358 131.95 28.286 131.821 28.3084 131.685L28.304 131.682Z" fill="#C4C4C3"/>
<path d="M24.4298 113.077C24.463 113.731 24.2993 114.381 23.9598 114.942C23.6202 115.503 23.1204 115.949 22.5248 116.223C21.9292 116.497 21.2652 116.586 20.6184 116.479C19.9716 116.372 19.3718 116.073 18.8963 115.622C18.4208 115.17 18.0915 114.587 17.9509 113.947C17.8102 113.306 17.8647 112.639 18.1073 112.03C18.3499 111.42 18.7694 110.898 19.3118 110.53C19.8542 110.162 20.4944 109.964 21.15 109.963C21.5703 109.951 21.9888 110.021 22.3816 110.171C22.7744 110.321 23.1337 110.547 23.4386 110.837C23.7435 111.126 23.9881 111.473 24.1582 111.857C24.3283 112.242 24.4206 112.656 24.4298 113.077Z" fill="url(#paint23_radial)"/>
<path d="M32.8419 112.886C32.8752 113.541 32.7114 114.191 32.3719 114.751C32.0323 115.312 31.5325 115.758 30.9369 116.032C30.3413 116.306 29.6773 116.395 29.0305 116.288C28.3837 116.181 27.7839 115.883 27.3084 115.431C26.8329 114.98 26.5036 114.397 26.363 113.756C26.2223 113.116 26.2768 112.448 26.5194 111.839C26.762 111.23 27.1815 110.708 27.7239 110.339C28.2663 109.971 28.9065 109.774 29.5621 109.773C29.9823 109.76 30.4009 109.831 30.7937 109.981C31.1865 110.131 31.5458 110.357 31.8507 110.646C32.1556 110.936 32.4002 111.283 32.5703 111.667C32.7404 112.052 32.8327 112.466 32.8419 112.886Z" fill="url(#paint24_radial)"/>
<path d="M23.7419 118.803C23.785 119.605 23.5865 120.402 23.1721 121.09C22.7577 121.778 22.1465 122.326 21.4175 122.664C20.6884 123.001 19.8749 123.112 19.0822 122.982C18.2895 122.852 17.5539 122.488 16.9704 121.935C16.387 121.383 15.9826 120.669 15.8093 119.884C15.6361 119.1 15.7021 118.282 15.9987 117.535C16.2954 116.789 16.809 116.148 17.4734 115.697C18.1377 115.245 18.9222 115.003 19.7255 115.002C20.2393 114.986 20.7511 115.072 21.2315 115.255C21.712 115.437 22.1515 115.713 22.5248 116.067C22.8981 116.42 23.1979 116.844 23.4068 117.313C23.6156 117.783 23.7296 118.289 23.7419 118.803Z" fill="url(#paint25_radial)"/>
<path d="M35.1463 116.545C35.2133 117.374 35.0284 118.205 34.6157 118.928C34.203 119.65 33.5817 120.232 32.8332 120.596C32.0847 120.96 31.2437 121.089 30.4204 120.967C29.597 120.846 28.8296 120.478 28.2185 119.913C27.6074 119.348 27.1811 118.612 26.9954 117.8C26.8096 116.989 26.8731 116.14 27.1775 115.366C27.4819 114.591 28.013 113.926 28.7013 113.458C29.3897 112.991 30.2032 112.741 31.0356 112.743C31.5555 112.721 32.0748 112.802 32.5634 112.981C33.052 113.161 33.5003 113.435 33.8824 113.788C34.2645 114.141 34.5729 114.567 34.7898 115.04C35.0068 115.513 35.1279 116.025 35.1463 116.545Z" fill="url(#paint26_radial)"/>
<path d="M29.9198 123.461C29.8133 124.37 29.3567 125.202 28.6469 125.779C27.9372 126.357 27.0302 126.635 26.1185 126.555C25.6644 126.693 25.1846 126.725 24.7163 126.647C24.2481 126.569 23.8041 126.385 23.4189 126.107C23.0337 125.83 22.7178 125.467 22.4957 125.048C22.2736 124.628 22.1513 124.163 22.1384 123.689C22.1254 123.214 22.2222 122.743 22.4211 122.312C22.62 121.881 22.9158 121.502 23.2852 121.204C23.6547 120.906 24.088 120.698 24.5513 120.595C25.0146 120.492 25.4955 120.497 25.9564 120.61C26.8583 120.478 27.7761 120.702 28.5162 121.234C29.2564 121.766 29.7612 122.564 29.9242 123.461H29.9198Z" fill="url(#paint27_radial)"/>
<path d="M28.8267 110.296C28.8791 110.944 28.7351 111.592 28.4134 112.156C28.0918 112.721 27.6074 113.175 27.0235 113.46C26.4396 113.745 25.7834 113.848 25.1404 113.754C24.4975 113.66 23.8977 113.375 23.4194 112.935C22.9411 112.496 22.6064 111.922 22.4591 111.289C22.3118 110.656 22.3588 109.994 22.5937 109.388C22.8287 108.782 23.2408 108.262 23.7764 107.894C24.3119 107.526 24.9459 107.328 25.5956 107.326C26.4173 107.294 27.2182 107.588 27.8236 108.145C28.429 108.701 28.7896 109.474 28.8267 110.296Z" fill="url(#paint28_radial)"/>
<path d="M21.9123 116.209C21.9553 116.728 21.8407 117.249 21.5834 117.702C21.3262 118.155 20.9382 118.52 20.4703 118.749C20.0024 118.978 19.4763 119.061 18.9606 118.986C18.4449 118.912 17.9637 118.684 17.5798 118.331C17.1959 117.979 16.9271 117.519 16.8086 117.012C16.6901 116.504 16.7274 115.973 16.9155 115.487C17.1037 115.001 17.434 114.584 17.8634 114.288C18.2927 113.993 18.8011 113.834 19.3221 113.833C19.9768 113.819 20.6114 114.059 21.0939 114.501C21.5764 114.944 21.8696 115.556 21.9123 116.209Z" fill="url(#paint29_radial)"/>
<path d="M33.2473 115.761C33.2902 116.28 33.1756 116.8 32.9183 117.253C32.6611 117.707 32.2732 118.072 31.8053 118.301C31.3374 118.53 30.8112 118.613 30.2956 118.538C29.7799 118.464 29.2987 118.235 28.9147 117.883C28.5308 117.531 28.2621 117.071 28.1436 116.564C28.0251 116.056 28.0623 115.525 28.2505 115.039C28.4387 114.553 28.769 114.135 29.1983 113.84C29.6277 113.545 30.136 113.386 30.6571 113.384C31.3134 113.365 31.9513 113.602 32.4351 114.046C32.9189 114.49 33.2103 115.105 33.2473 115.761Z" fill="url(#paint30_radial)"/>
<path d="M22.2674 121.845C22.0945 122.471 21.6865 123.005 21.1286 123.338C20.5707 123.67 19.9061 123.774 19.2735 123.628C18.9559 123.593 18.6487 123.494 18.3701 123.337C18.0916 123.181 17.8474 122.97 17.6522 122.717C17.4571 122.464 17.3149 122.174 17.2342 121.865C17.1536 121.556 17.1361 121.234 17.1827 120.918C17.361 120.296 17.77 119.765 18.3264 119.433C18.8827 119.102 19.5444 118.995 20.1766 119.135C20.4942 119.17 20.8014 119.269 21.08 119.425C21.3585 119.582 21.6027 119.793 21.7979 120.046C21.993 120.299 22.1352 120.588 22.2159 120.897C22.2965 121.206 22.3141 121.529 22.2674 121.845Z" fill="url(#paint31_radial)"/>
<path d="M24.881 123.722C24.7078 124.352 24.2961 124.891 23.733 125.224C23.1699 125.556 22.4995 125.657 21.8635 125.504C21.4583 125.358 21.1032 125.099 20.8396 124.758C20.576 124.417 20.4147 124.009 20.3746 123.58C20.3345 123.151 20.4172 122.719 20.6131 122.335C20.809 121.951 21.11 121.631 21.481 121.412C21.852 121.193 22.2777 121.084 22.7083 121.097C23.139 121.111 23.5569 121.247 23.9133 121.489C24.2698 121.731 24.55 122.069 24.7213 122.465C24.8926 122.86 24.948 123.296 24.881 123.722Z" fill="url(#paint32_radial)"/>
<path d="M32.2244 123.865C32.0514 124.489 31.6422 125.022 31.0834 125.35C30.5246 125.678 29.8601 125.776 29.2305 125.622C28.9129 125.587 28.6057 125.489 28.3272 125.332C28.0486 125.176 27.8044 124.965 27.6093 124.712C27.4141 124.459 27.2719 124.169 27.1913 123.86C27.1106 123.551 27.0931 123.229 27.1398 122.913C27.3179 122.292 27.7281 121.763 28.2854 121.435C28.8427 121.108 29.5044 121.008 30.1337 121.155C30.4512 121.19 30.7585 121.289 31.037 121.445C31.3156 121.602 31.5597 121.813 31.7549 122.065C31.9501 122.318 32.0922 122.608 32.1729 122.917C32.2536 123.226 32.2711 123.549 32.2244 123.865Z" fill="url(#paint33_radial)"/>
<path d="M35.0998 121.036C35.1428 121.555 35.0281 122.075 34.7709 122.528C34.5136 122.981 34.1257 123.346 33.6578 123.576C33.1899 123.805 32.6638 123.888 32.1481 123.813C31.6324 123.739 31.1512 123.51 30.7673 123.158C30.3834 122.806 30.1146 122.346 29.9961 121.839C29.8776 121.331 29.9149 120.8 30.103 120.314C30.2912 119.828 30.6215 119.41 31.0509 119.115C31.4802 118.82 31.9886 118.661 32.5096 118.659C33.1659 118.64 33.8038 118.877 34.2876 119.321C34.7714 119.765 35.0628 120.38 35.0998 121.036Z" fill="url(#paint34_radial)"/>
<path d="M31.8677 119.206C31.8677 121.393 29.2775 123.174 26.0935 123.174C22.9095 123.174 20.3193 121.391 20.3193 119.206C20.3193 117.021 22.9095 115.215 26.0935 115.215C29.2775 115.215 31.8677 116.998 31.8677 119.206Z" fill="url(#paint35_radial)"/>
<path d="M30.2748 114.335C30.5021 115.252 30.4375 116.217 30.0899 117.096C29.7423 117.974 29.1292 118.723 28.336 119.236C27.5427 119.749 26.609 120.003 25.6651 119.96C24.7212 119.917 23.8141 119.581 23.0705 118.998C22.3268 118.415 21.7837 117.615 21.5168 116.708C21.2499 115.802 21.2726 114.835 21.5818 113.942C21.8909 113.049 22.4711 112.275 23.2413 111.727C24.0115 111.18 24.9333 110.887 25.8782 110.888C26.915 110.78 27.9533 111.079 28.7737 111.722C29.5942 112.365 30.1324 113.302 30.2748 114.335Z" fill="url(#paint36_radial)"/>
<path d="M30.6805 147.792C30.6709 147.571 30.6075 147.356 30.4958 147.166C30.3841 146.975 30.2275 146.815 30.0396 146.699C29.5203 145.324 29.2547 143.867 29.2557 142.398C29.2517 140.498 29.4493 138.602 29.8451 136.743L26.5904 138.364C26.9105 139.693 27.0307 141.063 26.947 142.427C27.0515 143.808 26.9311 145.196 26.5904 146.538C26.3659 146.638 26.17 146.793 26.0205 146.988C25.8709 147.183 25.7726 147.412 25.7344 147.655C25.7361 147.886 25.8109 148.11 25.948 148.296C26.2032 148.677 26.5635 148.977 26.9852 149.158C27.407 149.339 27.8721 149.394 28.3246 149.317C29.6506 149.198 30.2488 148.728 30.4389 148.271C30.5486 148.129 30.6292 147.968 30.6761 147.795L30.6805 147.792Z" fill="#C4C4C3"/>
<path d="M25.9273 123.056C25.9087 123.846 25.6575 124.613 25.205 125.261C24.7525 125.909 24.119 126.409 23.3836 126.698C22.6483 126.988 21.8439 127.054 21.0711 126.889C20.2983 126.723 19.5915 126.333 19.0392 125.768C18.4868 125.203 18.1135 124.487 17.9661 123.711C17.8186 122.934 17.9034 122.132 18.21 121.403C18.5166 120.675 19.0312 120.053 19.6895 119.616C20.3478 119.178 21.1205 118.945 21.9108 118.945C22.4445 118.951 22.9717 119.062 23.4624 119.272C23.953 119.482 24.3975 119.787 24.7705 120.168C25.1435 120.55 25.4376 121.001 25.6361 121.497C25.8345 121.992 25.9335 122.522 25.9273 123.056Z" fill="url(#paint37_radial)"/>
<path d="M36.1922 122.794C36.1758 123.728 35.8366 124.627 35.2322 125.339C34.6279 126.05 33.7956 126.531 32.8771 126.698C31.9585 126.866 31.0104 126.71 30.1938 126.257C29.3772 125.804 28.7427 125.083 28.3981 124.215C28.0534 123.347 28.02 122.387 28.3035 121.497C28.5869 120.607 29.1698 119.844 29.9529 119.335C30.736 118.827 31.671 118.605 32.599 118.708C33.5269 118.811 34.3905 119.233 35.0429 119.901C35.4174 120.282 35.712 120.735 35.9094 121.232C36.1067 121.729 36.2029 122.26 36.1922 122.794Z" fill="url(#paint38_radial)"/>
<path d="M25.0481 130.636C25.0295 131.61 24.7239 132.556 24.1695 133.356C23.6152 134.157 22.8369 134.776 21.9321 135.135C21.0274 135.495 20.0366 135.579 19.084 135.378C18.1314 135.177 17.2595 134.699 16.5776 134.004C15.8956 133.309 15.4341 132.428 15.2509 131.472C15.0677 130.516 15.1709 129.527 15.5477 128.629C15.9244 127.731 16.5579 126.965 17.3686 126.426C18.1794 125.887 19.1313 125.599 20.1049 125.599C21.4268 125.616 22.6882 126.155 23.6142 127.099C24.5402 128.043 25.0556 129.314 25.0481 130.636Z" fill="url(#paint39_radial)"/>
<path d="M39.0193 127.642C39.0295 128.646 38.7408 129.631 38.1899 130.47C37.639 131.31 36.8508 131.967 35.9255 132.357C35.0003 132.747 33.9799 132.854 32.9942 132.662C32.0084 132.471 31.1018 131.991 30.3898 131.283C29.6778 130.574 29.1925 129.671 28.9956 128.686C28.7988 127.701 28.8993 126.68 29.2845 125.753C29.6696 124.825 30.3219 124.034 31.1584 123.478C31.9948 122.922 32.9777 122.628 33.9818 122.633C35.3111 122.639 36.5846 123.168 37.5272 124.105C38.4698 125.043 39.0058 126.313 39.0193 127.642Z" fill="url(#paint40_radial)"/>
<path d="M32.6282 136.791C32.8584 137.774 32.7784 138.806 32.3993 139.742C32.0201 140.679 31.3603 141.475 30.5104 142.022C29.6606 142.569 28.6624 142.839 27.6528 142.796C26.6432 142.752 25.6717 142.398 24.8718 141.78C24.0718 141.163 23.4825 140.313 23.1849 139.347C22.8873 138.382 22.8958 137.347 23.2094 136.387C23.523 135.426 24.1262 134.586 24.9362 133.982C25.7463 133.378 26.7234 133.039 27.7336 133.013C28.8803 132.884 30.0322 133.206 30.9456 133.911C31.8591 134.616 32.4625 135.649 32.6282 136.791Z" fill="url(#paint41_radial)"/>
<path d="M31.249 119.325C31.2491 120.232 30.935 121.11 30.3602 121.811C29.7854 122.512 28.9854 122.993 28.0963 123.17C27.2073 123.348 26.2842 123.212 25.4842 122.785C24.6842 122.359 24.0567 121.668 23.7085 120.831C23.3602 119.994 23.3129 119.062 23.5744 118.194C23.8359 117.326 24.3902 116.576 25.1428 116.07C25.8955 115.565 26.8 115.336 27.7025 115.423C28.6049 115.509 29.4495 115.906 30.0924 116.545C30.8305 117.282 31.2464 118.282 31.249 119.325Z" fill="url(#paint42_radial)"/>
<path d="M22.7905 127.19C22.7812 127.817 22.5865 128.428 22.2311 128.946C21.8756 129.463 21.3752 129.864 20.7926 130.097C20.2101 130.331 19.5714 130.388 18.9569 130.259C18.3424 130.131 17.7795 129.824 17.3389 129.377C16.8984 128.93 16.5998 128.363 16.4807 127.746C16.3616 127.13 16.4273 126.492 16.6697 125.913C16.912 125.334 17.32 124.84 17.8426 124.492C18.3651 124.144 18.9788 123.959 19.6065 123.958C20.4552 123.971 21.265 124.317 21.8608 124.921C22.4566 125.526 22.7905 126.341 22.7905 127.19Z" fill="url(#paint43_radial)"/>
<path d="M36.6918 126.596C36.6825 127.223 36.4879 127.834 36.1325 128.352C35.777 128.869 35.2765 129.27 34.694 129.504C34.1114 129.737 33.4728 129.794 32.8583 129.666C32.2438 129.538 31.6809 129.231 31.2403 128.784C30.7997 128.336 30.5011 127.769 30.382 127.153C30.263 126.536 30.3287 125.899 30.571 125.32C30.8133 124.741 31.2214 124.246 31.7439 123.898C32.2665 123.55 32.8801 123.365 33.5078 123.365C33.93 123.365 34.3479 123.449 34.7373 123.612C35.1267 123.774 35.4798 124.013 35.7761 124.314C36.0723 124.615 36.3059 124.971 36.4631 125.363C36.6203 125.755 36.6981 126.174 36.6918 126.596Z" fill="url(#paint44_radial)"/>
<path d="M23.2179 134.652C23.1364 135.053 22.9758 135.432 22.7454 135.77C22.515 136.107 22.2196 136.395 21.8764 136.616C21.5333 136.837 21.1493 136.988 20.7471 137.059C20.345 137.13 19.9327 137.12 19.5345 137.029C18.7277 136.878 18.0113 136.42 17.5367 135.75C17.062 135.08 16.8665 134.252 16.9914 133.441C17.0729 133.041 17.2336 132.661 17.464 132.324C17.6943 131.987 17.9898 131.699 18.3329 131.478C18.6761 131.256 19.06 131.106 19.4622 131.035C19.8644 130.964 20.2767 130.974 20.6749 131.065C21.4874 131.204 22.2115 131.66 22.6882 132.333C23.1649 133.005 23.3554 133.84 23.2179 134.652Z" fill="url(#paint45_radial)"/>
<path d="M26.4029 137.147C26.3214 137.547 26.1607 137.927 25.9303 138.264C25.7 138.601 25.4045 138.889 25.0614 139.11C24.7182 139.332 24.3343 139.482 23.9321 139.553C23.5299 139.624 23.1176 139.614 22.7194 139.523C21.9098 139.378 21.1896 138.921 20.714 138.25C20.2383 137.579 20.0452 136.748 20.1764 135.936C20.2615 135.537 20.4244 135.16 20.6558 134.825C20.8872 134.489 21.1824 134.203 21.5246 133.982C21.8668 133.762 22.2493 133.611 22.65 133.538C23.0507 133.465 23.4619 133.472 23.8598 133.559C24.6694 133.704 25.3896 134.162 25.8653 134.833C26.3409 135.504 26.534 136.335 26.4029 137.147Z" fill="url(#paint46_radial)"/>
<path d="M35.4314 137.314C35.241 138.106 34.7525 138.795 34.0675 139.238C33.3825 139.68 32.5535 139.841 31.7526 139.689C30.9516 139.536 30.2403 139.08 29.7662 138.417C29.2921 137.754 29.0916 136.933 29.2064 136.126C29.2851 135.727 29.4432 135.347 29.6712 135.01C29.8992 134.673 30.1925 134.386 30.5338 134.164C30.8751 133.942 31.2574 133.791 31.658 133.72C32.0587 133.649 32.4695 133.659 32.8663 133.749C33.6781 133.884 34.4036 134.334 34.8842 135.002C35.3649 135.67 35.5616 136.501 35.4314 137.314Z" fill="url(#paint47_radial)"/>
<path d="M38.9721 133.582C38.9609 134.317 38.6954 135.026 38.2207 135.588C37.746 136.15 37.0914 136.53 36.3681 136.664C35.6448 136.798 34.8974 136.678 34.253 136.323C33.6086 135.968 33.1069 135.401 32.8331 134.718C32.5594 134.036 32.5305 133.279 32.7514 132.577C32.9723 131.876 33.4294 131.272 34.0449 130.869C34.6604 130.467 35.3964 130.289 36.1278 130.368C36.8592 130.446 37.541 130.775 38.0571 131.3C38.3533 131.6 38.5867 131.957 38.7438 132.349C38.9009 132.741 38.9785 133.16 38.9721 133.582Z" fill="url(#paint48_radial)"/>
<path d="M35.0093 131.158C35.0093 134.032 31.8254 136.409 27.8811 136.409C23.9369 136.409 20.7529 134.032 20.7529 131.158C20.7529 128.283 23.9369 125.883 27.8811 125.883C31.8254 125.883 35.0093 128.236 35.0093 131.158Z" fill="url(#paint49_radial)"/>
<path d="M33.0579 124.719C33.2478 125.823 33.094 126.959 32.6171 127.972C32.1403 128.986 31.3634 129.829 30.3918 130.386C29.4202 130.944 28.3008 131.189 27.1851 131.089C26.0694 130.989 25.0114 130.549 24.1542 129.828C23.297 129.107 22.6822 128.14 22.3929 127.057C22.1036 125.975 22.1539 124.83 22.5368 123.778C22.9198 122.725 23.617 121.816 24.5341 121.172C25.4511 120.529 26.5437 120.183 27.6639 120.181C28.9778 120.082 30.2785 120.501 31.2868 121.35C32.2952 122.198 32.931 123.408 33.0579 124.719Z" fill="url(#paint50_radial)"/>
<path opacity="0.33" d="M139.7 75.4611L134.543 97.2508H149.537L192.664 72.8709L160.466 57.9897L139.7 75.4611Z" fill="url(#paint51_linear)"/>
<path d="M134.541 97.1315L134.471 61.0603L172.062 39.6963V74.2691L134.541 97.1315Z" fill="#CAC4C5"/>
<path d="M134.543 95.9187L112.753 82.7777V46.0434L123.755 44.7837L134.543 61.0365V95.9187Z" fill="#F7F1F1"/>
<path d="M134.543 95.7068V97.2273L111.874 84.0862V82.6851L134.543 95.7068Z" fill="#BDC0CD"/>
<path d="M134.543 95.7072V97.2262L172.657 74.6054V73.1792L134.543 95.7072Z" fill="#9598A5"/>
<path d="M172.063 73.2262V72.7754L172.652 73.1791L134.543 95.7055V95.3033L172.063 73.2262Z" fill="#7A7D8B"/>
<path d="M112.73 82.376V82.7561L134.543 95.3019V95.7056L111.874 82.6854L112.73 82.376Z" fill="#AEB2BF"/>
<path d="M140.412 78.996V87.9305L147.089 84.0806V75.2241L140.412 78.996Z" fill="#9598A5"/>
<path d="M141.031 86.7238V79.5043L146.425 76.4102V83.6297L141.031 86.7238Z" fill="url(#paint52_linear)"/>
<path d="M145.855 83.255L145.878 76.7205L146.425 76.4111V83.6307L141.031 86.7248V86.0352L145.855 83.255Z" fill="#E2DCDC"/>
<path d="M121.378 56.2619V65.1258L114.725 61.3244V52.4355L121.378 56.2619Z" fill="#B2B5C1"/>
<path d="M120.761 63.9598V56.6887L115.32 53.624V60.8436L120.761 63.9598Z" fill="url(#paint53_linear)"/>
<path d="M115.937 60.4915V53.9806L115.32 53.624V60.8436L120.761 63.9568V63.2909L115.937 60.4915Z" fill="white"/>
<path d="M131.525 62.3684V71.2322L124.895 67.3823V58.542L131.525 62.3684Z" fill="#B2B5C1"/>
<path d="M130.931 70.0434V62.8239L125.49 59.6826V66.9302L130.931 70.0434Z" fill="url(#paint54_linear)"/>
<path d="M126.079 66.5972V60.0627L125.49 59.6826V66.9302L130.931 70.0434V69.3303L126.079 66.5972Z" fill="white"/>
<path d="M121.378 72.5437V81.4311L114.725 77.6003V68.7129L121.378 72.5437Z" fill="#B2B5C1"/>
<path d="M120.761 80.2613V72.9858L115.32 69.8726V77.1201L120.761 80.2613Z" fill="url(#paint55_linear)"/>
<path d="M115.937 76.7444V70.2335L115.32 69.877V77.1245L120.761 80.2613V79.5718L115.937 76.7444Z" fill="white"/>
<path d="M131.525 78.6213V87.5087L124.895 83.6779V74.7949L131.525 78.6213Z" fill="#B2B5C1"/>
<path d="M130.931 86.2967V79.0771L125.49 75.9609V83.2085L130.931 86.2967Z" fill="url(#paint56_linear)"/>
<path d="M126.079 82.8519V76.369L125.49 75.9653V83.2129L130.931 86.307V85.641L126.079 82.8519Z" fill="white"/>
<path d="M140.412 62.961V71.872L147.089 68.0412V59.1597L140.412 62.961Z" fill="#9598A5"/>
<path d="M141.031 70.7078V63.4367L146.425 60.3721V67.5916L141.031 70.7078Z" fill="url(#paint57_linear)"/>
<path d="M145.855 67.2159L145.878 60.7051L146.425 60.3721V67.5916L141.031 70.7049V69.9917L145.855 67.2159Z" fill="#E2DCDC"/>
<path d="M147.755 25.6563L110.306 47.4225L123.209 46.3293L160.705 24.376L147.755 25.6563Z" fill="#5E606A"/>
<path d="M122.947 46.2808L135.618 62.0592L173.328 40.4359L160.586 24.2773L122.947 46.2808Z" fill="#1D202C"/>
<g opacity="0.8">
<path opacity="0.8" d="M110.283 47.3976L122.995 46.2808L135.613 61.987L134.353 61.2267L122.714 46.8981L111.902 47.8956L110.283 47.3976Z" fill="#1D202C"/>
</g>
<path opacity="0.33" d="M76.4211 111.865L71.2407 133.655H86.2589L129.386 109.252L97.1884 94.3999L76.4211 111.865Z" fill="url(#paint58_linear)"/>
<path d="M71.2411 133.534L71.1704 97.4631L108.762 76.0991V110.673L71.2411 133.534Z" fill="#CAC4C5"/>
<path d="M71.241 132.323L49.4512 119.183V82.4404L60.4765 81.1807L71.241 97.4335V132.323Z" fill="#F7F1F1"/>
<path d="M71.2425 132.109V133.63L48.5967 120.465V119.062L71.2425 132.109Z" fill="#BDC0CD"/>
<path d="M71.2407 132.109V133.63L109.379 111.009V109.583L71.2407 132.109Z" fill="#9598A5"/>
<path d="M108.76 109.63V109.179L109.378 109.583L71.2407 132.109V131.706L108.76 109.63Z" fill="#7A7D8B"/>
<path d="M49.4527 118.778V119.158L71.2425 131.704V132.108L48.5967 119.063L49.4527 118.778Z" fill="#AEB2BF"/>
<path d="M77.1108 115.405V124.339L83.8118 120.466V111.625L77.1108 115.405Z" fill="#9598A5"/>
<path d="M77.728 123.127V115.879L83.1456 112.814V120.034L77.728 123.127Z" fill="url(#paint59_linear)"/>
<path d="M82.5519 119.651L82.599 113.117L83.1456 112.807V120.027L77.728 123.121V122.431L82.5519 119.651Z" fill="#E2DCDC"/>
<path d="M58.1017 92.6657V101.53L51.4243 97.7238V88.8394L58.1017 92.6657Z" fill="#B2B5C1"/>
<path d="M57.4827 100.363V93.0915L52.0415 90.0269V97.2464L57.4827 100.363Z" fill="url(#paint60_linear)"/>
<path d="M52.6588 96.8707V90.3878L52.0415 90.0312V97.2508L57.4827 100.364V99.6981L52.6588 96.8707Z" fill="white"/>
<path d="M68.2179 98.7717V107.636L61.6128 103.786V94.9453L68.2179 98.7717Z" fill="#B2B5C1"/>
<path d="M67.6295 106.448V99.2281L62.2119 96.0913V103.339L67.6295 106.448Z" fill="url(#paint61_linear)"/>
<path d="M62.7821 103.001V96.467L62.2119 96.0869V103.334L67.6295 106.448V105.735L62.7821 103.001Z" fill="white"/>
<path d="M58.1017 108.943V117.83L51.4243 113.999V105.116L58.1017 108.943Z" fill="#B2B5C1"/>
<path d="M57.4827 116.664V109.393L52.0415 106.28V113.527L57.4827 116.664Z" fill="url(#paint62_linear)"/>
<path d="M52.6588 113.147V106.636L52.0415 106.28V113.527L57.4827 116.664V115.951L52.6588 113.147Z" fill="white"/>
<path d="M68.2179 115.026V123.913L61.6128 120.082V111.199L68.2179 115.026Z" fill="#B2B5C1"/>
<path d="M67.6295 122.699V115.479L62.2119 112.366V119.614L67.6295 122.699Z" fill="url(#paint63_linear)"/>
<path d="M62.7821 119.254V112.771L62.2119 112.368V119.615L67.6295 122.709V122.043L62.7821 119.254Z" fill="white"/>
<path d="M86.7808 110.133V118.826L93.3388 115.118V106.375L86.7808 110.133Z" fill="#9598A5"/>
<path d="M87.3037 117.804V110.533L92.7685 107.469V114.674L87.3037 117.804Z" fill="url(#paint64_linear)"/>
<path d="M92.1742 114.289V107.778L92.7636 107.469V114.674L87.2988 117.81V117.121L92.1742 114.289Z" fill="#E2DCDC"/>
<path d="M77.1108 99.3653V108.276L83.8118 104.445V95.564L77.1108 99.3653Z" fill="#9598A5"/>
<path d="M77.728 107.111V99.8395L83.1456 96.7749V103.994L77.728 107.111Z" fill="url(#paint65_linear)"/>
<path d="M82.5519 103.619L82.599 97.1079L83.1456 96.7749V103.994L77.728 107.108V106.395L82.5519 103.619Z" fill="#E2DCDC"/>
<path d="M86.7808 94.0665V102.787L93.3388 99.0568V90.3359L86.7808 94.0665Z" fill="#9598A5"/>
<path d="M87.3037 101.716V94.4969L92.7685 91.4028V98.6224L87.3037 101.716Z" fill="url(#paint66_linear)"/>
<path d="M92.1742 98.2722V91.7378L92.7636 91.4048V98.6243L87.2988 101.718V101.078L92.1742 98.2722Z" fill="#E2DCDC"/>
<path d="M96.8086 88.5535V97.298L103.343 93.5202V84.7993L96.8086 88.5535Z" fill="#9598A5"/>
<path d="M97.4023 96.23V89.0105L102.796 85.8501V93.0977L97.4023 96.23Z" fill="url(#paint67_linear)"/>
<path d="M102.202 92.7838V86.2494L102.792 85.8457V93.0932L97.3975 96.2301V95.5169L102.202 92.7838Z" fill="#E2DCDC"/>
<path d="M84.4801 62.0592L47.0269 83.8195L59.9292 82.7263L97.4252 60.7729L84.4801 62.0592Z" fill="#5E606A"/>
<path d="M59.6685 82.6851L72.31 98.4399L110.043 76.8402L97.2838 60.6816L59.6685 82.6851Z" fill="#1D202C"/>
<g opacity="0.8">
<path opacity="0.8" d="M47.0039 83.8019L59.6926 82.6851L72.3107 98.3912L71.0745 97.631L59.4348 83.3024L48.6231 84.2999L47.0039 83.8019Z" fill="#1D202C"/>
</g>
<path d="M98.4713 68.5469L99.5645 66.1895L97.9438 66.3088L98.4713 68.5469Z" fill="#CDCCCC"/>
<path d="M98.4714 68.5463V65.5288L96.0713 66.099V69.8767L98.4714 68.5463Z" fill="#BEB19F"/>
<path d="M96.0714 69.8772L94.0278 67.2871V65.6958L96.0714 66.0995V69.8772Z" fill="#EBEBDC"/>
<path d="M94.0278 65.6956L96.4515 64.293L98.4715 65.5291L96.0714 66.9067L94.0278 65.6956Z" fill="#F2F2F2"/>
<path d="M97.6646 65.5292L96.3548 64.8633L94.9521 65.6943L96.0925 66.4309L97.6646 65.5292Z" fill="#4E4D4D"/>
<path d="M96.3579 64.8633V66.2659L97.6648 65.5292L96.3579 64.8633Z" fill="#343434"/>
<path d="M97.0938 103.975V116.735L103.557 113.004V100.055L97.0938 103.975Z" fill="#E7E1E1"/>
<path d="M97.7588 116.331L103.082 113.124V100.719L97.5938 104.023V116.284L97.7588 116.331Z" fill="#857F84"/>
<path d="M103.082 113.333V100.839L97.7583 104.094V116.379L103.082 113.333Z" fill="#7D818E"/>
<path d="M102.677 113.195L102.63 101.555L98.1152 104.216V115.815L102.677 113.195Z" fill="#9598A5"/>
<path d="M101.111 103.523C101.222 103.616 101.31 103.732 101.368 103.864C101.425 103.996 101.452 104.14 101.444 104.284L99.2812 105.543V105.734L101.658 104.331C101.675 104.242 101.675 104.15 101.657 104.062C101.639 103.973 101.604 103.888 101.553 103.813C101.502 103.738 101.437 103.674 101.361 103.624C101.285 103.574 101.2 103.54 101.111 103.523Z" fill="#E2DCDC"/>
<path d="M101.444 104.283C101.451 104.139 101.425 103.996 101.367 103.864C101.309 103.732 101.221 103.615 101.111 103.523C100.902 103.456 100.678 103.456 100.47 103.523C100.132 103.737 99.8485 104.026 99.6423 104.369C99.4362 104.711 99.3128 105.097 99.2822 105.496L101.445 104.236L101.444 104.283Z" fill="url(#paint68_linear)"/>
<path d="M101.394 112.909L99.2559 114.216V114.548L101.68 113.099V104.83L101.394 104.997V112.909Z" fill="#E2DCDC"/>
<path d="M101.394 104.997L99.2559 106.28V114.217L101.394 112.91V104.997Z" fill="url(#paint69_linear)"/>
<path d="M102.439 108.061C102.443 108.093 102.439 108.125 102.429 108.156C102.418 108.186 102.401 108.214 102.378 108.237C102.355 108.259 102.328 108.277 102.297 108.287C102.267 108.298 102.234 108.301 102.202 108.298C102.174 108.298 102.146 108.293 102.12 108.283C102.094 108.272 102.07 108.256 102.05 108.237C102.03 108.217 102.014 108.193 102.004 108.167C101.993 108.141 101.988 108.113 101.989 108.084C102.001 108.032 102.027 107.985 102.065 107.947C102.103 107.91 102.15 107.883 102.202 107.871C102.23 107.868 102.259 107.87 102.286 107.878C102.313 107.886 102.338 107.899 102.36 107.916C102.382 107.934 102.401 107.956 102.414 107.981C102.428 108.006 102.436 108.033 102.439 108.061Z" fill="#999999"/>
<g opacity="0.33">
<path opacity="0.33" d="M-19.6729 -4.87781L-60.8994 23.993L-18.4662 48.2773L3.94098 49.6313L14.539 43.1204L33.382 43.1911L54.9817 30.9297L1.04137 -4.90137L-19.6729 -4.87781Z" fill="url(#paint70_linear)"/>
</g>
<path d="M7.7012 32.2853L-22.9038 49.9172V26.3211L7.7012 8.73779V32.2853Z" fill="#BDC1C9"/>
<g opacity="0.7">
<path opacity="0.7" d="M-22.9038 31.1449V37.0384L7.7012 19.0986V13.2051L-22.9038 31.1449Z" fill="#C7C7C7"/>
</g>
<path d="M-1.2334 37.6558L1.07096 38.9818V20.4762L-1.2334 19.5259V37.6558Z" fill="#DCDFE9"/>
<path d="M1.07227 38.9861L5.63975 36.3488V17.8623L1.07227 20.4996V38.9861Z" fill="#BDC1C9"/>
<path d="M-71.0449 4.1766L-35.8769 -16.4507L12.7637 11.707L-22.8802 32.405L-71.0449 4.1766Z" fill="white"/>
<path d="M-22.9038 32.4281V34.5424L12.7387 13.8223V11.708L-22.9038 32.4281Z" fill="#B2B6BF"/>
<path d="M-63.2039 1.96616L-66.6973 -0.0538464L-34.666 -18.6597L9.67379 7.27179L6.1804 9.29179L-22.4031 25.8776L-63.2039 1.96616Z" fill="white"/>
<path d="M-22.096 23.8736L-60.1386 1.56075L-60.4951 1.37069L-34.9512 -13.481L3.47156 9.02195L3.115 9.23558L-22.096 23.8736Z" fill="#C3C7CF"/>
<path d="M9.62716 7.26465V11.3047L-22.3569 29.909V25.869L9.62716 7.26465Z" fill="#B2B6BF"/>
<path d="M6.20434 7.43106L3.44764 9.01788L-34.9751 -13.4791V-16.6631L6.20434 7.43106Z" fill="#B2B6BF"/>
<path d="M7.79701 -104.536L-22.4072 -86.3822L-22.3837 24.8004L8.34067 6.95483L7.79701 -104.536Z" fill="#22202E"/>
<path d="M-11.9976 1.58446L6.96471 -9.15645L6.89399 -20.4189L-11.2816 -10.2247L-14.5613 -8.37113L-15.7725 3.72382L-11.9976 1.58446Z" fill="#435F74"/>
<path d="M-12.8054 14.9408L6.9644 3.81969L6.89367 -7.53857L-12.0923 3.10657L-15.9422 5.26949L-17.1548 17.388L-12.8054 14.9408Z" fill="#435F74"/>
<g opacity="0.7">
<path opacity="0.7" d="M-22.4043 -5.06788V0.825634L7.77342 -16.8299V-22.7705L-22.4043 -5.06788Z" fill="#949698"/>
</g>
<g opacity="0.7">
<path opacity="0.7" d="M-22.4043 7.69308V13.5866L7.77342 -4.06889V-9.9624L-22.4043 7.69308Z" fill="#949698"/>
</g>
<path opacity="0.33" d="M2.18954 93.1403L-2.96729 114.93H12.0258L55.153 90.5501L22.9553 75.6689L2.18954 93.1403Z" fill="url(#paint71_linear)"/>
<path d="M-2.96785 114.811L-3.03857 78.7395L34.5326 57.3755V91.9586L-2.96785 114.811Z" fill="#CAC4C5"/>
<path d="M-2.96729 113.386V114.906L35.1475 92.2856V90.8594L-2.96729 113.386Z" fill="#9598A5"/>
<path d="M34.5287 90.905V90.4541L35.146 90.8578L-2.96729 113.384V112.981L34.5287 90.905Z" fill="#7A7D8B"/>
<path d="M2.90137 96.6791V105.614L9.57871 101.764V92.9014L2.90137 96.6791Z" fill="#9598A5"/>
<path d="M3.49658 104.403V97.1835L8.91419 94.0894V101.309L3.49658 104.403Z" fill="url(#paint72_linear)"/>
<path d="M8.32042 100.934L8.36757 94.3998L8.91419 94.0903V101.31L3.49658 104.404V103.714L8.32042 100.934Z" fill="#E2DCDC"/>
<path d="M12.5723 91.4046V100.125L19.1067 96.3949V87.6504L12.5723 91.4046Z" fill="#9598A5"/>
<path d="M13.0718 99.0794V91.8083L18.5365 88.7437V95.9441L13.0718 99.0794Z" fill="url(#paint73_linear)"/>
<path d="M17.9486 95.5639V89.0531L18.538 88.7437V95.9441L13.0732 99.0809V98.3913L17.9486 95.5639Z" fill="#E2DCDC"/>
<path d="M2.90137 80.6402V89.5512L9.57871 85.7204V76.8389L2.90137 80.6402Z" fill="#9598A5"/>
<path d="M3.49658 88.387V81.1159L8.91419 78.0513V85.2708L3.49658 88.387Z" fill="url(#paint74_linear)"/>
<path d="M8.32042 84.8951L8.36757 78.3843L8.91419 78.0513V85.2708L3.49658 88.3841V87.671L8.32042 84.8951Z" fill="#E2DCDC"/>
<path d="M12.5723 75.3419V84.0628L19.1067 80.3323V71.6113L12.5723 75.3419Z" fill="#9598A5"/>
<path d="M13.0718 82.9928V75.7733L18.5365 72.6792V79.8987L13.0718 82.9928Z" fill="url(#paint75_linear)"/>
<path d="M17.9486 79.548V73.0195L18.538 72.6865V79.9061L13.0732 83.0002V82.3593L17.9486 79.548Z" fill="#E2DCDC"/>
<path d="M22.5767 69.8299V78.5743L29.1111 74.7966V66.0757L22.5767 69.8299Z" fill="#9598A5"/>
<path d="M23.1704 77.5045V70.2849L28.5645 67.1245V74.3721L23.1704 77.5045Z" fill="url(#paint76_linear)"/>
<path d="M27.9731 74.0588V67.5185L28.5625 67.1147V74.3623L23.1685 77.4991V76.786L27.9731 74.0588Z" fill="#E2DCDC"/>
<path d="M10.2443 43.3355L-27.2046 65.1017L-14.3022 64.0085L23.1938 42.0552L10.2443 43.3355Z" fill="#5E606A"/>
<path d="M-14.5625 63.9599L-1.92094 79.7383L35.8123 58.1151L23.0528 41.9565L-14.5625 63.9599Z" fill="#1D202C"/>
<path d="M24.2639 49.8227L25.3571 47.4653L23.7173 47.5847L24.2639 49.8227Z" fill="#CDCCCC"/>
<path d="M24.264 49.8217V46.8042L21.8403 47.3744V51.1757L24.264 49.8217Z" fill="#BEB19F"/>
<path d="M21.84 51.1698L19.7964 48.556V46.9707L21.84 47.3744V51.1698Z" fill="#EBEBDC"/>
<path d="M19.7964 46.972L22.2201 45.5693L24.2637 46.8055L21.84 48.1831L19.7964 46.972Z" fill="#F2F2F2"/>
<path d="M23.4322 46.8056L22.1489 46.1396L20.7227 46.9706L21.8631 47.7073L23.4322 46.8056Z" fill="#4E4D4D"/>
<path d="M22.1494 46.1396V47.5423L23.4327 46.8056L22.1494 46.1396Z" fill="#343434"/>
<path d="M22.8862 85.2502V98.0097L29.3264 94.2791V81.3296L22.8862 85.2502Z" fill="#E7E1E1"/>
<path d="M23.5267 97.6075L28.85 94.4V81.9956L23.3853 85.2989V97.5604L23.5267 97.6075Z" fill="#857F84"/>
<path d="M28.8463 94.6375V82.1138L23.5229 85.3685V97.6535L28.8463 94.6375Z" fill="#7D818E"/>
<path d="M28.4704 94.4688L28.3997 82.8291L23.8853 85.49V97.0855L28.4704 94.4688Z" fill="#9598A5"/>
<path d="M26.9009 84.7993C27.0022 84.8978 27.0819 85.0162 27.1352 85.147C27.1884 85.2779 27.214 85.4183 27.2103 85.5596L25.0474 86.7957V86.9858L27.4239 85.5831C27.4417 85.4973 27.4422 85.4087 27.4255 85.3227C27.4087 85.2366 27.3751 85.1547 27.3264 85.0818C27.2777 85.0088 27.215 84.9463 27.142 84.8978C27.0689 84.8493 26.987 84.8159 26.9009 84.7993Z" fill="#E2DCDC"/>
<path d="M27.2137 85.5565C27.272 85.431 27.2843 85.289 27.2484 85.1553C27.2126 85.0217 27.1308 84.9049 27.0175 84.8255C26.9041 84.746 26.7665 84.709 26.6286 84.7209C26.4907 84.7328 26.3614 84.7929 26.2634 84.8905C25.9198 85.1001 25.6309 85.3882 25.4203 85.7311C25.2098 86.0741 25.0836 86.4621 25.0522 86.8633L27.2152 85.6272L27.2137 85.5565Z" fill="url(#paint77_linear)"/>
<path d="M27.1617 94.1801L25.0474 95.4869V95.8199L27.4711 94.3701V86.106L27.1617 86.296V94.1801Z" fill="#E2DCDC"/>
<path d="M27.1617 86.2964L25.0474 87.5561V95.4932L27.1617 94.1863V86.2964Z" fill="url(#paint78_linear)"/>
<path d="M28.3028 89.3372C28.303 89.3704 28.2962 89.4032 28.2828 89.4336C28.2695 89.464 28.2499 89.4913 28.2254 89.5136C28.2008 89.5359 28.1719 89.5528 28.1403 89.5633C28.1088 89.5737 28.0755 89.5774 28.0425 89.5741C28.0143 89.5747 27.9863 89.5695 27.9601 89.559C27.934 89.5485 27.9102 89.5328 27.8903 89.5129C27.8704 89.493 27.8547 89.4692 27.8442 89.4431C27.8337 89.4169 27.8285 89.3889 27.8291 89.3607C27.8454 89.3109 27.8732 89.2656 27.9102 89.2285C27.9473 89.1914 27.9926 89.1637 28.0425 89.1475C28.1896 89.1475 28.3028 89.1475 28.3028 89.3372Z" fill="#999999"/>
<path opacity="0.33" d="M70.2727 51.1242L65.0923 72.9302H80.1104L123.214 48.5266L91.0164 33.6455L70.2727 51.1242Z" fill="url(#paint79_linear)"/>
<path d="M65.0898 72.7998L65.019 36.7536L102.611 15.3896V49.9624L65.0898 72.7998Z" fill="#CAC4C5"/>
<path d="M65.0881 71.588L43.2983 58.475V21.7127L54.3236 20.4766L65.0881 36.7058V71.588Z" fill="#F7F1F1"/>
<path d="M65.0882 71.3973V72.8943L42.4438 59.7532V58.3506L65.0882 71.3973Z" fill="#BDC0CD"/>
<path d="M65.0869 71.3976V72.8945L103.202 50.2973V48.8711L65.0869 71.3976Z" fill="#9598A5"/>
<path d="M102.606 48.8947V48.4438L103.196 48.8711L65.0869 71.3976V70.9939L102.606 48.8947Z" fill="#7A7D8B"/>
<path d="M43.2729 58.043V58.4231L65.0877 70.994V71.3977L42.4419 58.3524L43.2729 58.043Z" fill="#AEB2BF"/>
<path d="M70.9565 54.6919V63.6029L77.6339 59.753V50.8906L70.9565 54.6919Z" fill="#9598A5"/>
<path d="M71.5737 62.3923V55.1727L76.9913 52.0786V59.2982L71.5737 62.3923Z" fill="url(#paint80_linear)"/>
<path d="M76.3975 58.946L76.4211 52.4116L76.9913 52.0786V59.2982L71.5737 62.3923V61.7263L76.3975 58.946Z" fill="#E2DCDC"/>
<path d="M51.9233 31.9539V40.7942L45.2695 36.9929V28.104L51.9233 31.9539Z" fill="#B2B5C1"/>
<path d="M51.3043 39.6272V32.3561L45.8867 29.2915V36.539L51.3043 39.6272Z" fill="url(#paint81_linear)"/>
<path d="M46.4761 36.1589V29.648L45.8867 29.2915V36.539L51.3043 39.6331V38.9922L46.4761 36.1589Z" fill="white"/>
<path d="M62.0676 38.0362V46.9207L55.4624 43.0707V34.2305L62.0676 38.0362Z" fill="#B2B5C1"/>
<path d="M61.4754 45.7107V38.4912L56.0342 35.3779V42.5975L61.4754 45.7107Z" fill="url(#paint82_linear)"/>
<path d="M56.6279 42.266V35.7316L56.0386 35.375V42.5945L61.4797 45.7078V45.0183L56.6279 42.266Z" fill="white"/>
<path d="M51.9233 48.2062V57.0937L45.2695 53.2924V44.3799L51.9233 48.2062Z" fill="#B2B5C1"/>
<path d="M51.3043 55.9519V48.6572L45.8867 45.5439V52.8151L51.3043 55.9519Z" fill="url(#paint83_linear)"/>
<path d="M46.4761 52.4349V45.9241L45.8867 45.5439V52.8151L51.3043 55.9519V55.2388L46.4761 52.4349Z" fill="white"/>
<path d="M62.0676 54.2902V63.1776L55.4624 59.3763V50.4639L62.0676 54.2902Z" fill="#B2B5C1"/>
<path d="M61.4754 61.9887V54.7412L56.0342 51.6279V58.899L61.4754 61.9887Z" fill="url(#paint84_linear)"/>
<path d="M56.6279 58.5381V52.0272L56.0386 51.6235V58.8946L61.4797 61.9887V61.3228L56.6279 58.5381Z" fill="white"/>
<path d="M80.626 49.3942V58.1151L87.1604 54.3845V45.6636L80.626 49.3942Z" fill="#9598A5"/>
<path d="M81.1489 57.0691V49.798L86.5901 46.7334V53.9529L81.1489 57.0691Z" fill="url(#paint85_linear)"/>
<path d="M85.9964 53.5537V47.0428L86.5857 46.7334V53.9529L81.1445 57.0662V56.384L85.9964 53.5537Z" fill="#E2DCDC"/>
<path d="M70.9565 38.655V47.5424L77.6339 43.7411V34.8286L70.9565 38.655Z" fill="#9598A5"/>
<path d="M71.5737 46.3748V39.1273L76.9913 36.0332V43.2527L71.5737 46.3748Z" fill="url(#paint86_linear)"/>
<path d="M76.3975 42.907L76.4211 36.3725L76.9913 36.0396V43.2591L71.5737 46.3723V45.6902L76.3975 42.907Z" fill="#E2DCDC"/>
<path d="M80.626 33.3548V42.0757L87.1604 38.3451V29.6006L80.626 33.3548Z" fill="#9598A5"/>
<path d="M81.1489 40.9824V33.7628L86.5901 30.6982V37.9178L81.1489 40.9824Z" fill="url(#paint87_linear)"/>
<path d="M85.9964 37.5377V31.0033L86.5857 30.6938V37.9134L81.1445 40.978V40.3607L85.9964 37.5377Z" fill="#E2DCDC"/>
<path d="M90.6543 27.8415V36.5624L97.1887 32.7847V24.0918L90.6543 27.8415Z" fill="#9598A5"/>
<path d="M91.2476 35.4941V28.2745L96.6416 25.1377V32.3573L91.2476 35.4941Z" fill="url(#paint88_linear)"/>
<path d="M96.0479 32.0479V25.5134L96.6372 25.1333V32.3528L91.2432 35.4897V34.7766L96.0479 32.0479Z" fill="#E2DCDC"/>
<path d="M78.2983 1.32332L40.8745 23.1131L53.7533 21.9963L91.2493 0.0429688L78.2983 1.32332Z" fill="#5E606A"/>
<path d="M53.4912 21.9492L66.1622 37.7276L103.872 16.1043L91.136 -0.0541992L53.4912 21.9492Z" fill="#1D202C"/>
<g opacity="0.8">
<path opacity="0.8" d="M40.8257 23.0901L53.538 21.9497L66.156 37.6795L64.8962 36.8956L53.2566 22.567L42.4449 23.5645L40.8257 23.0901Z" fill="#1D202C"/>
</g>
<path d="M92.318 7.81103L93.4113 5.45361L91.7905 5.57295L92.318 7.81103Z" fill="#CDCCCC"/>
<path d="M92.3181 7.81079V4.81689L89.918 5.36352V9.16484L92.3181 7.81079Z" fill="#BEB19F"/>
<path d="M89.9176 9.16486L87.874 6.55109V4.9834L89.9176 5.36355V9.16486Z" fill="#EBEBDC"/>
<path d="M87.874 4.98336L90.2742 3.55713L92.3177 4.81686L89.9176 6.1709L87.874 4.98336Z" fill="#F2F2F2"/>
<path d="M91.4853 4.79389L90.202 4.12793L88.7993 4.98395L89.9397 5.69706L91.4853 4.79389Z" fill="#4E4D4D"/>
<path d="M90.2031 4.12793V5.53058L91.4864 4.79389L90.2031 4.12793Z" fill="#343434"/>
<path d="M90.9399 43.2395V56.024L97.3801 52.2698V39.3188L90.9399 43.2395Z" fill="#E7E1E1"/>
<path d="M91.5809 55.5968L96.9042 52.4128V39.9849L91.4395 43.3117V55.5496L91.5809 55.5968Z" fill="#857F84"/>
<path d="M96.9039 52.6251V40.1265L91.5806 43.3576V55.6411L96.9039 52.6251Z" fill="#7D818E"/>
<path d="M96.524 52.4589L96.4768 40.8398L91.9624 43.4772V55.0962L96.524 52.4589Z" fill="#9598A5"/>
<path d="M94.9559 42.7886C95.0629 42.8877 95.1462 43.0096 95.1998 43.1453C95.2533 43.281 95.2757 43.4269 95.2653 43.5724L93.1274 44.8322V45.0694L95.504 43.6918C95.5261 43.1451 95.2638 42.8357 94.9559 42.7886Z" fill="#E2DCDC"/>
<path d="M95.2624 43.5729C95.2728 43.4275 95.2504 43.2815 95.1969 43.1458C95.1433 43.0102 95.0599 42.8882 94.953 42.7891C94.7461 42.7129 94.5189 42.7129 94.3121 42.7891C93.9729 43.0013 93.6885 43.2906 93.4822 43.6334C93.2759 43.9762 93.1533 44.3629 93.1245 44.762L95.2624 43.5022V43.5729Z" fill="url(#paint89_linear)"/>
<path d="M95.2389 52.1742L93.1011 53.4811V53.8141L95.5248 52.3879V44.0957L95.2389 44.2858V52.1742Z" fill="#E2DCDC"/>
<path d="M95.2389 44.2861L93.1011 45.5459V53.483L95.2389 52.1761V44.2861Z" fill="url(#paint90_linear)"/>
<path d="M96.2851 47.3269C96.2884 47.3599 96.2847 47.3933 96.2743 47.4248C96.2639 47.4563 96.247 47.4852 96.2246 47.5098C96.2023 47.5343 96.1751 47.5539 96.1447 47.5673C96.1143 47.5806 96.0815 47.5874 96.0483 47.5873C95.9896 47.5814 95.9353 47.5539 95.8958 47.5101C95.8564 47.4663 95.8347 47.4094 95.835 47.3504C95.8482 47.3015 95.8754 47.2574 95.9133 47.2237C95.9512 47.19 95.9981 47.1681 96.0483 47.1606C96.1674 47.1606 96.2851 47.1607 96.2851 47.3269Z" fill="#999999"/>
</g>
<defs>
<linearGradient id="paint0_linear" x1="67.2007" y1="-19.1593" x2="163.175" y2="-19.1593" gradientUnits="userSpaceOnUse">
<stop stop-color="#333333"/>
<stop offset="1" stop-color="#CDCCCC"/>
</linearGradient>
<linearGradient id="paint1_linear" x1="85.0394" y1="-79.6438" x2="126.484" y2="-25.7834" gradientUnits="userSpaceOnUse">
<stop stop-color="#517590"/>
<stop offset="1" stop-color="#283640"/>
</linearGradient>
<linearGradient id="paint2_linear" x1="76.3003" y1="-78.6632" x2="117.724" y2="-24.7207" gradientUnits="userSpaceOnUse">
<stop stop-color="#517590"/>
<stop offset="1" stop-color="#283640"/>
</linearGradient>
<linearGradient id="paint3_linear" x1="67.5369" y1="-77.6383" x2="109.032" y2="-23.9249" gradientUnits="userSpaceOnUse">
<stop stop-color="#517590"/>
<stop offset="1" stop-color="#283640"/>
</linearGradient>
<linearGradient id="paint4_linear" x1="58.7938" y1="-76.6188" x2="100.289" y2="-22.9054" gradientUnits="userSpaceOnUse">
<stop stop-color="#517590"/>
<stop offset="1" stop-color="#283640"/>
</linearGradient>
<linearGradient id="paint5_linear" x1="24.1908" y1="-84.306" x2="90.0012" y2="-18.6307" gradientUnits="userSpaceOnUse">
<stop stop-color="#75A5C6"/>
<stop offset="0.98" stop-color="#627A91"/>
</linearGradient>
<linearGradient id="paint6_linear" x1="31.7253" y1="-85.424" x2="97.577" y2="-20.1459" gradientUnits="userSpaceOnUse">
<stop stop-color="#75A5C6"/>
<stop offset="0.98" stop-color="#627A91"/>
</linearGradient>
<linearGradient id="paint7_linear" x1="39.2796" y1="-86.5407" x2="105.032" y2="-20.6591" gradientUnits="userSpaceOnUse">
<stop stop-color="#75A5C6"/>
<stop offset="0.98" stop-color="#627A91"/>
</linearGradient>
<linearGradient id="paint8_linear" x1="46.7885" y1="-87.6889" x2="112.629" y2="-22.254" gradientUnits="userSpaceOnUse">
<stop stop-color="#75A5C6"/>
<stop offset="0.98" stop-color="#627A91"/>
</linearGradient>
<radialGradient id="paint9_radial" cx="0" cy="0" r="1" gradientUnits="userSpaceOnUse" gradientTransform="translate(0.978397 5.55593) scale(4.72939 4.72993)">
<stop stop-color="white"/>
<stop offset="0.5" stop-color="#F0F0F0"/>
<stop offset="1" stop-color="#A9B2B1"/>
</radialGradient>
<radialGradient id="paint10_radial" cx="0" cy="0" r="1" gradientUnits="userSpaceOnUse" gradientTransform="translate(-9.48041 -6.16415) scale(3.76953 4.10623)">
<stop stop-color="white"/>
<stop offset="0.5" stop-color="#F0F0F0"/>
<stop offset="1" stop-color="#A9B2B1"/>
</radialGradient>
<radialGradient id="paint11_radial" cx="0" cy="0" r="1" gradientUnits="userSpaceOnUse" gradientTransform="translate(-3.8434 14.6404) scale(5.63176 5.63258)">
<stop stop-color="white"/>
<stop offset="0.5" stop-color="#F0F0F0"/>
<stop offset="1" stop-color="#A9B2B1"/>
</radialGradient>
<radialGradient id="paint12_radial" cx="0" cy="0" r="1" gradientUnits="userSpaceOnUse" gradientTransform="translate(9.60598 9.64583) scale(8.28514 8.28875)">
<stop stop-color="white"/>
<stop offset="0.5" stop-color="#F0F0F0"/>
<stop offset="1" stop-color="#A9B2B1"/>
</radialGradient>
<radialGradient id="paint13_radial" cx="0" cy="0" r="1" gradientUnits="userSpaceOnUse" gradientTransform="translate(-48.554 58.4849) rotate(-1.99788) scale(4.80595 4.77434)">
<stop stop-color="white"/>
<stop offset="0.5" stop-color="#F0F0F0"/>
<stop offset="1" stop-color="#A9B2B1"/>
</radialGradient>
<radialGradient id="paint14_radial" cx="0" cy="0" r="1" gradientUnits="userSpaceOnUse" gradientTransform="translate(7.06295 2.71619) scale(6.86415 6.86645)">
<stop stop-color="white"/>
<stop offset="0.5" stop-color="#F0F0F0"/>
<stop offset="1" stop-color="#A9B2B1"/>
</radialGradient>
<radialGradient id="paint15_radial" cx="0" cy="0" r="1" gradientUnits="userSpaceOnUse" gradientTransform="translate(0.194835 10.3266) scale(4.10805 4.10847)">
<stop stop-color="white"/>
<stop offset="0.5" stop-color="#F0F0F0"/>
<stop offset="1" stop-color="#A9B2B1"/>
</radialGradient>
<radialGradient id="paint16_radial" cx="0" cy="0" r="1" gradientUnits="userSpaceOnUse" gradientTransform="translate(8.55576 13.0056) scale(8.50622 8.508)">
<stop stop-color="white"/>
<stop offset="0.5" stop-color="#F0F0F0"/>
<stop offset="1" stop-color="#A9B2B1"/>
</radialGradient>
<radialGradient id="paint17_radial" cx="0" cy="0" r="1" gradientUnits="userSpaceOnUse" gradientTransform="translate(-69.3602 128.939) rotate(12.9805) scale(4.68005 4.09232)">
<stop stop-color="white"/>
<stop offset="0.5" stop-color="#F0F0F0"/>
<stop offset="1" stop-color="#A9B2B1"/>
</radialGradient>
<radialGradient id="paint18_radial" cx="0" cy="0" r="1" gradientUnits="userSpaceOnUse" gradientTransform="translate(-69.8407 130.243) rotate(13.0804) scale(7.22989 6.31216)">
<stop stop-color="white"/>
<stop offset="0.5" stop-color="#F0F0F0"/>
<stop offset="1" stop-color="#A9B2B1"/>
</radialGradient>
<radialGradient id="paint19_radial" cx="0" cy="0" r="1" gradientUnits="userSpaceOnUse" gradientTransform="translate(-56.6255 135.055) rotate(13.0804) scale(4.78198 4.17139)">
<stop stop-color="white"/>
<stop offset="0.5" stop-color="#F0F0F0"/>
<stop offset="1" stop-color="#A9B2B1"/>
</radialGradient>
<radialGradient id="paint20_radial" cx="0" cy="0" r="1" gradientUnits="userSpaceOnUse" gradientTransform="translate(19.9883 17.5501) scale(7.65145 7.65306)">
<stop stop-color="white"/>
<stop offset="0.5" stop-color="#F0F0F0"/>
<stop offset="1" stop-color="#A9B2B1"/>
</radialGradient>
<radialGradient id="paint21_radial" cx="0" cy="0" r="1" gradientUnits="userSpaceOnUse" gradientTransform="translate(-77.6248 12.5089) scale(9.07075 9.07349)">
<stop stop-color="white"/>
<stop offset="0.5" stop-color="#F0F0F0"/>
<stop offset="1" stop-color="#A9B2B1"/>
</radialGradient>
<radialGradient id="paint22_radial" cx="0" cy="0" r="1" gradientUnits="userSpaceOnUse" gradientTransform="translate(4.4954 7.09331) scale(8.57683 8.59744)">
<stop stop-color="white"/>
<stop offset="0.5" stop-color="#F0F0F0"/>
<stop offset="1" stop-color="#A9B2B1"/>
</radialGradient>
<radialGradient id="paint23_radial" cx="0" cy="0" r="1" gradientUnits="userSpaceOnUse" gradientTransform="translate(19.5341 -4.92024) scale(4.72939 4.73044)">
<stop stop-color="white"/>
<stop offset="0.5" stop-color="#F0F0F0"/>
<stop offset="1" stop-color="#A9B2B1"/>
</radialGradient>
<radialGradient id="paint24_radial" cx="0" cy="0" r="1" gradientUnits="userSpaceOnUse" gradientTransform="translate(30.7995 -5.9439) scale(3.75202 3.75286)">
<stop stop-color="white"/>
<stop offset="0.5" stop-color="#F0F0F0"/>
<stop offset="1" stop-color="#A9B2B1"/>
</radialGradient>
<radialGradient id="paint25_radial" cx="0" cy="0" r="1" gradientUnits="userSpaceOnUse" gradientTransform="translate(14.6866 4.13717) scale(5.63103 5.63233)">
<stop stop-color="white"/>
<stop offset="0.5" stop-color="#F0F0F0"/>
<stop offset="1" stop-color="#A9B2B1"/>
</radialGradient>
<radialGradient id="paint26_radial" cx="0" cy="0" r="1" gradientUnits="userSpaceOnUse" gradientTransform="translate(28.1645 -0.854057) scale(8.28515 8.28874)">
<stop stop-color="white"/>
<stop offset="0.5" stop-color="#F0F0F0"/>
<stop offset="1" stop-color="#A9B2B1"/>
</radialGradient>
<radialGradient id="paint27_radial" cx="0" cy="0" r="1" gradientUnits="userSpaceOnUse" gradientTransform="translate(-33.5296 49.6572) rotate(-2.00565) scale(6.04953 4.83867)">
<stop stop-color="white"/>
<stop offset="0.5" stop-color="#F0F0F0"/>
<stop offset="1" stop-color="#A9B2B1"/>
</radialGradient>
<radialGradient id="paint28_radial" cx="0" cy="0" r="1" gradientUnits="userSpaceOnUse" gradientTransform="translate(25.5932 -7.77832) scale(6.8629 6.86537)">
<stop stop-color="white"/>
<stop offset="0.5" stop-color="#F0F0F0"/>
<stop offset="1" stop-color="#A9B2B1"/>
</radialGradient>
<radialGradient id="paint29_radial" cx="0" cy="0" r="1" gradientUnits="userSpaceOnUse" gradientTransform="translate(18.73 -0.15861) scale(4.10806 4.10847)">
<stop stop-color="white"/>
<stop offset="0.5" stop-color="#F0F0F0"/>
<stop offset="1" stop-color="#A9B2B1"/>
</radialGradient>
<radialGradient id="paint30_radial" cx="0" cy="0" r="1" gradientUnits="userSpaceOnUse" gradientTransform="translate(27.0914 2.53057) scale(8.50622 8.508)">
<stop stop-color="white"/>
<stop offset="0.5" stop-color="#F0F0F0"/>
<stop offset="1" stop-color="#A9B2B1"/>
</radialGradient>
<radialGradient id="paint31_radial" cx="0" cy="0" r="1" gradientUnits="userSpaceOnUse" gradientTransform="translate(-52.1822 122.224) rotate(13.0517) scale(4.68561 4.09093)">
<stop stop-color="white"/>
<stop offset="0.5" stop-color="#F0F0F0"/>
<stop offset="1" stop-color="#A9B2B1"/>
</radialGradient>
<radialGradient id="paint32_radial" cx="0" cy="0" r="1" gradientUnits="userSpaceOnUse" gradientTransform="translate(-50.1808 123.825) rotate(12.9946) scale(6.40206 6.10103)">
<stop stop-color="white"/>
<stop offset="0.5" stop-color="#F0F0F0"/>
<stop offset="1" stop-color="#A9B2B1"/>
</radialGradient>
<radialGradient id="paint33_radial" cx="0" cy="0" r="1" gradientUnits="userSpaceOnUse" gradientTransform="translate(-38.8227 128.266) rotate(13.0804) scale(4.78198 4.17139)">
<stop stop-color="white"/>
<stop offset="0.5" stop-color="#F0F0F0"/>
<stop offset="1" stop-color="#A9B2B1"/>
</radialGradient>
<radialGradient id="paint34_radial" cx="0" cy="0" r="1" gradientUnits="userSpaceOnUse" gradientTransform="translate(38.5432 7.06971) scale(7.65145 7.65306)">
<stop stop-color="white"/>
<stop offset="0.5" stop-color="#F0F0F0"/>
<stop offset="1" stop-color="#A9B2B1"/>
</radialGradient>
<radialGradient id="paint35_radial" cx="0" cy="0" r="1" gradientUnits="userSpaceOnUse" gradientTransform="translate(-62.6483 2.02741) scale(9.07075 9.07346)">
<stop stop-color="white"/>
<stop offset="0.5" stop-color="#F0F0F0"/>
<stop offset="1" stop-color="#A9B2B1"/>
</radialGradient>
<radialGradient id="paint36_radial" cx="0" cy="0" r="1" gradientUnits="userSpaceOnUse" gradientTransform="translate(23.0459 -3.39237) scale(8.57683 8.59741)">
<stop stop-color="white"/>
<stop offset="0.5" stop-color="#F0F0F0"/>
<stop offset="1" stop-color="#A9B2B1"/>
</radialGradient>
<radialGradient id="paint37_radial" cx="0" cy="0" r="1" gradientUnits="userSpaceOnUse" gradientTransform="translate(21.1003 123.396) scale(5.81519 5.90884)">
<stop stop-color="white"/>
<stop offset="0.5" stop-color="#F0F0F0"/>
<stop offset="1" stop-color="#A9B2B1"/>
</radialGradient>
<radialGradient id="paint38_radial" cx="0" cy="0" r="1" gradientUnits="userSpaceOnUse" gradientTransform="translate(34.9486 122.085) scale(4.64611 4.72034)">
<stop stop-color="white"/>
<stop offset="0.5" stop-color="#F0F0F0"/>
<stop offset="1" stop-color="#A9B2B1"/>
</radialGradient>
<radialGradient id="paint39_radial" cx="0" cy="0" r="1" gradientUnits="userSpaceOnUse" gradientTransform="translate(15.1428 134.791) scale(6.92977 7.04123)">
<stop stop-color="white"/>
<stop offset="0.5" stop-color="#F0F0F0"/>
<stop offset="1" stop-color="#A9B2B1"/>
</radialGradient>
<radialGradient id="paint40_radial" cx="0" cy="0" r="1" gradientUnits="userSpaceOnUse" gradientTransform="translate(31.7114 128.441) scale(10.2031 10.3663)">
<stop stop-color="white"/>
<stop offset="0.5" stop-color="#F0F0F0"/>
<stop offset="1" stop-color="#A9B2B1"/>
</radialGradient>
<radialGradient id="paint41_radial" cx="0" cy="0" r="1" gradientUnits="userSpaceOnUse" gradientTransform="translate(43.6436 81.5561) rotate(-1.77206) scale(7.38949 6.2483)">
<stop stop-color="white"/>
<stop offset="0.5" stop-color="#F0F0F0"/>
<stop offset="1" stop-color="#A9B2B1"/>
</radialGradient>
<radialGradient id="paint42_radial" cx="0" cy="0" r="1" gradientUnits="userSpaceOnUse" gradientTransform="translate(28.5987 119.746) scale(8.39806 8.53241)">
<stop stop-color="white"/>
<stop offset="0.5" stop-color="#F0F0F0"/>
<stop offset="1" stop-color="#A9B2B1"/>
</radialGradient>
<radialGradient id="paint43_radial" cx="0" cy="0" r="1" gradientUnits="userSpaceOnUse" gradientTransform="translate(20.1352 129.483) scale(5.05588 5.13705)">
<stop stop-color="white"/>
<stop offset="0.5" stop-color="#F0F0F0"/>
<stop offset="1" stop-color="#A9B2B1"/>
</radialGradient>
<radialGradient id="paint44_radial" cx="0" cy="0" r="1" gradientUnits="userSpaceOnUse" gradientTransform="translate(30.4261 132.883) scale(10.4625 10.6299)">
<stop stop-color="white"/>
<stop offset="0.5" stop-color="#F0F0F0"/>
<stop offset="1" stop-color="#A9B2B1"/>
</radialGradient>
<radialGradient id="paint45_radial" cx="0" cy="0" r="1" gradientUnits="userSpaceOnUse" gradientTransform="translate(-48.4321 152.304) rotate(11.2868) scale(5.73693 5.43509)">
<stop stop-color="white"/>
<stop offset="0.5" stop-color="#F0F0F0"/>
<stop offset="1" stop-color="#A9B2B1"/>
</radialGradient>
<radialGradient id="paint46_radial" cx="0" cy="0" r="1" gradientUnits="userSpaceOnUse" gradientTransform="translate(-47.8425 153.956) rotate(11.2868) scale(8.85305 8.37788)">
<stop stop-color="white"/>
<stop offset="0.5" stop-color="#F0F0F0"/>
<stop offset="1" stop-color="#A9B2B1"/>
</radialGradient>
<radialGradient id="paint47_radial" cx="0" cy="0" r="1" gradientUnits="userSpaceOnUse" gradientTransform="translate(-31.8668 160.535) rotate(11.3332) scale(5.84368 5.52564)">
<stop stop-color="white"/>
<stop offset="0.5" stop-color="#F0F0F0"/>
<stop offset="1" stop-color="#A9B2B1"/>
</radialGradient>
<radialGradient id="paint48_radial" cx="0" cy="0" r="1" gradientUnits="userSpaceOnUse" gradientTransform="translate(44.4807 138.613) scale(9.41182 9.56241)">
<stop stop-color="white"/>
<stop offset="0.5" stop-color="#F0F0F0"/>
<stop offset="1" stop-color="#A9B2B1"/>
</radialGradient>
<radialGradient id="paint49_radial" cx="0" cy="0" r="1" gradientUnits="userSpaceOnUse" gradientTransform="translate(-48.0261 132.057) scale(11.163 11.3466)">
<stop stop-color="white"/>
<stop offset="0.5" stop-color="#F0F0F0"/>
<stop offset="1" stop-color="#A9B2B1"/>
</radialGradient>
<radialGradient id="paint50_radial" cx="0" cy="0" r="1" gradientUnits="userSpaceOnUse" gradientTransform="translate(25.7037 125.21) scale(10.5794 10.7521)">
<stop stop-color="white"/>
<stop offset="0.5" stop-color="#F0F0F0"/>
<stop offset="1" stop-color="#A9B2B1"/>
</radialGradient>
<linearGradient id="paint51_linear" x1="130.708" y1="89.3986" x2="178.878" y2="38.1656" gradientUnits="userSpaceOnUse">
<stop stop-color="#333333"/>
<stop offset="1" stop-color="#CDCCCC"/>
</linearGradient>
<linearGradient id="paint52_linear" x1="143.717" y1="74.3474" x2="143.717" y2="91.9734" gradientUnits="userSpaceOnUse">
<stop stop-color="#517590"/>
<stop offset="1" stop-color="#425F74"/>
</linearGradient>
<linearGradient id="paint53_linear" x1="-5831.69" y1="51.5362" x2="-5831.69" y2="69.231" gradientUnits="userSpaceOnUse">
<stop stop-color="#75A5C6"/>
<stop offset="1" stop-color="#6C93AF"/>
</linearGradient>
<linearGradient id="paint54_linear" x1="-5841.86" y1="57.6105" x2="-5841.86" y2="75.317" gradientUnits="userSpaceOnUse">
<stop stop-color="#75A5C6"/>
<stop offset="1" stop-color="#6C93AF"/>
</linearGradient>
<linearGradient id="paint55_linear" x1="-5831.69" y1="67.7844" x2="-5831.69" y2="85.5596" gradientUnits="userSpaceOnUse">
<stop stop-color="#75A5C6"/>
<stop offset="1" stop-color="#6C93AF"/>
</linearGradient>
<linearGradient id="paint56_linear" x1="-5841.86" y1="73.8731" x2="-5841.86" y2="91.5679" gradientUnits="userSpaceOnUse">
<stop stop-color="#75A5C6"/>
<stop offset="1" stop-color="#6C93AF"/>
</linearGradient>
<linearGradient id="paint57_linear" x1="143.717" y1="58.3049" x2="143.717" y2="75.9584" gradientUnits="userSpaceOnUse">
<stop stop-color="#517590"/>
<stop offset="1" stop-color="#425F74"/>
</linearGradient>
<linearGradient id="paint58_linear" x1="67.4613" y1="125.804" x2="115.566" y2="74.5676" gradientUnits="userSpaceOnUse">
<stop stop-color="#333333"/>
<stop offset="1" stop-color="#CDCCCC"/>
</linearGradient>
<linearGradient id="paint59_linear" x1="80.4368" y1="110.752" x2="80.4368" y2="128.376" gradientUnits="userSpaceOnUse">
<stop stop-color="#517590"/>
<stop offset="1" stop-color="#425F74"/>
</linearGradient>
<linearGradient id="paint60_linear" x1="-5768.44" y1="87.939" x2="-5768.44" y2="105.634" gradientUnits="userSpaceOnUse">
<stop stop-color="#75A5C6"/>
<stop offset="1" stop-color="#6C93AF"/>
</linearGradient>
<linearGradient id="paint61_linear" x1="-5778.81" y1="94.02" x2="-5778.81" y2="111.719" gradientUnits="userSpaceOnUse">
<stop stop-color="#75A5C6"/>
<stop offset="1" stop-color="#6C93AF"/>
</linearGradient>
<linearGradient id="paint62_linear" x1="-5768.44" y1="104.193" x2="-5768.44" y2="121.96" gradientUnits="userSpaceOnUse">
<stop stop-color="#75A5C6"/>
<stop offset="1" stop-color="#6C93AF"/>
</linearGradient>
<linearGradient id="paint63_linear" x1="-5778.81" y1="110.279" x2="-5778.81" y2="127.969" gradientUnits="userSpaceOnUse">
<stop stop-color="#75A5C6"/>
<stop offset="1" stop-color="#6C93AF"/>
</linearGradient>
<linearGradient id="paint64_linear" x1="90.0361" y1="105.381" x2="90.0361" y2="123.076" gradientUnits="userSpaceOnUse">
<stop stop-color="#517590"/>
<stop offset="1" stop-color="#425F74"/>
</linearGradient>
<linearGradient id="paint65_linear" x1="80.4368" y1="94.7078" x2="80.4368" y2="112.361" gradientUnits="userSpaceOnUse">
<stop stop-color="#517590"/>
<stop offset="1" stop-color="#425F74"/>
</linearGradient>
<linearGradient id="paint66_linear" x1="90.0361" y1="89.3401" x2="90.0361" y2="106.966" gradientUnits="userSpaceOnUse">
<stop stop-color="#517590"/>
<stop offset="1" stop-color="#425F74"/>
</linearGradient>
<linearGradient id="paint67_linear" x1="100.089" y1="83.7845" x2="100.089" y2="101.503" gradientUnits="userSpaceOnUse">
<stop stop-color="#517590"/>
<stop offset="1" stop-color="#425F74"/>
</linearGradient>
<linearGradient id="paint68_linear" x1="100.351" y1="96.7963" x2="100.351" y2="125.96" gradientUnits="userSpaceOnUse">
<stop stop-color="#517590"/>
<stop offset="1" stop-color="#425F74"/>
</linearGradient>
<linearGradient id="paint69_linear" x1="100.325" y1="96.7259" x2="100.325" y2="126.24" gradientUnits="userSpaceOnUse">
<stop stop-color="#517590"/>
<stop offset="1" stop-color="#425F74"/>
</linearGradient>
<linearGradient id="paint70_linear" x1="-60.8994" y1="22.365" x2="54.9817" y2="22.365" gradientUnits="userSpaceOnUse">
<stop stop-color="#333333"/>
<stop offset="1" stop-color="#CDCCCC"/>
</linearGradient>
<linearGradient id="paint71_linear" x1="-6.80323" y1="107.078" x2="41.3677" y2="55.8448" gradientUnits="userSpaceOnUse">
<stop stop-color="#333333"/>
<stop offset="1" stop-color="#CDCCCC"/>
</linearGradient>
<linearGradient id="paint72_linear" x1="6.20539" y1="92.0266" x2="6.20539" y2="109.653" gradientUnits="userSpaceOnUse">
<stop stop-color="#517590"/>
<stop offset="1" stop-color="#425F74"/>
</linearGradient>
<linearGradient id="paint73_linear" x1="15.8042" y1="86.6558" x2="15.8042" y2="104.351" gradientUnits="userSpaceOnUse">
<stop stop-color="#517590"/>
<stop offset="1" stop-color="#425F74"/>
</linearGradient>
<linearGradient id="paint74_linear" x1="6.20539" y1="75.9841" x2="6.20539" y2="93.6376" gradientUnits="userSpaceOnUse">
<stop stop-color="#517590"/>
<stop offset="1" stop-color="#425F74"/>
</linearGradient>
<linearGradient id="paint75_linear" x1="15.8042" y1="70.6165" x2="15.8042" y2="88.2425" gradientUnits="userSpaceOnUse">
<stop stop-color="#517590"/>
<stop offset="1" stop-color="#425F74"/>
</linearGradient>
<linearGradient id="paint76_linear" x1="25.8782" y1="65.0589" x2="25.8782" y2="82.7775" gradientUnits="userSpaceOnUse">
<stop stop-color="#517590"/>
<stop offset="1" stop-color="#425F74"/>
</linearGradient>
<linearGradient id="paint77_linear" x1="26.1493" y1="78.0062" x2="26.1493" y2="107.379" gradientUnits="userSpaceOnUse">
<stop stop-color="#517590"/>
<stop offset="1" stop-color="#425F74"/>
</linearGradient>
<linearGradient id="paint78_linear" x1="26.0918" y1="78.0008" x2="26.0918" y2="107.513" gradientUnits="userSpaceOnUse">
<stop stop-color="#517590"/>
<stop offset="1" stop-color="#425F74"/>
</linearGradient>
<linearGradient id="paint79_linear" x1="61.3144" y1="65.0732" x2="109.459" y2="13.8538" gradientUnits="userSpaceOnUse">
<stop stop-color="#333333"/>
<stop offset="1" stop-color="#CDCCCC"/>
</linearGradient>
<linearGradient id="paint80_linear" x1="74.2825" y1="50.0159" x2="74.2825" y2="67.6728" gradientUnits="userSpaceOnUse">
<stop stop-color="#517590"/>
<stop offset="1" stop-color="#425F74"/>
</linearGradient>
<linearGradient id="paint81_linear" x1="-5762.49" y1="27.2037" x2="-5762.49" y2="44.8985" gradientUnits="userSpaceOnUse">
<stop stop-color="#75A5C6"/>
<stop offset="1" stop-color="#6C93AF"/>
</linearGradient>
<linearGradient id="paint82_linear" x1="-5772.42" y1="33.2907" x2="-5772.42" y2="50.9805" gradientUnits="userSpaceOnUse">
<stop stop-color="#75A5C6"/>
<stop offset="1" stop-color="#6C93AF"/>
</linearGradient>
<linearGradient id="paint83_linear" x1="-5762.49" y1="43.452" x2="-5762.49" y2="61.2287" gradientUnits="userSpaceOnUse">
<stop stop-color="#75A5C6"/>
<stop offset="1" stop-color="#6C93AF"/>
</linearGradient>
<linearGradient id="paint84_linear" x1="-5772.42" y1="49.5351" x2="-5772.42" y2="67.2624" gradientUnits="userSpaceOnUse">
<stop stop-color="#75A5C6"/>
<stop offset="1" stop-color="#6C93AF"/>
</linearGradient>
<linearGradient id="paint85_linear" x1="83.8804" y1="44.6456" x2="83.8804" y2="62.3404" gradientUnits="userSpaceOnUse">
<stop stop-color="#517590"/>
<stop offset="1" stop-color="#425F74"/>
</linearGradient>
<linearGradient id="paint86_linear" x1="74.2825" y1="33.9649" x2="74.2825" y2="51.6491" gradientUnits="userSpaceOnUse">
<stop stop-color="#517590"/>
<stop offset="1" stop-color="#425F74"/>
</linearGradient>
<linearGradient id="paint87_linear" x1="83.8804" y1="28.6311" x2="83.8804" y2="46.2273" gradientUnits="userSpaceOnUse">
<stop stop-color="#517590"/>
<stop offset="1" stop-color="#425F74"/>
</linearGradient>
<linearGradient id="paint88_linear" x1="93.9338" y1="23.0457" x2="93.9338" y2="40.7862" gradientUnits="userSpaceOnUse">
<stop stop-color="#517590"/>
<stop offset="1" stop-color="#425F74"/>
</linearGradient>
<linearGradient id="paint89_linear" x1="94.1926" y1="36.0633" x2="94.1926" y2="65.2267" gradientUnits="userSpaceOnUse">
<stop stop-color="#517590"/>
<stop offset="1" stop-color="#425F74"/>
</linearGradient>
<linearGradient id="paint90_linear" x1="94.17" y1="35.9906" x2="94.17" y2="65.5032" gradientUnits="userSpaceOnUse">
<stop stop-color="#517590"/>
<stop offset="1" stop-color="#425F74"/>
</linearGradient>
</defs>
</svg>
