<svg width="61" height="65" viewBox="0 0 61 65" fill="none" xmlns="http://www.w3.org/2000/svg">
<path d="M53.315 37.4681C53.315 22.5449 63.0469 19.3722 59.2464 15.9035C56.8849 13.7481 45.1623 16.2087 39.2565 16.878C37.362 17.0927 36.561 15.6855 38.0828 14.4526C41.9072 11.3543 49.5858 10.9277 50.2829 5.78095C51.267 -1.48527 33.3737 -1.66304 16.1594 7.6216C1.66513 15.4391 -7.29155 32.1001 7.85435 34.8027C16.4095 36.3293 31.4257 22.052 39.1087 28.4573C46.9861 35.025 32.3006 43.4577 28.9415 53.9525C23.8469 69.8694 55.9996 65.8129 56.8595 53.6851C57.1371 49.7694 53.315 41.3937 53.315 37.4681Z" fill="url(#paint0_linear)"/>
<path opacity="0.1" d="M55.7496 23.3933H53.4982V18.2072C53.4982 16.8282 52.3804 15.7104 51.0014 15.7104H6.53587C5.15688 15.7104 4.03906 16.8282 4.03906 18.2072V55.4645C4.03906 56.8435 5.15688 57.9613 6.53587 57.9613H51.0016C52.3805 57.9613 53.4984 56.8435 53.4984 55.4645V35.4346H55.7497C56.4392 35.4346 56.9981 34.8756 56.9981 34.1862V24.6417C56.998 23.9522 56.4391 23.3933 55.7496 23.3933Z" fill="#313131"/>
<path d="M53.4985 15.2104V52.4678C53.4985 53.8473 52.3812 54.9646 51.0017 54.9646H6.53587C5.15638 54.9646 4.03906 53.8473 4.03906 52.4678V15.2104C4.03906 13.8322 5.15638 12.7136 6.53587 12.7136H51.0016C52.3812 12.7136 53.4985 13.8322 53.4985 15.2104Z" fill="#FDFAF6"/>
<path d="M53.4987 20.5463V15.2122C53.4987 13.8332 52.3809 12.7154 51.0019 12.7154H6.53636C5.15737 12.7154 4.03955 13.8332 4.03955 15.2122V20.5463H53.4987Z" fill="#585972"/>
<path d="M25.3497 32.4583H21.0095C20.6648 32.4583 20.3853 32.1788 20.3853 31.8341V27.4939C20.3853 27.1492 20.6648 26.8697 21.0095 26.8697H25.3497C25.6943 26.8697 25.9739 27.1492 25.9739 27.4939V31.8341C25.9739 32.1788 25.6945 32.4583 25.3497 32.4583Z" fill="#585972"/>
<path d="M36.5274 32.4583H32.1872C31.8425 32.4583 31.563 32.1788 31.563 31.8341V27.4939C31.563 27.1492 31.8425 26.8697 32.1872 26.8697H36.5274C36.8721 26.8697 37.1516 27.1492 37.1516 27.4939V31.8341C37.1516 32.1788 36.8721 32.4583 36.5274 32.4583Z" fill="#585972"/>
<path d="M19.7618 38.0469H15.4216C15.0769 38.0469 14.7974 37.7674 14.7974 37.4227V33.0825C14.7974 32.7378 15.0769 32.4583 15.4216 32.4583H19.7618C20.1065 32.4583 20.386 32.7378 20.386 33.0825V37.4227C20.386 37.7674 20.1066 38.0469 19.7618 38.0469Z" fill="#585972"/>
<path d="M30.9385 38.0469H26.5983C26.2536 38.0469 25.9741 37.7674 25.9741 37.4227V33.0825C25.9741 32.7378 26.2536 32.4583 26.5983 32.4583H30.9385C31.2832 32.4583 31.5627 32.7378 31.5627 33.0825V37.4227C31.5627 37.7674 31.2832 38.0469 30.9385 38.0469Z" fill="#585972"/>
<path d="M42.1163 38.0469H37.7761C37.4314 38.0469 37.1519 37.7674 37.1519 37.4227V33.0825C37.1519 32.7378 37.4314 32.4583 37.7761 32.4583H42.1163C42.4609 32.4583 42.7405 32.7378 42.7405 33.0825V37.4227C42.7405 37.7674 42.4609 38.0469 42.1163 38.0469Z" fill="#585972"/>
<path d="M14.1729 43.6355H9.8327C9.48801 43.6355 9.2085 43.356 9.2085 43.0113V38.6711C9.2085 38.3265 9.48801 38.0469 9.8327 38.0469H14.1729C14.5176 38.0469 14.7971 38.3265 14.7971 38.6711V43.0113C14.7971 43.356 14.5176 43.6355 14.1729 43.6355Z" fill="#585972"/>
<path d="M25.3497 43.6355H21.0095C20.6648 43.6355 20.3853 43.356 20.3853 43.0113V38.6711C20.3853 38.3265 20.6648 38.0469 21.0095 38.0469H25.3497C25.6943 38.0469 25.9739 38.3265 25.9739 38.6711V43.0113C25.9739 43.356 25.6945 43.6355 25.3497 43.6355Z" fill="#585972"/>
<path d="M36.5274 43.6355H32.1872C31.8425 43.6355 31.563 43.356 31.563 43.0113V38.6711C31.563 38.3265 31.8425 38.0469 32.1872 38.0469H36.5274C36.8721 38.0469 37.1516 38.3265 37.1516 38.6711V43.0113C37.1516 43.356 36.8721 43.6355 36.5274 43.6355Z" fill="#585972"/>
<path d="M47.7046 32.4583H43.3644C43.0198 32.4583 42.7402 32.1788 42.7402 31.8341V27.4939C42.7402 27.1492 43.0198 26.8697 43.3644 26.8697H47.7046C48.0493 26.8697 48.3288 27.1492 48.3288 27.4939V31.8341C48.3288 32.1788 48.0494 32.4583 47.7046 32.4583Z" fill="#585972"/>
<path d="M47.7046 43.6355H43.3644C43.0198 43.6355 42.7402 43.356 42.7402 43.0113V38.6711C42.7402 38.3265 43.0198 38.0469 43.3644 38.0469H47.7046C48.0493 38.0469 48.3288 38.3265 48.3288 38.6711V43.0113C48.3288 43.356 48.0494 43.6355 47.7046 43.6355Z" fill="#585972"/>
<path d="M26.5983 49.2241H30.9385C31.2832 49.2241 31.5627 48.9446 31.5627 48.5999V44.2597C31.5627 43.915 31.2832 43.6355 30.9385 43.6355H26.5983C26.2536 43.6355 25.9741 43.915 25.9741 44.2597V48.5999C25.9741 48.9447 26.2536 49.2241 26.5983 49.2241Z" fill="#585972"/>
<path d="M15.4216 49.2241H19.7618C20.1065 49.2241 20.386 48.9446 20.386 48.5999V44.2597C20.386 43.915 20.1065 43.6355 19.7618 43.6355H15.4216C15.0769 43.6355 14.7974 43.915 14.7974 44.2597V48.5999C14.7974 48.9447 15.0769 49.2241 15.4216 49.2241Z" fill="#585972"/>
<path d="M11.5111 15.5166H9.98278C9.29329 15.5166 8.73438 14.9577 8.73438 14.2682V11.1602C8.73438 10.4707 9.29329 9.9118 9.98278 9.9118H11.5111C12.2006 9.9118 12.7595 10.4707 12.7595 11.1602V14.2682C12.7595 14.9577 12.2006 15.5166 11.5111 15.5166Z" fill="#FDFAF6"/>
<path d="M20.5218 15.5166H18.9935C18.304 15.5166 17.7451 14.9577 17.7451 14.2682V11.1602C17.7451 10.4707 18.304 9.9118 18.9935 9.9118H20.5218C21.2113 9.9118 21.7702 10.4707 21.7702 11.1602V14.2682C21.7702 14.9577 21.2113 15.5166 20.5218 15.5166Z" fill="#FDFAF6"/>
<path d="M29.5326 15.5166H28.0043C27.3148 15.5166 26.7559 14.9577 26.7559 14.2682V11.1602C26.7559 10.4707 27.3148 9.9118 28.0043 9.9118H29.5326C30.2221 9.9118 30.781 10.4707 30.781 11.1602V14.2682C30.781 14.9577 30.2221 15.5166 29.5326 15.5166Z" fill="#FDFAF6"/>
<path d="M38.5433 15.5166H37.015C36.3255 15.5166 35.7666 14.9577 35.7666 14.2682V11.1602C35.7666 10.4707 36.3255 9.9118 37.015 9.9118H38.5433C39.2328 9.9118 39.7917 10.4707 39.7917 11.1602V14.2682C39.7917 14.9577 39.2328 15.5166 38.5433 15.5166Z" fill="#FDFAF6"/>
<path d="M47.554 15.5166H46.0257C45.3363 15.5166 44.7773 14.9577 44.7773 14.2682V11.1602C44.7773 10.4707 45.3363 9.9118 46.0257 9.9118H47.554C48.2435 9.9118 48.8025 10.4707 48.8025 11.1602V14.2682C48.8025 14.9577 48.2435 15.5166 47.554 15.5166Z" fill="#FDFAF6"/>
<path d="M55.7502 20.3971H46.2162C45.5267 20.3971 44.9678 20.956 44.9678 21.6455V31.1899C44.9678 31.8794 45.5267 32.4383 46.2162 32.4383H55.7502C56.4397 32.4383 56.9986 31.8794 56.9986 31.1899V21.6455C56.9986 20.956 56.4397 20.3971 55.7502 20.3971Z" fill="#FDFAF6"/>
<path d="M55.7502 20.3971H46.2162C45.5267 20.3971 44.9678 20.956 44.9678 21.6455V23.9479H56.9986V21.6455C56.9986 20.956 56.4397 20.3971 55.7502 20.3971Z" fill="#585972"/>
<path d="M12.539 25.3235C12.8837 25.3235 13.1632 25.044 13.1632 24.6993C13.1632 24.3547 12.8837 24.0751 12.539 24.0751H11.4675C11.1228 24.0751 10.8433 24.3547 10.8433 24.6993C10.8433 25.044 11.1228 25.3235 11.4675 25.3235H12.539Z" fill="#313131"/>
<path d="M18.1273 25.3235C18.472 25.3235 18.7516 25.044 18.7516 24.6993C18.7516 24.3547 18.472 24.0751 18.1273 24.0751H17.0558C16.7112 24.0751 16.4316 24.3547 16.4316 24.6993C16.4316 25.044 16.7112 25.3235 17.0558 25.3235H18.1273Z" fill="#313131"/>
<path d="M23.7162 25.3235C24.0609 25.3235 24.3404 25.044 24.3404 24.6993C24.3404 24.3547 24.0609 24.0751 23.7162 24.0751H22.6447C22.3 24.0751 22.0205 24.3547 22.0205 24.6993C22.0205 25.044 22.3 25.3235 22.6447 25.3235H23.7162Z" fill="#313131"/>
<path d="M29.3046 25.3235C29.6493 25.3235 29.9288 25.044 29.9288 24.6993C29.9288 24.3547 29.6493 24.0751 29.3046 24.0751H28.2331C27.8884 24.0751 27.6089 24.3547 27.6089 24.6993C27.6089 25.044 27.8884 25.3235 28.2331 25.3235H29.3046Z" fill="#313131"/>
<path d="M34.8935 25.3235C35.2381 25.3235 35.5177 25.044 35.5177 24.6993C35.5177 24.3547 35.2381 24.0751 34.8935 24.0751H33.822C33.4773 24.0751 33.1978 24.3547 33.1978 24.6993C33.1978 25.044 33.4773 25.3235 33.822 25.3235H34.8935Z" fill="#313131"/>
<path d="M40.4818 25.3235C40.8265 25.3235 41.106 25.044 41.106 24.6993C41.106 24.3547 40.8265 24.0751 40.4818 24.0751H39.4103C39.0657 24.0751 38.7861 24.3547 38.7861 24.6993C38.7861 25.044 39.0657 25.3235 39.4103 25.3235H40.4818Z" fill="#313131"/>
<path d="M47.7049 49.7159H36.6462C36.3015 49.7159 36.022 49.9954 36.022 50.3401C36.022 50.6848 36.3015 50.9643 36.6462 50.9643H47.7049C48.0496 50.9643 48.3291 50.6848 48.3291 50.3401C48.3291 49.9954 48.0496 49.7159 47.7049 49.7159Z" fill="#313131"/>
<path d="M47.705 47.4839H41.6398C41.2951 47.4839 41.0156 47.7634 41.0156 48.1081C41.0156 48.4528 41.2951 48.7323 41.6398 48.7323H47.705C48.0496 48.7323 48.3292 48.4528 48.3292 48.1081C48.3292 47.7634 48.0496 47.4839 47.705 47.4839Z" fill="#313131"/>
<path d="M55.7504 19.7729H54.1232V15.211C54.1232 13.49 52.7231 12.09 51.0022 12.09H49.4277V11.1601C49.4277 10.1276 48.5877 9.28754 47.5551 9.28754H46.0268C44.9943 9.28754 44.1542 10.1276 44.1542 11.1601V12.09H40.4169V11.1601C40.4169 10.1276 39.5768 9.28754 38.5443 9.28754H37.0161C35.9835 9.28754 35.1435 10.1276 35.1435 11.1601V12.09H31.4061V11.1601C31.4061 10.1276 30.5661 9.28754 29.5335 9.28754H28.0052C26.9727 9.28754 26.1326 10.1276 26.1326 11.1601V12.09H22.3953V11.1601C22.3953 10.1276 21.5552 9.28754 20.5227 9.28754H18.9945C17.9619 9.28754 17.1219 10.1276 17.1219 11.1601V12.09H13.3845V11.1601C13.3845 10.1276 12.5445 9.28754 11.5119 9.28754H9.98363C8.95108 9.28754 8.11103 10.1276 8.11103 11.1601V12.09H6.53654C4.81561 12.09 3.41553 13.49 3.41553 15.211V52.4681C3.41553 54.189 4.81561 55.5891 6.53654 55.5891H51.0022C52.7231 55.5891 54.1232 54.189 54.1232 52.4681V35.9161C54.1232 35.5715 53.8438 35.2919 53.499 35.2919C53.1542 35.2919 52.8748 35.5715 52.8748 35.9161V52.4681C52.8748 53.5007 52.0348 54.3407 51.0022 54.3407H6.53654C5.50398 54.3407 4.66393 53.5007 4.66393 52.4681V15.211C4.66393 14.1784 5.50398 13.3384 6.53654 13.3384H8.11103V14.2682C8.11103 15.3007 8.95108 16.1408 9.98363 16.1408H11.5119C12.5445 16.1408 13.3845 15.3007 13.3845 14.2682V13.3384H17.1219V14.2682C17.1219 15.3007 17.9619 16.1408 18.9945 16.1408H20.5227C21.5552 16.1408 22.3953 15.3007 22.3953 14.2682V13.3384H26.1326V14.2682C26.1326 15.3007 26.9727 16.1408 28.0052 16.1408H29.5335C30.5661 16.1408 31.4061 15.3007 31.4061 14.2682V13.3384H35.1435V14.2682C35.1435 15.3007 35.9835 16.1408 37.0161 16.1408H38.5443C39.5768 16.1408 40.4169 15.3007 40.4169 14.2682V13.3384H44.1542V14.2682C44.1542 15.3007 44.9943 16.1408 46.0268 16.1408H47.5551C48.5877 16.1408 49.4277 15.3007 49.4277 14.2682V13.3384H51.0022C52.0348 13.3384 52.8748 14.1784 52.8748 15.211V19.7729H51.3278C50.983 19.7729 50.7036 20.0524 50.7036 20.3971C50.7036 20.7418 50.983 21.0213 51.3278 21.0213H55.7504C56.0946 21.0213 56.3746 21.3013 56.3746 21.6455V31.1899C56.3746 31.5341 56.0946 31.8141 55.7504 31.8141H46.2163C45.8722 31.8141 45.5921 31.5341 45.5921 31.1899V21.6455C45.5921 21.3013 45.8722 21.0213 46.2163 21.0213H47.6582C48.0031 21.0213 48.2824 20.7418 48.2824 20.3971C48.2824 20.0524 48.0031 19.7729 47.6582 19.7729H46.2163C45.1838 19.7729 44.3437 20.6129 44.3437 21.6455V31.1899C44.3437 31.4165 44.3862 31.6329 44.4603 31.8341H43.3657C43.3655 31.8341 43.3654 31.8341 43.3651 31.8341C43.3651 31.834 43.3651 31.834 43.3651 31.8339V27.4936C43.3651 26.8053 42.8051 26.2452 42.1167 26.2452H37.7765C37.0881 26.2452 36.5281 26.8053 36.5281 27.4936V31.8339H32.1878V27.4936C32.1878 26.8053 31.6277 26.2452 30.9394 26.2452H26.5992C25.9108 26.2452 25.3507 26.8053 25.3507 27.4936V31.8339H21.0104V27.4936C21.0104 26.8053 20.4504 26.2452 19.762 26.2452H15.4218C14.7334 26.2452 14.1734 26.8053 14.1734 27.4936V31.8339H9.83333C9.14496 31.8339 8.58492 32.3939 8.58492 33.0823V37.4225C8.58492 38.1108 9.14496 38.6709 9.83333 38.6709H14.1737V43.0111H9.83333C9.14496 43.0111 8.58492 43.5711 8.58492 44.2595V48.5997C8.58492 49.288 9.14496 49.8481 9.83333 49.8481H14.1737C14.862 49.8481 15.4221 49.288 15.4221 48.5997V44.2595H19.7623V48.5997C19.7623 49.288 20.3223 49.8481 21.0107 49.8481H25.351C26.0394 49.8481 26.5994 49.288 26.5994 48.5997V44.2595H30.9396C31.628 44.2595 32.188 43.6994 32.188 43.0111V38.6709H36.5283V43.0111C36.5283 43.6994 37.0884 44.2595 37.7767 44.2595H42.1169C42.8053 44.2595 43.3654 43.6994 43.3654 43.0111V38.6709C43.3654 38.6706 43.3654 38.6705 43.3654 38.6702H43.366H47.7054C48.3938 38.6702 48.9538 38.1102 48.9538 37.4218V33.0824C48.9538 33.0756 48.953 33.0691 48.9528 33.0624H55.7507C56.7832 33.0624 57.6233 32.2224 57.6233 31.1898V21.6454C57.623 20.6129 56.783 19.7729 55.7504 19.7729ZM12.1361 14.2682C12.1361 14.6124 11.8561 14.8924 11.5119 14.8924H9.98363C9.63945 14.8924 9.35943 14.6124 9.35943 14.2682V11.1601C9.35943 10.816 9.63945 10.5359 9.98363 10.5359H11.5119C11.8561 10.5359 12.1361 10.816 12.1361 11.1601V14.2682ZM21.1469 14.2682C21.1469 14.6124 20.8669 14.8924 20.5227 14.8924H18.9945C18.6503 14.8924 18.3703 14.6124 18.3703 14.2682V11.1601C18.3703 10.816 18.6503 10.5359 18.9945 10.5359H20.5227C20.8669 10.5359 21.1469 10.816 21.1469 11.1601V14.2682ZM30.1577 14.2682C30.1577 14.6124 29.8777 14.8924 29.5335 14.8924H28.0052C27.661 14.8924 27.381 14.6124 27.381 14.2682V11.1601C27.381 10.816 27.661 10.5359 28.0052 10.5359H29.5335C29.8777 10.5359 30.1577 10.816 30.1577 11.1601V14.2682ZM39.1683 14.2682C39.1683 14.6124 38.8883 14.8924 38.5441 14.8924H37.016C36.6718 14.8924 36.3918 14.6124 36.3918 14.2682V11.1601C36.3918 10.816 36.6718 10.5359 37.016 10.5359H38.5441C38.8883 10.5359 39.1683 10.816 39.1683 11.1601V14.2682ZM48.1792 14.2682C48.1792 14.6124 47.8992 14.8924 47.555 14.8924H46.0267C45.6825 14.8924 45.4025 14.6124 45.4025 14.2682V11.1601C45.4025 10.816 45.6825 10.5359 46.0267 10.5359H47.555C47.8992 10.5359 48.1792 10.816 48.1792 11.1601V14.2682ZM37.7765 27.4938H42.1167L42.1176 31.834H37.7766V27.4938H37.7765ZM42.1167 33.0824H42.1173V33.0826V37.4221V37.4227C42.1171 37.4227 42.117 37.4227 42.1167 37.4227H37.7765V33.0825H42.1167V33.0824ZM26.5993 27.4938H30.9395L30.9404 31.834H26.5994V27.4938H26.5993ZM30.9394 33.0824V37.4226H26.5992V33.0824H30.9394ZM25.3509 33.0824L25.3516 37.4226H21.0107V33.0824H25.3509ZM15.4219 27.4938H19.7621L19.763 31.834H15.4221V27.4938H15.4219ZM19.7621 33.0824V37.4226H15.4219V33.0824H19.7621ZM9.83333 37.4226V33.0824H14.1737L14.1744 37.4226H9.83333ZM9.83333 48.5998V44.2596H14.1737L14.1744 48.5998H9.83333ZM15.4219 43.0112V38.671H19.7621L19.763 43.0112H15.4219ZM25.3509 48.5998H21.0105V44.2596H25.3509V48.5998ZM21.0105 43.0112V38.671H25.3509V43.0112H21.0105ZM26.5993 43.0112V38.671H30.9395L30.9404 43.0112H26.5993ZM32.1878 37.4226V33.0824H36.5281L36.529 37.4226H32.1878ZM37.7765 43.0112V38.671H42.1167L42.1176 43.0112H37.7765ZM47.7051 37.422H43.3656V33.0825L47.7051 33.0818V37.422Z" fill="#313131"/>
<path d="M47.0122 26.6277V28.6822C47.0122 29.4946 47.6732 30.1557 48.4857 30.1557H49.1512C49.9637 30.1557 50.6247 29.4946 50.6247 28.6822V26.6277C50.6247 25.8152 49.9637 25.1542 49.1512 25.1542H48.4857C47.6732 25.1542 47.0122 25.8152 47.0122 26.6277ZM48.2606 26.6277C48.2606 26.5036 48.3616 26.4026 48.4857 26.4026H49.1512C49.2753 26.4026 49.3763 26.5036 49.3763 26.6277V28.6822C49.3763 28.8063 49.2753 28.9073 49.1512 28.9073H48.4857C48.3616 28.9073 48.2606 28.8063 48.2606 28.6822V26.6277Z" fill="#313131"/>
<path d="M54.4834 25.8731C54.178 25.4162 53.682 25.1542 53.1229 25.1542C52.1976 25.1542 51.4448 25.907 51.4448 26.8323C51.4448 27.177 51.7242 27.4565 52.069 27.4565C52.4138 27.4565 52.6932 27.177 52.6932 26.8323C52.6932 26.5953 52.886 26.4026 53.1229 26.4026C53.2641 26.4026 53.3729 26.4579 53.4459 26.5671C53.5398 26.7076 53.5516 26.9074 53.4767 27.0886C53.2819 27.56 52.3078 28.484 51.6783 28.9896C51.4718 29.1556 51.3924 29.4337 51.4803 29.6836C51.5682 29.9336 51.8041 30.1007 52.069 30.1007H54.3296C54.6744 30.1007 54.9538 29.8212 54.9538 29.4765C54.9538 29.1318 54.6744 28.8523 54.3296 28.8523H53.6825C54.0813 28.439 54.4615 27.9743 54.6305 27.5655C54.866 26.9954 54.811 26.3629 54.4834 25.8731Z" fill="#313131"/>
<path d="M45.9983 60.5597C45.8386 60.5597 45.6787 60.4988 45.5569 60.3769L44.8747 59.6948L44.1924 60.3769C43.9489 60.6206 43.5534 60.6206 43.3098 60.3769C43.066 60.1331 43.066 59.7379 43.3098 59.4942L44.4334 58.3706C44.6769 58.1269 45.0724 58.1269 45.316 58.3706L46.4396 59.4942C46.6834 59.738 46.6834 60.1333 46.4396 60.3769C46.3178 60.4988 46.158 60.5597 45.9983 60.5597Z" fill="#FDFAF6"/>
<path d="M51.4699 59.1471C51.3103 59.1471 51.1503 59.0862 51.0286 58.9643L50.3464 58.2822L49.6641 58.9643C49.4206 59.208 49.0251 59.208 48.7815 58.9643C48.5377 58.7205 48.5377 58.3253 48.7815 58.0816L49.9051 56.958C50.1486 56.7143 50.5441 56.7143 50.7877 56.958L51.9112 58.0816C52.1551 58.3254 52.1551 58.7207 51.9112 58.9643C51.7895 59.0862 51.6297 59.1471 51.4699 59.1471Z" fill="#FDFAF6"/>
<path d="M54.3234 11.0977C54.1638 11.0977 54.0039 11.0368 53.8821 10.9149L53.1999 10.2328L52.5176 10.9149C52.2741 11.1586 51.8786 11.1586 51.635 10.9149C51.3912 10.6711 51.3912 10.2758 51.635 10.0322L52.7586 8.9086C53.0021 8.66491 53.3976 8.66491 53.6412 8.9086L54.7648 10.0322C55.0086 10.276 55.0086 10.6712 54.7648 10.9149C54.6429 11.0366 54.4831 11.0977 54.3234 11.0977Z" fill="#FDFAF6"/>
<path d="M7.92306 60.5597C7.76339 60.5597 7.60347 60.4988 7.48175 60.3769L6.79949 59.6948L6.11724 60.3769C5.87368 60.6206 5.47818 60.6206 5.23462 60.3769C4.9908 60.1331 4.9908 59.7379 5.23462 59.4942L6.35818 58.3706C6.60175 58.1269 6.99724 58.1269 7.2408 58.3706L8.36437 59.4942C8.60818 59.738 8.60818 60.1333 8.36437 60.3769C8.24265 60.4988 8.08273 60.5597 7.92306 60.5597Z" fill="#FDFAF6"/>
<path d="M14.1238 5.99056C14.0184 5.99056 13.9116 5.96385 13.8136 5.90754L13.8013 5.90043C13.5023 5.72877 13.3991 5.34726 13.5708 5.04827C13.7426 4.74927 14.124 4.64616 14.423 4.81781L14.4353 4.82493C14.7343 4.99658 14.8374 5.3781 14.6658 5.67709C14.5503 5.87808 14.3401 5.99056 14.1238 5.99056Z" fill="#FDFAF6"/>
<path d="M17.2322 7.78536C17.1268 7.78536 17.02 7.75865 16.922 7.70234L16.9097 7.69523C16.6107 7.52357 16.5075 7.14206 16.6792 6.84307C16.851 6.54407 17.2324 6.44096 17.5314 6.61261L17.5437 6.61973C17.8427 6.79138 17.9458 7.1729 17.7742 7.47189C17.6587 7.67288 17.4486 7.78536 17.2322 7.78536Z" fill="#FDFAF6"/>
<path d="M14.1238 5.99056C14.0184 5.99056 13.9116 5.96385 13.8136 5.90754L13.8013 5.90043C13.5023 5.72877 13.3991 5.34726 13.5708 5.04827C13.7426 4.74927 14.124 4.64616 14.423 4.81781L14.4353 4.82493C14.7343 4.99658 14.8374 5.3781 14.6658 5.67709C14.5503 5.87808 14.3401 5.99056 14.1238 5.99056Z" fill="#FDFAF6"/>
<path d="M17.2322 7.78536C17.1268 7.78536 17.02 7.75865 16.922 7.70234L16.9097 7.69523C16.6107 7.52357 16.5075 7.14206 16.6792 6.84307C16.851 6.54407 17.2324 6.44096 17.5314 6.61261L17.5437 6.61973C17.8427 6.79138 17.9458 7.1729 17.7742 7.47189C17.6587 7.67288 17.4486 7.78536 17.2322 7.78536Z" fill="#FDFAF6"/>
<path d="M17.2216 5.99059C17.0054 5.99059 16.7952 5.87811 16.6797 5.67712C16.508 5.37812 16.6112 4.99661 16.9101 4.82496L16.9225 4.81784C17.2217 4.64606 17.603 4.74943 17.7747 5.0483C17.9463 5.34716 17.8432 5.7288 17.5442 5.90046L17.5319 5.90757C17.434 5.96388 17.327 5.99059 17.2216 5.99059Z" fill="#FDFAF6"/>
<path d="M14.1127 7.78548C13.8965 7.78548 13.6863 7.673 13.5708 7.47201C13.3991 7.17301 13.5023 6.7915 13.8013 6.61984L13.8136 6.61273C14.1129 6.44095 14.4941 6.54419 14.6658 6.84318C14.8374 7.14218 14.7343 7.52369 14.4353 7.69534L14.423 7.70246C14.325 7.75876 14.2181 7.78548 14.1127 7.78548Z" fill="#FDFAF6"/>
<path d="M17.2216 5.99059C17.0054 5.99059 16.7952 5.87811 16.6797 5.67712C16.508 5.37812 16.6112 4.99661 16.9101 4.82496L16.9225 4.81784C17.2217 4.64606 17.603 4.74943 17.7747 5.0483C17.9463 5.34716 17.8432 5.7288 17.5442 5.90046L17.5319 5.90757C17.434 5.96388 17.327 5.99059 17.2216 5.99059Z" fill="#FDFAF6"/>
<path d="M14.1127 7.78548C13.8965 7.78548 13.6863 7.673 13.5708 7.47201C13.3991 7.17301 13.5023 6.7915 13.8013 6.61984L13.8136 6.61273C14.1129 6.44095 14.4941 6.54419 14.6658 6.84318C14.8374 7.14218 14.7343 7.52369 14.4353 7.69534L14.423 7.70246C14.325 7.75876 14.2181 7.78548 14.1127 7.78548Z" fill="#FDFAF6"/>
<path d="M15.673 5.09674C15.3282 5.09674 15.0488 4.81723 15.0488 4.47254V4.45831C15.0488 4.11362 15.3282 3.83411 15.673 3.83411C16.0178 3.83411 16.2972 4.11362 16.2972 4.45831V4.47254C16.2972 4.81723 16.0178 5.09674 15.673 5.09674Z" fill="#FDFAF6"/>
<path d="M15.673 8.68622C15.3282 8.68622 15.0488 8.4067 15.0488 8.06202V8.04779C15.0488 7.7031 15.3282 7.42358 15.673 7.42358C16.0178 7.42358 16.2972 7.7031 16.2972 8.04779V8.06202C16.2972 8.4067 16.0178 8.68622 15.673 8.68622Z" fill="#FDFAF6"/>
<defs>
<linearGradient id="paint0_linear" x1="17.9266" y1="49.3547" x2="56.912" y2="10.3692" gradientUnits="userSpaceOnUse">
<stop stop-color="#D2DEFF" stop-opacity="0"/>
<stop offset="1" stop-color="#313131"/>
</linearGradient>
</defs>
</svg>
