<svg width="52" height="53" viewBox="0 0 52 53" fill="none" xmlns="http://www.w3.org/2000/svg">
<path d="M44 0.479004H8C3.58172 0.479004 0 4.06073 0 8.479V44.479C0 48.8973 3.58172 52.479 8 52.479H44C48.4183 52.479 52 48.8973 52 44.479V8.479C52 4.06073 48.4183 0.479004 44 0.479004Z" fill="white"/>
<path d="M23.409 29.6708L23.009 35.2708C23.2235 35.2728 23.4356 35.2251 23.6286 35.1316C23.8217 35.0381 23.9905 34.9013 24.122 34.7318L26.794 32.1778L32.331 36.2328C33.346 36.7988 34.062 36.5008 34.331 35.2988L37.97 18.2728C38.292 16.7728 37.427 16.1848 36.438 16.5528L15.078 24.7308C13.62 25.2968 13.642 26.1088 14.83 26.4778L20.291 28.1778L32.977 20.2388C33.577 19.8388 34.117 20.0618 33.67 20.4578L23.409 29.6708Z" fill="#1D202D"/>
</svg>
