<svg width="88" height="88" viewBox="0 0 88 88" fill="none" xmlns="http://www.w3.org/2000/svg">
<path d="M4 0H84C85.0609 0 86.0783 0.421427 86.8284 1.17157C87.5786 1.92172 88 2.93913 88 4V84C88 85.0609 87.5786 86.0783 86.8284 86.8284C86.0783 87.5786 85.0609 88 84 88H4C2.93913 88 1.92172 87.5786 1.17157 86.8284C0.421427 86.0783 0 85.0609 0 84V4C0 2.93913 0.421427 1.92172 1.17157 1.17157C1.92172 0.421427 2.93913 0 4 0V0Z" fill="#FDFAF6"/>
<path d="M71.5596 40.5121C70.2624 35.1076 63.0327 33.2035 58.688 33.4286C52.8901 33.7289 50.2633 31.9005 51.5338 25.9893C52.2597 22.6116 52.9905 20.3136 47.7587 18.5321C43.2403 16.9938 28.6661 15.324 25.6309 20.5265C24.1498 23.0654 29.6016 25.3812 27.0287 28.8116C25.2138 31.2317 19.8353 29.4423 16.929 33.1776C14.8665 35.8283 16.1661 40.171 21.551 42.4749C26.139 44.4377 32.8879 45.5695 34.1238 51.2289C34.7433 54.0657 31.5818 58.0407 33.1674 62.2161C34.3927 65.4429 38.0826 66.867 42.9551 62.1282C52.5694 52.7776 50.5361 66.1282 51.995 68.8606C53.6662 71.991 59.4487 70.7099 62.0473 68.0907C69.1524 60.9293 73.4335 48.3199 71.5596 40.5121Z" fill="url(#paint0_linear)"/>
<g opacity="0.1">
<g opacity="0.1">
<g opacity="0.1">
<g opacity="0.1">
<path opacity="0.1" d="M35.5259 28.9854H34.2573C33.9553 28.9854 33.7104 28.7406 33.7104 28.4385C33.7104 28.1364 33.9553 27.8916 34.2573 27.8916H35.5259C35.8278 27.8916 36.0727 28.1364 36.0727 28.4385C36.0727 28.7406 35.828 28.9854 35.5259 28.9854Z" fill="#313131"/>
</g>
<g opacity="0.1">
<path opacity="0.1" d="M39.8216 28.9854H38.5532C38.2512 28.9854 38.0063 28.7406 38.0063 28.4385C38.0063 28.1364 38.2512 27.8916 38.5532 27.8916H39.8216C40.1236 27.8916 40.3685 28.1364 40.3685 28.4385C40.3685 28.7406 40.1237 28.9854 39.8216 28.9854Z" fill="#313131"/>
</g>
<g opacity="0.1">
<path opacity="0.1" d="M44.1171 28.9854H42.8486C42.5466 28.9854 42.3018 28.7406 42.3018 28.4385C42.3018 28.1364 42.5466 27.8916 42.8486 27.8916H44.1171C44.419 27.8916 44.6639 28.1364 44.6639 28.4385C44.6639 28.7406 44.419 28.9854 44.1171 28.9854Z" fill="#313131"/>
</g>
<g opacity="0.1">
<path opacity="0.1" d="M48.4131 28.9854H47.1445C46.8425 28.9854 46.5977 28.7406 46.5977 28.4385C46.5977 28.1364 46.8425 27.8916 47.1445 27.8916H48.413C48.7149 27.8916 48.9598 28.1364 48.9598 28.4385C48.9598 28.7406 48.715 28.9854 48.4131 28.9854Z" fill="#313131"/>
</g>
<g opacity="0.1">
<path opacity="0.1" d="M52.7089 28.9854H51.4404C51.1384 28.9854 50.8936 28.7406 50.8936 28.4385C50.8936 28.1364 51.1384 27.8916 51.4404 27.8916H52.7089C53.0108 27.8916 53.2557 28.1364 53.2557 28.4385C53.2557 28.7406 53.0108 28.9854 52.7089 28.9854Z" fill="#313131"/>
</g>
<g opacity="0.1">
<path opacity="0.1" d="M57.0044 28.9854H55.7358C55.4339 28.9854 55.189 28.7406 55.189 28.4385C55.189 28.1364 55.4339 27.8916 55.7358 27.8916H57.0044C57.3064 27.8916 57.5512 28.1364 57.5512 28.4385C57.5512 28.7406 57.3064 28.9854 57.0044 28.9854Z" fill="#313131"/>
</g>
<path opacity="0.1" d="M29.7762 30.5944H23.2271C22.8646 30.5944 22.5708 30.3006 22.5708 29.9381V26.939C22.5708 26.5765 22.8646 26.2827 23.2271 26.2827H29.7763C29.9888 26.2827 30.1882 26.3856 30.3114 26.559L31.3765 28.0586C31.5381 28.2862 31.5381 28.5911 31.3765 28.8187L30.3114 30.3183C30.1882 30.4915 29.9888 30.5944 29.7762 30.5944Z" fill="#313131"/>
</g>
<g opacity="0.1">
<g opacity="0.1">
<g opacity="0.1">
<g opacity="0.1">
<path opacity="0.1" d="M24.7557 34.3242H22.7231C22.4212 34.3242 22.1763 34.0793 22.1763 33.7773C22.1763 33.4754 22.4212 33.2305 22.7231 33.2305H24.7557C25.0576 33.2305 25.3025 33.4754 25.3025 33.7773C25.3025 34.0793 25.0578 34.3242 24.7557 34.3242Z" fill="#313131"/>
</g>
<g opacity="0.1">
<path opacity="0.1" d="M29.1307 36.5532H22.7231C22.4212 36.5532 22.1763 36.3083 22.1763 36.0063C22.1763 35.7044 22.4212 35.4595 22.7231 35.4595H29.1307C29.4326 35.4595 29.6775 35.7044 29.6775 36.0063C29.6775 36.3083 29.4328 36.5532 29.1307 36.5532Z" fill="#313131"/>
</g>
<g opacity="0.1">
<path opacity="0.1" d="M29.1307 38.7827H22.7231C22.4212 38.7827 22.1763 38.5378 22.1763 38.2358C22.1763 37.9339 22.4212 37.689 22.7231 37.689H29.1307C29.4326 37.689 29.6775 37.9339 29.6775 38.2358C29.6775 38.5378 29.4328 38.7827 29.1307 38.7827Z" fill="#313131"/>
</g>
</g>
</g>
</g>
</g>
<g opacity="0.1">
<path opacity="0.1" d="M56.0702 50.7513H49.4913C48.893 50.7513 48.4085 51.2358 48.4085 51.8341V56.8227H45.7656V40.6775C45.7656 40.0793 45.281 39.5947 44.6827 39.5947H38.1038C37.5056 39.5947 37.021 40.0793 37.021 40.6775V49.683C36.1377 49.2169 35.1795 48.8466 34.1662 48.5869C34.1314 48.1208 33.773 47.6994 33.2074 47.3844C33.9316 46.6464 34.4726 45.5969 34.7191 44.3816C34.8236 43.8669 34.4264 43.3864 33.9013 43.3864H27.5147C26.9896 43.3864 26.5924 43.867 26.6969 44.3816C26.9434 45.597 27.4844 46.6465 28.2086 47.3844C27.6431 47.6993 27.2846 48.1206 27.2498 48.5866C22.2398 49.8718 18.5854 53.8768 18.5854 58.6197C18.5854 69.9905 18.1857 69.0863 30.7081 69.0863C33.7806 69.0863 36.0737 69.1404 37.7871 69.0546C37.8874 69.0852 37.9937 69.1019 38.1041 69.1019L56.0704 69.1022C56.6687 69.1022 57.1532 68.6177 57.1532 68.0194V51.8341C57.153 51.2359 56.6685 50.7513 56.0702 50.7513Z" fill="#313131"/>
<path opacity="0.1" d="M67.4576 25.5952H60.8798C60.2815 25.5952 59.7959 26.0797 59.7959 26.678V68.0196C59.7959 68.6179 60.2815 69.1035 60.8798 69.1035H67.4576C68.0559 69.1035 68.5415 68.6179 68.5415 68.0196V26.678C68.5415 26.0797 68.0559 25.5952 67.4576 25.5952Z" fill="#313131"/>
</g>
</g>
<path d="M45.7655 38.0525V65.3941C45.7655 65.9924 45.281 66.4769 44.6827 66.4769H38.1038C37.5055 66.4769 37.021 65.9924 37.021 65.3941V38.0525C37.021 37.4543 37.5055 36.9697 38.1038 36.9697H44.6827C45.281 36.9697 45.7655 37.4543 45.7655 38.0525Z" fill="#F9F1E5"/>
<path d="M40.3022 40.25H42.4843V63.1958H40.3022V40.25Z" fill="#5E5F6A"/>
<path d="M57.1532 49.2088V65.3941C57.1532 65.9924 56.6687 66.4769 56.0704 66.4769H49.4915C48.8932 66.4769 48.4087 65.9924 48.4087 65.3941V49.2088C48.4087 48.6105 48.8932 48.126 49.4915 48.126H56.0704C56.6687 48.1259 57.1532 48.6105 57.1532 49.2088Z" fill="#5E5F6A"/>
<path d="M53.8726 51.4062V63.1958H51.6902V51.4062H53.8726Z" fill="#F9F1E5"/>
<path d="M68.5415 24.0525V65.3941C68.5415 65.9924 68.0559 66.478 67.4576 66.478H60.8798C60.2815 66.478 59.7959 65.9924 59.7959 65.3941V24.0525C59.7959 23.4543 60.2815 22.9697 60.8798 22.9697H67.4576C68.0559 22.9697 68.5415 23.4543 68.5415 24.0525Z" fill="#F9F1E5"/>
<path d="M63.0771 26.25H65.2603V63.1958H63.0771V26.25Z" fill="#5E5F6A"/>
<path d="M29.7762 27.9689H23.2271C22.8646 27.9689 22.5708 27.6751 22.5708 27.3126V24.3135C22.5708 23.951 22.8646 23.6572 23.2271 23.6572H29.7763C29.9888 23.6572 30.1882 23.7601 30.3114 23.9335L31.3765 25.4331C31.5381 25.6608 31.5381 25.9656 31.3765 26.1932L30.3114 27.6928C30.1882 27.866 29.9888 27.9689 29.7762 27.9689Z" fill="#F9F1E5"/>
<path d="M30.7081 66.4609C37.4033 66.4609 42.8308 61.7749 42.8308 55.9944C42.8308 50.2139 37.4033 45.5278 30.7081 45.5278C24.013 45.5278 18.5854 50.2139 18.5854 55.9944C18.5854 61.7749 24.013 66.4609 30.7081 66.4609Z" fill="#F9F1E5"/>
<path d="M50.6431 66.4777H39.8254C39.3191 66.4777 38.9087 66.0674 38.9087 65.5611V63.3009C38.9087 62.7947 39.3191 62.3843 39.8254 62.3843H50.6431C51.1494 62.3843 51.5598 62.7947 51.5598 63.3009V65.5611C51.5599 66.0674 51.1494 66.4777 50.6431 66.4777Z" fill="#5E5F6A"/>
<path d="M42.7793 66.4776H40.6729V65.0694C40.6729 64.4877 41.1444 64.0161 41.7261 64.0161C42.3078 64.0161 42.7794 64.4876 42.7794 65.0694V66.4776H42.7793Z" fill="#F9F1E5"/>
<path d="M46.2876 66.4776H44.1812V65.0694C44.1812 64.4877 44.6527 64.0161 45.2344 64.0161C45.8161 64.0161 46.2877 64.4876 46.2877 65.0694V66.4776H46.2876Z" fill="#F9F1E5"/>
<path d="M49.7959 66.4776H47.6895V65.0694C47.6895 64.4877 48.161 64.0161 48.7427 64.0161C49.3244 64.0161 49.796 64.4876 49.796 65.0694V66.4776H49.7959Z" fill="#F9F1E5"/>
<path d="M50.6431 62.3845H39.8254C39.3191 62.3845 38.9087 61.9741 38.9087 61.4678V59.2077C38.9087 58.7014 39.3191 58.291 39.8254 58.291H50.6431C51.1494 58.291 51.5598 58.7014 51.5598 59.2077V61.4678C51.5599 61.974 51.1494 62.3845 50.6431 62.3845Z" fill="#F9F1E5"/>
<path d="M42.7793 62.3848H40.6729V60.9766C40.6729 60.395 41.1444 59.9233 41.7261 59.9233C42.3078 59.9233 42.7794 60.3949 42.7794 60.9766V62.3848H42.7793Z" fill="#5E5F6A"/>
<path d="M46.2876 62.3843H44.1812V60.9761C44.1812 60.3945 44.6527 59.9229 45.2344 59.9229C45.8161 59.9229 46.2877 60.3944 46.2877 60.9761V62.3843H46.2876Z" fill="#5E5F6A"/>
<path d="M49.7959 62.3843H47.6895V60.9761C47.6895 60.3945 48.161 59.9229 48.7427 59.9229C49.3244 59.9229 49.796 60.3944 49.796 60.9761V62.3843H49.7959Z" fill="#5E5F6A"/>
<path d="M50.6431 58.2907H39.8254C39.3191 58.2907 38.9087 57.8802 38.9087 57.3741V55.1139C38.9087 54.6076 39.3191 54.1973 39.8254 54.1973H50.6431C51.1494 54.1973 51.5598 54.6076 51.5598 55.1139V57.3741C51.5599 57.8804 51.1494 58.2907 50.6431 58.2907Z" fill="#5E5F6A"/>
<path d="M51.5606 55.1148V57.3745C51.5606 57.8809 51.1493 58.2911 50.644 58.2911H39.8257C39.3193 58.2911 38.9092 57.8809 38.9092 57.3745V55.1148C38.9092 54.6084 39.3193 54.1982 39.8257 54.1982H50.644C51.1493 54.1982 51.5606 54.6084 51.5606 55.1148Z" fill="#5E5F6A"/>
<path d="M42.7793 58.2906H40.6729V56.8824C40.6729 56.3007 41.1444 55.8291 41.7261 55.8291C42.3078 55.8291 42.7794 56.3006 42.7794 56.8824V58.2906H42.7793Z" fill="#F9F1E5"/>
<path d="M46.2876 58.2906H44.1812V56.8824C44.1812 56.3007 44.6527 55.8291 45.2344 55.8291C45.8161 55.8291 46.2877 56.3006 46.2877 56.8824V58.2906H46.2876Z" fill="#F9F1E5"/>
<path d="M49.7959 58.2906H47.6895V56.8824C47.6895 56.3007 48.161 55.8291 48.7427 55.8291C49.3244 55.8291 49.796 56.3006 49.796 56.8824V58.2906H49.7959Z" fill="#F9F1E5"/>
<path d="M30.7079 48.3049C32.6198 48.3049 34.1698 47.3347 34.1698 46.138C34.1698 44.9413 32.6198 43.9712 30.7079 43.9712C28.796 43.9712 27.2461 44.9413 27.2461 46.138C27.2461 47.3347 28.796 48.3049 30.7079 48.3049Z" fill="#5E5F6A"/>
<path d="M27.5142 40.7617C26.9891 40.7617 26.592 41.2423 26.6964 41.7569C27.1799 44.1401 28.7922 45.8913 30.7077 45.8913C32.623 45.8913 34.2353 44.1401 34.7189 41.7569C34.8233 41.2423 34.4262 40.7617 33.9011 40.7617H27.5142Z" fill="#F9F1E5"/>
<path d="M56.0704 47.5791H49.4916C48.5929 47.5791 47.8617 48.3104 47.8617 49.209V53.6511H46.3126V38.0528C46.3126 37.154 45.5815 36.4229 44.6827 36.4229H38.1041C37.2053 36.4229 36.4741 37.1541 36.4741 38.0528V44.2372C36.4741 44.5392 36.719 44.784 37.021 44.784C37.323 44.784 37.5679 44.5392 37.5679 44.2372V38.0528C37.5679 37.7571 37.8084 37.5166 38.1041 37.5166H44.6827C44.9784 37.5166 45.2189 37.7571 45.2189 38.0528V53.6511H43.0888C42.1391 49.8542 38.8761 46.7166 34.6131 45.5155C34.5052 45.1937 34.3137 44.8907 34.0458 44.6188C34.6127 43.873 35.0383 42.9335 35.2549 41.8655C35.3372 41.46 35.2338 41.0432 34.9713 40.7222C34.7076 40.3996 34.3175 40.2146 33.9011 40.2146H27.5144C27.098 40.2146 26.7078 40.3995 26.4441 40.7223C26.1816 41.0434 26.0783 41.46 26.1605 41.8655C26.3772 42.9334 26.8027 43.8728 27.3695 44.6185C27.1013 44.8909 26.9094 45.1947 26.8016 45.5172C24.3705 46.2022 22.1882 47.5421 20.6296 49.3172C18.9339 51.2484 18.0376 53.5577 18.0376 55.9951C18.0376 56.347 18.0372 56.6872 18.0368 57.016C18.0313 61.9114 18.0285 64.3686 19.3789 65.7127C20.7329 67.0604 23.209 67.0461 28.1422 67.0177C28.9495 67.013 29.7843 67.0082 30.7076 67.0082C31.6303 67.0082 32.4645 67.013 33.2712 67.0176C33.9473 67.0215 34.5761 67.0251 35.1618 67.0251C36.8121 67.0251 38.1182 66.9962 39.1597 66.8637C39.3597 66.9663 39.5854 67.0253 39.8251 67.0253H50.6428C50.6464 67.0253 50.6498 67.0248 50.6533 67.0248H56.0701C56.9688 67.0248 57.7 66.2935 57.7 65.3949V49.209C57.7003 48.3103 56.9692 47.5791 56.0704 47.5791ZM39.4555 61.4683V59.2082C39.4555 59.0042 39.6214 58.8383 39.8253 58.8383H50.643C50.8469 58.8383 51.0128 59.0042 51.0128 59.2082V61.4683C51.0128 61.6722 50.8469 61.8381 50.643 61.8381H39.8253C39.6214 61.8381 39.4555 61.6722 39.4555 61.4683ZM51.0129 57.3747C51.0129 57.5786 50.847 57.7445 50.6431 57.7445H39.8253C39.6214 57.7445 39.4555 57.5786 39.4555 57.3747V55.1146C39.4555 54.9107 39.6214 54.7448 39.8253 54.7448H50.643C50.8469 54.7448 51.0128 54.9107 51.0128 55.1146V57.3747H51.0129ZM28.1177 45.4194C28.8678 46.0669 29.7619 46.4381 30.7079 46.4381C31.6539 46.4381 32.5479 46.067 33.298 45.4195C33.4715 45.6053 33.6226 45.8497 33.6226 46.1383C33.6226 47.0013 32.2605 47.7583 30.7078 47.7583C29.1551 47.7583 27.7929 47.0013 27.7929 46.1383C27.7929 45.8496 27.9441 45.6053 28.1177 45.4194ZM27.291 41.4145C27.3234 41.3749 27.3956 41.3083 27.5145 41.3083H33.9012C34.0201 41.3083 34.0922 41.3747 34.1246 41.4144C34.1563 41.4531 34.2059 41.535 34.183 41.648C33.7415 43.8244 32.3124 45.3444 30.7078 45.3444C29.1031 45.3444 27.6741 43.8245 27.2326 41.648C27.2098 41.5352 27.2594 41.4532 27.291 41.4145ZM33.2778 65.9239C32.5071 65.9194 31.6336 65.9144 30.7078 65.9144C29.7814 65.9144 28.9073 65.9194 28.1361 65.9239C23.506 65.9507 21.182 65.9641 20.1507 64.9375C19.123 63.9145 19.1256 61.4647 19.1307 57.0173C19.131 56.6881 19.1314 56.3475 19.1314 55.9951C19.1314 51.8294 22.2428 48.0724 26.7726 46.6664C27.1262 47.9268 28.7277 48.8519 30.7076 48.8519C32.6882 48.8519 34.29 47.9262 34.643 46.6652C38.27 47.7928 41.0459 50.4467 41.9572 53.6511H39.8253C39.0183 53.6511 38.3617 54.3076 38.3617 55.1146V57.3747C38.3617 57.7217 38.4837 58.0403 38.6861 58.2914C38.4837 58.5425 38.3617 58.8612 38.3617 59.2082V61.4683C38.3617 61.8152 38.4837 62.1339 38.6861 62.385C38.4837 62.6361 38.3617 62.9548 38.3617 63.3018V65.5618C38.3617 65.6581 38.3717 65.7522 38.3895 65.8433C37.114 65.9458 35.4406 65.9361 33.2778 65.9239ZM39.4555 65.5618V63.3018C39.4555 63.0978 39.6214 62.9319 39.8253 62.9319H50.643C50.8469 62.9319 51.0128 63.0978 51.0128 63.3018V65.5618C51.0128 65.764 50.8496 65.9282 50.6483 65.9311H50.643C50.6412 65.9311 50.6395 65.9317 50.6378 65.9317H39.8253C39.6214 65.9316 39.4555 65.7658 39.4555 65.5618ZM56.6066 65.3949C56.6066 65.6905 56.3661 65.931 56.0704 65.931H52.0576C52.0885 65.8128 52.1066 65.6895 52.1066 65.5617V63.3017C52.1066 62.9547 51.9846 62.636 51.7822 62.3849C51.9846 62.1337 52.1066 61.8151 52.1066 61.4682V59.2081C52.1066 58.8611 51.9846 58.5424 51.7822 58.2913C51.9846 58.0402 52.1066 57.7216 52.1066 57.3746V55.1145C52.1066 54.3075 51.45 53.651 50.643 53.651H48.9555V49.2089C48.9555 48.9133 49.196 48.6727 49.4916 48.6727H56.0704C56.3661 48.6727 56.6066 48.9133 56.6066 49.2089V65.3949Z" fill="#313131"/>
<path d="M67.4582 22.4229H65.4156C65.1137 22.4229 64.8688 22.6676 64.8688 22.9697C64.8688 23.2718 65.1137 23.5166 65.4156 23.5166H67.4582C67.7539 23.5166 67.9944 23.7571 67.9944 24.0528V65.3949C67.9944 65.6905 67.7539 65.931 67.4582 65.931H60.8794C60.5838 65.931 60.3433 65.6905 60.3433 65.3949V24.0528C60.3433 23.7571 60.5838 23.5166 60.8794 23.5166H62.551C62.853 23.5166 63.0979 23.2718 63.0979 22.9697C63.0979 22.6676 62.853 22.4229 62.551 22.4229H60.8794C59.9807 22.4229 59.2495 23.1541 59.2495 24.0528V65.3949C59.2495 66.2936 59.9807 67.0248 60.8794 67.0248H67.4582C68.357 67.0248 69.0881 66.2935 69.0881 65.3949V24.0528C69.0881 23.154 68.3568 22.4229 67.4582 22.4229Z" fill="#313131"/>
<path d="M23.2271 28.5159H29.7763C30.1653 28.5159 30.5319 28.3267 30.7572 28.0095L31.8223 26.5098C32.1183 26.093 32.1183 25.5331 31.8223 25.1164L30.7571 23.6166C30.5318 23.2997 30.1651 23.1104 29.7763 23.1104H23.2271C22.5637 23.1104 22.0239 23.6501 22.0239 24.3135V27.3128C22.0239 27.9762 22.5636 28.5159 23.2271 28.5159ZM23.1177 24.3136C23.1177 24.2532 23.1668 24.2042 23.2271 24.2042H29.7763C29.8116 24.2042 29.845 24.2214 29.8655 24.2503L30.9306 25.7499C30.9575 25.7879 30.9575 25.8387 30.9306 25.8766L29.8656 27.3761C29.845 27.4051 29.8116 27.4222 29.7763 27.4222H23.2271C23.1668 27.4222 23.1177 27.3732 23.1177 27.3129V24.3136Z" fill="#313131"/>
<path d="M34.2573 26.3604H35.5259C35.8278 26.3604 36.0727 26.1156 36.0727 25.8135C36.0727 25.5114 35.8278 25.2666 35.5259 25.2666H34.2573C33.9553 25.2666 33.7104 25.5114 33.7104 25.8135C33.7104 26.1156 33.9553 26.3604 34.2573 26.3604Z" fill="#313131"/>
<path d="M22.7231 31.6992H24.7557C25.0576 31.6992 25.3025 31.4544 25.3025 31.1523C25.3025 30.8503 25.0576 30.6055 24.7557 30.6055H22.7231C22.4212 30.6055 22.1763 30.8503 22.1763 31.1523C22.1763 31.4544 22.4212 31.6992 22.7231 31.6992Z" fill="#313131"/>
<path d="M29.1307 32.8345H22.7231C22.4212 32.8345 22.1763 33.0793 22.1763 33.3813C22.1763 33.6834 22.4212 33.9282 22.7231 33.9282H29.1307C29.4326 33.9282 29.6775 33.6834 29.6775 33.3813C29.6775 33.0793 29.4326 32.8345 29.1307 32.8345Z" fill="#313131"/>
<path d="M29.1307 35.064H22.7231C22.4212 35.064 22.1763 35.3087 22.1763 35.6108C22.1763 35.9129 22.4212 36.1577 22.7231 36.1577H29.1307C29.4326 36.1577 29.6775 35.9129 29.6775 35.6108C29.6775 35.3087 29.4326 35.064 29.1307 35.064Z" fill="#313131"/>
<path d="M38.5532 26.3604H39.8216C40.1236 26.3604 40.3685 26.1156 40.3685 25.8135C40.3685 25.5114 40.1236 25.2666 39.8216 25.2666H38.5532C38.2512 25.2666 38.0063 25.5114 38.0063 25.8135C38.0063 26.1156 38.2512 26.3604 38.5532 26.3604Z" fill="#313131"/>
<path d="M42.8486 26.3604H44.1171C44.419 26.3604 44.6639 26.1156 44.6639 25.8135C44.6639 25.5114 44.419 25.2666 44.1171 25.2666H42.8486C42.5466 25.2666 42.3018 25.5114 42.3018 25.8135C42.3018 26.1156 42.5466 26.3604 42.8486 26.3604Z" fill="#313131"/>
<path d="M47.1445 26.3604H48.413C48.7149 26.3604 48.9598 26.1156 48.9598 25.8135C48.9598 25.5114 48.7149 25.2666 48.413 25.2666H47.1445C46.8425 25.2666 46.5977 25.5114 46.5977 25.8135C46.5977 26.1156 46.8425 26.3604 47.1445 26.3604Z" fill="#313131"/>
<path d="M51.4404 26.3604H52.7089C53.0108 26.3604 53.2557 26.1156 53.2557 25.8135C53.2557 25.5114 53.0108 25.2666 52.7089 25.2666H51.4404C51.1384 25.2666 50.8936 25.5114 50.8936 25.8135C50.8936 26.1156 51.1384 26.3604 51.4404 26.3604Z" fill="#313131"/>
<path d="M55.7358 26.3604H57.0044C57.3064 26.3604 57.5512 26.1156 57.5512 25.8135C57.5512 25.5114 57.3064 25.2666 57.0044 25.2666H55.7358C55.4339 25.2666 55.189 25.5114 55.189 25.8135C55.189 26.1156 55.4339 26.3604 55.7358 26.3604Z" fill="#313131"/>
<path d="M30.708 63.0362C34.0082 63.0362 36.6836 60.3608 36.6836 57.0606C36.6836 53.7603 34.0082 51.085 30.708 51.085C27.4078 51.085 24.7324 53.7603 24.7324 57.0606C24.7324 60.3608 27.4078 63.0362 30.708 63.0362Z" fill="#5E5F6A"/>
<path d="M30.7077 61.5077C33.1637 61.5077 35.1547 59.5167 35.1547 57.0607C35.1547 54.6047 33.1637 52.6138 30.7077 52.6138C28.2517 52.6138 26.2607 54.6047 26.2607 57.0607C26.2607 59.5167 28.2517 61.5077 30.7077 61.5077Z" fill="#F9F1E5"/>
<path d="M32.5782 57.8649C32.5782 57.12 31.9722 56.5138 31.2271 56.5138H30.1885C30.0467 56.5138 29.9312 56.3984 29.9312 56.2566C29.9312 56.1147 30.0467 55.9992 30.1885 55.9992H31.8598C32.1619 55.9992 32.4066 55.7543 32.4066 55.4523C32.4066 55.1504 32.1619 54.9055 31.8598 54.9055H31.2547V54.8535C31.2547 54.5515 31.0099 54.3066 30.7078 54.3066C30.4057 54.3066 30.1609 54.5515 30.1609 54.8535V54.9069C29.4288 54.9218 28.8374 55.5209 28.8374 56.2566C28.8374 57.0015 29.4434 57.6076 30.1885 57.6076H31.2271C31.369 57.6076 31.4845 57.723 31.4845 57.8649C31.4845 58.0068 31.369 58.1222 31.2271 58.1222H29.5559C29.2538 58.1222 29.009 58.3671 29.009 58.6691C29.009 58.971 29.2538 59.2159 29.5559 59.2159H30.1609V59.2679C30.1609 59.5699 30.4057 59.8148 30.7078 59.8148C31.0099 59.8148 31.2547 59.5699 31.2547 59.2679V59.2145C31.987 59.1996 32.5782 58.6006 32.5782 57.8649Z" fill="#5E5F6A"/>
<path d="M57.6064 22.5381C57.4664 22.5381 57.3265 22.4847 57.2197 22.3778L56.6767 21.8349L56.1338 22.3778C55.9202 22.5914 55.574 22.5914 55.3604 22.3778C55.1468 22.1643 55.1468 21.818 55.3604 21.6045L56.2901 20.6749C56.5037 20.4612 56.8499 20.4612 57.0635 20.6749L57.9932 21.6045C58.2068 21.818 58.2068 22.1643 57.9932 22.3778C57.8863 22.4847 57.7464 22.5381 57.6064 22.5381Z" fill="#5E5F6A"/>
<path d="M61.6246 19.7649C61.4846 19.7649 61.3447 19.7116 61.238 19.6048L60.6949 19.0618L60.1519 19.6048C59.9384 19.8183 59.5921 19.8184 59.3785 19.6047C59.1649 19.3912 59.1649 19.0449 59.3785 18.8313L60.3082 17.9017C60.5217 17.6884 60.8679 17.6884 61.0814 17.9017L62.0111 18.8313C62.2247 19.0449 62.2247 19.3912 62.0111 19.6047C61.9045 19.7116 61.7645 19.7649 61.6246 19.7649Z" fill="#5E5F6A"/>
<path d="M50.7793 40.3154C50.6393 40.3154 50.4994 40.262 50.3925 40.1552L49.8496 39.6122L49.3066 40.1552C49.093 40.3688 48.7469 40.3688 48.5333 40.1552C48.3196 39.9417 48.3196 39.5954 48.5333 39.3819L49.4629 38.4522C49.6766 38.2386 50.0227 38.2386 50.2363 38.4522L51.166 39.3819C51.3796 39.5954 51.3796 39.9417 51.166 40.1552C51.0592 40.262 50.9193 40.3154 50.7793 40.3154Z" fill="#5E5F6A"/>
<path d="M51.7277 34.0881C51.6354 34.0881 51.5417 34.0647 51.4559 34.0153L51.445 34.0091C51.1831 33.8587 51.0927 33.5243 51.2431 33.2625C51.3935 33.0007 51.7279 32.91 51.9897 33.0606L52.0006 33.0668C52.2625 33.2172 52.3529 33.5516 52.2025 33.8134C52.1014 33.9894 51.9172 34.0881 51.7277 34.0881Z" fill="#5E5F6A"/>
<path d="M54.4513 35.6607C54.359 35.6607 54.2654 35.6373 54.1795 35.588L54.1687 35.5818C53.9067 35.4314 53.8164 35.097 53.9668 34.8352C54.1172 34.5734 54.4514 34.4828 54.7134 34.6333L54.7242 34.6395C54.9861 34.7899 55.0765 35.1243 54.9261 35.3861C54.8249 35.5621 54.6407 35.6607 54.4513 35.6607Z" fill="#5E5F6A"/>
<path d="M51.7277 34.0881C51.6354 34.0881 51.5417 34.0647 51.4559 34.0153L51.445 34.0091C51.1831 33.8587 51.0927 33.5243 51.2431 33.2625C51.3935 33.0007 51.7279 32.91 51.9897 33.0606L52.0006 33.0668C52.2625 33.2172 52.3529 33.5516 52.2025 33.8134C52.1014 33.9894 51.9172 34.0881 51.7277 34.0881Z" fill="#5E5F6A"/>
<path d="M54.4513 35.6607C54.359 35.6607 54.2654 35.6373 54.1795 35.588L54.1687 35.5818C53.9067 35.4314 53.8164 35.097 53.9668 34.8352C54.1172 34.5734 54.4514 34.4828 54.7134 34.6333L54.7242 34.6395C54.9861 34.7899 55.0765 35.1243 54.9261 35.3861C54.8249 35.5621 54.6407 35.6607 54.4513 35.6607Z" fill="#5E5F6A"/>
<path d="M54.4421 34.0885C54.2526 34.0885 54.0683 33.9899 53.9673 33.8138C53.8169 33.5519 53.9072 33.2176 54.1692 33.0672L54.18 33.061C54.4419 32.9106 54.7762 33.001 54.9266 33.2629C55.077 33.5248 54.9866 33.8591 54.7247 34.0095L54.7139 34.0157C54.628 34.0649 54.5344 34.0885 54.4421 34.0885Z" fill="#5E5F6A"/>
<path d="M51.7184 35.6607C51.529 35.6607 51.3447 35.5621 51.2436 35.386C51.0932 35.1241 51.1836 34.7898 51.4455 34.6394L51.4564 34.6332C51.7184 34.4829 52.0526 34.5733 52.203 34.8351C52.3533 35.0971 52.263 35.4313 52.001 35.5817L51.9902 35.5879C51.9044 35.6372 51.8107 35.6607 51.7184 35.6607Z" fill="#5E5F6A"/>
<path d="M54.4421 34.0885C54.2526 34.0885 54.0683 33.9899 53.9673 33.8138C53.8169 33.5519 53.9072 33.2176 54.1692 33.0672L54.18 33.061C54.4419 32.9106 54.7762 33.001 54.9266 33.2629C55.077 33.5248 54.9866 33.8591 54.7247 34.0095L54.7139 34.0157C54.628 34.0649 54.5344 34.0885 54.4421 34.0885Z" fill="#5E5F6A"/>
<path d="M51.7184 35.6607C51.529 35.6607 51.3447 35.5621 51.2436 35.386C51.0932 35.1241 51.1836 34.7898 51.4455 34.6394L51.4564 34.6332C51.7184 34.4829 52.0526 34.5733 52.203 34.8351C52.3533 35.0971 52.263 35.4313 52.001 35.5817L51.9902 35.5879C51.9044 35.6372 51.8107 35.6607 51.7184 35.6607Z" fill="#5E5F6A"/>
<path d="M53.0845 33.3048C52.7825 33.3048 52.5376 33.0601 52.5376 32.758V32.7456C52.5376 32.4435 52.7825 32.1987 53.0845 32.1987C53.3865 32.1987 53.6313 32.4435 53.6313 32.7456V32.758C53.6313 33.06 53.3865 33.3048 53.0845 33.3048Z" fill="#5E5F6A"/>
<path d="M53.0845 36.45C52.7825 36.45 52.5376 36.2052 52.5376 35.9031V35.8906C52.5376 35.5885 52.7825 35.3438 53.0845 35.3438C53.3865 35.3438 53.6313 35.5885 53.6313 35.8906V35.9031C53.6313 36.2051 53.3865 36.45 53.0845 36.45Z" fill="#5E5F6A"/>
<path d="M19.1735 43.1744C19.0812 43.1744 18.9875 43.151 18.9017 43.1017L18.8908 43.0955C18.6289 42.9451 18.5385 42.6107 18.6889 42.3489C18.8393 42.087 19.1736 41.9965 19.4355 42.147L19.4464 42.1532C19.7083 42.3036 19.7987 42.638 19.6483 42.8998C19.5471 43.0759 19.3629 43.1744 19.1735 43.1744Z" fill="#5E5F6A"/>
<path d="M21.8971 44.7472C21.8048 44.7472 21.7112 44.7238 21.6253 44.6745L21.6145 44.6683C21.3525 44.5179 21.2622 44.1835 21.4126 43.9217C21.563 43.6598 21.8973 43.5692 22.1592 43.7198L22.17 43.726C22.4319 43.8764 22.5223 44.2108 22.3719 44.4726C22.2707 44.6487 22.0865 44.7472 21.8971 44.7472Z" fill="#5E5F6A"/>
<path d="M19.1735 43.1744C19.0812 43.1744 18.9875 43.151 18.9017 43.1017L18.8908 43.0955C18.6289 42.9451 18.5385 42.6107 18.6889 42.3489C18.8393 42.087 19.1736 41.9965 19.4355 42.147L19.4464 42.1532C19.7083 42.3036 19.7987 42.638 19.6483 42.8998C19.5471 43.0759 19.3629 43.1744 19.1735 43.1744Z" fill="#5E5F6A"/>
<path d="M21.8971 44.7472C21.8048 44.7472 21.7112 44.7238 21.6253 44.6745L21.6145 44.6683C21.3525 44.5179 21.2622 44.1835 21.4126 43.9217C21.563 43.6598 21.8973 43.5692 22.1592 43.7198L22.17 43.726C22.4319 43.8764 22.5223 44.2108 22.3719 44.4726C22.2707 44.6487 22.0865 44.7472 21.8971 44.7472Z" fill="#5E5F6A"/>
<path d="M21.8874 43.1743C21.6979 43.1743 21.5136 43.0758 21.4126 42.8997C21.2622 42.6377 21.3525 42.3035 21.6145 42.1531L21.6253 42.1469C21.8871 41.9966 22.2215 42.0869 22.3719 42.3488C22.5223 42.6107 22.4319 42.945 22.17 43.0954L22.1592 43.1016C22.0733 43.1508 21.9797 43.1743 21.8874 43.1743Z" fill="#5E5F6A"/>
<path d="M19.1637 44.7471C18.9743 44.7471 18.79 44.6486 18.6889 44.4725C18.5385 44.2106 18.6289 43.8763 18.8908 43.7259L18.9017 43.7197C19.1636 43.5693 19.4979 43.6597 19.6483 43.9216C19.7987 44.1835 19.7083 44.5178 19.4464 44.6682L19.4355 44.6744C19.3497 44.7236 19.256 44.7471 19.1637 44.7471Z" fill="#5E5F6A"/>
<path d="M21.8874 43.1743C21.6979 43.1743 21.5136 43.0758 21.4126 42.8997C21.2622 42.6377 21.3525 42.3035 21.6145 42.1531L21.6253 42.1469C21.8871 41.9966 22.2215 42.0869 22.3719 42.3488C22.5223 42.6107 22.4319 42.945 22.17 43.0954L22.1592 43.1016C22.0733 43.1508 21.9797 43.1743 21.8874 43.1743Z" fill="#5E5F6A"/>
<path d="M19.1637 44.7471C18.9743 44.7471 18.79 44.6486 18.6889 44.4725C18.5385 44.2106 18.6289 43.8763 18.8908 43.7259L18.9017 43.7197C19.1636 43.5693 19.4979 43.6597 19.6483 43.9216C19.7987 44.1835 19.7083 44.5178 19.4464 44.6682L19.4355 44.6744C19.3497 44.7236 19.256 44.7471 19.1637 44.7471Z" fill="#5E5F6A"/>
<path d="M20.5303 42.3914C20.2283 42.3914 19.9834 42.1466 19.9834 41.8445V41.832C19.9834 41.5299 20.2283 41.2852 20.5303 41.2852C20.8323 41.2852 21.0771 41.5299 21.0771 41.832V41.8445C21.0771 42.1466 20.8323 42.3914 20.5303 42.3914Z" fill="#5E5F6A"/>
<path d="M20.5303 45.5363C20.2283 45.5363 19.9834 45.2915 19.9834 44.9894V44.9771C19.9834 44.675 20.2283 44.4302 20.5303 44.4302C20.8323 44.4302 21.0771 44.675 21.0771 44.9771V44.9894C21.0771 45.2915 20.8323 45.5363 20.5303 45.5363Z" fill="#5E5F6A"/>
<defs>
<linearGradient id="paint0_linear" x1="16" y1="43.8492" x2="72" y2="43.8492" gradientUnits="userSpaceOnUse">
<stop stop-color="#D2DEFF" stop-opacity="0"/>
<stop offset="1" stop-color="#5E5F6A"/>
</linearGradient>
</defs>
</svg>
