<svg width="27" height="26" viewBox="0 0 31 26" fill="none" xmlns="http://www.w3.org/2000/svg">
<path d="M31 3.46447C29.8337 3.97184 28.6003 4.30863 27.338 4.46447C28.6701 3.67589 29.6664 2.42586 30.138 0.951473C28.8922 1.69019 27.5292 2.21035 26.108 2.48947C25.2366 1.55917 24.1055 0.912427 22.8617 0.633271C21.618 0.354114 20.319 0.455441 19.1336 0.924092C17.9481 1.39274 16.931 2.20706 16.2144 3.26124C15.4978 4.31543 15.1147 5.56077 15.115 6.83547C15.1099 7.32244 15.1592 7.80844 15.262 8.28447C12.7336 8.16046 10.2598 7.50421 8.00246 6.35863C5.74507 5.21305 3.75488 3.60393 2.162 1.63647C1.3441 3.03461 1.09077 4.69223 1.45373 6.27084C1.8167 7.84945 2.76858 9.22997 4.115 10.1305C3.10812 10.1056 2.12202 9.83874 1.24 9.35247V9.42247C1.24177 10.8901 1.74905 12.3122 2.67647 13.4496C3.60389 14.5871 4.89482 15.3703 6.332 15.6675C5.78838 15.8107 5.22814 15.8809 4.666 15.8765C4.26325 15.8833 3.86094 15.8467 3.466 15.7675C3.87653 17.028 4.66747 18.1305 5.73006 18.9232C6.79266 19.7159 8.07473 20.16 9.4 20.1945C7.15038 21.9539 4.37592 22.9084 1.52 22.9055C1.012 22.9089 0.50429 22.8799 0 22.8185C2.90619 24.6912 6.29271 25.6818 9.75 25.6705C21.445 25.6705 27.839 15.9825 27.839 7.58547C27.839 7.30447 27.829 7.03347 27.816 6.76447C29.0691 5.86716 30.1481 4.74886 31 3.46447Z" fill="black"/>
</svg>
