<svg width="28" height="23" viewBox="0 0 32 23" fill="none" xmlns="http://www.w3.org/2000/svg">
<path d="M30.3748 3.877C30.1975 3.22227 29.8518 2.62539 29.3721 2.14573C28.8925 1.66608 28.2956 1.32037 27.6408 1.143C25.2138 0.479003 15.5068 0.479004 15.5068 0.479004C15.5068 0.479004 5.79985 0.479004 3.37285 1.118C2.71888 1.3048 2.12397 1.65671 1.64534 2.1399C1.1667 2.62309 0.820439 3.2213 0.639846 3.877C0.199478 6.3386 -0.0144157 8.83537 0.000846013 11.336C-0.0152604 13.8367 0.19864 16.3335 0.639846 18.795C0.817371 19.4494 1.16303 20.0459 1.64247 20.5254C2.12191 21.0048 2.71846 21.3505 3.37285 21.528C5.82485 22.192 15.5068 22.192 15.5068 22.192C15.5068 22.192 25.2138 22.192 27.6408 21.553C28.2955 21.3757 28.8923 21.0302 29.3719 20.5507C29.8516 20.0712 30.1973 19.4746 30.3748 18.82C30.8151 16.3584 31.029 13.8616 31.0138 11.361C31.0431 8.85122 30.8291 6.34451 30.3748 3.876V3.877ZM12.4168 15.985V6.687L20.4888 11.336L12.4168 15.985Z" fill="black"/>
</svg>
